<?xml version="1.0" encoding="utf-8"?>
<!-- Generator: Adobe Illustrator 23.0.5, SVG Export Plug-In . SVG Version: 6.00 Build 0)  -->
<svg version="1.1" id="Capa_1" xmlns="http://www.w3.org/2000/svg" xmlns:xlink="http://www.w3.org/1999/xlink" x="0px" y="0px"
	 viewBox="0 0 39.7 39.7" style="enable-background:new 0 0 39.7 39.7;" xml:space="preserve">
<style type="text/css">
	.st0{fill:#FDBF14;}
	.st1{fill:#CE9915;}
	.st2{fill:#2B3033;}
	.st3{fill:#6985BE;}
	.st4{fill:#333A42;}
	.st5{fill:#484F56;}
	.st6{fill:#FFFFFF;}
</style>
<g>
	<path class="st0" d="M38.7,19.9c0,10.4-8.4,18.8-18.8,18.8S1,30.2,1,19.9C1,9.5,9.5,1,19.9,1S38.7,9.5,38.7,19.9z"/>
	<path class="st1" d="M38.3,23.3L25.1,10l0,0c-0.3-0.3-0.6-0.4-1-0.4h-8.3c-0.8,0-1.4,0.6-1.4,1.4v6.1l-1-1h-4v4l5,5v3.7
		c0,0.4,0.2,0.7,0.4,1l0,0l8.6,8.6C30.9,36.9,36.9,30.9,38.3,23.3z"/>
	<g>
		<path class="st2" d="M15.7,9.5H24c0.8,0,1.4,0.6,1.4,1.4v17.8c0,0.8-0.6,1.4-1.4,1.4h-8.3c-0.8,0-1.4-0.6-1.4-1.4V11
			C14.2,10.2,14.9,9.5,15.7,9.5z"/>
		<rect x="15.1" y="12.7" class="st3" width="9.6" height="14.4"/>
		<path class="st4" d="M20.7,28.9c0.2,0,0.3-0.1,0.3-0.3v-0.1c0-0.2-0.1-0.3-0.3-0.3H19c-0.2,0-0.3,0.1-0.3,0.3v0.1
			c0,0.2,0.1,0.3,0.3,0.3H20.7z"/>
		<g>
			<path class="st4" d="M19.5,11.1c0,0.2,0.2,0.4,0.4,0.4c0.2,0,0.4-0.2,0.4-0.4s-0.2-0.4-0.4-0.4C19.6,10.7,19.5,10.9,19.5,11.1z"
				/>
			<path class="st5" d="M19.7,11.1c0,0.1,0.1,0.1,0.1,0.1c0.1,0,0.1-0.1,0.1-0.1c0-0.1-0.1-0.1-0.1-0.1C19.8,11,19.7,11,19.7,11.1z"
				/>
		</g>
		<g>
			<g>
				<rect x="16.1" y="16.1" class="st6" width="0.4" height="0.4"/>
				<path class="st6" d="M16.9,16.1h0.4v0.4h-0.4V16.1z M17.8,16.1h0.4v0.4h-0.4V16.1z M18.7,16.1h0.4v0.4h-0.4V16.1z"/>
				<rect x="19.6" y="16.1" class="st6" width="0.4" height="0.4"/>
				<path class="st6" d="M19.6,18.7H20v0.4h-0.4V18.7z M19.6,17.8H20v0.4h-0.4V17.8z M19.6,16.9H20v0.5h-0.4V16.9z"/>
				<path class="st6" d="M16.9,19.7h0.4v0.4h-0.4V19.7z M17.8,19.7h0.4v0.4h-0.4V19.7z M18.7,19.7h0.4v0.4h-0.4V19.7z"/>
				<rect x="16.1" y="19.6" class="st6" width="0.4" height="0.4"/>
				<path class="st6" d="M16.1,18.7h0.4v0.4h-0.4V18.7z M16.1,17.8h0.4v0.4h-0.4V17.8z M16.1,16.9h0.4v0.5h-0.4V16.9z"/>
			</g>
			<rect x="19.7" y="19.7" class="st2" width="4" height="4"/>
			<rect x="13.2" y="17.8" class="st6" width="2.8" height="0.4"/>
			<rect x="9.2" y="16.1" class="st6" width="4" height="4"/>
			<rect x="23.6" y="21.4" class="st2" width="2.8" height="0.4"/>
			<g>
				<rect x="30.1" y="19.7" class="st2" width="0.4" height="0.4"/>
				<path class="st2" d="M27.3,19.7h0.4v0.4h-0.4V19.7z M28.2,19.7h0.4v0.4h-0.4V19.7z M29.1,19.7h0.4v0.4h-0.4V19.7z"/>
				<rect x="26.5" y="19.7" class="st2" width="0.4" height="0.4"/>
				<path class="st2" d="M26.5,22.3h0.4v0.4h-0.4V22.3z M26.5,21.4h0.4v0.4h-0.4V21.4z M26.5,20.5h0.4V21h-0.4V20.5z"/>
				<rect x="26.5" y="23.2" class="st2" width="0.4" height="0.4"/>
				<path class="st2" d="M27.3,23.2h0.4v0.4h-0.4V23.2z M28.2,23.2h0.4v0.4h-0.4V23.2z M29.1,23.2h0.4v0.4h-0.4V23.2z"/>
				<rect x="30.1" y="23.2" class="st2" width="0.4" height="0.4"/>
				<path class="st2" d="M30.1,22.3h0.4v0.4h-0.4V22.3z M30.1,21.4h0.4v0.4h-0.4V21.4z M30.1,20.5h0.4V21h-0.4V20.5z"/>
			</g>
		</g>
	</g>
</g>
</svg>
