<?xml version="1.0" encoding="utf-8"?>
<!-- Generator: Adobe Illustrator 16.0.0, SVG Export Plug-In . SVG Version: 6.00 Build 0)  -->
<!DOCTYPE svg PUBLIC "-//W3C//DTD SVG 1.1//EN" "http://www.w3.org/Graphics/SVG/1.1/DTD/svg11.dtd">
<svg version="1.1" id="Capa_1" xmlns="http://www.w3.org/2000/svg" xmlns:xlink="http://www.w3.org/1999/xlink" x="0px" y="0px"
	 width="500px" height="500px" viewBox="0 0 500 500" enable-background="new 0 0 500 500" xml:space="preserve">
<g>
	<g>
		<path fill="#343B43" d="M481.482,422.895c0,4.186-1.599,8.37-4.776,11.548c-3.201,3.201-7.386,4.8-11.549,4.8H34.844
			c-4.163,0-8.35-1.599-11.549-4.8c-3.178-3.178-4.777-7.362-4.777-11.548V184.596h462.965V422.895z"/>
		<path fill="#495057" d="M481.482,184.596c0,23.712-9.049,47.401-27.13,65.481c-18.079,18.079-41.77,27.108-65.458,27.108H111.107
			c-23.691,0-47.38-9.029-65.481-27.108c-18.058-18.08-27.108-41.77-27.108-65.481v-53.099c0-4.185,1.6-8.371,4.777-11.549
			c3.199-3.198,7.386-4.799,11.549-4.799h430.313c4.163,0,8.348,1.601,11.549,4.799c3.178,3.178,4.776,7.364,4.776,11.549V184.596z"
			/>
		<path fill="#343B43" d="M329.856,115.149h-20.818V94.331c0-3.419-1.337-6.597-3.748-9.007c-2.389-2.389-5.587-3.726-8.984-3.726
			h-92.589c-3.418,0-6.617,1.337-9.028,3.726c-2.388,2.41-3.726,5.588-3.726,9.007v20.818h-20.818V94.331
			c0-8.985,3.484-17.4,9.817-23.733c6.355-6.334,14.771-9.84,23.755-9.84h92.589c8.941,0,17.378,3.506,23.733,9.84
			c6.334,6.333,9.817,14.748,9.817,23.733V115.149z"/>
		<rect x="65.394" y="105.901" fill="#343B43" width="57.854" height="9.248"/>
		<rect x="376.732" y="105.901" fill="#343B43" width="57.875" height="9.248"/>
		<rect x="224.536" y="245.956" fill="#FFFFFF" width="50.929" height="62.501"/>
		<rect x="224.536" y="115.149" fill="#343B43" width="50.929" height="130.807"/>
		<rect x="224.536" y="308.457" fill="#495057" width="50.929" height="130.785"/>
	</g>
</g>
<g>
</g>
<g>
</g>
<g>
</g>
<g>
</g>
<g>
</g>
<g>
</g>
<g>
</g>
<g>
</g>
<g>
</g>
<g>
</g>
<g>
</g>
<g>
</g>
<g>
</g>
<g>
</g>
<g>
</g>
</svg>
