<?xml version="1.0" encoding="utf-8"?>
<!-- Generator: Adobe Illustrator 23.0.5, SVG Export Plug-In . SVG Version: 6.00 Build 0)  -->
<svg version="1.1" id="Capa_1" xmlns="http://www.w3.org/2000/svg" xmlns:xlink="http://www.w3.org/1999/xlink" x="0px" y="0px"
	 viewBox="0 0 39.7 39.7" style="enable-background:new 0 0 39.7 39.7;" xml:space="preserve">
<style type="text/css">
	.st0{fill:#FDBF14;}
	.st1{fill:#CE9915;}
	.st2{fill-rule:evenodd;clip-rule:evenodd;fill:#CA6253;}
	.st3{fill-rule:evenodd;clip-rule:evenodd;fill:#FFFFFF;}
	.st4{fill-rule:evenodd;clip-rule:evenodd;fill:#CBCAC9;}
	.st5{fill-rule:evenodd;clip-rule:evenodd;fill:#D7D6D6;}
	.st6{fill-rule:evenodd;clip-rule:evenodd;fill:#333A42;}
</style>
<g>
	<ellipse class="st0" cx="19.9" cy="19.8" rx="18.8" ry="18.8"/>
	<path class="st1" d="M38.6,21.6l-8.7-8.7c-0.2-0.2-0.4-0.3-0.7-0.3h-17c-0.2,0-0.5,0.1-0.7,0.3s-0.3,0.4-0.3,0.7v0.9h-0.9
		c-0.2,0-0.5,0.1-0.7,0.3s-0.3,0.4-0.3,0.7v10.7c0,0.2,0.1,0.5,0.3,0.7l11.8,11.8C30.6,37.7,37.7,30.6,38.6,21.6z"/>
	<g>
		<path class="st2" d="M29.2,12.7c0.2,0,0.5,0.1,0.7,0.3s0.3,0.4,0.3,0.7v10.7c0,0.2-0.1,0.5-0.3,0.7c-0.2,0.2-0.4,0.3-0.7,0.3h-17
			c-0.2,0-0.5-0.1-0.7-0.3c-0.2-0.2-0.3-0.4-0.3-0.7V13.6c0-0.2,0.1-0.5,0.3-0.7s0.4-0.3,0.7-0.3L29.2,12.7L29.2,12.7z"/>
		<g>
			<path class="st3" d="M27.4,14.5c0.2,0,0.5,0.1,0.7,0.3s0.3,0.4,0.3,0.7v10.7c0,0.2-0.1,0.5-0.3,0.7c-0.2,0.2-0.4,0.3-0.7,0.3h-17
				c-0.2,0-0.5-0.1-0.7-0.3c-0.2-0.2-0.3-0.4-0.3-0.7V15.5c0-0.2,0.1-0.5,0.3-0.7s0.4-0.3,0.7-0.3C10.4,14.5,27.4,14.5,27.4,14.5z"
				/>
			<g>
				<rect x="11.9" y="24.6" class="st4" width="2.9" height="0.6"/>
				<rect x="15.6" y="24.6" class="st4" width="2.9" height="0.6"/>
				<rect x="19.3" y="24.6" class="st4" width="2.9" height="0.6"/>
				<rect x="23" y="24.6" class="st4" width="2.9" height="0.6"/>
			</g>
			<rect x="11.9" y="20.8" class="st5" width="6.7" height="2"/>
			<rect x="9.5" y="16.3" class="st6" width="18.8" height="2.7"/>
			<path class="st2" d="M24,21.8c0,0.8-0.7,1.5-1.5,1.5S21,22.6,21,21.8s0.7-1.5,1.5-1.5C23.4,20.4,24,21,24,21.8z"/>
			<path class="st6" d="M26,21.8c0,0.8-0.7,1.5-1.5,1.5S23,22.6,23,21.8s0.7-1.5,1.5-1.5C25.3,20.4,26,21,26,21.8z"/>
		</g>
	</g>
</g>
</svg>
