<?xml version="1.0" encoding="utf-8"?>
<!-- Generator: Adobe Illustrator 23.0.5, SVG Export Plug-In . SVG Version: 6.00 Build 0)  -->
<svg version="1.1" id="Capa_1" xmlns="http://www.w3.org/2000/svg" xmlns:xlink="http://www.w3.org/1999/xlink" x="0px" y="0px"
	 viewBox="0 0 39.7 39.7" style="enable-background:new 0 0 39.7 39.7;" xml:space="preserve">
<style type="text/css">
	.st0{fill:#FDBF14;}
	.st1{fill:#CE9915;}
	.st2{fill:#CB6254;}
	.st3{fill:#FFFFFF;}
	.st4{fill:#343B42;}
</style>
<g>
	<path class="st0" d="M38.7,19.8c0,10.4-8.4,18.8-18.8,18.8C9.5,38.7,1,30.2,1,19.8C1,9.5,9.5,1,19.8,1C30.2,1,38.7,9.5,38.7,19.8z"
		/>
	<path class="st1" d="M38.1,24.5L29,15.4c-0.3-0.3-0.7-0.4-1-0.4h-9.8l-4.6-4.6c-0.4-0.4-1-0.7-1.6-0.7H9.3C9,9.7,8.8,10,8.8,10.3
		c0,0.1,0,0.1,0,0.1l0,0c0,0,0,0.1,0.1,0.1l0,0l0,0c0,0.1,0.1,0.1,0.1,0.1l4,4v9c-0.6,0-1.2,0.2-1.6,0.7c-0.4,0.4-0.7,1-0.7,1.6
		s0.2,1.2,0.7,1.6l10.8,10.8C30,37.5,36.2,31.9,38.1,24.5z"/>
	<g>
		<path class="st2" d="M29,15.5c-0.3-0.3-0.7-0.4-1.1-0.4H13v8.7h14.9c0.4,0,0.8-0.1,1.1-0.4c0.3-0.3,0.4-0.7,0.4-1.1v-5.7
			C29.4,16.1,29.3,15.8,29,15.5z M15.3,21.8c0,0.2-0.2,0.4-0.4,0.4s-0.4-0.2-0.4-0.4V21c0-0.2,0.2-0.4,0.4-0.4s0.4,0.2,0.4,0.4V21.8
			z M15.3,19.8c0,0.2-0.2,0.4-0.4,0.4s-0.4-0.2-0.4-0.4V19c0-0.2,0.2-0.4,0.4-0.4s0.4,0.2,0.4,0.4V19.8z M15.3,17.7
			c0,0.2-0.2,0.4-0.4,0.4s-0.4-0.2-0.4-0.4v-0.8c0-0.2,0.2-0.4,0.4-0.4s0.4,0.2,0.4,0.4V17.7z M17.4,21.8c0,0.2-0.2,0.4-0.4,0.4
			s-0.4-0.2-0.4-0.4V21c0-0.2,0.2-0.4,0.4-0.4s0.4,0.2,0.4,0.4V21.8z M17.4,19.8c0,0.2-0.2,0.4-0.4,0.4s-0.4-0.2-0.4-0.4V19
			c0-0.2,0.2-0.4,0.4-0.4s0.4,0.2,0.4,0.4V19.8z M17.4,17.7c0,0.2-0.2,0.4-0.4,0.4s-0.4-0.2-0.4-0.4v-0.8c0-0.2,0.2-0.4,0.4-0.4
			s0.4,0.2,0.4,0.4V17.7z M19.5,21.8c0,0.2-0.2,0.4-0.4,0.4s-0.4-0.2-0.4-0.4V21c0-0.2,0.2-0.4,0.4-0.4s0.4,0.2,0.4,0.4V21.8z
			 M19.5,19.8c0,0.2-0.2,0.4-0.4,0.4s-0.4-0.2-0.4-0.4V19c0-0.2,0.2-0.4,0.4-0.4s0.4,0.2,0.4,0.4V19.8z M19.5,17.7
			c0,0.2-0.2,0.4-0.4,0.4s-0.4-0.2-0.4-0.4v-0.8c0-0.2,0.2-0.4,0.4-0.4s0.4,0.2,0.4,0.4V17.7z M21.6,21.8c0,0.2-0.2,0.4-0.4,0.4
			s-0.4-0.2-0.4-0.4V21c0-0.2,0.2-0.4,0.4-0.4s0.4,0.2,0.4,0.4V21.8z M21.6,19.8c0,0.2-0.2,0.4-0.4,0.4s-0.4-0.2-0.4-0.4V19
			c0-0.2,0.2-0.4,0.4-0.4s0.4,0.2,0.4,0.4V19.8z M21.6,17.7c0,0.2-0.2,0.4-0.4,0.4s-0.4-0.2-0.4-0.4v-0.8c0-0.2,0.2-0.4,0.4-0.4
			s0.4,0.2,0.4,0.4V17.7z M23.7,21.8c0,0.2-0.2,0.4-0.4,0.4c-0.2,0-0.4-0.2-0.4-0.4V21c0-0.2,0.2-0.4,0.4-0.4c0.2,0,0.4,0.2,0.4,0.4
			V21.8z M23.7,19.8c0,0.2-0.2,0.4-0.4,0.4c-0.2,0-0.4-0.2-0.4-0.4V19c0-0.2,0.2-0.4,0.4-0.4c0.2,0,0.4,0.2,0.4,0.4V19.8z
			 M23.7,17.7c0,0.2-0.2,0.4-0.4,0.4c-0.2,0-0.4-0.2-0.4-0.4v-0.8c0-0.2,0.2-0.4,0.4-0.4c0.2,0,0.4,0.2,0.4,0.4V17.7z M25.8,21.8
			c0,0.2-0.2,0.4-0.4,0.4c-0.2,0-0.4-0.2-0.4-0.4V21c0-0.2,0.2-0.4,0.4-0.4c0.2,0,0.4,0.2,0.4,0.4V21.8z M25.8,19.8
			c0,0.2-0.2,0.4-0.4,0.4c-0.2,0-0.4-0.2-0.4-0.4V19c0-0.2,0.2-0.4,0.4-0.4c0.2,0,0.4,0.2,0.4,0.4V19.8z M25.8,17.7
			c0,0.2-0.2,0.4-0.4,0.4c-0.2,0-0.4-0.2-0.4-0.4v-0.8c0-0.2,0.2-0.4,0.4-0.4c0.2,0,0.4,0.2,0.4,0.4V17.7z M27.9,21.8
			c0,0.2-0.2,0.4-0.4,0.4c-0.2,0-0.4-0.2-0.4-0.4V21c0-0.2,0.2-0.4,0.4-0.4c0.2,0,0.4,0.2,0.4,0.4V21.8z M27.9,19.8
			c0,0.2-0.2,0.4-0.4,0.4c-0.2,0-0.4-0.2-0.4-0.4V19c0-0.2,0.2-0.4,0.4-0.4c0.2,0,0.4,0.2,0.4,0.4V19.8z M27.9,17.7
			c0,0.2-0.2,0.4-0.4,0.4c-0.2,0-0.4-0.2-0.4-0.4v-0.8c0-0.2,0.2-0.4,0.4-0.4c0.2,0,0.4,0.2,0.4,0.4V17.7z"/>
		<path class="st3" d="M27.5,28.3H13c-0.6,0-1.2-0.2-1.6-0.7c-0.4-0.4-0.7-1-0.7-1.6s0.2-1.2,0.7-1.6c0.4-0.4,1-0.7,1.6-0.7h14.3
			c0.3,0,0.5,0.2,0.5,0.5s-0.2,0.5-0.5,0.5H13c-0.3,0-0.6,0.1-0.8,0.3c-0.2,0.2-0.3,0.5-0.3,0.8s0.1,0.6,0.3,0.8
			c0.2,0.2,0.5,0.3,0.8,0.3h14.4c0.3,0,0.5,0.2,0.5,0.5C28,28.1,27.8,28.3,27.5,28.3z"/>
		<g>
			<path class="st4" d="M8.8,10.3c0,0.3,0.2,0.5,0.5,0.5h2.5V9.7H9.3C9,9.7,8.8,10,8.8,10.3z"/>
			<path class="st3" d="M13.5,10.4c-0.4-0.4-1-0.7-1.6-0.7v1.1c0.3,0,0.6,0.1,0.8,0.3s0.3,0.5,0.3,0.8v3h1.1v-3
				C14.1,11.4,13.9,10.8,13.5,10.4z"/>
		</g>
		<g>
			<path class="st4" d="M29.4,27.8c0,1-0.8,1.7-1.7,1.7c-1,0-1.7-0.8-1.7-1.7c0-1,0.8-1.7,1.7-1.7C28.7,26,29.4,26.8,29.4,27.8z"/>
			<path class="st3" d="M28.5,27.8c0,0.4-0.3,0.8-0.8,0.8c-0.4,0-0.8-0.3-0.8-0.8c0-0.4,0.3-0.8,0.8-0.8
				C28.1,27,28.5,27.3,28.5,27.8z"/>
		</g>
		<g>
			<path class="st4" d="M16.5,27.8c0,1-0.8,1.7-1.7,1.7c-1,0-1.7-0.8-1.7-1.7c0-1,0.8-1.7,1.7-1.7C15.7,26,16.5,26.8,16.5,27.8z"/>
			<path class="st3" d="M15.5,27.8c0,0.4-0.3,0.8-0.8,0.8c-0.4,0-0.8-0.3-0.8-0.8c0-0.4,0.3-0.8,0.8-0.8S15.5,27.3,15.5,27.8z"/>
		</g>
	</g>
</g>
</svg>
