<?xml version="1.0" encoding="utf-8"?>
<!-- Generator: Adobe Illustrator 23.0.5, SVG Export Plug-In . SVG Version: 6.00 Build 0)  -->
<svg version="1.1" id="Capa_1" xmlns="http://www.w3.org/2000/svg" xmlns:xlink="http://www.w3.org/1999/xlink" x="0px" y="0px"
	 viewBox="0 0 39.7 39.7" style="enable-background:new 0 0 39.7 39.7;" xml:space="preserve">
<style type="text/css">
	.st0{fill:#FDBF14;}
	.st1{fill:#CE9915;}
	.st2{fill:#333A42;}
	.st3{fill:#FFFFFF;}
	.st4{fill:#CBCAC9;}
</style>
<g>
	<path class="st0" d="M38.7,19.9c0,10.4-8.4,18.8-18.8,18.8S1,30.2,1,19.9C1,9.5,9.5,1,19.8,1S38.7,9.5,38.7,19.9z"/>
	<path class="st1" d="M38.6,21.9L28.4,11.7L28,11.3c-1.2-1.1-2.8-1.7-4.5-1.7c-3.7,0-6.7,3-6.7,6.7v4.5l-2.3-2.3l0,0L12,16
		c-0.1-0.1-0.2-0.2-0.4-0.2s-0.3,0.1-0.4,0.2l-0.8,0.8c-1.7,1.7-0.6,5.6,2.4,9L14,27l11,11C32.2,35.9,37.7,29.6,38.6,21.9z"/>
	<g>
		<g>
			<g>
				<path class="st2" d="M13.3,26.4c3.5,3.5,7.7,4.8,9.6,3l-3.3-3.3c-0.7,0.7-2.7,0-4.3-1.7c-1.7-1.7-2.4-3.6-1.7-4.3l-3.3-3.3
					C8.5,18.7,9.9,22.9,13.3,26.4z"/>
				<path class="st2" d="M11.2,16c0.1-0.1,0.2-0.2,0.4-0.2s0.3,0.1,0.4,0.2l2.5,2.5c0.1,0.1,0.2,0.2,0.2,0.4c0,0.2-0.1,0.3-0.2,0.4
					l-0.8,0.8l-3.3-3.3L11.2,16z"/>
				<path class="st2" d="M20.4,25.3c0.1-0.1,0.2-0.2,0.4-0.2c0.2,0,0.3,0.1,0.4,0.2l2.5,2.5c0.1,0.1,0.2,0.2,0.2,0.4
					c0,0.2-0.1,0.3-0.2,0.4l-0.8,0.8l-3.3-3.3L20.4,25.3z"/>
			</g>
		</g>
		<g>
			<g>
				<path class="st3" d="M23.4,23c-3.7,0-6.7-3-6.7-6.7s3-6.7,6.7-6.7s6.7,3,6.7,6.7C30.2,20,27.1,23,23.4,23z"/>
				<polygon class="st3" points="16.7,22.5 16.7,16.2 22.9,16.2 				"/>
			</g>
			<g>
				<path class="st4" d="M22.4,16.2c0,0.2-0.2,0.4-0.4,0.4c-0.2,0-0.4-0.2-0.4-0.4c0-0.2,0.2-0.4,0.4-0.4
					C22.2,15.8,22.4,16,22.4,16.2z"/>
				<path class="st4" d="M23.9,16.2c0,0.2-0.2,0.4-0.4,0.4c-0.2,0-0.4-0.2-0.4-0.4c0-0.2,0.2-0.4,0.4-0.4
					C23.7,15.8,23.9,16,23.9,16.2z"/>
				<path class="st4" d="M25.4,16.2c0,0.2-0.2,0.4-0.4,0.4c-0.2,0-0.4-0.2-0.4-0.4c0-0.2,0.2-0.4,0.4-0.4
					C25.2,15.8,25.4,16,25.4,16.2z"/>
			</g>
			<g>
				<g>
					<path class="st4" d="M23.4,21c-1.8,0-3.4-1-4.2-2.6l1-0.5c0.6,1.2,1.9,2,3.2,2s2.6-0.8,3.2-2c0.3-0.5,0.4-1.1,0.4-1.6h1.1
						c0,0.8-0.2,1.5-0.5,2.2C26.9,20,25.2,21,23.4,21z"/>
					<g>
						<polygon class="st4" points="19.1,16.9 18.5,18.8 19.7,18.2 						"/>
						<polygon class="st4" points="19.1,16.9 21,17.5 19.7,18.2 						"/>
					</g>
				</g>
				<g>
					<path class="st4" d="M19.8,16.2h-1.1c0-0.8,0.2-1.5,0.5-2.2c0.8-1.6,2.4-2.6,4.2-2.6s3.4,1,4.2,2.6l-1,0.5
						c-0.6-1.2-1.9-2-3.2-2s-2.6,0.8-3.2,2C20,15.1,19.8,15.7,19.8,16.2z"/>
					<g>
						<polygon class="st4" points="27.8,15.6 28.4,13.7 27.2,14.3 						"/>
						<polygon class="st4" points="27.8,15.6 25.9,15 27.2,14.3 						"/>
					</g>
				</g>
			</g>
		</g>
	</g>
</g>
</svg>
