<?xml version="1.0" encoding="utf-8"?>
<!-- Generator: Adobe Illustrator 23.0.5, SVG Export Plug-In . SVG Version: 6.00 Build 0)  -->
<svg version="1.1" id="Capa_1" xmlns="http://www.w3.org/2000/svg" xmlns:xlink="http://www.w3.org/1999/xlink" x="0px" y="0px"
	 viewBox="0 0 39.7 39.7" style="enable-background:new 0 0 39.7 39.7;" xml:space="preserve">
<style type="text/css">
	.st0{fill:#FDBF14;}
	.st1{fill:#CE9915;}
	.st2{fill:#E8C98B;}
	.st3{fill:#FFFFFF;}
	.st4{fill:#485057;}
</style>
<g>
	<path class="st0" d="M38.7,19.8c0,10.4-8.4,18.8-18.8,18.8C9.5,38.7,1,30.2,1,19.8S9.5,1,19.8,1C30.2,1,38.7,9.5,38.7,19.8z"/>
	<path class="st1" d="M38.4,22.9l-9.2-9.2c-0.1-0.1-0.3-0.2-0.5-0.2H17.8l-1.6-1.6c-0.1-0.1-0.3-0.2-0.5-0.2H11
		c-0.2,0-0.4,0.1-0.5,0.2L10.4,12c-0.1,0.1-0.1,0.3-0.1,0.4v3c-0.2,0-0.4,0.1-0.5,0.2c-0.1,0.1-0.2,0.3-0.2,0.5v11.3
		c0,0.2,0.1,0.4,0.2,0.5l10.8,10.8C29.6,38.3,37,31.6,38.4,22.9z"/>
	<g>
		<g>
			<path class="st2" d="M16.4,13.4v-1.1c0-0.2-0.1-0.4-0.2-0.5s-0.3-0.2-0.5-0.2H11c-0.2,0-0.4,0.1-0.5,0.2
				c-0.1,0.1-0.2,0.3-0.2,0.5v3h19.2v-1.1c0-0.2-0.1-0.4-0.2-0.5s-0.3-0.2-0.5-0.2L16.4,13.4L16.4,13.4z"/>
			<path class="st3" d="M28.7,26.6c0,0.2-0.1,0.4-0.2,0.5s-0.3,0.2-0.5,0.2H11.7c-0.2,0-0.4-0.1-0.5-0.2C11.1,27,11,26.8,11,26.6
				V15.3c0-0.2,0.1-0.4,0.2-0.5c0.1-0.1,0.3-0.2,0.5-0.2H28c0.2,0,0.4,0.1,0.5,0.2c0.1,0.1,0.2,0.3,0.2,0.5V26.6z"/>
			<path class="st2" d="M30.2,27.4c0,0.2-0.1,0.4-0.2,0.5s-0.3,0.2-0.5,0.2H10.3c-0.2,0-0.4-0.1-0.5-0.2s-0.2-0.3-0.2-0.5V16
				c0-0.2,0.1-0.4,0.2-0.5c0.1-0.1,0.3-0.2,0.5-0.2h19.2c0.2,0,0.4,0.1,0.5,0.2c0.1,0.1,0.2,0.3,0.2,0.5V27.4z"/>
		</g>
		<g>
			<path class="st3" d="M24.3,21.7c0,2.5-2,4.5-4.5,4.5s-4.5-2-4.5-4.5s2-4.5,4.5-4.5S24.3,19.2,24.3,21.7z"/>
			<g>
				<g>
					<path class="st4" d="M19.8,25.1c-1.9,0-3.4-1.5-3.4-3.4s1.5-3.4,3.4-3.4s3.4,1.5,3.4,3.4C23.2,23.6,21.7,25.1,19.8,25.1z
						 M19.8,18.8c-1.6,0-2.9,1.3-2.9,2.9s1.3,2.9,2.9,2.9s2.9-1.3,2.9-2.9C22.8,20.1,21.5,18.8,19.8,18.8z"/>
					<path class="st4" d="M19.8,25.1c-1,0-1.8-1.5-1.8-3.4s0.8-3.4,1.8-3.4v0.4c-0.7,0-1.4,1.4-1.4,2.9c0,1.6,0.6,2.9,1.4,2.9V25.1z
						"/>
					<path class="st4" d="M19.8,25.1v-0.4c0.7,0,1.4-1.3,1.4-2.9s-0.6-2.9-1.4-2.9v-0.4c1,0,1.8,1.5,1.8,3.4
						C21.6,23.6,20.8,25.1,19.8,25.1z"/>
					<rect x="19.6" y="18.5" class="st4" width="0.4" height="6.3"/>
					<rect x="16.7" y="21.5" class="st4" width="6.3" height="0.4"/>
					<path class="st4" d="M19.8,20.3c-0.9,0-1.7-0.1-2.5-0.4l0.1-0.4c1.5,0.5,3.3,0.5,4.8,0l0.1,0.4C21.6,20.2,20.7,20.3,19.8,20.3z
						"/>
					<path class="st4" d="M17.4,23.9l-0.1-0.4c1.6-0.5,3.4-0.5,5.1,0l-0.1,0.4C20.7,23.4,19,23.4,17.4,23.9z"/>
				</g>
			</g>
		</g>
	</g>
</g>
</svg>
