<?xml version="1.0" encoding="utf-8"?>
<!-- Generator: Adobe Illustrator 23.0.5, SVG Export Plug-In . SVG Version: 6.00 Build 0)  -->
<svg version="1.1" id="Capa_1" xmlns="http://www.w3.org/2000/svg" xmlns:xlink="http://www.w3.org/1999/xlink" x="0px" y="0px"
	 viewBox="0 0 39.7 39.7" style="enable-background:new 0 0 39.7 39.7;" xml:space="preserve">
<style type="text/css">
	.st0{fill:#FDBF14;}
	.st1{fill:#CE9915;}
	.st2{fill:#D7D6D6;}
	.st3{fill:#FFFFFF;}
	.st4{fill:#333A42;}
	.st5{fill:#EAC369;}
	.st6{fill:#E2AC48;}
</style>
<g>
	<ellipse class="st0" cx="19.8" cy="19.9" rx="18.8" ry="18.8"/>
	<path class="st1" d="M38.7,19.9L38.7,19.9L30,11.1c-0.1-0.1-0.3-0.2-0.5-0.2H10.3c-0.2,0-0.4,0.1-0.5,0.2c-0.1,0.1-0.2,0.3-0.2,0.5
		v14.9c0,0.2,0.1,0.4,0.2,0.5l11.5,11.5C31,37.9,38.7,29.8,38.7,19.9z"/>
	<g>
		<g>
			<rect x="16.8" y="27.3" class="st2" width="6.1" height="2.7"/>
			<rect x="15.4" y="30" class="st3" width="9" height="0.7"/>
			<path class="st4" d="M9.5,24.9V11.6c0-0.2,0.1-0.4,0.2-0.5c0.1-0.1,0.3-0.2,0.5-0.2h19.2c0.2,0,0.4,0.1,0.5,0.2
				c0.1,0.1,0.2,0.3,0.2,0.5v13.2H9.5V24.9z"/>
			<rect x="10.9" y="12.3" class="st3" width="18" height="11.3"/>
			<path class="st3" d="M30.2,26.6c0,0.2-0.1,0.4-0.2,0.5s-0.3,0.2-0.5,0.2H10.3c-0.2,0-0.4-0.1-0.5-0.2s-0.2-0.3-0.2-0.5v-1.7h20.6
				V26.6z"/>
		</g>
		<g>
			<g>
				<path class="st5" d="M23.8,17.9c0,2.2-1.8,3.9-3.9,3.9c-2.2,0-3.9-1.8-3.9-3.9c0-2.2,1.8-3.9,3.9-3.9S23.8,15.7,23.8,17.9z"/>
				<path class="st6" d="M23,17.9c0,1.7-1.4,3.2-3.2,3.2c-1.7,0-3.2-1.4-3.2-3.2c0-1.7,1.4-3.2,3.2-3.2C21.6,14.8,23,16.2,23,17.9z"
					/>
				<g>
					<g>
						<path class="st5" d="M20.2,18.2h-0.7c-0.3,0-0.5-0.1-0.7-0.3c-0.2-0.2-0.3-0.5-0.3-0.7c0-0.3,0.1-0.5,0.3-0.7
							c0.2-0.2,0.5-0.3,0.7-0.3H21v0.5h-1.4c-0.1,0-0.3,0.1-0.4,0.1C19.1,16.9,19,17,19,17.1s0.1,0.3,0.1,0.4
							c0.1,0.1,0.2,0.2,0.4,0.2h0.7V18.2z"/>
						<path class="st5" d="M20.2,19.7h-1.4v-0.5h1.4c0.1,0,0.3-0.1,0.4-0.2s0.2-0.2,0.2-0.4c0-0.1-0.1-0.3-0.1-0.4
							c-0.1-0.1-0.2-0.2-0.4-0.2h-0.7v-0.5h0.7c0.3,0,0.5,0.1,0.7,0.3c0.2,0.2,0.3,0.5,0.3,0.7c0,0.3-0.1,0.5-0.3,0.7
							C20.7,19.6,20.5,19.7,20.2,19.7z"/>
						<rect x="19.6" y="15.9" class="st5" width="0.5" height="4"/>
					</g>
				</g>
			</g>
			<g>
				<g>
					<g>
						<rect x="24.3" y="17.7" class="st4" width="1.2" height="0.4"/>
						
							<rect x="24.1" y="16.4" transform="matrix(0.9672 -0.254 0.254 0.9672 -3.4048 6.8315)" class="st4" width="1.3" height="0.4"/>
						<polygon class="st4" points="25.4,19.2 25.3,19.6 24.1,19.3 24.2,18.9 						"/>
					</g>
					<g>
						<rect x="14.1" y="17.7" class="st4" width="1.2" height="0.4"/>
						
							<rect x="14.8" y="16" transform="matrix(0.2607 -0.9654 0.9654 0.2607 -4.9954 26.7788)" class="st4" width="0.4" height="1.3"/>
						
							<rect x="14.3" y="19" transform="matrix(0.9656 -0.2602 0.2602 0.9656 -4.4808 4.5498)" class="st4" width="1.3" height="0.4"/>
					</g>
				</g>
			</g>
		</g>
		<g>
			<g>
				<polygon class="st4" points="22.7,22.1 21.7,19.8 24.1,20.7 23.2,21.2 				"/>
				
					<rect x="23.3" y="21" transform="matrix(0.7071 -0.7071 0.7071 0.7071 -8.3368 22.9256)" class="st4" width="0.4" height="1.1"/>
			</g>
		</g>
	</g>
</g>
</svg>
