<?xml version="1.0" encoding="utf-8"?>
<!-- Generator: Adobe Illustrator 23.0.5, SVG Export Plug-In . SVG Version: 6.00 Build 0)  -->
<svg version="1.1" id="Capa_1" xmlns="http://www.w3.org/2000/svg" xmlns:xlink="http://www.w3.org/1999/xlink" x="0px" y="0px"
	 viewBox="0 0 39.7 39.7" style="enable-background:new 0 0 39.7 39.7;" xml:space="preserve">
<style type="text/css">
	.st0{fill:#FDBF14;}
	.st1{fill:#CE9915;}
	.st2{fill:#485057;}
	.st3{fill:#FFFFFF;}
	.st4{fill:#CCCBCA;}
	.st5{fill:#CB6254;}
</style>
<g>
	<ellipse class="st0" cx="19.8" cy="19.8" rx="18.8" ry="18.8"/>
	<path class="st1" d="M38.6,20.2L29.4,11l0,0l-0.1-0.1l0,0c-0.1-0.1-0.2-0.1-0.3-0.1h-0.6h-5.7H10.6c-0.3,0-0.5,0.2-0.5,0.5v4.3v0.1
		l0,0l0,0c0,0,0,0,0,0.1l0,0c0,0,0,0,0,0.1l0,0l0,0l0,0l0,0l0,0l0,0l1.1,1.1h-0.8c-0.3,0-0.5,0.2-0.5,0.5V22v0.1l0,0c0,0,0,0,0,0.1
		l0,0c0,0,0,0,0,0.1l0,0l0,0l0,0l0,0l0,0l0,0l0,0l1.1,1.1h-0.8c-0.3,0-0.5,0.2-0.5,0.5v4.3c0,0.1,0,0.2,0.1,0.3l0,0l0.1,0.1l0,0
		l9.9,9.9C30.3,38.4,38.4,30.3,38.6,20.2z"/>
	<g>
		<rect x="11.5" y="16.2" class="st2" width="16.6" height="13.7"/>
		<g>
			<path class="st3" d="M29.6,15.7c0,0.3-0.2,0.5-0.5,0.5H10.6c-0.3,0-0.5-0.2-0.5-0.5v-4.3c0-0.3,0.2-0.5,0.5-0.5H29
				c0.3,0,0.5,0.2,0.5,0.5v4.3H29.6z"/>
			<g>
				<g>
					<rect x="11.5" y="12.2" class="st4" width="0.5" height="0.5"/>
					<rect x="12.5" y="12.2" class="st4" width="0.5" height="0.5"/>
					<rect x="13.6" y="12.2" class="st4" width="0.5" height="0.5"/>
					<rect x="14.6" y="12.2" class="st4" width="0.5" height="0.5"/>
					<rect x="15.6" y="12.2" class="st4" width="0.5" height="0.5"/>
					<rect x="16.6" y="12.2" class="st4" width="0.5" height="0.5"/>
					<rect x="17.6" y="12.2" class="st4" width="0.5" height="0.5"/>
					<rect x="18.6" y="12.2" class="st4" width="0.5" height="0.5"/>
				</g>
				<g>
					<rect x="11.5" y="13.3" class="st4" width="0.5" height="0.5"/>
					<rect x="12.5" y="13.3" class="st4" width="0.5" height="0.5"/>
					<rect x="13.6" y="13.3" class="st4" width="0.5" height="0.5"/>
					<rect x="14.6" y="13.3" class="st4" width="0.5" height="0.5"/>
					<rect x="15.6" y="13.3" class="st4" width="0.5" height="0.5"/>
					<rect x="16.6" y="13.3" class="st4" width="0.5" height="0.5"/>
					<rect x="17.6" y="13.3" class="st4" width="0.5" height="0.5"/>
					<rect x="18.6" y="13.3" class="st4" width="0.5" height="0.5"/>
				</g>
				<g>
					<rect x="11.5" y="14.3" class="st4" width="0.5" height="0.5"/>
					<rect x="12.5" y="14.3" class="st4" width="0.5" height="0.5"/>
					<rect x="13.6" y="14.3" class="st4" width="0.5" height="0.5"/>
					<rect x="14.6" y="14.3" class="st4" width="0.5" height="0.5"/>
					<rect x="15.6" y="14.3" class="st4" width="0.5" height="0.5"/>
					<rect x="16.6" y="14.3" class="st4" width="0.5" height="0.5"/>
					<rect x="17.6" y="14.3" class="st4" width="0.5" height="0.5"/>
					<rect x="18.6" y="14.3" class="st4" width="0.5" height="0.5"/>
				</g>
			</g>
			<g>
				<rect x="27.1" y="13" class="st5" width="1" height="1"/>
				<rect x="25.1" y="13" class="st2" width="1" height="1"/>
				<rect x="23.1" y="13" class="st2" width="1" height="1"/>
			</g>
		</g>
		<g>
			<path class="st3" d="M29.6,22c0,0.3-0.2,0.5-0.5,0.5H10.6c-0.3,0-0.5-0.2-0.5-0.5v-4.3c0-0.3,0.2-0.5,0.5-0.5H29
				c0.3,0,0.5,0.2,0.5,0.5V22H29.6z"/>
			<g>
				<g>
					<rect x="11.5" y="18.6" class="st4" width="0.5" height="0.5"/>
					<rect x="12.5" y="18.6" class="st4" width="0.5" height="0.5"/>
					<rect x="13.6" y="18.6" class="st4" width="0.5" height="0.5"/>
					<rect x="14.6" y="18.6" class="st4" width="0.5" height="0.5"/>
					<rect x="15.6" y="18.6" class="st4" width="0.5" height="0.5"/>
					<rect x="16.6" y="18.6" class="st4" width="0.5" height="0.5"/>
					<rect x="17.6" y="18.6" class="st4" width="0.5" height="0.5"/>
					<rect x="18.6" y="18.6" class="st4" width="0.5" height="0.5"/>
				</g>
				<g>
					<rect x="11.5" y="19.6" class="st4" width="0.5" height="0.5"/>
					<rect x="12.5" y="19.6" class="st4" width="0.5" height="0.5"/>
					<rect x="13.6" y="19.6" class="st4" width="0.5" height="0.5"/>
					<rect x="14.6" y="19.6" class="st4" width="0.5" height="0.5"/>
					<rect x="15.6" y="19.6" class="st4" width="0.5" height="0.5"/>
					<rect x="16.6" y="19.6" class="st4" width="0.5" height="0.5"/>
					<rect x="17.6" y="19.6" class="st4" width="0.5" height="0.5"/>
					<rect x="18.6" y="19.6" class="st4" width="0.5" height="0.5"/>
				</g>
				<g>
					<rect x="11.5" y="20.6" class="st4" width="0.5" height="0.5"/>
					<rect x="12.5" y="20.6" class="st4" width="0.5" height="0.5"/>
					<rect x="13.6" y="20.6" class="st4" width="0.5" height="0.5"/>
					<rect x="14.6" y="20.6" class="st4" width="0.5" height="0.5"/>
					<rect x="15.6" y="20.6" class="st4" width="0.5" height="0.5"/>
					<rect x="16.6" y="20.6" class="st4" width="0.5" height="0.5"/>
					<rect x="17.6" y="20.6" class="st4" width="0.5" height="0.5"/>
					<rect x="18.6" y="20.6" class="st4" width="0.5" height="0.5"/>
				</g>
			</g>
			<g>
				<rect x="27.1" y="19.3" class="st2" width="1" height="1"/>
				<rect x="25.1" y="19.3" class="st2" width="1" height="1"/>
				<rect x="23.1" y="19.3" class="st5" width="1" height="1"/>
			</g>
		</g>
		<g>
			<path class="st3" d="M29.6,28.3c0,0.3-0.2,0.5-0.5,0.5H10.6c-0.3,0-0.5-0.2-0.5-0.5V24c0-0.3,0.2-0.5,0.5-0.5H29
				c0.3,0,0.5,0.2,0.5,0.5v4.3H29.6z"/>
			<g>
				<g>
					<rect x="11.5" y="24.9" class="st4" width="0.5" height="0.5"/>
					<rect x="12.5" y="24.9" class="st4" width="0.5" height="0.5"/>
					<rect x="13.6" y="24.9" class="st4" width="0.5" height="0.5"/>
					<rect x="14.6" y="24.9" class="st4" width="0.5" height="0.5"/>
					<rect x="15.6" y="24.9" class="st4" width="0.5" height="0.5"/>
					<rect x="16.6" y="24.9" class="st4" width="0.5" height="0.5"/>
					<rect x="17.6" y="24.9" class="st4" width="0.5" height="0.5"/>
					<rect x="18.6" y="24.9" class="st4" width="0.5" height="0.5"/>
				</g>
				<g>
					<rect x="11.5" y="25.9" class="st4" width="0.5" height="0.5"/>
					<rect x="12.5" y="25.9" class="st4" width="0.5" height="0.5"/>
					<rect x="13.6" y="25.9" class="st4" width="0.5" height="0.5"/>
					<rect x="14.6" y="25.9" class="st4" width="0.5" height="0.5"/>
					<rect x="15.6" y="25.9" class="st4" width="0.5" height="0.5"/>
					<rect x="16.6" y="25.9" class="st4" width="0.5" height="0.5"/>
					<rect x="17.6" y="25.9" class="st4" width="0.5" height="0.5"/>
					<rect x="18.6" y="25.9" class="st4" width="0.5" height="0.5"/>
				</g>
				<g>
					<rect x="11.5" y="26.9" class="st4" width="0.5" height="0.5"/>
					<rect x="12.5" y="26.9" class="st4" width="0.5" height="0.5"/>
					<rect x="13.6" y="26.9" class="st4" width="0.5" height="0.5"/>
					<rect x="14.6" y="26.9" class="st4" width="0.5" height="0.5"/>
					<rect x="15.6" y="26.9" class="st4" width="0.5" height="0.5"/>
					<rect x="16.6" y="26.9" class="st4" width="0.5" height="0.5"/>
					<rect x="17.6" y="26.9" class="st4" width="0.5" height="0.5"/>
					<rect x="18.6" y="26.9" class="st4" width="0.5" height="0.5"/>
				</g>
			</g>
			<g>
				<rect x="27.1" y="25.7" class="st2" width="1" height="1"/>
				<rect x="25.1" y="25.7" class="st5" width="1" height="1"/>
				<rect x="23.1" y="25.7" class="st2" width="1" height="1"/>
			</g>
		</g>
	</g>
</g>
</svg>
