<?xml version="1.0" encoding="utf-8"?>
<!-- Generator: Adobe Illustrator 23.0.5, SVG Export Plug-In . SVG Version: 6.00 Build 0)  -->
<svg version="1.1" id="Capa_1" xmlns="http://www.w3.org/2000/svg" xmlns:xlink="http://www.w3.org/1999/xlink" x="0px" y="0px"
	 viewBox="0 0 28.3 39.7" style="enable-background:new 0 0 28.3 39.7;" xml:space="preserve">
<style type="text/css">
	.st0{fill:#E6B430;}
	.st1{fill:#FFFFFF;}
	.st2{fill:#E6E5E4;}
</style>
<g>
	<g>
		<g>
			<g>
				<path class="st0" d="M8.2,34.8c0.7-0.7,1.6-1,2.5-1h7c0.9,0,1.8,0.3,2.5,1c0.5,0.5,0.8,1.1,0.9,1.7c1.2-1.6,1.9-3.7,1.9-5.9
					c0-5.3-3.9-9.7-8.8-9.7c-4.9,0-8.8,4.3-8.8,9.7c0,2.2,0.7,4.3,1.9,5.9C7.4,35.8,7.7,35.2,8.2,34.8z"/>
			</g>
		</g>
		<path class="st1" d="M20,20.9c0,8.1-2.6,14.7-5.9,14.7c-3.2,0-5.9-6.6-5.9-14.7c0-8.1,2.6-14.7,5.9-14.7C17.4,6.2,20,12.8,20,20.9
			z"/>
		<path class="st0" d="M11.3,33.7c0.8,1.2,1.8,1.8,2.8,1.8c1,0,2-0.7,2.8-1.8H11.3z"/>
		<path class="st0" d="M14.2,36.4c0.4-1.8,0.5-3.6,0.5-5.5c0-1.9-0.2-3.7-0.5-5.5c-0.4,1.8-0.5,3.6-0.5,5.5
			C13.6,32.8,13.8,34.6,14.2,36.4z"/>
		<path class="st0" d="M10.1,10.3h8.2c-1.1-2.6-2.5-4.1-4.1-4.1C12.6,6.2,11.1,7.8,10.1,10.3z"/>
		<path class="st0" d="M16.8,16.1c0,1.4-1.2,2.6-2.6,2.6c-1.4,0-2.6-1.2-2.6-2.6c0-1.4,1.2-2.6,2.6-2.6
			C15.6,13.5,16.8,14.6,16.8,16.1z"/>
		<path class="st2" d="M15.8,16.1c0,0.9-0.7,1.6-1.6,1.6c-0.9,0-1.6-0.7-1.6-1.6c0-0.9,0.7-1.6,1.6-1.6
			C15.1,14.4,15.8,15.2,15.8,16.1z"/>
		<path class="st0" d="M14.3,3.3c0-0.1-0.1-0.1-0.1-0.1c-0.1,0-0.1,0-0.1,0.1l-0.6,3h1.4L14.3,3.3z"/>
	</g>
</g>
</svg>
