<?xml version="1.0" encoding="utf-8"?>
<!-- Generator: Adobe Illustrator 23.0.5, SVG Export Plug-In . SVG Version: 6.00 Build 0)  -->
<svg version="1.1" id="Capa_1" xmlns="http://www.w3.org/2000/svg" xmlns:xlink="http://www.w3.org/1999/xlink" x="0px" y="0px"
	 viewBox="0 0 39.7 39.7" style="enable-background:new 0 0 39.7 39.7;" xml:space="preserve">
<style type="text/css">
	.st0{fill:#FDBF14;}
	.st1{fill:#CE9915;}
	.st2{fill:#333A42;}
	.st3{fill:#D07A6A;}
	.st4{fill:#CA6253;}
	.st5{fill:#C65140;}
	.st6{fill:#FFFFFF;}
	.st7{fill:#E5E4E3;}
	.st8{fill:#484F56;}
</style>
<g>
	<ellipse class="st0" cx="19.8" cy="19.8" rx="18.8" ry="18.8"/>
	<path class="st1" d="M30.4,9.3c-0.2-0.1-0.4-0.2-0.6-0.2c-0.4,0-0.7,0.2-0.8,0.6h-7.7l-0.6-0.6H19v0.6h-8.2l-0.3-0.3l0,0
		c0,0,0,0-0.1-0.1l0,0l0,0l-0.1-0.1l0,0h-0.1l0,0h-0.1l0,0c0,0-0.1,0-0.2,0c-0.5,0-0.8,0.4-0.8,0.8c0,0.1,0,0.1,0,0.2l0,0v0.1l0,0
		c0,0,0,0.1,0.1,0.1c0,0.1,0.1,0.1,0.1,0.2l0,0l0.1,0.1l2.6,2.6c-0.1,0.1-0.1,0.1-0.2,0.2l0,0c-0.1,0.1-0.2,0.3-0.3,0.4l0,0
		c-0.1,0.1-0.2,0.2-0.2,0.3c0,0,0,0.1-0.1,0.1c-0.1,0.1-0.2,0.2-0.2,0.4l0,0c-0.1,0.1-0.2,0.3-0.2,0.4c0,0,0,0,0,0.1
		c-0.1,0.1-0.1,0.2-0.2,0.3v0.1c-0.1,0.1-0.1,0.3-0.2,0.4l0,0c-0.1,0.1-0.1,0.3-0.2,0.4v0.1c0,0.1-0.1,0.2-0.1,0.4V17
		c-0.1,0.3-0.2,0.6-0.2,0.9V18c0,0.1,0,0.2-0.1,0.4v0.1c0,0.2,0,0.3-0.1,0.5H9.1v1.7l8.2,8.2c0.1,0.5,0.3,0.9,0.7,1.3l7.6,7.6
		c7.6-2.4,13.1-9.5,13.1-17.9c0-0.8-0.1-1.6-0.2-2.4L30.4,9.3L30.4,9.3z"/>
	<g>
		<g>
			<g>
				<g>
					<path class="st2" d="M10.2,19.4H9.7v-0.3c0.4-5.3,4.9-9.4,10.2-9.4s9.8,4.1,10.2,9.4v0.3h-0.5v-0.3c-0.4-5-4.6-8.9-9.6-8.9
						s-9.3,3.9-9.6,8.9L10.2,19.4z"/>
					<path class="st2" d="M9.1,19v1.7h1.7V19H9.1z M10.2,20.2H9.6v-0.6h0.6C10.2,19.6,10.2,20.2,10.2,20.2z"/>
					<path class="st2" d="M28.9,19v1.7h1.7V19H28.9z M30.1,20.2h-0.6v-0.6h0.6V20.2z"/>
				</g>
				<g>
					<rect x="19" y="9.1" class="st2" width="1.7" height="1.7"/>
					<rect x="9.9" y="9.6" class="st2" width="19.9" height="0.5"/>
					<path class="st2" d="M10.8,9.9c0,0.5-0.4,0.8-0.9,0.8s-0.8-0.4-0.8-0.8c0-0.5,0.4-0.8,0.8-0.8C10.4,9.1,10.8,9.4,10.8,9.9z"/>
					<path class="st2" d="M30.6,9.9c0,0.5-0.4,0.8-0.8,0.8c-0.5,0-0.8-0.4-0.8-0.8c0-0.5,0.4-0.8,0.8-0.8
						C30.3,9.1,30.6,9.4,30.6,9.9z"/>
				</g>
			</g>
		</g>
		<g>
			<rect x="17.2" y="15.4" class="st3" width="1.8" height="10.7"/>
			<rect x="19" y="15.4" class="st4" width="1.8" height="10.7"/>
			<rect x="20.7" y="15.4" class="st5" width="1.8" height="10.7"/>
			<polygon class="st6" points="22.5,15.4 20.7,12.3 19,12.3 17.2,15.4 			"/>
			<polygon class="st7" points="22.5,15.4 20.7,15.4 20.1,12.3 20.7,12.3 			"/>
			<polygon class="st2" points="20.7,12.3 19.8,10.8 19,12.3 			"/>
			<rect x="20.7" y="26.1" class="st7" width="1.8" height="1.8"/>
			<rect x="17.2" y="26.1" class="st6" width="3.6" height="1.8"/>
			<path class="st2" d="M22.5,28.3v-0.4h-1.8v0.4c0,0.7-0.3,1.4-0.8,1.9c-0.3,0.3-0.6,0.5-1,0.6c0.3,0.1,0.6,0.2,0.9,0.2
				c0.7,0,1.4-0.3,1.9-0.8C22.3,29.7,22.5,29,22.5,28.3z"/>
			<path class="st8" d="M20.7,28.3v-0.4h-3.6v0.4c0,0.7,0.3,1.4,0.8,1.9c0.3,0.3,0.6,0.5,1,0.6c0.4-0.1,0.7-0.3,1-0.6
				C20.5,29.7,20.7,29,20.7,28.3z"/>
		</g>
	</g>
</g>
</svg>
