<?xml version="1.0" encoding="utf-8"?>
<!-- Generator: Adobe Illustrator 16.0.0, SVG Export Plug-In . SVG Version: 6.00 Build 0)  -->
<!DOCTYPE svg PUBLIC "-//W3C//DTD SVG 1.1//EN" "http://www.w3.org/Graphics/SVG/1.1/DTD/svg11.dtd">
<svg version="1.1" id="Capa_1" xmlns="http://www.w3.org/2000/svg" xmlns:xlink="http://www.w3.org/1999/xlink" x="0px" y="0px"
	 width="500px" height="500px" viewBox="0 0 500 500" enable-background="new 0 0 500 500" xml:space="preserve">
<g display="none">
	<g display="inline">
		<path fill="#343B43" d="M481.482,422.895c0,4.187-1.6,8.37-4.776,11.549c-3.201,3.2-7.386,4.8-11.549,4.8H34.844
			c-4.163,0-8.35-1.6-11.549-4.8c-3.178-3.179-4.777-7.362-4.777-11.549V184.596h462.965L481.482,422.895L481.482,422.895z"/>
		<path fill="#495057" d="M481.482,184.596c0,23.712-9.05,47.401-27.131,65.481c-18.078,18.079-41.77,27.108-65.458,27.108H111.107
			c-23.691,0-47.38-9.029-65.481-27.108c-18.058-18.08-27.108-41.77-27.108-65.481v-53.099c0-4.185,1.6-8.371,4.777-11.549
			c3.199-3.198,7.386-4.799,11.549-4.799h430.313c4.163,0,8.348,1.601,11.549,4.799c3.178,3.178,4.776,7.364,4.776,11.549V184.596z"
			/>
		<path fill="#343B43" d="M329.856,115.149h-20.818V94.331c0-3.419-1.337-6.597-3.748-9.007c-2.39-2.389-5.587-3.726-8.983-3.726
			h-92.59c-3.418,0-6.617,1.337-9.028,3.726c-2.388,2.41-3.726,5.588-3.726,9.007v20.818h-20.818V94.331
			c0-8.985,3.484-17.4,9.817-23.733c6.355-6.334,14.771-9.84,23.755-9.84h92.59c8.94,0,17.377,3.506,23.732,9.84
			c6.334,6.333,9.817,14.748,9.817,23.733V115.149L329.856,115.149z"/>
		<rect x="65.394" y="105.901" fill="#343B43" width="57.854" height="9.248"/>
		<rect x="376.732" y="105.901" fill="#343B43" width="57.875" height="9.248"/>
		<rect x="224.536" y="245.956" fill="#FFFFFF" width="50.929" height="62.501"/>
		<rect x="224.536" y="115.149" fill="#343B43" width="50.929" height="130.807"/>
		<rect x="224.536" y="308.457" fill="#495057" width="50.929" height="130.785"/>
	</g>
</g>
<g>
	<path fill="#FDBF14" d="M250.005,7.621c-84.191,0-152.397,68.226-152.397,152.398c0,44.591,19.179,84.708,49.696,112.578
		c1.435,1.186,2.888,2.485,4.379,3.785c23.806,21.723,38.759,52.967,38.759,87.691v13.271h59.563h59.573v-13.271
		c0-34.725,14.876-65.969,38.777-87.691c1.453-1.3,2.906-2.6,4.36-3.785c30.441-27.87,49.677-67.987,49.677-112.578
		C402.393,75.847,334.206,7.621,250.005,7.621z"/>
	<g>
		<path fill="#FFFFFF" d="M250.005,259.785c-1.874,0-3.595-0.984-4.531-2.59l-54.611-94.613c-0.937-1.626-0.937-3.634,0-5.239
			c0.918-1.606,2.639-2.62,4.513-2.62h38.243l5.105-15.813c0.707-2.16,2.715-3.633,4.972-3.633h0.019
			c2.257,0,4.265,1.453,4.972,3.633l7.592,23.5l1.299-4.054c0.708-2.16,2.707-3.633,5.001-3.633h42.028
			c1.875,0,3.596,1.014,4.552,2.62c0.917,1.605,0.917,3.613,0,5.239l-54.62,94.613C253.6,258.801,251.859,259.785,250.005,259.785z
			 M204.438,165.183l45.566,78.933l45.575-78.933h-29.217l-5.125,15.832c-0.688,2.142-2.686,3.614-4.961,3.614
			c-2.257,0-4.265-1.473-4.973-3.614l-7.591-23.5l-1.3,4.054c-0.708,2.161-2.716,3.614-4.991,3.614H204.438z"/>
		<rect x="244.766" y="254.557" fill="#FFFFFF" width="10.459" height="122.788"/>
	</g>
	<g>
		<polygon fill="#FFFFFF" points="250.024,492.379 208.817,467.789 291.221,467.789 		"/>
		<path fill="#343B43" d="M317.877,458.075c0,2.485-0.957,4.972-2.869,6.846c-1.873,1.912-4.359,2.868-6.846,2.868H191.838
			c-2.486,0-4.972-0.956-6.865-2.868c-1.893-1.874-2.83-4.36-2.83-6.846v-80.73h135.734V458.075z"/>
		<rect x="182.143" y="387.364" fill="#495057" width="135.734" height="10.02"/>
		<rect x="182.143" y="407.518" fill="#495057" width="135.734" height="10.02"/>
		<rect x="182.143" y="427.558" fill="#495057" width="135.734" height="10.058"/>
		<rect x="182.143" y="447.635" fill="#495057" width="135.734" height="10.135"/>
	</g>
</g>
</svg>
