<?xml version="1.0" encoding="utf-8"?>
<!-- Generator: Adobe Illustrator 23.0.5, SVG Export Plug-In . SVG Version: 6.00 Build 0)  -->
<svg version="1.1" id="Capa_1" xmlns="http://www.w3.org/2000/svg" xmlns:xlink="http://www.w3.org/1999/xlink" x="0px" y="0px"
	 viewBox="0 0 39.7 39.7" style="enable-background:new 0 0 39.7 39.7;" xml:space="preserve">
<style type="text/css">
	.st0{fill:#FDBF14;}
	.st1{fill:#CE9915;}
	.st2{fill:#FFFFFF;}
	.st3{fill:#E5E4E3;}
	.st4{fill:#333A42;}
	.st5{fill:#D07A6A;}
	.st6{fill:#CA6253;}
	.st7{fill:#F1F1F1;}
</style>
<g>
	<path class="st0" d="M38.7,19.9c0,10.4-8.4,18.8-18.8,18.8C9.5,38.7,1,30.2,1,19.9C1,9.5,9.5,1,19.8,1C30.2,1,38.7,9.5,38.7,19.9z"
		/>
	<path class="st1" d="M28.2,11.3c-0.1-0.1-0.3-0.2-0.5-0.2h-0.9l-8.4,3.1l0,0l-0.8,0.3H12c-0.2,0-0.4,0.1-0.5,0.2
		c-0.1,0.1-0.2,0.3-0.2,0.5v0.5h-0.9c-0.2,0-0.4,0.1-0.5,0.2s-0.2,0.3-0.2,0.5v4.3c0,0.2,0.1,0.4,0.2,0.5l3,3v4.6
		c0,0.4,0.2,0.8,0.5,1.1l8.5,8.5c8.8-0.9,15.9-8,16.7-16.9L28.2,11.3z"/>
	<g>
		<g>
			<path class="st2" d="M12.9,28.9c0,0.4,0.2,0.8,0.5,1.1c0.3,0.3,0.7,0.5,1.1,0.5l0,0c0.4,0,0.8-0.2,1.1-0.5s0.5-0.7,0.5-1.1v-6.2
				H13v6.2H12.9z"/>
			<g>
				<path class="st3" d="M15.5,23.4c-0.3,0-0.6,0.3-0.6,0.6s0.3,0.6,0.6,0.6H16v-1.2H15.5z"/>
				<path class="st3" d="M15.5,25.2c-0.3,0-0.6,0.3-0.6,0.6c0,0.3,0.3,0.6,0.6,0.6H16v-1.2H15.5z"/>
				<path class="st3" d="M15.5,27.1c-0.3,0-0.6,0.3-0.6,0.6c0,0.3,0.3,0.6,0.6,0.6H16v-1.2H15.5z"/>
			</g>
			<rect x="16" y="23.4" class="st4" width="0.5" height="1.2"/>
		</g>
		<path class="st2" d="M28.2,16.8v3.7c1,0,1.9-0.8,1.9-1.9C30,17.6,29.2,16.8,28.2,16.8z"/>
		<path class="st4" d="M11.3,21.5h-0.9c-0.2,0-0.4-0.1-0.5-0.2S9.7,21,9.7,20.8v-4.3c0-0.2,0.1-0.4,0.2-0.5c0.1-0.1,0.3-0.2,0.5-0.2
			h0.9V21.5z"/>
		<path class="st5" d="M17.6,22.8H12c-0.2,0-0.4-0.1-0.5-0.2s-0.2-0.3-0.2-0.5v-6.8c0-0.2,0.1-0.4,0.2-0.5c0.1-0.1,0.3-0.2,0.5-0.2
			h5.5v8.2H17.6z"/>
		<path class="st6" d="M17.6,22.8H12c-0.2,0-0.4-0.1-0.5-0.2s-0.2-0.3-0.2-0.5v-3.4h6.3V22.8z"/>
		<polygon class="st2" points="17.6,14.5 17.6,22.8 26.8,26.1 26.8,11.1 		"/>
		<polygon class="st7" points="17.6,18.6 17.6,22.8 26.8,26.1 26.8,18.6 		"/>
		<path class="st4" d="M28.4,25.4c0,0.2-0.1,0.4-0.2,0.5s-0.3,0.2-0.5,0.2h-0.9v-15h0.9c0.2,0,0.4,0.1,0.5,0.2
			c0.1,0.1,0.2,0.3,0.2,0.5V25.4z"/>
	</g>
</g>
</svg>
