<?xml version="1.0" encoding="utf-8"?>
<!-- Generator: Adobe Illustrator 23.0.5, SVG Export Plug-In . SVG Version: 6.00 Build 0)  -->
<svg version="1.1" id="Capa_1" xmlns="http://www.w3.org/2000/svg" xmlns:xlink="http://www.w3.org/1999/xlink" x="0px" y="0px"
	 viewBox="0 0 39.7 39.7" style="enable-background:new 0 0 39.7 39.7;" xml:space="preserve">
<style type="text/css">
	.st0{fill:#FDBF14;}
	.st1{fill:#CE9915;}
	.st2{fill:#343B42;}
	.st3{fill:#6985BE;}
	.st4{fill:#485057;}
	.st5{fill:#FFFFFF;}
</style>
<g>
	<ellipse class="st0" cx="19.8" cy="19.8" rx="18.8" ry="18.8"/>
	<path class="st1" d="M38.5,22.5l-13-13l0,0l-0.2-0.2l0,0C25,9.1,24.7,9,24.3,9h-8.8C14.7,9,14,9.7,14,10.5v18.8
		c0,0.4,0.1,0.7,0.3,1l0,0l0.2,0.2l0,0l8,8C30.8,37.3,37.3,30.8,38.5,22.5z"/>
	<g>
		<g>
			<path class="st2" d="M24.3,8.9h-8.8c-0.8,0-1.5,0.7-1.5,1.5v18.8c0,0.8,0.7,1.5,1.5,1.5h8.8c0.8,0,1.5-0.7,1.5-1.5V10.4
				C25.8,9.6,25.1,8.9,24.3,8.9z"/>
			<rect x="14.8" y="12.2" class="st3" width="10.2" height="15.2"/>
			<path class="st4" d="M18.9,29.6c-0.2,0-0.4-0.2-0.4-0.4v-0.1c0-0.2,0.2-0.4,0.4-0.4h1.9c0.2,0,0.4,0.2,0.4,0.4v0.1
				c0,0.2-0.2,0.4-0.4,0.4H18.9z"/>
			<path class="st4" d="M20.2,10.6c0,0.2-0.2,0.4-0.4,0.4c-0.2,0-0.4-0.2-0.4-0.4s0.2-0.4,0.4-0.4C20.1,10.2,20.2,10.4,20.2,10.6z"
				/>
			<path class="st2" d="M20,10.6c0,0.1-0.1,0.2-0.2,0.2s-0.2-0.1-0.2-0.2s0.1-0.2,0.2-0.2C19.9,10.4,20,10.5,20,10.6z"/>
		</g>
		<rect x="15.7" y="15.7" class="st5" width="8.3" height="8.3"/>
		<g>
			<g>
				<rect x="16.4" y="19" class="st4" width="0.3" height="0.3"/>
				<rect x="16.4" y="19.7" class="st4" width="0.3" height="0.6"/>
				<rect x="16.8" y="19.4" class="st4" width="0.3" height="0.3"/>
				<rect x="16.8" y="20" class="st4" width="0.3" height="0.3"/>
				<rect x="17.1" y="19.4" class="st4" width="0.3" height="0.3"/>
				<rect x="17.1" y="20.3" class="st4" width="0.3" height="0.3"/>
				<rect x="17.4" y="19" class="st4" width="0.3" height="0.6"/>
				<rect x="17.4" y="20" class="st4" width="0.3" height="0.3"/>
				<rect x="17.7" y="19" class="st4" width="0.3" height="1"/>
				<rect x="18.1" y="19" class="st4" width="0.3" height="1"/>
				<rect x="18.1" y="20.3" class="st4" width="0.3" height="0.3"/>
				<rect x="18.4" y="19" class="st4" width="0.3" height="0.3"/>
				<rect x="18.4" y="19.7" class="st4" width="0.3" height="0.3"/>
				<rect x="18.4" y="20.3" class="st4" width="0.3" height="0.3"/>
				<rect x="18.7" y="19" class="st4" width="0.3" height="1.3"/>
				<rect x="19" y="16.4" class="st4" width="0.3" height="1"/>
				<rect x="19" y="17.7" class="st4" width="0.3" height="0.3"/>
				<rect x="19" y="18.4" class="st4" width="0.3" height="0.3"/>
				<rect x="19" y="19" class="st4" width="0.3" height="0.3"/>
				<rect x="19" y="20" class="st4" width="0.3" height="0.3"/>
				<rect x="19" y="20.7" class="st4" width="0.3" height="1.6"/>
				<rect x="19" y="22.9" class="st4" width="0.3" height="0.3"/>
				<rect x="19.4" y="16.8" class="st4" width="0.3" height="0.6"/>
				<rect x="19.4" y="17.7" class="st4" width="0.3" height="0.3"/>
				<rect x="19.4" y="18.7" class="st4" width="0.3" height="0.3"/>
				<rect x="19.4" y="19.4" class="st4" width="0.3" height="0.6"/>
				<rect x="19.4" y="20.7" class="st4" width="0.3" height="0.6"/>
				<rect x="19.7" y="16.4" class="st4" width="0.3" height="0.3"/>
				<rect x="19.7" y="17.7" class="st4" width="0.3" height="0.3"/>
				<rect x="19.7" y="18.4" class="st4" width="0.3" height="1"/>
				<rect x="19.7" y="21" class="st4" width="0.3" height="0.3"/>
				<rect x="19.7" y="21.6" class="st4" width="0.3" height="0.6"/>
				<rect x="19.7" y="22.6" class="st4" width="0.3" height="0.6"/>
				<rect x="20" y="16.8" class="st4" width="0.3" height="1"/>
				<rect x="20" y="18.1" class="st4" width="0.3" height="0.3"/>
				<rect x="20" y="18.7" class="st4" width="0.3" height="0.3"/>
				<rect x="20" y="20" class="st4" width="0.3" height="0.3"/>
				<rect x="20" y="20.7" class="st4" width="0.3" height="0.3"/>
				<rect x="20" y="21.3" class="st4" width="0.3" height="1"/>
				<rect x="20" y="22.9" class="st4" width="0.3" height="0.3"/>
				<rect x="20.3" y="16.4" class="st4" width="0.3" height="0.6"/>
				<rect x="20.3" y="17.7" class="st4" width="0.3" height="1.9"/>
				<rect x="20.3" y="20.7" class="st4" width="0.3" height="1.6"/>
				<rect x="20.7" y="19" class="st4" width="0.3" height="0.3"/>
				<rect x="20.7" y="19.7" class="st4" width="0.3" height="0.3"/>
				<rect x="20.7" y="21" class="st4" width="0.3" height="0.6"/>
				<rect x="20.7" y="22.6" class="st4" width="0.3" height="0.3"/>
				<rect x="21" y="19.4" class="st4" width="0.3" height="0.6"/>
				<rect x="21" y="20.3" class="st4" width="0.3" height="0.3"/>
				<rect x="21" y="21" class="st4" width="0.3" height="0.3"/>
				<rect x="21" y="21.6" class="st4" width="0.3" height="0.3"/>
				<rect x="21" y="22.3" class="st4" width="0.3" height="0.6"/>
				<rect x="21.3" y="20.7" class="st4" width="0.3" height="1.3"/>
				<rect x="21.6" y="19" class="st4" width="0.3" height="1"/>
				<rect x="21.6" y="21" class="st4" width="0.3" height="0.6"/>
				<rect x="21.6" y="21.9" class="st4" width="0.3" height="0.3"/>
				<rect x="21.6" y="22.6" class="st4" width="0.3" height="0.3"/>
				<rect x="21.9" y="19.7" class="st4" width="0.3" height="0.3"/>
				<rect x="21.9" y="20.3" class="st4" width="0.3" height="1.6"/>
				<rect x="22.3" y="19" class="st4" width="0.3" height="0.6"/>
				<rect x="22.3" y="20" class="st4" width="0.3" height="0.3"/>
				<rect x="22.3" y="20.7" class="st4" width="0.3" height="1"/>
				<rect x="22.3" y="21.9" class="st4" width="0.3" height="1.3"/>
				<rect x="22.6" y="19" class="st4" width="0.3" height="1"/>
				<rect x="22.6" y="20.7" class="st4" width="0.3" height="0.3"/>
				<rect x="22.6" y="21.6" class="st4" width="0.3" height="0.3"/>
				<rect x="22.6" y="22.3" class="st4" width="0.3" height="0.6"/>
				<g>
					<rect x="21.6" y="17.1" class="st4" width="1" height="1"/>
					<path class="st4" d="M21,16.4v2.3h2.3v-2.3H21z M22.9,18.4h-1.6v-1.6h1.6V18.4z"/>
				</g>
				<rect x="22.9" y="19" class="st4" width="0.3" height="0.3"/>
				<rect x="22.9" y="19.7" class="st4" width="0.3" height="1"/>
				<rect x="22.9" y="21.3" class="st4" width="0.3" height="0.6"/>
				<rect x="22.9" y="22.3" class="st4" width="0.3" height="0.6"/>
				<g>
					<rect x="17.1" y="17.1" class="st4" width="1" height="1"/>
					<path class="st4" d="M16.4,16.4v2.3h2.3v-2.3H16.4z M18.4,18.4h-1.6v-1.6h1.6V18.4z"/>
				</g>
				<g>
					<rect x="17.1" y="21.6" class="st4" width="1" height="1"/>
					<path class="st4" d="M16.4,21v2.3h2.3V21H16.4z M18.4,22.9h-1.6v-1.6h1.6V22.9z"/>
				</g>
			</g>
		</g>
	</g>
</g>
</svg>
