<?xml version="1.0" encoding="utf-8"?>
<!-- Generator: Adobe Illustrator 23.0.5, SVG Export Plug-In . SVG Version: 6.00 Build 0)  -->
<svg version="1.1" id="Capa_1" xmlns="http://www.w3.org/2000/svg" xmlns:xlink="http://www.w3.org/1999/xlink" x="0px" y="0px"
	 viewBox="0 0 39.7 39.7" style="enable-background:new 0 0 39.7 39.7;" xml:space="preserve">
<style type="text/css">
	.st0{fill:#FDBF14;}
	.st1{fill:#CE9915;}
	.st2{fill:#FFFFFF;}
	.st3{fill:#CCCBCA;}
	.st4{fill:#D9D8D7;}
	.st5{fill:#343B42;}
	.st6{fill:#E6E5E4;}
	.st7{fill:#CB6254;}
</style>
<g>
	<path class="st0" d="M38.7,19.8c0,10.4-8.4,18.8-18.8,18.8C9.5,38.7,1,30.2,1,19.8C1,9.5,9.5,1,19.8,1C30.2,1,38.7,9.5,38.7,19.8z"
		/>
	<path class="st1" d="M38.6,20.9l-11-11c-0.3-0.2-0.6-0.4-0.9-0.4h-7.1h-8c-0.7,0-1.3,0.6-1.3,1.3c0,0.1,0,0.2,0,0.2l0,0
		c0,0.1,0,0.1,0.1,0.2l0,0c0,0.1,0.1,0.1,0.1,0.2l0,0c0,0.1,0.1,0.1,0.1,0.2l0,0l0,0l0.1,0.1l2.2,2.2v14.7c0,0.3,0.1,0.6,0.3,0.8
		l0.2,0.2l8.6,8.6C31.1,37.4,38.1,30,38.6,20.9z"/>
	<g>
		<g>
			<path class="st2" d="M11.7,9.5c0.7,0,1.3,0.6,1.3,1.3v18c0,0.7,0.6,1.3,1.3,1.3H28V10.9c0-0.3-0.1-0.7-0.4-0.9
				c-0.3-0.3-0.6-0.4-0.9-0.4h-15V9.5z"/>
			<path class="st3" d="M29.4,28.8c0-0.7-0.6-1.3-1.3-1.3H14.3c0.7,0,1.3,0.6,1.3,1.3c0,0.7-0.6,1.3-1.3,1.3H28
				C28.8,30.2,29.4,29.6,29.4,28.8z"/>
			<path class="st3" d="M11.7,9.5c-0.7,0-1.3,0.6-1.3,1.3s0.6,1.3,1.3,1.3H13v-1.3C13,10.1,12.4,9.5,11.7,9.5z"/>
		</g>
		<g>
			<rect x="22.2" y="25.3" class="st4" width="4" height="0.5"/>
			<g>
				<rect x="14.7" y="14.9" class="st4" width="11.5" height="0.5"/>
				<rect x="14.7" y="13.7" class="st4" width="11.5" height="0.5"/>
				<rect x="14.7" y="12.5" class="st5" width="5.8" height="0.5"/>
			</g>
			<g>
				<g>
					<path class="st6" d="M26.3,24.3H14.7v-7.8h11.6V24.3z M15,24h11v-7.2H15V24z"/>
					<rect x="14.9" y="22.1" class="st6" width="11.2" height="0.3"/>
					<rect x="14.9" y="20.2" class="st6" width="11.2" height="0.3"/>
					<rect x="14.9" y="18.4" class="st6" width="11.2" height="0.3"/>
					<rect x="24.1" y="16.6" class="st6" width="0.3" height="7.5"/>
					<rect x="22.2" y="16.6" class="st6" width="0.3" height="7.5"/>
					<rect x="20.4" y="16.6" class="st6" width="0.3" height="7.5"/>
					<rect x="18.5" y="16.6" class="st6" width="0.3" height="7.5"/>
					<rect x="16.6" y="16.6" class="st6" width="0.3" height="7.5"/>
				</g>
				<g>
					<g>
						<polygon class="st7" points="15,24.3 14.7,24 16.7,22.1 18.6,22.1 22.3,18.3 24.2,18.3 26,16.5 26.3,16.8 24.3,18.7 
							22.5,18.7 18.7,22.5 16.9,22.5 						"/>
						<path class="st7" d="M15.3,24.1c0,0.2-0.2,0.5-0.4,0.5s-0.5-0.2-0.5-0.5c0-0.2,0.2-0.4,0.5-0.4C15.1,23.7,15.3,23.9,15.3,24.1
							z"/>
						<path class="st7" d="M17.2,22.3c0,0.2-0.2,0.4-0.4,0.4c-0.2,0-0.5-0.2-0.5-0.4c0-0.2,0.2-0.4,0.5-0.4
							C17,21.8,17.2,22,17.2,22.3z"/>
						<path class="st7" d="M19.1,22.3c0,0.2-0.2,0.4-0.4,0.4c-0.2,0-0.5-0.2-0.5-0.4c0-0.2,0.2-0.4,0.5-0.4
							C18.9,21.8,19.1,22,19.1,22.3z"/>
						<circle class="st7" cx="22.4" cy="18.5" r="0.4"/>
						<path class="st7" d="M24.7,18.5c0,0.2-0.2,0.4-0.4,0.4c-0.2,0-0.5-0.2-0.5-0.4c0-0.2,0.2-0.4,0.5-0.4
							C24.5,18.1,24.7,18.3,24.7,18.5z"/>
						<path class="st7" d="M26.6,16.6c0,0.2-0.2,0.4-0.4,0.4c-0.2,0-0.5-0.2-0.5-0.4c0-0.2,0.2-0.4,0.5-0.4
							C26.4,16.2,26.6,16.4,26.6,16.6z"/>
					</g>
				</g>
			</g>
		</g>
	</g>
</g>
</svg>
