<?xml version="1.0" encoding="utf-8"?>
<!-- Generator: Adobe Illustrator 23.0.5, SVG Export Plug-In . SVG Version: 6.00 Build 0)  -->
<svg version="1.1" id="Capa_1" xmlns="http://www.w3.org/2000/svg" xmlns:xlink="http://www.w3.org/1999/xlink" x="0px" y="0px"
	 viewBox="0 0 39.7 39.7" style="enable-background:new 0 0 39.7 39.7;" xml:space="preserve">
<style type="text/css">
	.st0{fill:#FDBF14;}
	.st1{fill:#CE9915;}
	.st2{fill:#D9D8D7;}
	.st3{fill:#FFFFFF;}
	.st4{fill:#343B42;}
	.st5{fill:#CB6254;}
	.st6{fill:#485057;}
</style>
<g>
	<ellipse class="st0" cx="19.8" cy="19.9" rx="18.8" ry="18.8"/>
	<path class="st1" d="M38.6,20.4l-9.5-9.3C29,11,28.8,11,28.6,11H10c-0.2,0-0.4,0.1-0.5,0.2c-0.1,0.1-0.2,0.3-0.2,0.5v14.1
		c0,0.2,0.1,0.3,0.2,0.5l0,0l0,0L22,38.5C31.2,37.2,38.3,29.6,38.6,20.4z"/>
	<g>
		<g>
			<rect x="16.2" y="26.5" class="st2" width="5.7" height="2.5"/>
			<rect x="14.8" y="29" class="st3" width="8.5" height="0.7"/>
			<path class="st4" d="M9.3,24.2V11.7c0-0.2,0.1-0.4,0.2-0.5C9.6,11,9.8,11,10,11h18.1c0.2,0,0.4,0.1,0.5,0.2
				c0.1,0.1,0.2,0.3,0.2,0.5v12.5H9.3z"/>
			<rect x="10.6" y="12.2" class="st3" width="17" height="10.7"/>
			<path class="st3" d="M28.8,25.8c0,0.2-0.1,0.4-0.2,0.5s-0.3,0.2-0.5,0.2H10c-0.2,0-0.4-0.1-0.5-0.2S9.3,26,9.3,25.8v-1.6h19.5
				V25.8z"/>
			<g>
				<g>
					<g>
						<rect x="11.3" y="12.9" class="st5" width="4.7" height="1.6"/>
						<rect x="16.7" y="12.9" class="st5" width="4.7" height="1.6"/>
						<rect x="22.1" y="12.9" class="st5" width="4.7" height="1.6"/>
					</g>
					<g>
						<rect x="11.3" y="15.2" class="st5" width="4.7" height="3.2"/>
						<rect x="16.7" y="15.2" class="st5" width="4.7" height="3.2"/>
						<rect x="22.1" y="15.2" class="st5" width="4.7" height="3.2"/>
					</g>
					<rect x="11.3" y="19.1" class="st5" width="15.6" height="3.2"/>
				</g>
			</g>
		</g>
		<g>
			<path class="st4" d="M29.7,19.1h-4.3c-0.4,0-0.7,0.3-0.7,0.7v9.1c0,0.4,0.3,0.7,0.7,0.7h4.3c0.4,0,0.7-0.3,0.7-0.7v-9.1
				C30.4,19.4,30.1,19.1,29.7,19.1z"/>
			<rect x="25.1" y="20.7" class="st3" width="4.9" height="7.4"/>
			<path class="st6" d="M27.1,29c-0.1,0-0.2-0.1-0.2-0.2l0,0c0-0.1,0.1-0.2,0.2-0.2H28c0.1,0,0.2,0.1,0.2,0.2l0,0
				c0,0.1-0.1,0.2-0.2,0.2H27.1z"/>
			<g>
				<path class="st6" d="M27.7,19.9c0,0.1-0.1,0.2-0.2,0.2s-0.2-0.1-0.2-0.2s0.1-0.2,0.2-0.2C27.7,19.7,27.7,19.7,27.7,19.9z"/>
				<path class="st4" d="M27.6,19.9L27.6,19.9c-0.1,0.1-0.1,0-0.1,0C27.5,19.8,27.5,19.8,27.6,19.9C27.6,19.8,27.6,19.8,27.6,19.9z"
					/>
			</g>
			<g>
				<g>
					<rect x="25.4" y="21" class="st5" width="4.2" height="1.2"/>
					<rect x="25.4" y="22.7" class="st5" width="4.2" height="2.3"/>
					<rect x="25.4" y="25.4" class="st5" width="4.2" height="2.3"/>
				</g>
			</g>
		</g>
	</g>
</g>
</svg>
