<?xml version="1.0" encoding="utf-8"?>
<!-- Generator: Adobe Illustrator 23.0.5, SVG Export Plug-In . SVG Version: 6.00 Build 0)  -->
<svg version="1.1" id="Capa_1" xmlns="http://www.w3.org/2000/svg" xmlns:xlink="http://www.w3.org/1999/xlink" x="0px" y="0px"
	 viewBox="0 0 39.7 39.7" style="enable-background:new 0 0 39.7 39.7;" xml:space="preserve">
<style type="text/css">
	.st0{fill:#FDBF14;}
	.st1{fill:#CE9915;}
	.st2{fill:#333A42;}
	.st3{fill:#484F56;}
	.st4{fill:#FFFFFF;}
</style>
<g>
	<path class="st0" d="M38.7,19.8c0,10.4-8.4,18.8-18.8,18.8C9.5,38.7,1,30.2,1,19.8C1,9.5,9.5,1,19.8,1C30.2,1,38.7,9.5,38.7,19.8z"
		/>
	<path class="st1" d="M38.4,23.2L24.9,9.7c-1.3-1.2-3.1-1.9-5-1.9c-3.9,0-7.1,2.8-7.6,6.5c0,0.1,0,0.1,0,0.2c0,0.1,0,0.1,0,0.2
		c0,0.1,0,0.2,0,0.3v0.1c0,0.1,0,0.3,0,0.4c0,2.1,0.8,3.9,2.1,5.3c0.1,0.1,0.2,0.2,0.3,0.3l4,4c-0.1,0.1-0.1,0.2-0.1,0.3v7
		c0,0.4,0.1,0.7,0.3,0.9l0,0l0.2,0.2l0,0l4.8,4.8C31.2,36.7,37,30.7,38.4,23.2z"/>
	<g>
		<g>
			<rect x="19.1" y="23.1" class="st2" width="1.5" height="1.8"/>
			<path class="st3" d="M19.8,7.8c-4.3,0-7.7,3.4-7.7,7.7s3.4,7.7,7.7,7.7s7.7-3.4,7.7-7.7S24.1,7.8,19.8,7.8z M19.8,21.7
				c-3.4,0-6.2-2.8-6.2-6.2s2.8-6.2,6.2-6.2s6.2,2.8,6.2,6.2S23.3,21.7,19.8,21.7z"/>
			<path class="st3" d="M21.3,25.5v6.8c0,0.8-0.7,1.5-1.5,1.5s-1.5-0.7-1.5-1.5v-6.8H21.3z"/>
			<path class="st4" d="M21.3,25.5h-2.9v-0.2c0-0.1,0.1-0.3,0.2-0.4s0.2-0.2,0.4-0.2h1.9c0.1,0,0.3,0.1,0.4,0.2s0.2,0.2,0.2,0.4v0.2
				H21.3z"/>
		</g>
		<g>
			<g>
				<polygon class="st4" points="20.2,11.4 19.5,11.4 19.4,12.3 20.3,12.3 				"/>
				<polygon class="st4" points="18.1,11.8 17.5,12.1 17.8,13 18.7,12.5 				"/>
				<polygon class="st4" points="16.4,13.2 16.1,13.7 16.8,14.4 17.3,13.5 				"/>
				<polygon class="st4" points="15.7,15.2 15.7,15.8 16.6,16 16.6,15 				"/>
				<polygon class="st4" points="16.1,17.3 16.4,17.9 17.3,17.6 16.8,16.7 				"/>
				<polygon class="st4" points="17.5,18.9 18.1,19.3 18.7,18.6 17.8,18.1 				"/>
				<polygon class="st4" points="19.5,19.7 20.2,19.7 20.3,18.7 19.4,18.7 				"/>
				<polygon class="st4" points="21.6,19.3 22.2,18.9 21.9,18.1 21,18.6 				"/>
				<polygon class="st4" points="23.3,17.9 23.6,17.3 22.9,16.7 22.4,17.6 				"/>
				<polygon class="st4" points="24,15.8 24,15.2 23.1,15 23.1,16 				"/>
				<polygon class="st4" points="23.6,13.7 23.3,13.2 22.4,13.5 22.9,14.4 				"/>
				<polygon class="st4" points="22.2,12.1 21.6,11.8 21,12.5 21.9,13 				"/>
			</g>
			<g>
				<path class="st4" d="M19.9,12.3c-1.8,0-3.2,1.5-3.2,3.2c0,1.8,1.5,3.2,3.2,3.2c1.8,0,3.2-1.5,3.2-3.2
					C23.1,13.7,21.6,12.3,19.9,12.3z M19.9,16.9c-0.7,0-1.3-0.6-1.3-1.3c0-0.7,0.6-1.3,1.3-1.3s1.3,0.6,1.3,1.3
					C21.2,16.3,20.6,16.9,19.9,16.9z"/>
			</g>
		</g>
	</g>
</g>
</svg>
