<?xml version="1.0" encoding="utf-8"?>
<!-- Generator: Adobe Illustrator 23.0.5, SVG Export Plug-In . SVG Version: 6.00 Build 0)  -->
<svg version="1.1" id="Capa_1" xmlns="http://www.w3.org/2000/svg" xmlns:xlink="http://www.w3.org/1999/xlink" x="0px" y="0px"
	 viewBox="0 0 39.7 39.7" style="enable-background:new 0 0 39.7 39.7;" xml:space="preserve">
<style type="text/css">
	.st0{fill:#FDBF14;}
	.st1{fill:#CE9915;}
	.st2{fill:#FFFFFF;}
	.st3{fill:#325C8A;}
</style>
<g>
	<ellipse class="st0" cx="19.8" cy="19.9" rx="18.8" ry="18.8"/>
	<path class="st1" d="M38.2,24.2L25.9,11.9l-0.4-0.4C24,10.1,22,9.3,19.9,9.3c-4.6,0-8.3,3.7-8.3,8.3c0,0.1,0,0.2,0.1,0.2l0.1,0.1
		l0.7,0.7l0.4,0.4l0.1,0.1l-0.7,0.7L12,20l-2.4,0.1l2.1,2.1c0,0.1-0.1,0.1-0.1,0.2s0,0.1,0.1,0.2l0.8,0.8l-0.2,0.2h-0.1
		c-0.2,0-0.4,0.2-0.4,0.4v0.1l0,0l0,0l0,0c0,0,0,0.1,0.1,0.1l0.1,0.1l0.9,0.9h-0.1c-0.2,0-0.4,0.2-0.4,0.4c0,0.1,0,0.2,0.1,0.3l0,0
		l1,1c-0.1,0.1-0.2,0.2-0.2,0.3c0,0.1,0,0.2,0.1,0.3l1.6,1.6l0,0l9.2,9.2C31,36.6,36.5,31.1,38.2,24.2z"/>
	<g>
		<g>
			<path class="st2" d="M14.9,27.6c-0.2,0-0.4-0.2-0.4-0.4c0-0.2,0.2-0.4,0.4-0.4c2.9,0,5.5-1.3,7.3-3.6c0.1-0.2,0.4-0.2,0.6-0.1
				s0.2,0.4,0.1,0.6C20.9,26.2,18,27.6,14.9,27.6z"/>
			<path class="st2" d="M24.6,17.9c-0.2,0-0.4-0.2-0.4-0.4c0-2.4-1.9-4.3-4.3-4.3s-4.3,1.9-4.3,4.3c0,0.2-0.2,0.4-0.4,0.4
				s-0.4-0.2-0.4-0.4c0-2.8,2.3-5.1,5.1-5.1s5.1,2.3,5.1,5.1C25,17.8,24.8,17.9,24.6,17.9z"/>
			<path class="st2" d="M14.9,19.7H12c-0.2,0-0.4-0.2-0.4-0.4c0-0.2,0.2-0.4,0.4-0.4h2.9c0.8,0,1.4-0.6,1.4-1.4c0-2,1.6-3.5,3.5-3.5
				s3.5,1.6,3.5,3.5c0,0.2-0.2,0.4-0.4,0.4c-0.2,0-0.4-0.2-0.4-0.4c0-1.5-1.2-2.8-2.8-2.8s-2.8,1.2-2.8,2.8
				C17.1,18.7,16.1,19.7,14.9,19.7z"/>
			<path class="st2" d="M14.9,26c-0.2,0-0.4-0.2-0.4-0.4c0-0.2,0.2-0.4,0.4-0.4c3,0,5.8-1.8,7-4.6c0.1-0.2,0.3-0.3,0.5-0.2
				c0.2,0.1,0.3,0.3,0.2,0.5C21.3,24,18.3,26,14.9,26z"/>
			<path class="st2" d="M14.9,24.4c-0.2,0-0.4-0.2-0.4-0.4c0-0.2,0.2-0.4,0.4-0.4c3.4,0,6.1-2.7,6.1-6.1c0-0.6-0.5-1.2-1.2-1.2
				s-1.2,0.5-1.2,1.2c0,2.1-1.7,3.7-3.7,3.7H12c-0.2,0-0.4-0.2-0.4-0.4c0-0.2,0.2-0.4,0.4-0.4h2.9c1.6,0,2.9-1.3,2.9-2.9
				c0-1.1,0.9-2,2-2s2,0.9,2,2C21.8,21.3,18.7,24.4,14.9,24.4z"/>
			<path class="st2" d="M17.7,30.4c-0.2,0-0.3-0.1-0.4-0.3c0-0.2,0.1-0.4,0.3-0.5c1.9-0.4,3.6-1.3,5.1-2.5c0.2-0.1,0.4-0.1,0.6,0.1
				c0.1,0.2,0.1,0.4-0.1,0.6C21.6,29.1,19.8,30,17.7,30.4L17.7,30.4z"/>
			<path class="st2" d="M27.7,17.9c-0.2,0-0.4-0.2-0.4-0.4c0-4.1-3.3-7.5-7.5-7.5s-7.5,3.3-7.5,7.5c0,0.2-0.2,0.4-0.4,0.4
				s-0.4-0.2-0.4-0.4c0-4.6,3.7-8.3,8.3-8.3s8.3,3.7,8.3,8.3C28.1,17.8,27.9,17.9,27.7,17.9z"/>
			<path class="st2" d="M15.1,29.1c-0.2,0-0.4-0.2-0.4-0.4c0-0.2,0.2-0.4,0.4-0.4c2.8,0,5.4-1.1,7.4-3.1c0.2-0.2,0.4-0.1,0.6,0
				c0.2,0.2,0.1,0.4,0,0.6C20.9,27.9,18.1,29.1,15.1,29.1L15.1,29.1z"/>
			<path class="st2" d="M26.1,17.9c-0.2,0-0.4-0.2-0.4-0.4c0-3.3-2.6-5.9-5.9-5.9S14,14.3,14,17.5c0,0.2-0.2,0.4-0.4,0.4
				s-0.4-0.2-0.4-0.4c0-3.7,3-6.7,6.7-6.7s6.7,3,6.7,6.7C26.5,17.8,26.4,17.9,26.1,17.9z"/>
			<path class="st2" d="M14.9,22.8H12c-0.2,0-0.4-0.2-0.4-0.4c0-0.2,0.2-0.4,0.4-0.4h2.9c2.5,0,4.5-2,4.5-4.5c0-0.2,0.2-0.4,0.4-0.4
				c0.2,0,0.4,0.2,0.4,0.4C20.2,20.5,17.9,22.8,14.9,22.8z"/>
			<path class="st2" d="M14.9,24.4h-2.8c-0.2,0-0.4-0.2-0.4-0.4c0-0.2,0.2-0.4,0.4-0.4h2.8c0.2,0,0.4,0.2,0.4,0.4
				C15.3,24.2,15.2,24.4,14.9,24.4z"/>
			<path class="st2" d="M14.9,26h-2.3c-0.2,0-0.4-0.2-0.4-0.4c0-0.2,0.2-0.4,0.4-0.4h2.3c0.2,0,0.4,0.2,0.4,0.4
				C15.3,25.8,15.2,26,14.9,26z"/>
			<path class="st2" d="M14.9,27.6h-1.4c-0.2,0-0.4-0.2-0.4-0.4c0-0.2,0.2-0.4,0.4-0.4h1.4c0.2,0,0.4,0.2,0.4,0.4
				C15.3,27.4,15.2,27.6,14.9,27.6z"/>
			<path class="st2" d="M25.2,28.6C25.1,28.6,25.1,28.6,25.2,28.6c-0.9-0.2-1.6-0.5-2.4-0.8c-0.2-0.1-0.3-0.3-0.2-0.5
				c0.1-0.2,0.3-0.3,0.5-0.2c0.7,0.3,1.4,0.6,2.1,0.8c0.2,0,0.3,0.3,0.3,0.5C25.5,28.5,25.3,28.6,25.2,28.6z"/>
			<path class="st2" d="M26.3,27.3L26.3,27.3c-1.4-0.2-2.7-0.7-3.8-1.4c-0.2-0.1-0.2-0.4-0.1-0.5c0.1-0.2,0.4-0.2,0.5-0.1
				c1.1,0.7,2.2,1.1,3.4,1.3c0.2,0,0.4,0.2,0.3,0.4C26.7,27.1,26.5,27.3,26.3,27.3z"/>
			<path class="st2" d="M27.1,25.8L27.1,25.8c-1.8-0.1-3.5-0.9-4.9-2c-0.2-0.1-0.2-0.4,0-0.6c0.1-0.2,0.4-0.2,0.6,0
				c1.2,1.1,2.8,1.7,4.4,1.8c0.2,0,0.4,0.2,0.4,0.4C27.5,25.6,27.3,25.8,27.1,25.8z"/>
			<path class="st2" d="M27.6,24.2L27.6,24.2c-2.3,0-4.4-1.3-5.6-3.2c-0.1-0.2-0.1-0.4,0.1-0.5s0.4-0.1,0.5,0.1
				c1.1,1.8,2.9,2.8,4.9,2.9c0.2,0,0.4,0.2,0.4,0.4C28,24.1,27.8,24.2,27.6,24.2z"/>
			<path class="st2" d="M27.7,22.7c-2.8,0-5.1-2.3-5.1-5.1c0-0.2,0.2-0.4,0.4-0.4c0.2,0,0.4,0.2,0.4,0.4c0,2.4,1.9,4.3,4.3,4.3
				c0.2,0,0.4,0.2,0.4,0.4S27.9,22.7,27.7,22.7z"/>
			<path class="st2" d="M27.7,19.5c-1.1,0-2-0.9-2-2c0-0.2,0.2-0.4,0.4-0.4s0.4,0.2,0.4,0.4c0,0.7,0.5,1.2,1.2,1.2
				c0.2,0,0.4,0.2,0.4,0.4S27.9,19.5,27.7,19.5z"/>
			<path class="st2" d="M27.7,21.1c-2,0-3.5-1.6-3.5-3.5c0-0.2,0.2-0.4,0.4-0.4s0.4,0.2,0.4,0.4c0,1.5,1.2,2.8,2.8,2.8
				c0.2,0,0.4,0.2,0.4,0.4C28.1,20.9,27.9,21.1,27.7,21.1z"/>
			<path class="st2" d="M14.9,19.7H12c-0.2,0-0.4-0.2-0.4-0.4c0-0.2,0.2-0.4,0.4-0.4h2.9c0.8,0,1.4-0.6,1.4-1.4
				c0-0.2,0.2-0.4,0.4-0.4c0.2,0,0.4,0.2,0.4,0.4C17.1,18.7,16.1,19.7,14.9,19.7z"/>
		</g>
		<rect x="9.5" y="18.5" class="st3" width="20.6" height="1.6"/>
	</g>
</g>
</svg>
