<?xml version="1.0" encoding="utf-8"?>
<!-- Generator: Adobe Illustrator 23.0.5, SVG Export Plug-In . SVG Version: 6.00 Build 0)  -->
<svg version="1.1" id="Capa_1" xmlns="http://www.w3.org/2000/svg" xmlns:xlink="http://www.w3.org/1999/xlink" x="0px" y="0px"
	 viewBox="0 0 39.7 39.7" style="enable-background:new 0 0 39.7 39.7;" xml:space="preserve">
<style type="text/css">
	.st0{fill:#FDBF14;}
	.st1{fill:#CE9915;}
	.st2{fill:#FFFFFF;}
	.st3{fill:#343B42;}
	.st4{fill:#8BC1D9;}
	.st5{fill:#55A7C8;}
</style>
<g>
	<path class="st0" d="M38.7,19.8c0,10.4-8.4,18.8-18.8,18.8S1,30.2,1,19.8C1,9.5,9.5,1,19.8,1S38.7,9.5,38.7,19.8z"/>
	<path class="st1" d="M29.3,17.1c-2.4-2.4-5.8-3.9-9.4-3.9c-4.9,0-9.2,2.7-11.5,6.7c0.6,1,1.3,1.9,2.1,2.7l15.2,15.2
		C31.5,36,36,31.4,37.9,25.6L29.3,17.1z"/>
	<g>
		<ellipse class="st2" cx="19.8" cy="19.8" rx="11.5" ry="6.7"/>
		<g>
			<path class="st3" d="M19.8,14.4c-3,0-5.5,2.4-5.5,5.5c0,3,2.4,5.5,5.5,5.5c3,0,5.5-2.4,5.5-5.5S22.9,14.4,19.8,14.4z"/>
			<path class="st4" d="M24.2,19.8c0,2.4-2,4.4-4.4,4.4s-4.4-2-4.4-4.4s2-4.4,4.4-4.4C22.3,15.5,24.2,17.4,24.2,19.8z"/>
			<path class="st5" d="M22.2,19.8c0,1.3-1,2.3-2.3,2.3s-2.3-1-2.3-2.3s1-2.3,2.3-2.3C21.1,17.5,22.2,18.6,22.2,19.8z"/>
			<path class="st2" d="M19.2,17.5c0.5,0.5,0.5,1.3,0,1.7c-0.5,0.5-1.3,0.5-1.7,0c-0.5-0.5-0.5-1.3,0-1.7C17.9,17,18.7,17,19.2,17.5
				z"/>
			<path class="st2" d="M20.3,19.8c0,0.2-0.2,0.4-0.4,0.4s-0.4-0.2-0.4-0.4c0-0.2,0.2-0.4,0.4-0.4S20.3,19.6,20.3,19.8z"/>
			<path class="st3" d="M21.2,24.8V30c0,0.7-0.6,1.3-1.3,1.3c-0.7,0-1.3-0.6-1.3-1.3v-5.2H21.2z"/>
		</g>
	</g>
</g>
</svg>
