<?xml version="1.0" encoding="utf-8"?>
<!-- Generator: Adobe Illustrator 23.0.5, SVG Export Plug-In . SVG Version: 6.00 Build 0)  -->
<svg version="1.1" id="Layer_1" xmlns="http://www.w3.org/2000/svg" xmlns:xlink="http://www.w3.org/1999/xlink" x="0px" y="0px"
	 viewBox="0 0 6176.7 3811.4" style="enable-background:new 0 0 6176.7 3811.4;" xml:space="preserve">
<style type="text/css">
	.st0{fill:#5437E2;}
	.st1{fill:#40402B;}
	.st2{fill:#FDFEFE;}
	.st3{fill:#E8E8E8;}
	.st4{fill:#CBCBCC;}
	.st5{fill:#5365A6;}
	.st6{fill:#21417D;}
	.st7{fill:#E3EFF8;}
	.st8{fill:#898FC0;}
	.st9{fill:#3E3F8E;}
	.st10{fill:#FFFFFB;}
	.st11{fill:#4B5C65;}
	.st12{fill:#D5A83C;}
	.st13{fill:#DCAE37;}
	.st14{fill:#A5B8DC;}
	.st15{fill:#FFFFFF;}
	.st16{fill:#BDCEE8;}
	.st17{fill:#FFFEFF;}
	.st18{fill:#E4EEF7;}
	.st19{fill:#EFEFEF;}
	.st20{fill:#858382;}
	.st21{fill:#BBB9B9;}
	.st22{fill:#576C6D;}
	.st23{fill:#B68A1A;}
	.st24{fill:#E1B07F;}
	.st25{fill:#755B3F;}
	.st26{fill:#DFE0DE;}
	.st27{fill:#EDEEEC;}
	.st28{fill:#E6B886;}
	.st29{fill:#E2B082;}
	.st30{fill:#FAFAFA;}
	.st31{fill:#0B4D71;}
	.st32{fill:#463E32;}
	.st33{fill:#41403B;}
	.st34{fill:#AAC3DE;}
	.st35{fill:#E1AE7E;}
	.st36{fill:#0B4F75;}
	.st37{fill:#849BC4;}
	.st38{fill:#5B4A3F;}
	.st39{fill:#483A28;}
	.st40{fill:#AD375B;}
	.st41{fill:#B4476F;}
	.st42{fill:#C498BF;}
	.st43{fill:#D9E3ED;}
	.st44{fill:#E7E7E1;}
	.st45{fill:#D0A7CA;}
</style>
<g>
	<path class="st0" d="M4640.3,699.3c-267.4,69.9-405,277.4-723.5,297.7c-332.9,22.6-709-589.8-1479.7-629.2
		c-599-31.6-1361.4,64.4-1651.1,1090.6c-291,1026.2,73.1,2136.7,969.5,1983.4c650.1-111.6,921.4-244.7,1448.2-357.5
		c490.2-104.9,1309.3,66.5,1762.8-35C5698,2884.7,5842.1,2163,5857.9,1730C5873.6,1313.9,5428,494.1,4640.3,699.3z"/>
</g>
<path id="XMLID_373_" class="st1" d="M4461.6,2619.4c0,45-36.5,81.5-81.5,81.5H1904.8c-45,0-81.5-36.5-81.5-81.5V1039.1
	c0-45,36.5-81.5,81.5-81.5H4380c45,0,81.5,36.5,81.5,81.5v1580.3H4461.6z"/>
<g id="XMLID_837_">
	<path id="XMLID_372_" class="st1" d="M4868.9,3196h-110.4h-3257h-110.4h-59.2v59.2c0,32.7,26.5,59.2,59.2,59.2h110.4h3257h137.2
		c32.7,0,59.2-26.5,59.2-59.2V3189L4868.9,3196z"/>
	<g id="XMLID_838_">
		<path id="XMLID_371_" class="st2" d="M4947.6,3173.3c30.5,30.3-37.4,55.7-152.8,55.7H1492.3c-117.6,0-190.6-17.9-151.9-56.2
			l481.5-442.7c17.8-16.4,98.9-29.2,181.4-29.1l2324.3,3.4c81.5,0.1,160.5,13.1,176.9,29.4L4947.6,3173.3z"/>
		<path id="XMLID_962_" class="st3" d="M4565.6,2970.7l-2832.3-2l239.1-245.2l2375.8,3.3L4565.6,2970.7z M1788.6,2958.2l2723.3,2
			l-194.8-226.1l-2313.7-3.2L1788.6,2958.2z"/>
		<polygon id="XMLID_368_" class="st1" points="2144.3,2757 2007.6,2756.8 2023,2740.1 2157.9,2740.3 		"/>
		<polygon id="XMLID_367_" class="st1" points="4147.7,2759.6 4012.4,2759.4 4002.3,2742.8 4135.8,2743 		"/>
		<polygon id="XMLID_366_" class="st1" points="3981.8,2759.4 3846.4,2759.2 3838.3,2742.6 3972,2742.8 		"/>
		<polygon id="XMLID_365_" class="st1" points="3815.7,2759.2 3680.2,2759 3674.3,2742.4 3808,2742.6 		"/>
		<polygon id="XMLID_364_" class="st1" points="3649.5,2758.9 3513.9,2758.8 3510.1,2742.2 3644,2742.3 		"/>
		<polygon id="XMLID_363_" class="st1" points="3483.1,2758.7 3347.4,2758.6 3345.7,2741.9 3479.7,2742.1 		"/>
		<polygon id="XMLID_362_" class="st1" points="3316.6,2758.5 3180.8,2758.3 3181.2,2741.7 3315.3,2741.9 		"/>
		<polygon id="XMLID_361_" class="st1" points="3150,2758.3 3014,2758.1 3016.5,2741.5 3150.8,2741.7 		"/>
		<polygon id="XMLID_360_" class="st1" points="2983.2,2758.1 2847,2757.9 2851.7,2741.3 2986.1,2741.5 		"/>
		<polygon id="XMLID_359_" class="st1" points="2816.2,2757.9 2679.9,2757.7 2686.7,2741 2821.2,2741.2 		"/>
		<polygon id="XMLID_358_" class="st1" points="2649.1,2757.6 2512.7,2757.5 2521.6,2740.8 2656.2,2741 		"/>
		<polygon id="XMLID_357_" class="st1" points="2481.8,2757.4 2345.3,2757.2 2356.3,2740.6 2491.1,2740.8 		"/>
		<polygon id="XMLID_356_" class="st1" points="2314.3,2757.2 2177.7,2757 2190.9,2740.4 2325.8,2740.6 		"/>
		<polygon id="XMLID_355_" class="st1" points="4315.3,2759.8 4180.2,2759.6 4167.9,2743 4301.3,2743.2 		"/>
		<polygon id="XMLID_354_" class="st1" points="2104.5,2786.9 1980,2786.7 2003.1,2761.6 2125.3,2761.8 		"/>
		<polygon id="XMLID_353_" class="st1" points="2273.9,2787.1 2149.5,2786.9 2169.4,2761.9 2291.5,2762 		"/>
		<polygon id="XMLID_352_" class="st1" points="2440.7,2787.3 2316.3,2787.1 2333.2,2762.1 2455.1,2762.2 		"/>
		<polygon id="XMLID_351_" class="st1" points="2607.3,2787.5 2483.1,2787.3 2496.7,2762.3 2618.6,2762.4 		"/>
		<polygon id="XMLID_350_" class="st1" points="2773.7,2787.7 2649.6,2787.5 2660.2,2762.5 2781.9,2762.7 		"/>
		<polygon id="XMLID_349_" class="st1" points="2940,2787.9 2816,2787.7 2823.5,2762.7 2945.1,2762.9 		"/>
		<polygon id="XMLID_348_" class="st1" points="3106.1,2788.1 2982.3,2787.9 2986.6,2762.9 3108.1,2763.1 		"/>
		<polygon id="XMLID_347_" class="st1" points="3272.1,2788.3 3148.4,2788.1 3149.6,2763.1 3271,2763.3 		"/>
		<polygon id="XMLID_346_" class="st1" points="3438,2788.5 3314.4,2788.3 3312.4,2763.3 3433.8,2763.5 		"/>
		<polygon id="XMLID_345_" class="st1" points="3603.7,2788.7 3480.2,2788.5 3475.1,2763.6 3596.4,2763.7 		"/>
		<polygon id="XMLID_344_" class="st1" points="3769.2,2788.9 3645.8,2788.8 3637.7,2763.8 3758.8,2763.9 		"/>
		<polygon id="XMLID_343_" class="st1" points="3934.6,2789.1 3811.3,2789 3800.1,2764 3921.1,2764.1 		"/>
		<polygon id="XMLID_342_" class="st1" points="4099.8,2789.3 3976.6,2789.2 3962.4,2764.2 4083.2,2764.3 		"/>
		<polygon id="XMLID_341_" class="st1" points="4340.4,2789.6 4132.9,2789.3 4115.7,2764.4 4319.4,2764.6 		"/>
		<polygon id="XMLID_340_" class="st1" points="4222.4,2796.1 4346,2796.2 4368.1,2822.4 4242.1,2822.2 		"/>
		<polygon id="XMLID_339_" class="st1" points="4055.5,2795.9 4179.2,2796 4198,2822.2 4071.9,2822.1 		"/>
		<polygon id="XMLID_338_" class="st1" points="3888.4,2795.7 4012.3,2795.8 4027.9,2822 3901.6,2821.9 		"/>
		<polygon id="XMLID_337_" class="st1" points="3721.2,2795.5 3845.2,2795.6 3857.5,2821.8 3731.1,2821.7 		"/>
		<polygon id="XMLID_336_" class="st1" points="3553.8,2795.3 3677.9,2795.4 3687,2821.6 3560.5,2821.5 		"/>
		<polygon id="XMLID_335_" class="st1" points="3386.3,2795.1 3510.5,2795.2 3516.3,2821.4 3389.7,2821.3 		"/>
		<polygon id="XMLID_334_" class="st1" points="3218.6,2794.8 3342.9,2795 3345.5,2821.2 3218.7,2821.1 		"/>
		<polygon id="XMLID_333_" class="st1" points="3050.7,2794.6 3175.2,2794.8 3174.4,2821 3047.6,2820.9 		"/>
		<polygon id="XMLID_332_" class="st1" points="2882.7,2794.4 3007.3,2794.6 3003.3,2820.8 2876.3,2820.7 		"/>
		<polygon id="XMLID_331_" class="st1" points="2714.6,2794.2 2839.3,2794.4 2832,2820.6 2704.9,2820.5 		"/>
		<polygon id="XMLID_330_" class="st1" points="2546.3,2794 2671.1,2794.2 2660.5,2820.5 2533.2,2820.3 		"/>
		<polygon id="XMLID_329_" class="st1" points="2377.8,2793.8 2502.7,2794 2488.8,2820.3 2361.5,2820.1 		"/>
		<polygon id="XMLID_328_" class="st1" points="2209.2,2793.6 2334.2,2793.8 2317,2820.1 2189.5,2819.9 		"/>
		<polygon id="XMLID_327_" class="st1" points="1973.9,2793.4 2185,2793.6 2164.8,2819.9 1949.6,2819.7 		"/>
		<polygon id="XMLID_326_" class="st1" points="1937.8,2832.4 2185.5,2832.7 2164.8,2860.5 1912.1,2860.3 		"/>
		<polygon id="XMLID_325_" class="st1" points="4134.1,2834.8 4378.8,2835.1 4402.2,2862.8 4152.6,2862.6 		"/>
		<polygon id="XMLID_324_" class="st1" points="3944.5,2834.6 4071.9,2834.8 4089.2,2862.5 3959.2,2862.4 		"/>
		<polygon id="XMLID_323_" class="st1" points="3772.5,2834.4 3900,2834.6 3913.8,2862.3 3783.7,2862.2 		"/>
		<polygon id="XMLID_322_" class="st1" points="3600.3,2834.2 3727.9,2834.4 3738.3,2862.2 3608.1,2862 		"/>
		<polygon id="XMLID_321_" class="st1" points="3427.9,2834.1 3555.7,2834.2 3562.6,2862 3432.3,2861.8 		"/>
		<polygon id="XMLID_320_" class="st1" points="3255.4,2833.9 3383.3,2834 3386.8,2861.8 3256.3,2861.7 		"/>
		<polygon id="XMLID_319_" class="st1" points="3082.7,2833.7 3210.8,2833.8 3210.7,2861.6 3080.1,2861.5 		"/>
		<polygon id="XMLID_318_" class="st1" points="2909.9,2833.5 3038,2833.6 3034.5,2861.4 2903.8,2861.3 		"/>
		<polygon id="XMLID_317_" class="st1" points="2736.9,2833.3 2865.1,2833.4 2858.2,2861.3 2727.3,2861.1 		"/>
		<polygon id="XMLID_316_" class="st1" points="2563.7,2833.1 2692.1,2833.2 2681.6,2861.1 2550.6,2860.9 		"/>
		<polygon id="XMLID_315_" class="st1" points="2390.4,2832.9 2518.9,2833.1 2504.9,2860.9 2373.8,2860.8 		"/>
		<polygon id="XMLID_314_" class="st1" points="2216.9,2832.7 2345.5,2832.9 2328,2860.7 2196.8,2860.6 		"/>
		<polygon id="XMLID_313_" class="st1" points="1905.2,2867.8 2159.2,2868 2137.4,2897.3 1878.1,2897.1 		"/>
		<polygon id="XMLID_312_" class="st1" points="4056.4,2869.9 4403.8,2870.3 4428.3,2899.4 4073.8,2899.1 		"/>
		<polygon id="XMLID_311_" class="st1" points="3880.1,2869.7 4010.8,2869.9 4027.2,2899.1 3893.8,2898.9 		"/>
		<polygon id="XMLID_310_" class="st1" points="3711.4,2869.6 3842.3,2869.7 3855.2,2898.9 3721.7,2898.8 		"/>
		<polygon id="XMLID_309_" class="st1" points="3542.6,2869.4 3673.6,2869.5 3683.1,2898.7 3549.5,2898.6 		"/>
		<polygon id="XMLID_308_" class="st1" points="3373.7,2869.2 3504.8,2869.4 3510.8,2898.6 3377,2898.5 		"/>
		<polygon id="XMLID_307_" class="st1" points="3204.6,2869.1 3335.8,2869.2 3338.3,2898.4 3204.4,2898.3 		"/>
		<polygon id="XMLID_306_" class="st1" points="3035.3,2868.9 3166.7,2869 3165.7,2898.3 3031.7,2898.1 		"/>
		<polygon id="XMLID_305_" class="st1" points="2865.9,2868.7 2997.4,2868.8 2992.9,2898.1 2858.8,2898 		"/>
		<polygon id="XMLID_304_" class="st1" points="2696.3,2868.5 2827.9,2868.7 2820,2898 2685.7,2897.8 		"/>
		<polygon id="XMLID_303_" class="st1" points="2526.6,2868.4 2658.3,2868.5 2646.8,2897.8 2512.4,2897.7 		"/>
		<polygon id="XMLID_302_" class="st1" points="2356.7,2868.2 2488.5,2868.3 2473.5,2897.6 2339,2897.5 		"/>
		<polygon id="XMLID_301_" class="st1" points="2186.7,2868 2318.6,2868.2 2300.1,2897.5 2165.4,2897.4 		"/>
		<polygon id="XMLID_300_" class="st1" points="2383.6,2912.4 2519.5,2912.5 2504.7,2943.7 2365.9,2943.6 		"/>
		<polygon id="XMLID_299_" class="st1" points="2208.3,2912.2 2344.3,2912.4 2325.8,2943.5 2186.9,2943.4 		"/>
		<polygon id="XMLID_298_" class="st1" points="2032.8,2912.1 2169,2912.2 2146.7,2943.4 2007.6,2943.3 		"/>
		<polygon id="XMLID_297_" class="st1" points="1857.1,2911.9 1993.4,2912.1 1967.4,2943.3 1828.2,2943.1 		"/>
		<polygon id="XMLID_296_" class="st1" points="3738.3,2913.6 3873.2,2913.7 3887.3,2944.8 3749.5,2944.7 		"/>
		<polygon id="XMLID_295_" class="st1" points="3564.3,2913.4 3699.3,2913.5 3709.7,2944.6 3571.8,2944.5 		"/>
		<polygon id="XMLID_294_" class="st1" points="4305.9,2929.4 4441.8,2929.5 4454.8,2945.2 4317.5,2945.1 		"/>
		<polygon id="XMLID_293_" class="st1" points="4121.1,2913.9 4255.7,2914 4277.8,2945.1 4140.4,2945 		"/>
		<polygon id="XMLID_292_" class="st1" points="3926.5,2929.1 4062.6,2929.2 4071.7,2944.9 3934.1,2944.8 		"/>
		<polygon id="XMLID_291_" class="st1" points="2616.8,2912.6 3469.2,2913.3 3474.6,2944.4 2604.1,2943.8 		"/>
		<path id="XMLID_290_" class="st3" d="M3735.4,3149.2c9.1,29.6-76.1,54.3-190.6,54.3l-804.6-0.1c-115.1,0-198.9-24.8-187.4-54.5
			l45.8-117.9c9.7-24.8,99.1-44.3,199.9-44.3l705.2,0.5c100.4,0.1,187.8,19.6,195.4,44.4L3735.4,3149.2z"/>
		<g id="XMLID_849_">
			<path id="XMLID_289_" class="st4" d="M2552.8,3148.9l45.8-117.9c9-23.2,87.8-41.8,180.2-44c-2.1-1.2-4.3-2.4-6.4-3.4
				c-97.2,3.1-179.6,22.8-189.4,47.4l-47,118c-11.2,28.1,56.8,52.3,158,57.9c3.1-1.4,6.2-2.8,9.3-4.4
				C2607.5,3197.7,2542.5,3175.2,2552.8,3148.9z"/>
		</g>
		<g id="XMLID_839_">
			<path id="XMLID_288_" class="st4" d="M3503,2983.6l-703.5-0.5c-9.2,0-18.2,0.2-27.2,0.5c2.1,1,4.3,2.1,6.4,3.4
				c6.5-0.2,13.1-0.2,19.8-0.2l705.2,0.5c4.8,0,9.5,0.1,14.2,0.2c1.4-1.3,2.8-2.4,4.1-3.5C3515.8,2983.7,3509.4,2983.6,3503,2983.6z
				"/>
			<path id="XMLID_287_" class="st4" d="M3544.8,3203.4l-804.6-0.1c-12.7,0-25-0.4-36.9-0.9c-3.2,1.6-6.3,3-9.3,4.4
				c14.4,0.8,29.4,1.2,44.9,1.2h806.8c6.7,0,13.2-0.1,19.7-0.3c-2.1-1.5-4-3.1-6.1-4.6C3554.4,3203.3,3549.7,3203.4,3544.8,3203.4z"
				/>
			<path id="XMLID_286_" class="st4" d="M3522,2983.8c-1.3,1.1-2.7,2.2-4.1,3.5c94.2,1.8,173.9,20.6,181.2,44.2l36.2,117.6
				c8.7,28.3-69,52.1-176.2,54.1c2,1.5,4,3.1,6.1,4.6c114.3-2.7,196.5-28.4,186.8-58.7l-37.4-117.6
				C3706.7,3006.4,3622.2,2986.1,3522,2983.8z"/>
		</g>
	</g>
</g>
<g id="XMLID_830_">
	<g>
		<g id="XMLID_203_">
			<polygon class="st5" points="1925.3,1170.8 1925.3,2595.3 4308.5,2595.3 4359.6,2595.3 4359.6,1170.8 			"/>
		</g>
		<g id="XMLID_202_">
			<polygon class="st6" points="4359.6,1065.4 1973.8,1065.4 1925.3,1065.4 1925.3,1216.1 4359.6,1216.1 			"/>
		</g>
	</g>
</g>
<g id="XMLID_60_">
	<path id="XMLID_238_" class="st7" d="M2340.9,531.1v1714.2c0,21.9,20.1,39.7,44.8,39.7h1746.5c24.7,0,44.8-17.8,44.8-39.7V531.1
		H2340.9z"/>
	<rect id="XMLID_224_" x="2340.9" y="445.7" class="st8" width="1836.1" height="85.4"/>
	<path id="XMLID_221_" class="st9" d="M4177,401c0-21-20.1-38.1-44.8-38.1H2385.7c-24.7,0-44.8,17.1-44.8,38.1v44.6H4177V401z"/>
	<rect id="XMLID_213_" x="2744.5" y="468.1" class="st10" width="993.1" height="46.8"/>
	<g id="XMLID_204_">
		<g id="XMLID_205_">
			<g id="XMLID_206_">
				<g id="XMLID_208_">
					<path id="XMLID_209_" class="st11" d="M3882.7,484.4c0-9.8-7.9-18.7-19.6-21c-1.9-0.4-3.9-0.6-5.8-0.6h-0.2l0,0
						c-11.5,0.1-21.8,6.8-24.5,16.7c-0.5,1.7-0.7,3.3-0.7,4.9c0,1.9,0.3,3.7,0.8,5.5l0.1,0.4l-1.4,0.8l-1.3,0.8l-25,15.1
						c-2.2,1.3-3.3,3.4-3.4,5.5v0.1v0.1c0,1.3,0.5,2.6,1.5,3.8l0.9,1c1.5,1.9,4,2.8,6.5,2.9l0,0l0,0c1.6,0,3.2-0.4,4.6-1.2l1.1-0.7
						l0,0l21.3-12.8l1.1-0.7l4.3-2.6l0.4,0.2c2.4,1.3,5.1,2.3,8.1,2.9c1.9,0.4,3.9,0.6,5.8,0.6l0,0c11.5,0,21.9-6.7,24.7-16.6l0,0
						v-0.1C3882.4,487.7,3882.7,486,3882.7,484.4L3882.7,484.4z M3828.5,507.9l-0.4-0.5L3828.5,507.9l-13.6,7.7
						c-0.9,0.5-1.8,0.7-2.8,0.7c-1.6,0-3.3-0.7-4.2-1.9c-0.6-0.7-0.9-1.6-0.9-2.4c0-1.4,0.8-2.8,2.3-3.6l13.5-7.7
						c0.9-0.5,1.8-0.7,2.8-0.7c1.6,0,3.3,0.7,4.2,1.9c0.6,0.7,0.9,1.6,0.9,2.4C3830.8,505.7,3830,507.1,3828.5,507.9z M3857.6,498.2
						c-9.3,0-16.8-6.4-16.8-14.3s7.5-14.3,16.8-14.3s16.8,6.4,16.8,14.3C3874.4,491.8,3866.9,498.2,3857.6,498.2z"/>
				</g>
			</g>
		</g>
	</g>
	<ellipse id="XMLID_83_" class="st12" cx="2452.7" cy="414.9" rx="28.8" ry="24.5"/>
	<ellipse id="XMLID_79_" class="st12" cx="2535.6" cy="414.9" rx="28.8" ry="24.5"/>
	<ellipse id="XMLID_76_" class="st12" cx="2618.6" cy="414.9" rx="28.8" ry="24.5"/>
	<rect id="XMLID_36_" x="3438.8" y="1021" class="st8" width="564.7" height="31"/>
	<rect id="XMLID_82_" x="3438.8" y="1091.1" class="st8" width="564.7" height="31"/>
	<rect id="XMLID_5_" x="3438.8" y="1285.8" class="st8" width="417.3" height="31"/>
	<rect id="XMLID_187_" x="3438.8" y="1231.1" class="st8" width="605.6" height="31"/>
	<rect id="XMLID_199_" x="3438.8" y="1150.7" class="st8" width="522.4" height="31"/>
	<rect id="XMLID_69_" x="2481.5" y="531.1" class="st13" width="1562.8" height="452.3"/>
	<g id="XMLID_70_">
		<g id="XMLID_66_">
			<rect id="XMLID_71_" x="2589.8" y="630.3" class="st14" width="384" height="326.6"/>
			<path id="XMLID_72_" class="st15" d="M2983.1,964.8h-402.6V622.4h402.6V964.8z M2599.1,948.9h365.4V638.2h-365.4V948.9z"/>
		</g>
		<polygon id="XMLID_63_" class="st15" points="2596.9,956.8 2702.7,752.9 2801.5,902.9 2879.1,788.9 2956.7,956.8 		"/>
		<ellipse id="XMLID_61_" class="st15" cx="2850.9" cy="692.1" rx="28.6" ry="24.3"/>
	</g>
	<rect id="XMLID_171_" x="3438.7" y="1577.8" class="st8" width="542.7" height="22.6"/>
	<rect id="XMLID_167_" x="3438.7" y="1526.6" class="st8" width="542.7" height="22.6"/>
	<rect id="XMLID_8_" x="3438.8" y="1384.5" class="st8" width="401" height="22.6"/>
	<rect id="XMLID_4_" x="3438.7" y="1424.4" class="st8" width="581.9" height="22.6"/>
	<rect id="XMLID_1_" x="3438.7" y="1483.1" class="st8" width="502" height="22.6"/>
	<g id="XMLID_11_">
		<g id="XMLID_127_">
			<path id="XMLID_131_" class="st16" d="M4020.7,1729.1c0-9.7-9.2-17.5-20.6-17.5h-554.9c-11.4,0-20.6,7.8-20.6,17.5v258.6h596.1
				L4020.7,1729.1L4020.7,1729.1z"/>
			<path id="XMLID_128_" class="st16" d="M3424.6,1987.7v29.4c0,9.7,9.2,17.5,20.6,17.5h554.9c11.4,0,20.6-7.8,20.6-17.5v-29.4
				H3424.6z"/>
		</g>
		<ellipse id="XMLID_124_" class="st13" cx="3731.6" cy="1849.6" rx="89.5" ry="76.1"/>
		<g id="XMLID_112_">
			<rect id="XMLID_120_" x="3424.6" y="1980" class="st13" width="192.4" height="7.7"/>
			<rect id="XMLID_113_" x="3617" y="1980" class="st17" width="403.7" height="7.7"/>
		</g>
		<ellipse id="XMLID_108_" class="st17" cx="3576.4" cy="1983.8" rx="10.6" ry="9"/>
		<polygon id="XMLID_107_" class="st17" points="3464.9,2009.9 3464.9,2000.6 3474.4,2005.2 3483.9,2009.9 3474.4,2014.6 
			3464.9,2019.2 		"/>
		<g id="XMLID_104_">
			<rect id="XMLID_106_" x="3504.4" y="2000.6" class="st17" width="4" height="18.7"/>
			<rect id="XMLID_105_" x="3496.6" y="2000.6" class="st17" width="4" height="18.7"/>
		</g>
		<rect id="XMLID_103_" x="3523.6" y="2000.8" class="st17" width="21.3" height="18.2"/>
		<g id="XMLID_98_">
			<polygon id="XMLID_102_" class="st17" points="3914.9,2005 3909,2005 3909,2014.8 3914.9,2014.8 3921.8,2018.1 3921.8,2001.6 			
				"/>
			<g id="XMLID_99_">
				<path id="XMLID_101_" class="st17" d="M3930.9,2009.8c0-4.1-3.5-7.4-8.1-8v1.9c3.3,0.6,5.9,3.1,5.9,6.1s-2.5,5.5-5.9,6.1v1.9
					C3927.4,2017.2,3930.9,2013.8,3930.9,2009.8z"/>
				<path id="XMLID_100_" class="st17" d="M3928,2009.8c0-2.7-2.2-4.9-5.1-5.5v2c1.7,0.5,2.9,1.9,2.9,3.5s-1.2,3-2.9,3.5v2
					C3925.8,2014.7,3928,2012.5,3928,2009.8z"/>
			</g>
		</g>
		<path id="XMLID_95_" class="st15" d="M3940.7,2012.3l1.2,2l2.4-1c0.6,0.6,1.3,1.2,2.1,1.6l-0.9,2.1l2.5,0.8l0.9-2.1
			c1,0.1,1.9,0.1,2.8-0.1l1.1,2l2.4-1l-1.1-2c0.7-0.5,1.4-1.1,1.9-1.8l2.5,0.7l0.9-2.1l-2.5-0.7c0.1-0.8,0.1-1.6-0.1-2.4l2.4-1
			l-1.1-2l-2.4,1c-0.6-0.6-1.3-1.2-2.1-1.6l0.9-2.1l-2.5-0.8l-0.9,2.1c-1-0.1-1.9-0.1-2.8,0.1l-1.1-2l-2.4,1l1.1,2
			c-0.8,0.5-1.4,1.1-1.9,1.8l-2.5-0.7l-0.9,2.1l2.5,0.7c-0.1,0.8-0.1,1.6,0.1,2.4L3940.7,2012.3z M3947.1,2009.1
			c0.5-1.3,2.2-2,3.7-1.5s2.3,1.9,1.8,3.2c-0.5,1.3-2.2,2-3.7,1.5C3947.4,2011.8,3946.6,2010.4,3947.1,2009.1z"/>
		<g id="XMLID_90_">
			<polygon id="XMLID_94_" class="st15" points="3975.6,2004.1 3978.9,2004.1 3978.9,2001.9 3972.9,2001.9 3972.9,2007 3975.6,2007 
							"/>
			<polygon id="XMLID_93_" class="st15" points="3989.1,2004.1 3989.1,2007 3991.7,2007 3991.7,2001.9 3985.8,2001.9 3985.8,2004.1 
							"/>
			<polygon id="XMLID_92_" class="st15" points="3975.6,2015.6 3975.6,2012.8 3972.9,2012.8 3972.9,2017.9 3978.9,2017.9 
				3978.9,2015.6 			"/>
			<polygon id="XMLID_91_" class="st15" points="3989.1,2015.6 3985.8,2015.6 3985.8,2017.9 3991.7,2017.9 3991.7,2012.8 
				3989.1,2012.8 			"/>
		</g>
		<g id="XMLID_73_">
			<polygon id="XMLID_89_" class="st18" points="3739.2,1832.9 3706.2,1816.7 3756,1858.1 3773.2,1849.6 			"/>
			<polygon id="XMLID_85_" class="st17" points="3705.3,1816.2 3705.3,1849.6 3705.3,1883 3739.2,1866.3 3756,1858.1 3706.2,1816.7 
							"/>
		</g>
		<path id="XMLID_58_" class="st17" d="M3653.8,1861c-1,0-1.8-0.6-2-1.4c-0.1-0.3-1.6-7.8-0.2-18.3c1.4-9.7,5.7-23.9,18.7-36.2
			c0.8-0.7,2.1-0.8,2.9-0.1c0.8,0.6,0.9,1.8,0.2,2.5c-23.5,22.3-17.6,51.3-17.6,51.6c0.2,1-0.5,1.9-1.7,2
			C3654.1,1861,3653.9,1861,3653.8,1861z"/>
		<path id="XMLID_53_" class="st17" d="M3676.2,1804c-0.5,0-0.9-0.1-1.3-0.4c-0.9-0.6-1-1.7-0.3-2.5c0.2-0.2,5.5-5.7,14.7-9.9
			c1-0.5,2.3-0.1,2.8,0.7c0.5,0.9,0.2,1.9-0.8,2.4c-8.4,3.8-13.4,9-13.5,9C3677.4,1803.7,3676.8,1804,3676.2,1804z"/>
		<path id="XMLID_50_" class="st17" d="M3697.2,1791.3c-0.7,0-1.4-0.3-1.8-0.9c-0.5-0.8-0.2-1.9,0.8-2.4c0.8-0.4,20.5-9.5,48-6.1
			c1.1,0.1,1.9,1,1.7,2s-1.2,1.6-2.3,1.5c-26-3.2-45.2,5.6-45.4,5.7C3697.9,1791.2,3697.5,1791.3,3697.2,1791.3z"/>
		<path id="XMLID_52_" class="st17" d="M3430.1,1754.5c-1.1,0-2.1-0.8-2.1-1.8V1739c0-1,0.9-1.8,2.1-1.8c1.1,0,2.1,0.8,2.1,1.8v13.8
			C3432.2,1753.7,3431.3,1754.5,3430.1,1754.5z"/>
		<path id="XMLID_39_" class="st17" d="M3430.1,1734.5c-1.1,0-2.1-0.8-2.1-1.8c0-14.6,8.6-17.6,15.7-17.6h28.2
			c1.1,0,2.1,0.8,2.1,1.8s-0.9,1.8-2.1,1.8h-28.2c-5,0-11.6,1.5-11.6,14.1C3432.2,1733.7,3431.3,1734.5,3430.1,1734.5z"/>
		<path id="XMLID_56_" class="st17" d="M3494.5,1718.6h-14.7c-1.1,0-2.1-0.8-2.1-1.8s0.9-1.8,2.1-1.8h14.7c1.1,0,2.1,0.8,2.1,1.8
			S3495.7,1718.6,3494.5,1718.6z"/>
	</g>
	<rect id="XMLID_165_" x="3438.7" y="2176.9" class="st8" width="542.7" height="10.7"/>
	<rect id="XMLID_159_" x="3438.7" y="2152.7" class="st8" width="542.7" height="10.7"/>
	<rect id="XMLID_65_" x="3438.8" y="2085.2" class="st8" width="401" height="10.7"/>
	<rect id="XMLID_7_" x="3438.7" y="2104.2" class="st8" width="581.9" height="10.7"/>
	<rect id="XMLID_2_" x="3438.7" y="2132" class="st8" width="502" height="10.7"/>
	<rect id="XMLID_214_" x="2481.4" y="1162.7" class="st8" width="542.7" height="10.7"/>
	<rect id="XMLID_197_" x="2481.4" y="1138.4" class="st8" width="542.7" height="10.7"/>
	<rect id="XMLID_163_" x="2481.5" y="1071" class="st8" width="401" height="10.7"/>
	<rect id="XMLID_57_" x="2481.5" y="1089.8" class="st8" width="581.9" height="10.7"/>
	<rect id="XMLID_3_" x="2481.5" y="1117.8" class="st8" width="502" height="10.7"/>
</g>
<g id="XMLID_59_">
	<rect id="XMLID_6_" x="1910.8" y="1047.6" class="st15" width="1426.8" height="1526.7"/>
	<rect id="XMLID_9_" x="2590.5" y="1138.6" class="st19" width="668.5" height="32.6"/>
	<rect id="XMLID_68_" x="2590.5" y="1248" class="st19" width="668.5" height="32.6"/>
	<rect id="XMLID_198_" x="2590.5" y="1357.3" class="st19" width="668.5" height="32.6"/>
	<rect id="XMLID_135_" x="2590.5" y="1466.7" class="st19" width="668.5" height="32.6"/>
	<rect id="XMLID_216_" x="2590.5" y="1576" class="st19" width="668.5" height="32.6"/>
	<rect id="XMLID_164_" x="2590.5" y="1685.4" class="st19" width="668.5" height="32.6"/>
	<rect id="XMLID_188_" x="1962.3" y="1794.7" class="st19" width="1296.6" height="32.6"/>
	<rect id="XMLID_207_" x="1962.3" y="1910.5" class="st19" width="1296.6" height="32.6"/>
	<rect id="XMLID_232_" x="1962.3" y="2026.3" class="st19" width="1296.6" height="32.6"/>
	<rect id="XMLID_228_" x="1962.3" y="2142.1" class="st19" width="1296.6" height="32.6"/>
	<rect id="XMLID_259_" x="1962.3" y="2257.9" class="st19" width="1296.6" height="32.6"/>
	<rect id="XMLID_236_" x="1962.3" y="2373.7" class="st19" width="1296.6" height="32.6"/>
	<g id="XMLID_230_">
		<g>
			<path id="XMLID_140_" class="st20" d="M2093.3,1490.7l-37.9,122.5h-48.7l124-389.4h56.8l124.5,389.4h-50.3l-39-122.5H2093.3z
				 M2212.9,1451.5l-35.7-112.1c-8.1-25.4-13.5-48.5-18.9-71.1h-1.1c-5.4,23.1-11.4,46.8-18.4,70.5l-35.7,112.6L2212.9,1451.5
				L2212.9,1451.5z"/>
		</g>
	</g>
	<g id="XMLID_229_">
		<g>
			<path id="XMLID_137_" class="st21" d="M2275.3,1448.8l-27.3,88.3h-35.1l89.4-280.6h41l89.7,280.6h-36.3l-28.1-88.3H2275.3z
				 M2361.6,1420.5l-25.8-80.8c-5.9-18.3-9.8-35-13.7-51.2h-0.8c-3.9,16.7-8.2,33.7-13.3,50.8l-25.8,81.2H2361.6z"/>
		</g>
	</g>
</g>
<g id="XMLID_265_">
	<path id="XMLID_438_" class="st22" d="M2388.8,2903.3c0,0,163.9-110.7,198.8-58.3c34.9,52.4,1.7,150.6-232.9,228.4l-117.1-24.8
		h-10.2v-127.8L2388.8,2903.3z"/>
	<path id="XMLID_437_" class="st22" d="M2074.6,2903.3c0,0-163.9-110.7-198.8-58.3s-1.7,150.6,232.9,228.4l117.1-24.8h10.2v-127.8
		L2074.6,2903.3z"/>
	<path id="XMLID_436_" class="st23" d="M2292.4,2527.5c0,0,126.5,20.8,137,48.2c10.5,27.3,80.1,200.1,63.2,225.4
		c-16.9,25.3-56.9,71-137,78.7l-6.3-70.3l44.5-52.9v-37l-74,113.1h-193.9l-40-113.1l-10.5,37l42.2,88.4l-14.8,34.8
		c0,0-105.4-36.6-122.2-72.4c-16.9-35.8,54.8-231.6,82.2-251.7c27.4-20.1,120.1-30.2,120.1-30.2L2292.4,2527.5z"/>
	<path id="XMLID_435_" class="st24" d="M2295.8,2507.7v57.9c0,0-9.7,33.1-52.4,33.1c-42.8,0-62.8-31-62.8-31v-80L2295.8,2507.7z"/>
	<path id="XMLID_434_" class="st25" d="M2299.2,2476.6l17.2-6.9c0,0,15.2-33.9,15.2-42.1c0-8.2,11.7-80.7-22.1-95.8
		c0,0-4.1-34.5-64.1-32.4s-103.4,44.1-97.9,83.4c5.5,39.3,15.2,88.3,18.6,88.3C2169.6,2471.1,2299.2,2476.6,2299.2,2476.6z"/>
	<polygon id="XMLID_433_" class="st26" points="2336.7,2942.3 2366.2,2942.3 2425.2,2879.8 2050,2879.8 2115.4,2942.3 	"/>
	<polygon id="XMLID_432_" class="st27" points="2236.6,2942.3 2366.2,2942.3 2425.2,2748 2050,2748 2115.4,2942.3 	"/>
	<path id="XMLID_431_" class="st28" d="M2309.6,2479.5c0,0-2.1,83.3-66.9,83.3c-64.8,0-72.4-77.9-72.4-77.9l-4.1-81.6l94.5-34.3
		l49,34.3v76.2H2309.6z"/>
	<path id="XMLID_430_" class="st28" d="M2306,2454.6c-3.3,13.1,0,25.3,7.4,27.2s16.1-7.3,19.4-20.4c3.3-13.1,0-25.3-7.4-27.2
		C2318,2432.3,2309.3,2441.5,2306,2454.6z"/>
	<path id="XMLID_429_" class="st28" d="M2171.6,2454.6c3.3,13.1,0,25.3-7.4,27.2s-16.1-7.3-19.4-20.4c-3.3-13.1,0-25.3,7.4-27.2
		C2159.6,2432.3,2168.3,2441.5,2171.6,2454.6z"/>
	<path id="XMLID_428_" class="st25" d="M2176.2,2535.8c-13.6-23.4-22.2-63.6-15.3-132.5c0,0,12.2,82.9,20.3,95.5
		c4.3,6.7,10.9,6.2,19.5,4.4c31.4-9.3,58.1-2.9,65.2-0.9c10.7,2.5,18.6,4.3,23.6-3.4c8-12.6,20.3-95.5,20.3-95.5
		c6.3,62.9,0,101.8-11.1,125.8l0,0c0,0-15.1,40.9-60.3,40.9c-14.3,0-25.8-3.4-34.7-8.1c-7.4-3.5-15.1-9.1-21.9-18.1
		C2177.8,2539.2,2176.2,2535.8,2176.2,2535.8L2176.2,2535.8z"/>
	<path id="XMLID_427_" class="st28" d="M2209.2,2521.3c0,2.6,2.1,4.7,4.7,4.7h40c2.6,0,4.7-2.1,4.7-4.7l0,0c0-2.6-2.1-4.7-4.7-4.7
		h-40C2211.4,2516.6,2209.2,2518.7,2209.2,2521.3L2209.2,2521.3z"/>
	<polygon id="XMLID_426_" class="st29" points="2281.5,2980.7 2281.5,3027.3 2230.7,3058.1 2196.6,3024.8 	"/>
	<g id="XMLID_562_">
		<path id="XMLID_425_" class="st30" d="M2375.5,3045.5l10.8-14.5c0,0,40.4,5.5,27.7,47.1c-12.7,41.5-126.9,19.1-178-4.6
			C2185,3049.7,2375.5,3045.5,2375.5,3045.5z"/>
		<path id="XMLID_424_" class="st31" d="M2227.4,3055.9c0,0-4.4,12.9,8.6,17.5s72.1,23,87.9,23.3c15.8,0.4,82.5,12,89.5-29.6
			s-48.7-36.4-48.7-36.4l-128.1-17.3L2227.4,3055.9z"/>
		<path id="XMLID_423_" class="st30" d="M2256.5,3068.3c0.4,0,0.9-0.1,1.3-0.3c18.3-9.9,14.9-41.5,14.7-42.8c-0.2-1.5-1.5-2.6-3-2.4
			c-1.5,0.2-2.6,1.5-2.4,3l0,0c0,0.3,3.2,29.3-11.9,37.4c-1.3,0.7-1.8,2.4-1.1,3.7C2254.6,3067.7,2255.5,3068.3,2256.5,3068.3z"/>
		<path id="XMLID_422_" class="st30" d="M2274,3071.6c0.8,0,1.5-0.3,2-0.9c19.1-21.7,12.5-45,12.2-46c-0.4-1.4-1.9-2.3-3.4-1.8
			c-1.4,0.4-2.3,1.9-1.8,3.4c0,0.1,1.5,5.5,0.9,13.2c-0.8,10.3-4.9,19.6-12,27.7c-1,1.1-0.9,2.8,0.2,3.8
			C2272.7,3071.4,2273.3,3071.6,2274,3071.6z"/>
		<path id="XMLID_421_" class="st30" d="M2292.3,3080.8c0.9,0,1.7-0.4,2.3-1.2c20.6-30.9,11.4-49.3,11-50.1
			c-0.7-1.3-2.3-1.8-3.7-1.1c-1.3,0.7-1.8,2.3-1.2,3.6c0.1,0.1,2,4.2,1.8,11.6c-0.3,7-2.6,18.3-12.4,33c-0.8,1.2-0.5,2.9,0.7,3.8
			C2291.2,3080.7,2291.8,3080.8,2292.3,3080.8z"/>
	</g>
	<g id="XMLID_283_">
		<path id="XMLID_420_" class="st30" d="M2080.4,3038.2l-10.8-14.5c0,0-40.4,5.5-27.7,47.1c12.7,41.5,126.9,19.1,178-4.6
			C2270.9,3042.5,2080.4,3038.2,2080.4,3038.2z"/>
		<path id="XMLID_419_" class="st31" d="M2228.5,3048.7c0,0,4.4,12.9-8.6,17.5s-72.1,23-87.9,23.4c-15.8,0.4-82.5,12-89.5-29.6
			s48.7-36.4,48.7-36.4l128.1-17.3L2228.5,3048.7z"/>
		<path id="XMLID_418_" class="st30" d="M2199.3,3061c-0.4,0-0.9-0.1-1.3-0.3c-18.3-9.9-14.9-41.5-14.7-42.8c0.2-1.5,1.5-2.6,3-2.4
			c1.5,0.2,2.6,1.5,2.4,3l0,0c0,0.3-3.2,29.3,11.9,37.4c1.3,0.7,1.8,2.4,1.1,3.7C2201.2,3060.5,2200.3,3061,2199.3,3061z"/>
		<path id="XMLID_417_" class="st30" d="M2181.9,3064.3c-0.8,0-1.5-0.3-2-0.9c-19.1-21.7-12.5-45-12.2-46c0.4-1.4,1.9-2.3,3.4-1.8
			c1.4,0.4,2.3,1.9,1.8,3.4c0,0.1-1.5,5.5-0.9,13.2c0.8,10.3,4.9,19.6,12,27.7c1,1.1,0.9,2.8-0.2,3.8
			C2183.2,3064.1,2182.5,3064.3,2181.9,3064.3z"/>
		<path id="XMLID_416_" class="st30" d="M2163.6,3073.5c-0.9,0-1.7-0.4-2.3-1.2c-20.6-30.9-11.4-49.3-11-50.1
			c0.7-1.3,2.3-1.8,3.7-1.1c1.3,0.7,1.8,2.3,1.2,3.6c-0.1,0.1-2,4.2-1.8,11.6c0.3,7,2.6,18.3,12.4,33c0.8,1.2,0.5,2.9-0.7,3.8
			C2164.6,3073.4,2164.1,3073.5,2163.6,3073.5z"/>
	</g>
	<path id="XMLID_415_" class="st29" d="M2193.3,2992.8l-15,51.1l57.7,14.1c0,0,18.8-5.8,14.7-27
		C2246.5,3009.8,2193.3,2992.8,2193.3,2992.8z"/>
	<path id="XMLID_414_" class="st22" d="M2193.3,2992.8l-15,51.1c0,0-109-17.5-147.3-30.4s54.1-56.1,54.1-56.1L2193.3,2992.8z"/>
</g>
<g id="XMLID_276_">
	<polygon id="XMLID_397_" class="st32" points="4644.7,1838.2 4712.1,1764.7 4691.7,1724.4 4608.4,1806.5 4620.4,1841.3 	"/>
	<polygon id="XMLID_396_" class="st15" points="4703,1762.2 4646.1,1826.1 4626.5,1797.9 4689.4,1735 	"/>
	<g id="XMLID_583_">
		<path id="XMLID_395_" class="st33" d="M4672.3,2809.5c-17.7-3.3-87.5-34.4-110.8-40.1c-0.4-6.5,0-15,1.8-26.2
			c7.2-46.3,61.2-14.8,61.2-14.8s28.5,23.2,46.8,33.2c18.3,10.1,56.9,19.8,58.7,29.8c0.5,2.9,1.1,5.6,1.5,8.1
			C4717.9,2803.5,4687,2812.2,4672.3,2809.5z"/>
		<path id="XMLID_394_" class="st34" d="M4672.3,2809.5c14.7,2.7,45.5-5.9,59.1-10.1c1.1,6.1,1.2,10.7-2.8,12.4
			c-5.6,2.3-49.1,9.7-64.2,7.8c-15.2-1.9-72.3-19-83.1-24.6c-8.2-4.3-18.5-5.2-19.8-25.5C4584.8,2775,4654.7,2806.2,4672.3,2809.5z"
			/>
	</g>
	<g id="XMLID_574_">
		<path id="XMLID_388_" class="st33" d="M4564.9,2816.4c-17.3-4.9-84.1-42.3-106.7-50.1c0.2-6.5,1.4-14.9,4.2-26
			c11.4-45.5,62.3-9.2,62.3-9.2s26.3,25.7,43.6,37.4c17.3,11.7,54.9,24.9,55.7,35c0.2,2.9,0.6,5.7,0.8,8.2
			C4610.8,2814.7,4579.2,2820.5,4564.9,2816.4z"/>
		<path id="XMLID_387_" class="st34" d="M4564.9,2816.4c14.4,4,45.9-1.8,59.8-4.7c0.5,6.2,0.2,10.8-3.9,12.1
			c-5.8,1.8-49.7,5.2-64.7,1.9s-70.3-25.5-80.6-32.1c-7.8-5-17.9-6.9-17.4-27.2C4480.8,2774.2,4547.6,2811.6,4564.9,2816.4z"/>
	</g>
	<path id="XMLID_386_" class="st35" d="M4601.3,1744.8l9.3,12.3c0,0,12.1,155.4,16.2,186.2c4,30.8,30.8,150.2,24.1,165
		c-6.7,14.8-24.3-25.5-24.3-25.5l-61.8-315.2L4601.3,1744.8z"/>
	<path id="XMLID_385_" class="st36" d="M4601.3,2068l49.6,40.2c0,0,10.2,72.4,1.1,126.1c-9.1,53.6,11.8,185.1,0,214.6
		s-20,285.3-20,285.3s-54.4,4.9-69.2,2.2c-14.8-2.7-7.1-138.7-7.1-138.7s-4-150.2,0-160.9s-16.1-171.7-16.1-171.7
		s-8,195.8-9.4,242.7c-1.3,46.9,1.1,228,1.1,228s-56.1,4.5-70.1-1.4c-12.4-5.2-29-280.1-37-317.7c-8-37.6-30.8-182.5-30.8-182.5
		s-26.8-76.4-8-134.1C4404.2,2042.5,4601.3,2068,4601.3,2068z"/>
	<path id="XMLID_384_" class="st37" d="M4363,1627l11.7-9.2c0,0,81.6,26.7,112.4,19.1l-3.1-9.9c0,0,53.3,0,84.1,23.5
		c30.8,23.5,40.9,92.5,43.6,115.3l-20.1,5.4c0,0,7.4,97.9,7.4,104.6c0,5,10.8,105.6,21.1,166.1l12.5,42.4c0,0-67,44.9-96.5,45.6
		c-29.5,0.7-158.2,0-158.2,0s-6.7-108.6-11.4-128.7c-4.7-20.1-52.3-138.8-59-168.3C4300.7,1803.3,4253.7,1687.4,4363,1627z"/>
	<path id="XMLID_277_" class="st35" d="M4499.3,1609.8c0,0,0.7,18.2,4.8,29c4.1,10.8,6.7,39.8-10.4,42.8s-93.5-16.5-120.6-60.9
		c0,0,11.9-20.3,15.6-37.8s12.7-57.3,7.8-73.3c-4.8-16,1.1-79.4,16-80.7C4427.5,1427.7,4499.3,1609.8,4499.3,1609.8z"/>
	<path id="XMLID_267_" class="st28" d="M4408.4,1520.5c0,0-8.1,54,35.1,74.6c43.2,20.7,69.8,29.9,75.6,23.7c5.8-6.2,6-13.2,7.1-15.8
		c1.1-2.6,6-6.3,5.6-10.8c0,0,4.1-1.1,3.7-6.7s1.1-16.4,2.2-17.5s13,6.3,13-5.6s-4.5-29-1.5-36.1s16-26.1,15.6-40.6
		c0,0-9.7-68.9-76-69.3s-80.4,10.1-84.5,24.9c-4.1,14.9,3.7,77.1,3.7,77.1"/>
	<path id="XMLID_266_" class="st35" d="M4396.1,1779.7c0,0-40.2,32.2-76.4,45.6c0,0,50.3,126.1,58,146.2s9,13.4,18.4,10.7
		c9.4-2.7,203.8-99.7,230.7-108.2c26.8-8.5,46.9-7.1,52.3-25.9s3.2-51.5,9.9-58.2c6.7-6.7-45.3,26-56.4,26s5-25.5,5-36.2
		s-13.4-12.1-16.1,0s-20.4,17.4-30.8,37.6c-10.5,20.1,0.5,22.7-10.5,28.1s-117.7,18.8-159.6,44.3
		C4420.6,1889.6,4421.6,1822.6,4396.1,1779.7z"/>
	<path id="XMLID_263_" class="st38" d="M4386.9,1412.5c3.4-10.8,24.9-62.4,120.3-43.6c93.5,18.4,68.8,108.7,61.8,117.7
		c-3.8,4.8-14.2-5.1-26.9-17.5c0,0-26-21.2-39.5-22.5c-13.5-1.4-45,8.3-56,13.6l0,0c-20.3,13.9-17.3,40.9-17.3,40.9l-11.7,3.1
		c0,0-8-16.5-16.3-19.9c-8.2-3.4-3.9,48.8-3.9,48.8C4362.9,1504.9,4383.5,1423.3,4386.9,1412.5z"/>
	<path id="XMLID_262_" class="st28" d="M4420.1,1495.8c2.2,14.7-3.6,27.7-13,29.1c-9.3,1.4-18.7-9.4-20.8-24.1
		c-2.2-14.7,3.6-27.7,13-29.1C4408.6,1470.4,4417.9,1481.1,4420.1,1495.8z"/>
</g>
<g id="XMLID_268_">
	<g id="XMLID_590_">
		<g>
			<g id="XMLID_31_">
				<path class="st39" d="M2228.3,616.3c-2.9-41.6-44.6-47-44.6-73.8c0-26.9,12.4-26.9,12.1-49.1c-0.5-42.5-24.4-35.1-23.1-57.9
					c1.3-22.8,7-110.3-72.2-99.7c0,0-32.2-30.9-79.2,10.7s-16.1,75.2-21.5,92.6c-5.4,17.5-33.6,16.1-33.6,45.6s25.5,34.9,20.1,56.4
					c-4.1,16.6-47.5,36.4-41.1,87.8c39,33.1,89.5,53.1,144.7,53.1c52.1,0,100-17.8,138-47.7C2228.6,628.6,2228.7,622.5,2228.3,616.3
					z"/>
			</g>
		</g>
	</g>
	<path id="XMLID_260_" class="st37" d="M2218.5,572.4c-11.6-7.7-47.2-10.4-73.6-11.2c-7,12.5-24.8,35.2-62.3,34.3
		c-37.4-0.9-49.5-25.3-52.5-33.4l-55.2,7.1c-54.5-3.2-83.4,115.3-83.4,115.3l51.4,105.8l20.1-128.6l21.2,166.8l16.4,29.1l86.5,96.1
		c80.1,0,76.9-86.5,76.9-86.5l2.5-25.4c-37.1-9.3-84-25.8-84-25.8v-32.4l5.5-0.1l84.4,0.3l10.8-108.7L2180,784l-7.6-1l-5.9,58.9
		c14.6,3.7,27.6,6.2,35.8,6.2c28.8,0,29-28.8,29-28.8s12.8-157,16-192.3C2250.6,591.6,2237.8,585.2,2218.5,572.4z"/>
	<path id="XMLID_258_" class="st40" d="M1798.3,1404.9c0,0-48.1-3.3-40.7,7.1s20,26.4,52.4,21.6c32.5-4.8,29.1-13.6,47.6-20.6
		s45.4-9.3,43.8-21.3s-19.6-28.3-21.9-30.3s-24.7,7-24.7,7l-15.3,21.3L1798.3,1404.9z"/>
	<path id="XMLID_256_" class="st35" d="M1849.9,1351.1l28.6-2.8l1,13.1c0,0-18,2.4-25.6,19.7c-7.6,17.3-27.9,30.2-46.1,29.1
		c-18.1-1.1-15.1-2.9-15.1-2.9s19.4-10,26.9-18.3c7.4-8.3,12.9-33,27.4-35.4"/>
	<path id="XMLID_255_" class="st40" d="M1520.2,1167.2c0,0-42.1-23.5-39.9-10.9c2.3,12.5,6.8,32.4,38.2,41.9
		c31.4,9.5,32.1,0.1,51.8,1.6c19.7,1.5,45.1,10.9,48.7-0.6c3.6-11.6-5.7-33.9-6.9-36.7c-1.3-2.8-25.4-4.2-25.4-4.2l-22.9,12.7
		L1520.2,1167.2z"/>
	<path id="XMLID_254_" class="st35" d="M1589.7,1140.5l27.1,9.7l-4.6,12.3c0,0-17.3-5.5-31.5,6.9s-38.1,15.4-54.1,6.7
		c-15.9-8.7-12.4-9-12.4-9s21.8-0.7,32.1-5.1c10.3-4.4,25.7-24.4,39.8-20.3"/>
	<path id="XMLID_253_" class="st41" d="M1579.9,1141.1l38.4,13.1c0,0,143.1-159,147.8-184.3c0,0,354.6,31.8,359.2-48.6
		c4.7-80.5-85.1-94.5-176.8-100.1c-91.7-5.6-190.9,5.6-190.9,5.6s-15.9,9.4-30.9,34.6C1711.8,886.6,1579.9,1141.1,1579.9,1141.1z"/>
	<g id="XMLID_572_">
		<path id="XMLID_252_" class="st40" d="M1797.9,936.1c-45.6,19.7-24.7,64.5-24.7,64.5c37.7,128.8,62.8,361.3,62.8,361.3l47.1-9.4
			c0,0,6.3-182.2,18.9-245.1c12.6-62.8-25.1-103.7-25.1-103.7l135.1-31.4C2012,972.4,1857.9,930.8,1797.9,936.1z"/>
	</g>
	<path id="XMLID_251_" class="st35" d="M2125.4,560.8c-0.7-0.7-1.4-1.5-2.1-2.3c-19.2-21.6-7.2-63.2-7.2-63.2h-16.6h-12.2h-30.2
		c0,0,4.3,15,3.6,31.6c-0.5,11.1-3.2,22.9-10.8,31.6c-0.4,0.4-0.7,0.8-1.1,1.2l-18.6,2.4c3,8.1,15.1,32.5,52.5,33.4
		c37.5,0.9,55.3-21.8,62.3-34.3C2137.4,560.9,2130.7,560.8,2125.4,560.8z"/>
	<path id="XMLID_243_" class="st28" d="M2086.6,356.2c-39.6,0-71.7,40.9-71.7,91.3s32.1,91.3,71.7,91.3c39.6,0,71.7-40.9,71.7-91.3
		C2158.2,397.1,2126.2,356.2,2086.6,356.2z"/>
	<path id="XMLID_84_" class="st39" d="M2116,387.9c0,0-25.3,39.4-99.3,39.4c0,0-3.4-78.8,69.9-78.8c73.3,0,75.5,73.4,75.5,73.4
		S2147.9,408.4,2116,387.9z"/>
	<polygon id="XMLID_80_" class="st42" points="2081.3,784 2081.6,772.8 2182,784.5 	"/>
	<path id="XMLID_78_" class="st35" d="M2088.9,781.6c0,0-77.5-15.1-94.1,23.8l1.9,9.1l49.4,3c0,0,11.3-3.8,14.7-1.9
		c3.4,1.9,9.4,6,18.1,2.6c8.7-3.4,14.6-8,14.6-8L2088.9,781.6z"/>
	<polygon id="XMLID_77_" class="st43" points="1701.9,652.6 1782.5,817.9 2021.8,817.9 1949.7,652.3 	"/>
	<path id="XMLID_67_" class="st44" d="M2056.5,821.2c0,2.1-1.7,3.8-3.7,3.8h-269.2c-2.1,0-3.7-1.8-3.7-3.9l0,0
		c0-2.1,1.6-3.6,3.7-3.6h269.2c2.1,0,2.9-0.1,2.9,2L2056.5,821.2z"/>
	<path id="XMLID_64_" class="st44" d="M1884.8,745.7c0,3.9-12.6,7-28.1,7s-28.1-3.1-28.1-7s12.6-7,28.1-7
		C1872.2,738.7,1884.8,741.8,1884.8,745.7z"/>
	<path id="XMLID_62_" class="st45" d="M2082.9,775.2l-0.3,8.3l-0.3,37.2c0,0,47.2,11.8,84.3,21.1l6-57.2L2082.9,775.2z"/>
</g>
</svg>
