<?xml version="1.0" encoding="utf-8"?>
<!-- Generator: Adobe Illustrator 23.0.5, SVG Export Plug-In . SVG Version: 6.00 Build 0)  -->
<svg version="1.1" id="Layer_1" xmlns="http://www.w3.org/2000/svg" xmlns:xlink="http://www.w3.org/1999/xlink" x="0px" y="0px"
	 viewBox="0 0 512 413" style="enable-background:new 0 0 512 413;" xml:space="preserve">
<style type="text/css">
	.st0{fill:#FFFFFF;}
</style>
<path class="st0" d="M205.3,205.6l-19-41.1c-1.5-3.8-6.1-5.3-9.9-3.8l-21.3,9.9c-8.4,3.8-14.4,11.4-16.7,20.5l-3,13.7
	c-3,13.7-3,27.4,1.5,40.3c12.2,40.3,29.7,77.5,52.5,112.5c7.6,11.4,18.2,20.5,30.4,26.6l12.2,6.1c8.4,3.8,18.2,4.6,26.6,0l21.3-9.9
	c3.8-1.5,5.3-6.1,3.8-9.9l-20.5-41.1c-1.5-3.8-6.1-5.3-9.9-3.8l-28.9,13.7c-3,1.5-6.8,0.8-9.1-2.3c-22.8-29.7-38.8-63.1-46.4-99.6
	c-0.8-3.8,0.8-6.8,4.6-8.4l28.9-13.7C205.3,213.9,207.6,209.4,205.3,205.6z"/>
<path class="st0" d="M247.9,261.1c4.6,9.9,4.6,19.8,1.5,28.9l14.4,5.3c4.6-12.9,4.6-27.4-1.5-41.1s-17.5-22.8-30.4-27.4l-5.3,14.4
	C235.8,245.1,244.1,251.9,247.9,261.1z"/>
<path class="st0" d="M242.6,198.7l-5.3,14.4c16.7,6.1,30.4,18.2,38.8,35.7s8.4,35.7,2.3,52.5l14.4,5.3c7.6-19.8,6.8-43.3-3-63.9
	C279.8,220.8,262.4,206.3,242.6,198.7z"/>
<path class="st0" d="M303.4,235.2c11.4,25.1,12.2,51.7,3,75.3l14.4,5.3c9.9-27.4,9.1-58.5-3.8-87.4c-13.7-28.9-37.3-48.7-64.6-59.3
	l-4.6,15.2C271.5,192.6,292,210.9,303.4,235.2z"/>
<path class="st0" d="M330.8,222.3c15.2,32.7,16,67.7,4.6,98.8l14.4,5.3c12.2-34.2,12.2-74.5-5.3-110.2
	c-16.7-36.5-47.1-62.3-81.3-74.5l-5.3,14.4C289,166.8,315.6,190.3,330.8,222.3z"/>
<path class="st0" d="M408,139.5L408,139.5c-9.9-19-28.9-30.4-49.4-30.4c-3.8,0-7.6,0.8-11.4,1.5c-3.8-47.9-43.3-85.2-91.2-85.2
	c-44.9,0-82.9,32.7-89.7,76c-8.4-5.3-18.2-7.6-28.1-7.6c-27.4,0-50.2,20.5-55.5,48.7C50.8,151.6,28,179.8,28,211.7
	c0,39.5,34.2,72.2,76,72.2h22.8v-15.2h-22.9c-33.5,0-60.8-25.8-60.8-57c0-26.6,19.8-50.2,47.1-55.5l6.1-1.5l0.8-5.3
	c2.3-22.8,20.5-40.3,41.8-40.3c10.6,0,21.3,4.6,28.9,12.9l12.9,13.7v-19c0-41.8,34.2-76,76-76s76,34.2,76,76c0,0.8,0,1.5,0,2.3
	l-0.8,13.7l11.4-5.3c5.3-2.3,10.6-3.8,16-3.8c16,0,31.2,9.9,38,25.8l2.3,4.6l6.1-0.8c0.8,0,2.3,0,3,0c33.5,0,60.8,25.8,60.8,57
	s-28.1,58.5-61.6,58.5h-30.4v15.2H408c41.8,0,76-32.7,76-72.2S449.8,139.5,408,139.5z"/>
</svg>
