<?xml version="1.0" encoding="utf-8"?>
<!-- Generator: Adobe Illustrator 23.0.5, SVG Export Plug-In . SVG Version: 6.00 Build 0)  -->
<svg version="1.1" id="Layer_1" xmlns="http://www.w3.org/2000/svg" xmlns:xlink="http://www.w3.org/1999/xlink" x="0px" y="0px"
	 viewBox="0 0 231.1 172.6" style="enable-background:new 0 0 231.1 172.6;" xml:space="preserve">
<style type="text/css">
	.st0{opacity:0.9;fill:#5437E2;enable-background:new    ;}
	.st1{opacity:0.2;}
	.st2{fill:#41C0FD;}
	.st3{fill:#8FEDFF;}
	.st4{fill:#C5F9FF;}
	.st5{fill:url(#SVGID_1_);}
	.st6{fill:#1D8FBC;}
	.st7{fill:#D66767;}
	.st8{fill:url(#SVGID_2_);}
	.st9{fill:url(#SVGID_3_);}
	.st10{fill:url(#SVGID_4_);}
	.st11{fill:url(#SVGID_5_);}
	.st12{fill:#EFB185;}
	.st13{fill:#E6A376;}
	.st14{fill:#471BCE;}
	.st15{fill:#111114;}
	.st16{fill:#632BEE;}
	.st17{fill:#FF61CB;}
	.st18{fill:#231202;}
</style>
<g>
	<path class="st0" d="M192.2,57.5C149,32.6,79,32.6,35.8,57.5s-43.2,65.4,0,90.3s113.2,24.9,156.4,0S235.4,82.5,192.2,57.5z"/>
	<g>
		<g class="st1">
			<path d="M53.6,122.2l47.2,27.4c3,1.7,9,1.5,12-0.3c20.9-12.1,82.4-48,82.4-48c3-1.8,3-4.6,0-6.3l-47.7-27.8L53.6,122.2z"/>
		</g>
		<g>
			<g>
				<g>
					<path class="st2" d="M59.1,117.5c0.7,2.5,42.9,25,42.9,25c2.7,1.6,8.2,1.3,11-0.3c19.1-11,75-43.6,75-43.6
						c2.7-1.6,3.6-5.7,0.9-7.3l-44-24.2C144.8,67.1,52.8,94.4,59.1,117.5z"/>
				</g>
			</g>
		</g>
		<g>
			<path class="st3" d="M58.8,115.5l43.3,25.1c2.7,1.6,8.2,1.3,11-0.3c19.1-11,75.4-43.9,75.4-43.9c2.8-1.6,2.8-4.2,0-5.8
				l-43.7-25.4L58.8,115.5z"/>
		</g>
		<path class="st2" d="M47.3,55.3c0-0.3,0.1-0.6,0.2-1c0-0.1,0-0.2,0.1-0.3c0.1-0.3,0.2-0.7,0.3-1c0-0.1,0-0.1,0-0.2
			c0.1-0.3,0.3-0.6,0.4-0.8c0.1-0.1,0.1-0.2,0.2-0.4c0.1-0.2,0.3-0.4,0.4-0.6c0-0.1,0.1-0.1,0.1-0.2c0.2-0.3,0.4-0.5,0.6-0.7
			c0.1-0.1,0.1-0.1,0.2-0.2c0.2-0.2,0.5-0.4,0.8-0.6l76-43.8c0.3-0.2,0.6-0.3,0.9-0.4c0.1,0,0.2-0.1,0.3-0.1c0.1,0,0.3-0.1,0.4-0.1
			c0.1,0,0.2,0,0.4,0c0.1,0,0.2,0,0.3,0c0.2,0,0.4,0,0.5,0.1l-2.2-0.5c-0.1,0-0.2-0.1-0.4-0.1c-0.1,0-0.1,0-0.2,0s-0.2,0-0.3,0
			c-0.1,0-0.1,0-0.2,0s-0.1,0-0.2,0s-0.3,0-0.4,0.1c-0.1,0-0.1,0-0.2,0c0,0-0.1,0-0.1,0.1c-0.3,0.1-0.6,0.2-0.9,0.4L48.6,49
			c-0.3,0.2-0.5,0.4-0.8,0.6c-0.1,0-0.1,0.1-0.2,0.1c-0.2,0.2-0.5,0.5-0.7,0.7c0,0.1-0.1,0.1-0.1,0.2c-0.1,0.1-0.2,0.2-0.3,0.3
			s-0.1,0.2-0.2,0.3c-0.1,0.1-0.2,0.2-0.2,0.4c0,0.1-0.1,0.1-0.1,0.2c-0.1,0.2-0.2,0.5-0.3,0.7c0,0,0,0.1-0.1,0.1l0,0
			c-0.1,0.3-0.2,0.5-0.3,0.8c0,0.1,0,0.2-0.1,0.3c0,0.1,0,0.2-0.1,0.2c0,0.1-0.1,0.2-0.1,0.3c-0.1,0.2-0.1,0.5-0.1,0.7V55l0,0
			c0,0.3,0,0.7,0,1v0.1c0,0.4,0.1,0.9,0.2,1.3l13.7,60.2l1.8,1.1L47.5,57.8c-0.1-0.4-0.1-0.9-0.2-1.3c0-0.4,0-0.8,0-1.1
			C47.3,55.4,47.3,55.4,47.3,55.3z"/>
		<g>
			<path class="st4" d="M126.7,5.7c2.5-1.4,5.1,0,5.8,3.1l12.3,56.6l-84.3,51.2l-13-58.7c-0.7-3.2,0.8-6.9,3.3-8.3L126.7,5.7z"/>
		</g>
		
			<linearGradient id="SVGID_1_" gradientUnits="userSpaceOnUse" x1="50.4" y1="109.5898" x2="141.4" y2="109.5898" gradientTransform="matrix(1 0 0 -1 0 171.8898)">
			<stop  offset="0" style="stop-color:#2F95E4"/>
			<stop  offset="1" style="stop-color:#7133DE"/>
		</linearGradient>
		<polygon class="st5" points="50.4,59.5 130.8,13.7 141.4,62.2 62.2,110.9 		"/>
		<g>
			<g>
				<path class="st2" d="M173.3,88.1l-76.6,44.2l-25.6-14.9l76.6-44.2L173.3,88.1z M114.9,119.6L150.6,99l-3.4-2l-35.7,20.6
					L114.9,119.6L114.9,119.6z M137.6,91.4l-3.2,1.8l3.4,2l3.2-1.8L137.6,91.4L137.6,91.4z M148.7,89l3.2-1.8l-3.4-2l-3.2,1.8
					L148.7,89L148.7,89z M105.4,114l3.2-1.8l-3.4-2L102,112L105.4,114L105.4,114z M115.9,103.9l-3.2,1.8l3.4,2l3.2-1.8L115.9,103.9
					L115.9,103.9z M94.6,120.3l3.2-1.8l-3.4-2l-3.2,1.8L94.6,120.3L94.6,120.3z M130.2,99.7l-3.4-2l-3.1,1.8l3.5,2L130.2,99.7
					L130.2,99.7z M130.4,95.6l-3.2,1.8l3.4,2l3.2-1.8L130.4,95.6L130.4,95.6z M87.3,124.4l3.2-1.8l-3.5-2l-3.2,1.8L87.3,124.4
					L87.3,124.4z M152.4,86.9l3.1-1.8l-3.4-2l-3.1,1.8L152.4,86.9L152.4,86.9z M119.5,101.8l-3.1,1.8l3.4,2l3.2-1.8L119.5,101.8
					L119.5,101.8z M141.5,93.2l3.2-1.8l-3.4-2l-3.2,1.8L141.5,93.2L141.5,93.2z M108.7,108.1l-3.2,1.8l3.4,2l3.2-1.8L108.7,108.1
					L108.7,108.1z M98.2,118.2l3.2-1.8l-3.5-2l-3.2,1.8L98.2,118.2L98.2,118.2z M104.1,125.8l3.2-1.8l-3.4-2l-3.2,1.8L104.1,125.8
					L104.1,125.8z M153.5,91.8l3.2-1.8l-3.4-2l-3.2,1.8L153.5,91.8L153.5,91.8z M120.7,106.7l-3.2,1.8l3.4,2l3.2-1.8L120.7,106.7
					L120.7,106.7z M132.8,88.6l-3.2,1.8l3.4,2l3.2-1.8L132.8,88.6L132.8,88.6z M143.9,86.2l3.2-1.8l-3.4-2l-3.2,1.8L143.9,86.2
					L143.9,86.2z M128.4,102.3l3.4,2l3.2-1.8l-3.4-2L128.4,102.3L128.4,102.3z M125.4,96.9l-3.4-2l-3.2,1.8l3.4,2L125.4,96.9
					L125.4,96.9z M142.4,94.2l-3.2,1.8l3.4,2l3.2-1.8L142.4,94.2L142.4,94.2z M158.3,94.5l3.2-1.8l-3.4-2l-3.2,1.8L158.3,94.5
					L158.3,94.5z M111.2,101.1L108,103l3.4,2l3.2-1.8L111.2,101.1L111.2,101.1z M99.3,123l3.1-1.8l-3.4-2l-3.2,1.8L99.3,123
					L99.3,123z M110.2,116.8l3.2-1.8l-3.4-2l-3.2,1.8L110.2,116.8L110.2,116.8z M100.6,111.2l3.2-1.8l-3.4-2l-3.1,1.8L100.6,111.2
					L100.6,111.2z M89.8,117.5l3.1-1.8l-3.4-2l-3.2,1.8L89.8,117.5L89.8,117.5z M125.6,92.8l-3.2,1.8l3.4,2l3.2-1.8L125.6,92.8
					L125.6,92.8z M103,121l3.2-1.8l-3.4-2l-3.2,1.8L103,121L103,121z M93.4,115.4l3.2-1.8l-3.4-2l-3.2,1.8L93.4,115.4L93.4,115.4z
					 M124.3,104.6l-3.2,1.8l3.4,2l3.2-1.8L124.3,104.6L124.3,104.6z M136.7,90.4l3.2-1.8l-3.4-2l-3.2,1.8L136.7,90.4L136.7,90.4z
					 M114.8,99.1l-3.2,1.8l3.4,2l3.2-1.8L114.8,99.1L114.8,99.1z M146.3,95.9l3.2-1.8l-3.4-2l-3.2,1.8L146.3,95.9L146.3,95.9z
					 M135.2,98.4l-3.2,1.8l3.4,2l3.2-1.8L135.2,98.4L135.2,98.4z M151.1,98.7l3.2-1.8l-3.4-2l-3.2,1.8L151.1,98.7L151.1,98.7z
					 M113.5,110.9l-3.2,1.8l3.4,2l3.2-1.8L113.5,110.9L113.5,110.9z M103.9,105.3l-3.2,1.8l3.4,2l3.2-1.8L103.9,105.3L103.9,105.3z
					 M96.9,130l3.2-1.8l-3.4-2l-3.2,1.8L96.9,130L96.9,130z M161.9,92.5l3.2-1.8l-3.4-2l-3.2,1.8L161.9,92.5L161.9,92.5z
					 M157.1,89.7l3.2-1.8l-3.4-2l-3.2,1.8L157.1,89.7L157.1,89.7z M92.1,127.2l3.2-1.8l-3.4-2l-3.2,1.8L92.1,127.2L92.1,127.2z
					 M147.5,84.1l3.2-1.8l-3.4-2l-3.2,1.8L147.5,84.1L147.5,84.1z M107.7,123.7l3.2-1.8l-3.4-2l-3.2,1.8L107.7,123.7L107.7,123.7z
					 M82.5,121.6l3.2-1.8l-3.4-2l-3.2,1.8L82.5,121.6L82.5,121.6z M156,84.8l3.1-1.8l-3.4-2l-3.2,1.8L156,84.8L156,84.8z M112.3,106
					l-3.1,1.8l3.4,2l3.1-1.8L112.3,106L112.3,106z M101.8,116.1l3.1-1.8l-3.4-2l-3.2,1.8L101.8,116.1L101.8,116.1z M145.1,91.1
					l3.1-1.8l-3.4-2l-3.2,1.8L145.1,91.1L145.1,91.1z M134,93.5l-3.2,1.8l3.5,2l3.1-1.8L134,93.5L134,93.5z M91,122.3l3.1-1.8
					l-3.4-2l-3.1,1.8L91,122.3L91,122.3z M126.6,101.8l-3.5-2l-3.1,1.8l3.4,2L126.6,101.8L126.6,101.8z M86.2,119.6l3.1-1.8l-3.4-2
					l-3.2,1.8L86.2,119.6L86.2,119.6z M160.7,87.6l3.2-1.8l-3.4-2l-3.2,1.8L160.7,87.6L160.7,87.6z M95.7,125.1l3.2-1.8l-3.4-2
					l-3.2,1.8L95.7,125.1L95.7,125.1z M138.8,96.3l-3.2,1.8l3.4,2l3.2-1.8L138.8,96.3L138.8,96.3z M140.3,88.3l3.2-1.8l-3.4-2
					l-3.1,1.8L140.3,88.3L140.3,88.3z M129.2,90.7l-3.1,1.8l3.4,2l3.2-1.8L129.2,90.7L129.2,90.7z M111.3,121.6l3.2-1.8l-3.4-2
					l-3.2,1.8L111.3,121.6L111.3,121.6z M165.5,90.4l3.2-1.8l-3.4-2l-3.1,1.8L165.5,90.4L165.5,90.4z M106.6,118.9l3.2-1.8l-3.4-2
					l-3.2,1.8L106.6,118.9L106.6,118.9z M149.9,93.9l3.2-1.8l-3.4-2l-3.2,1.8L149.9,93.9L149.9,93.9z M97,113.3l3.2-1.8l-3.5-2
					l-3.1,1.8L97,113.3L97,113.3z M100.5,127.9l3.2-1.8l-3.4-2l-3.2,1.8L100.5,127.9L100.5,127.9z M107.5,103.2l-3.1,1.8l3.4,2
					l3.1-1.8L107.5,103.2L107.5,103.2z M154.7,96.6l3.1-1.8l-3.4-2l-3.1,1.8L154.7,96.6L154.7,96.6z M121.8,99l-3.4-2l-3.1,1.8
					l3.4,2L121.8,99L121.8,99z M124.8,104.4l3.4,2l3.1-1.8l-3.4-2L124.8,104.4L124.8,104.4z M151.2,82l3.2-1.8l-3.4-2l-3.1,1.8
					L151.2,82L151.2,82z M117.1,108.8l-3.2,1.8l3.4,2l3.2-1.8L117.1,108.8L117.1,108.8z M120.4,91.2l-3.2,1.8l2.4,1.4l3.2-1.8
					L120.4,91.2L120.4,91.2z M97.5,104.4l-3.2,1.8l2.4,1.4l3.2-1.8L97.5,104.4L97.5,104.4z M142,78.6l-3.1,1.8l2.4,1.4l3.2-1.8
					L142,78.6L142,78.6z M128.8,86.3l-3.2,1.8l2.4,1.4l3.1-1.8L128.8,86.3L128.8,86.3z M133.6,83.5l-3.2,1.8l2.4,1.4l3.2-1.8
					L133.6,83.5L133.6,83.5z M84.3,112l-3.1,1.8l2.4,1.4l3.2-1.8L84.3,112L84.3,112z M79.5,114.8l-3.2,1.8l2.4,1.4l3.2-1.8
					L79.5,114.8L79.5,114.8z M91.9,110.3l3.1-1.8l-2.4-1.4l-3.1,1.8L91.9,110.3L91.9,110.3z M146.1,79.1l3.1-1.8l-2.4-1.4l-3.1,1.8
					L146.1,79.1L146.1,79.1z M115.6,93.9l-3.1,1.8l2.4,1.4l3.2-1.8L115.6,93.9L115.6,93.9z"/>
			</g>
		</g>
		<g>
			<g>
				<polygon class="st3" points="122.5,94.6 125.9,96.6 129.1,94.8 125.6,92.8 				"/>
			</g>
			<g>
				<polygon class="st3" points="147.7,80 151.2,82 154.3,80.2 150.9,78.2 				"/>
			</g>
			<g>
				<polygon class="st3" points="133.3,88.4 136.7,90.4 139.9,88.6 136.4,86.6 				"/>
			</g>
			<g>
				<polygon class="st3" points="142.8,93.9 146.3,95.9 149.4,94.1 146,92.1 				"/>
			</g>
			<g>
				<polygon class="st3" points="143.7,77.7 146.1,79.1 149.2,77.3 146.8,75.9 				"/>
			</g>
			<g>
				<polygon class="st3" points="138.9,80.5 141.3,81.9 144.4,80 142,78.6 				"/>
			</g>
			<g>
				<polygon class="st3" points="144.1,82.1 147.5,84.1 150.7,82.3 147.3,80.3 				"/>
			</g>
			<g>
				<polygon class="st3" points="152.5,82.8 156,84.8 159.1,83 155.7,81 				"/>
			</g>
			<g>
				<polygon class="st3" points="140.5,84.2 143.9,86.2 147.1,84.4 143.7,82.4 				"/>
			</g>
			<g>
				<polygon class="st3" points="130.5,85.4 132.8,86.7 136,84.9 133.6,83.5 				"/>
			</g>
			<g>
				<polygon class="st3" points="148.9,84.9 152.4,86.9 155.5,85.1 152.1,83.1 				"/>
			</g>
			<g>
				<polygon class="st3" points="157.3,85.6 160.7,87.6 163.9,85.8 160.4,83.8 				"/>
			</g>
			<g>
				<polygon class="st3" points="136.9,86.3 140.3,88.3 143.5,86.5 140,84.5 				"/>
			</g>
			<g>
				<polygon class="st3" points="145.3,87 148.7,89 151.9,87.2 148.4,85.2 				"/>
			</g>
			<g>
				<polygon class="st3" points="125.6,88.1 128.1,89.5 131.2,87.7 128.8,86.3 				"/>
			</g>
			<g>
				<polygon class="st3" points="153.7,87.7 157.1,89.7 160.3,87.9 156.8,85.8 				"/>
			</g>
			<g>
				<polygon class="st3" points="162.1,88.4 165.5,90.4 168.7,88.6 165.2,86.6 				"/>
			</g>
			<g>
				<polygon class="st3" points="141.7,89.1 145.1,91.1 148.3,89.2 144.8,87.2 				"/>
			</g>
			<g>
				<polygon class="st3" points="150.1,89.8 153.5,91.8 156.7,89.9 153.2,87.9 				"/>
			</g>
			<g>
				<polygon class="st3" points="129.7,90.5 133.1,92.5 136.3,90.6 132.8,88.6 				"/>
			</g>
			<g>
				<polygon class="st3" points="138.1,91.2 141.5,93.2 144.7,91.3 141.2,89.3 				"/>
			</g>
			<g>
				<polygon class="st3" points="146.5,91.8 149.9,93.9 153.1,92 149.6,90 				"/>
			</g>
			<g>
				<polygon class="st3" points="117.2,93 119.6,94.4 122.8,92.5 120.4,91.2 				"/>
			</g>
			<g>
				<polygon class="st3" points="126.1,92.5 129.5,94.5 132.7,92.7 129.2,90.7 				"/>
			</g>
			<g>
				<polygon class="st3" points="134.5,93.2 137.9,95.2 141.1,93.4 137.6,91.4 				"/>
			</g>
			<g>
				<polygon class="st3" points="151.2,94.6 154.7,96.6 157.8,94.8 154.4,92.8 				"/>
			</g>
			<g>
				<polygon class="st3" points="112.4,95.8 114.8,97.2 117.9,95.3 115.6,93.9 				"/>
			</g>
			<g>
				<polygon class="st3" points="130.8,95.3 134.3,97.3 137.4,95.5 134,93.5 				"/>
			</g>
			<g>
				<polygon class="st3" points="139.2,96 142.7,98 145.8,96.2 142.4,94.2 				"/>
			</g>
			<g>
				<polygon class="st3" points="118.8,96.7 122.3,98.7 125.4,96.9 122,94.9 				"/>
			</g>
			<g>
				<polygon class="st3" points="147.6,96.7 151.1,98.7 154.2,96.9 150.8,94.9 				"/>
			</g>
			<g>
				<polygon class="st3" points="135.6,98.1 139.1,100.1 142.2,98.3 138.8,96.3 				"/>
			</g>
			<g>
				<polygon class="st3" points="115.2,98.8 118.7,100.8 121.8,99 118.4,97 				"/>
			</g>
			<g>
				<polygon class="st3" points="123.6,99.5 127.1,101.5 130.2,99.7 126.8,97.7 				"/>
			</g>
			<g>
				<polygon class="st3" points="132,100.2 135.5,102.2 138.6,100.4 135.2,98.4 				"/>
			</g>
			<g>
				<polygon class="st3" points="111.6,100.9 115,102.9 118.2,101.1 114.8,99.1 				"/>
			</g>
			<g>
				<polygon class="st3" points="120,101.6 123.5,103.6 126.6,101.8 123.2,99.8 				"/>
			</g>
			<g>
				<polygon class="st3" points="128.4,102.3 131.8,104.3 135,102.5 131.6,100.5 				"/>
			</g>
			<g>
				<polygon class="st3" points="108,103 111.5,105 114.6,103.1 111.2,101.1 				"/>
			</g>
			<g>
				<polygon class="st3" points="116.4,103.7 119.8,105.7 123,103.8 119.5,101.8 				"/>
			</g>
			<g>
				<polygon class="st3" points="124.8,104.4 128.2,106.4 131.4,104.5 128,102.5 				"/>
			</g>
			<g>
				<polygon class="st3" points="104.4,105.1 107.8,107 111,105.2 107.5,103.2 				"/>
			</g>
			<g>
				<polygon class="st3" points="94.3,106.2 96.7,107.6 99.9,105.7 97.5,104.4 				"/>
			</g>
			<g>
				<polygon class="st3" points="112.8,105.7 116.2,107.8 119.4,105.9 115.9,103.9 				"/>
			</g>
			<g>
				<polygon class="st3" points="121.2,106.5 124.6,108.4 127.8,106.6 124.3,104.6 				"/>
			</g>
			<g>
				<polygon class="st3" points="100.8,107.1 104.2,109.1 107.4,107.3 103.9,105.3 				"/>
			</g>
			<g>
				<polygon class="st3" points="109.2,107.8 112.6,109.8 115.8,108 112.3,106 				"/>
			</g>
			<g>
				<polygon class="st3" points="89.5,109 91.9,110.3 95.1,108.5 92.7,107.1 				"/>
			</g>
			<g>
				<polygon class="st3" points="117.6,108.5 121,110.5 124.2,108.7 120.7,106.7 				"/>
			</g>
			<g>
				<polygon class="st3" points="97.2,109.2 100.6,111.2 103.8,109.4 100.3,107.4 				"/>
			</g>
			<g>
				<polygon class="st3" points="105.6,109.9 109,111.9 112.2,110.1 108.7,108.1 				"/>
			</g>
			<g>
				<polygon class="st3" points="114,110.6 117.4,112.6 120.5,110.8 117.1,108.8 				"/>
			</g>
			<g>
				<polygon class="st3" points="93.6,111.3 97,113.3 100.2,111.5 96.7,109.5 				"/>
			</g>
			<g>
				<polygon class="st3" points="102,112 105.4,114 108.6,112.2 105.1,110.2 				"/>
			</g>
			<g>
				<polygon class="st3" points="110.3,112.7 113.8,114.7 116.9,112.9 113.5,110.9 				"/>
			</g>
			<g>
				<polygon class="st3" points="81.1,113.8 83.5,115.2 86.7,113.4 84.3,112 				"/>
			</g>
			<g>
				<polygon class="st3" points="90,113.4 93.4,115.4 96.6,113.6 93.1,111.6 				"/>
			</g>
			<g>
				<polygon class="st3" points="98.3,114.1 101.8,116.1 104.9,114.3 101.5,112.3 				"/>
			</g>
			<g>
				<polygon class="st3" points="86.3,115.5 89.8,117.5 92.9,115.6 89.5,113.7 				"/>
			</g>
			<g>
				<polygon class="st3" points="76.3,116.6 78.7,118 81.8,116.2 79.5,114.8 				"/>
			</g>
			<g>
				<polygon class="st3" points="94.7,116.2 98.2,118.2 101.3,116.3 97.9,114.4 				"/>
			</g>
			<g>
				<polygon class="st3" points="103.1,116.9 106.6,118.9 109.7,117 106.3,115 				"/>
			</g>
			<g>
				<polygon class="st3" points="82.7,117.5 86.2,119.6 89.3,117.7 85.9,115.7 				"/>
			</g>
			<g>
				<polygon class="st3" points="111.5,117.5 114.9,119.6 150.6,99 147.2,97 				"/>
			</g>
			<g>
				<polygon class="st3" points="91.1,118.3 94.6,120.3 97.7,118.4 94.3,116.4 				"/>
			</g>
			<g>
				<polygon class="st3" points="99.5,119 103,121 106.1,119.1 102.7,117.1 				"/>
			</g>
			<g>
				<polygon class="st3" points="79.1,119.7 82.5,121.6 85.7,119.8 82.3,117.8 				"/>
			</g>
			<g>
				<polygon class="st3" points="107.9,119.7 111.3,121.6 114.5,119.8 111.1,117.8 				"/>
			</g>
			<g>
				<polygon class="st3" points="87.5,120.3 91,122.3 94.1,120.5 90.7,118.5 				"/>
			</g>
			<g>
				<polygon class="st3" points="95.9,121 99.3,123 102.5,121.2 99.1,119.2 				"/>
			</g>
			<g>
				<polygon class="st3" points="104.3,121.7 107.7,123.7 110.9,121.9 107.5,119.9 				"/>
			</g>
			<g>
				<polygon class="st3" points="83.9,122.4 87.3,124.4 90.5,122.6 87.1,120.6 				"/>
			</g>
			<g>
				<polygon class="st3" points="92.3,123.1 95.7,125.1 98.9,123.3 95.5,121.3 				"/>
			</g>
			<g>
				<polygon class="st3" points="100.7,123.8 104.1,125.8 107.3,124 103.8,122 				"/>
			</g>
			<g>
				<polygon class="st3" points="88.7,125.2 92.1,127.2 95.3,125.4 91.8,123.4 				"/>
			</g>
			<g>
				<polygon class="st3" points="97.1,125.9 100.5,127.9 103.7,126.1 100.2,124.1 				"/>
			</g>
			<g>
				<polygon class="st3" points="93.5,128 96.9,130 100,128.1 96.6,126.2 				"/>
			</g>
			<g>
				<polygon class="st3" points="127.2,97.4 130.7,99.4 133.8,97.6 130.4,95.6 				"/>
			</g>
			<g>
				<polygon class="st3" points="106.7,114.8 110.2,116.8 113.3,115 109.9,113 				"/>
			</g>
			<g>
				<polygon class="st3" points="154.8,92.5 158.3,94.5 161.5,92.7 158,90.7 				"/>
			</g>
			<g>
				<polygon class="st3" points="158.5,90.5 161.9,92.5 165.1,90.6 161.6,88.6 				"/>
			</g>
		</g>
		<g>
			<path class="st6" d="M132.4,113.6c-1.1,0.6-1.1,1.7,0,2.3l7.2,4.2c1.1,0.6,2.9,0.6,4,0l9.8-5.7c1.1-0.6,1.1-1.7,0-2.3l-7.2-4.2
				c-1.1-0.6-2.9-0.6-4,0L132.4,113.6z"/>
		</g>
		<g>
			<g>
				<path class="st2" d="M132.4,113.9c-1.1,0.6-1.1,1.7,0,2.3l7.2,4.2c1.1,0.7,2.9,0.7,4,0l9.8-5.6c1.1-0.6,1.1-1.7,0-2.3l-7.2-4.2
					c-1.1-0.6-2.9-0.6-4,0L132.4,113.9z"/>
			</g>
		</g>
		<g>
			<g>
				<polygon class="st7" points="53.1,69.6 53.2,77.8 51.2,78.9 51.2,70.7 				"/>
			</g>
			<g>
				<polygon class="st7" points="45.5,74 45.5,82.2 43.6,83.3 43.6,75.1 				"/>
			</g>
			<g>
				<polygon class="st7" points="63.3,63.7 63.3,71.9 61.4,73 61.4,64.8 				"/>
			</g>
			<g>
				<polygon class="st7" points="59.5,60.8 59.5,79 57.6,80.1 57.6,61.9 				"/>
			</g>
			<g>
				<polygon class="st7" points="49.3,66.7 49.4,84.9 47.5,86 47.4,67.8 				"/>
			</g>
			<g>
				<polygon class="st7" points="56.3,58.6 56.4,85.6 54.5,86.7 54.4,59.7 				"/>
			</g>
			<g>
				<polygon class="st7" points="124.8,27.8 124.8,36.1 122.9,37.2 122.9,28.9 				"/>
			</g>
			<g>
				<polygon class="st7" points="117.2,32.2 117.2,40.5 115.3,41.6 115.3,33.3 				"/>
			</g>
			<g>
				<polygon class="st7" points="134.9,22 134.9,30.2 133,31.3 133,23.1 				"/>
			</g>
			<g>
				<polygon class="st7" points="131.1,19.1 131.1,37.3 129.2,38.4 129.2,20.2 				"/>
			</g>
			<g>
				<polygon class="st7" points="120.9,24.9 121,43.2 119.1,44.3 119,26 				"/>
			</g>
			<g>
				<polygon class="st7" points="127.9,16.9 128,43.9 126.1,45 126,18 				"/>
			</g>
			<g>
				<polygon class="st7" points="138.7,20.2 138.7,32.9 136.8,34 136.8,21.3 				"/>
			</g>
			<g>
				<polygon class="st7" points="148.9,14.3 148.9,22.5 147,23.6 147,15.4 				"/>
			</g>
			<g>
				<polygon class="st7" points="145,11.4 145.1,29.6 143.2,30.7 143.1,12.5 				"/>
			</g>
			<g>
				<polygon class="st7" points="141.9,9.2 141.9,36.2 140,37.3 140,10.3 				"/>
			</g>
			<g>
				<polygon class="st7" points="70.9,52 70.9,67.5 69,68.6 69,53.1 				"/>
			</g>
			<g>
				<polygon class="st7" points="81,53.5 81.1,69.1 79.2,70.2 79.1,54.6 				"/>
			</g>
			<g>
				<polygon class="st7" points="77.2,50.6 77.3,68.8 75.4,69.9 75.3,51.7 				"/>
			</g>
			<g>
				<polygon class="st7" points="88.6,40 88.7,57.3 86.7,58.4 86.7,41.1 				"/>
			</g>
			<g>
				<polygon class="st7" points="84.8,46.2 84.9,64.4 83,65.5 82.9,47.3 				"/>
			</g>
			<g>
				<polygon class="st7" points="67.1,56.4 67.1,74.6 65.2,75.7 65.2,57.5 				"/>
			</g>
			<g>
				<polygon class="st7" points="74,48.4 74.1,75.3 72.2,76.4 72.1,49.5 				"/>
			</g>
			<g>
				<polygon class="st7" points="96.2,44.7 96.3,52.9 94.4,54 94.3,45.8 				"/>
			</g>
			<g>
				<polygon class="st7" points="106.4,38.8 106.4,54.5 104.5,55.6 104.5,39.9 				"/>
			</g>
			<g>
				<polygon class="st7" points="102.6,35.9 102.6,54.1 100.7,55.2 100.7,37 				"/>
			</g>
			<g>
				<polygon class="st7" points="114,34.4 114,42.6 112.1,43.7 112.1,35.5 				"/>
			</g>
			<g>
				<polygon class="st7" points="110.2,40.6 110.2,49.7 108.3,50.8 108.3,41.7 				"/>
			</g>
			<g>
				<polygon class="st7" points="92.4,41.8 92.5,60 90.6,61.1 90.5,42.9 				"/>
			</g>
			<g>
				<polygon class="st7" points="99.4,33.7 99.5,60.7 97.6,61.8 97.5,34.8 				"/>
			</g>
		</g>
		<g>
			
				<linearGradient id="SVGID_2_" gradientUnits="userSpaceOnUse" x1="108.1931" y1="93.44" x2="142.4931" y2="93.44" gradientTransform="matrix(1 0 0 -1 0 171.8898)">
				<stop  offset="0" style="stop-color:#4845E8"/>
				<stop  offset="0.3953" style="stop-color:#4137CB"/>
				<stop  offset="1" style="stop-color:#351F98"/>
			</linearGradient>
			<path class="st8" d="M137.1,67.8c-0.3,0.2-0.7,0.5-1.1,0.8c-2.4,2.2-3.7,9.3-7,11.2c-3.3,1.9-3.1-5.9-4.2-11.8
				c-0.6-3.1-2.6-3.6-4.6-2.4c-1.8,1-3.6,3.3-4.3,6.2c-1.6,6-1,15.9-7.8,20.1l34.3-19.7C140.9,68.1,139.2,66.6,137.1,67.8z"/>
			
				<linearGradient id="SVGID_3_" gradientUnits="userSpaceOnUse" x1="83.9275" y1="87.2918" x2="107.85" y2="87.2918" gradientTransform="matrix(1 0 0 -1 0 171.8898)">
				<stop  offset="0" style="stop-color:#4845E8"/>
				<stop  offset="0.3953" style="stop-color:#4137CB"/>
				<stop  offset="1" style="stop-color:#351F98"/>
			</linearGradient>
			<path class="st9" d="M101.1,64c-0.9-0.8-1.9-0.8-2.8-0.3c-4.1,2.4-7.7,16.8-8.6,28.4c-0.7,8.4-3.3,12.3-5.7,13.7
				c-1.6,0.9,23.8-13.7,23.8-13.7C102.7,94.7,106.2,68.3,101.1,64z"/>
		</g>
		<g>
			
				<linearGradient id="SVGID_4_" gradientUnits="userSpaceOnUse" x1="65.8979" y1="76.6588" x2="90.6766" y2="76.6588" gradientTransform="matrix(1 0 0 -1 0 171.8898)">
				<stop  offset="0" style="stop-color:#E3D969"/>
				<stop  offset="0.1535" style="stop-color:#E4BE71"/>
				<stop  offset="0.4039" style="stop-color:#E6997C"/>
				<stop  offset="0.6364" style="stop-color:#E87E84"/>
				<stop  offset="0.8423" style="stop-color:#E96E88"/>
				<stop  offset="1" style="stop-color:#E9688A"/>
			</linearGradient>
			<path class="st10" d="M83.6,73.9c-1-0.8-1.9-0.9-2.9-0.3c-4.3,2.5-8,17.4-8.9,29.4c-0.7,8.7-3.4,12.7-5.9,14.2
				c-1.7,1,24.7-14.1,24.7-14.1C85.3,105.7,89,78.4,83.6,73.9z"/>
			
				<linearGradient id="SVGID_5_" gradientUnits="userSpaceOnUse" x1="91.0315" y1="100.4826" x2="148.1091" y2="100.4826" gradientTransform="matrix(1 0 0 -1 0 171.8898)">
				<stop  offset="0" style="stop-color:#E3D969"/>
				<stop  offset="0.1535" style="stop-color:#E4BE71"/>
				<stop  offset="0.4039" style="stop-color:#E6997C"/>
				<stop  offset="0.6364" style="stop-color:#E87E84"/>
				<stop  offset="0.8423" style="stop-color:#E96E88"/>
				<stop  offset="1" style="stop-color:#E9688A"/>
			</linearGradient>
			<path class="st11" d="M148.1,69.9c-5.4,2.7-1.7-24.6-7.1-29.1c-1-0.8-1.9-0.9-2.9-0.3c-4.3,2.5-8,17.4-8.9,29.4
				c-0.4,5.5-1.7,9.1-3.1,11.4c-1.5-3.4-3.1-4.6-5.1-3.5c-0.4,0.2-0.7,0.5-1.1,0.8c-2.5,2.3-3.8,9.6-7.2,11.6
				c-3.4,2-3.3-6.1-4.4-12.2c-0.6-3.2-2.7-3.7-4.8-2.5c-1.9,1.1-3.7,3.5-4.5,6.4c-1.7,6.2-1,16.5-8.1,20.8l35.5-20.4
				c0,0,0-0.1-0.1-0.1C133.2,78.5,148.1,69.9,148.1,69.9z"/>
		</g>
		<g>
			<g class="st1">
				<path d="M147.3,101c6.4,3.7,6.5,9.8,0.1,13.5s-16.8,3.7-23.3,0c-6.4-3.7-6.5-9.8-0.1-13.5C130.4,97.3,140.8,97.3,147.3,101z"/>
			</g>
			<g>
				<g>
					<path class="st12" d="M131,40.8c0,0-0.6-2.3-0.9-2.7c-0.3-0.4-1.5-2.2-3.3-2.2c-0.9,0-0.3,0.9,0.7,1.8c0.5,0.4,0.9,0.7,0.9,1.7
						c0,0.8,0.4,1.9,0.6,2.4C129.3,42.4,131,40.8,131,40.8z"/>
					<path class="st13" d="M129,41.7c-0.2-0.5-0.5-1.6-1-2.2c-0.6-0.7,0-1.4-0.4-1.9c-0.8-0.8-1.3-1.5-1.1-1.8
						c0.5,0.6,1.6,0.3,2.5,2.2c0.3,0.7,0.7,2.6,0.7,3.5C129.2,41.8,129.1,41.9,129,41.7z"/>
					<path class="st14" d="M146.9,49.3c0,0,0.2,2.9-3.6,2.4s-10.8-2.4-11.9-4.1c-1.1-1.7-2.6-6.3-2.6-6.3s1.9,0.4,2.4-1.2l3.7,5.6
						C134.8,45.7,146.8,47.3,146.9,49.3z"/>
					<path class="st12" d="M129.7,41.6c0,0-1.9-1.9-2.4-2.5c-0.5-0.7-0.6-1.3-0.4-1.3s1.7,1.9,2.2,1.2
						C129.4,38.5,129.4,41.2,129.7,41.6z"/>
				</g>
				<path class="st15" d="M136.7,107.5c0,0,1.3,2-0.5,2.5s-1.2-0.6-5.1,0.3c-3.8,1-3.4-1.2-3.3-1.6s1.8-1,2.6-1.3
					c0.8-0.2,4.2-1,4.2-1l2,0.4L136.7,107.5z"/>
				<path class="st15" d="M139,101.9c0,0-1.5,0.2-1.1,1.1c0.4,0.8,2,2.1,2.3,2.7c0.2,0.5,1.6,2.2,2,2.3c0.8,0.1,1.6,0.1,1.5-2.1
					C143.5,103.6,140.9,101.8,139,101.9z"/>
				<path class="st12" d="M145.3,64.7c0,0,2.8,4.2,1,11.3c0,0-3.2,10.8-2.6,12.9c0.6,2.1,2.8,4.7,1.2,11.5c0,0-1.2,4-1.3,5.1
					s-2,1.3-2.3,0c-0.6-2.7-0.1-6.8-0.6-8.8c-1.3-6.6-2-10-1.6-14.5S139,67.6,139,67.6S144.1,68.1,145.3,64.7z"/>
				<path class="st12" d="M142.1,67.3c0,0,2.4,4.5-0.1,11.4c0,0-4.2,10.4-3.8,12.6s2.1,3.6,0.2,11.6c0,0-1.6,3.9-1.7,5
					c-0.2,1.8-2,2-2.2,0.7c-0.4-2.6,0.4-7.7,0.2-9.7c-0.7-6.7-1.1-10.2-0.3-14.6s1.3-14.6,1.3-14.6S140.6,70.6,142.1,67.3z"/>
				<path class="st16" d="M135,52.6c0,0,8-7.8,10.7-5.6c0,0,2.4,1.8,1.4,8.3c-1,6.4-2.6,7.5-1,11.4c0,0-3.1,6.3-11.1,3.4
					c0,0,1.2-6.4,0.3-8.2c-2.3-4.7-2.5-7.1-0.6-8.9L135,52.6z"/>
				<path class="st17" d="M146.1,66.7c0,0,3.4,2.8,1.8,12.7c-1.1,6.7,0,20,0,20s-8.4,5.2-15.3,2.1c0,0-0.3-12.9,0.5-21.2
					s1.9-10.2,1.9-10.2S141.2,72.8,146.1,66.7z"/>
				<path class="st15" d="M133.9,107c0,0,1,2.2,2.8,0.5c0,0,0.3,2.3-1.4,2S132.9,107.5,133.9,107z"/>
				<g>
					<g>
						<g>
							<path class="st12" d="M120.5,58.5c0,0-1.9,0-2.6-0.9c-0.7-0.8-1.6-1.7-1.8-2.4c-0.2-0.8-0.1-1,0.5-0.9s2.2,1.2,3.1,1.9
								c0.8,0.8,1,0.6,1.3,0.8C121.3,57.1,121.5,58,120.5,58.5z"/>
						</g>
						<g>
							<path class="st12" d="M121,57c-0.3-0.1-0.5,0-1.3-0.8s-2.5-1.8-3.1-1.9c-0.1,0-0.2,0-0.2,0c0.5,0.5,1.3,1.3,2,2.1
								c0.9,0.9,2.3,1.2,2.8,1.3C121.3,57.3,121.2,57,121,57z"/>
						</g>
					</g>
					<g>
						<g>
							<path class="st14" d="M137.3,53.7c-0.5-0.7-1.9-1.5-3.7,0.2s-6.7,6.5-6.7,6.5s-5.7-3.4-6.4-3.7c0,0,0.6,1.2-0.6,1.8
								c0,0,4.7,5.7,6.9,5.5C129,63.7,139.5,56.8,137.3,53.7z"/>
						</g>
					</g>
					<path class="st12" d="M120.8,57.1c0,0-1.1-1.7-1.5-2.2s-0.9-0.6-0.9-0.5c0,0.2,1.1,1.6,0.5,1.9
						C118.5,56.4,120.6,56.9,120.8,57.1z"/>
				</g>
				<path class="st12" d="M137.4,47.7l-0.3,3.6c0,0,3.3,1.8,5.7-1.1l-0.4-3.9C142.5,46.4,140.2,48,137.4,47.7z"/>
				<path class="st18" d="M138.8,36.7c-1.1,0.1-2.4,0.3-4,2.1c-1.7,2-1.8,4.2-0.3,7.1c1.6,3.1-0.3,7.3-1,7.9
					c-0.7,0.6,8.4,0.4,11.9-4.8C145.4,49,147,35.9,138.8,36.7z"/>
				<path class="st15" d="M132.9,107c0,0,1-0.3,1.1-2c0,0,1.2,0.8,3.3,0.3c0,0,0.1,3.2-0.4,4.1C137,109.4,132.4,108.8,132.9,107z"/>
				<path class="st15" d="M141.1,103.8c0,0,1.4,1.8,2.6,1c0,0,0,1.5-0.1,1.8c0,0.3-1.4,0.7-1.9,0.1
					C141.2,106.2,140.8,104.4,141.1,103.8z"/>
			</g>
		</g>
	</g>
</g>
</svg>
