<?xml version="1.0" encoding="utf-8"?>
<!-- Generator: Adobe Illustrator 23.0.5, SVG Export Plug-In . SVG Version: 6.00 Build 0)  -->
<svg version="1.1" id="Capa_1" xmlns="http://www.w3.org/2000/svg" xmlns:xlink="http://www.w3.org/1999/xlink" x="0px" y="0px"
	 viewBox="0 0 70.9 70.9" style="enable-background:new 0 0 70.9 70.9;" xml:space="preserve">
<style type="text/css">
	.st0{fill:#E2EBF7;}
	.st1{fill:#325C8A;}
</style>
<path class="st0" d="M69.8,35.4c0,19-15.4,34.4-34.4,34.4S1,54.4,1,35.4S16.4,1,35.4,1S69.8,16.4,69.8,35.4z"/>
<g>
	<path class="st1" d="M52.2,34.9c0-0.2-0.2-0.3-0.4-0.3l-1.1,0.2c0,0,0,0-0.1,0c-0.2-0.4-0.5-0.7-0.9-1l0.4-1c0.1-0.2,0-0.4-0.2-0.4
		L48.5,32c-0.2-0.1-0.4,0-0.4,0.2l-0.4,1c0,0,0,0,0,0.1c-0.4,0-0.9,0.1-1.3,0.3l-0.7-0.8c-0.1-0.1-0.3-0.2-0.5,0l-1.1,0.9
		c-0.1,0.1-0.2,0.3,0,0.5l0.7,0.8c0,0,0,0,0.1,0c-0.1,0.2-0.2,0.3-0.2,0.5c-0.1,0.3-0.1,0.5-0.2,0.8l-1.1,0.2
		c-0.2,0-0.3,0.2-0.3,0.4l0.3,1.4c0,0.2,0.2,0.3,0.4,0.3l1.1-0.2c0,0,0,0,0.1,0c0.2,0.4,0.5,0.7,0.9,1l-0.4,1
		c-0.1,0.2,0,0.4,0.2,0.4l1.4,0.5c0.2,0.1,0.4,0,0.4-0.2l0.4-1c0,0,0,0,0-0.1c0.4,0,0.9-0.1,1.3-0.3l0.7,0.8c0.1,0.1,0.3,0.2,0.5,0
		l1.1-0.9c0.1-0.1,0.2-0.3,0-0.5l-0.7-0.8c0,0,0,0-0.1,0c0.1-0.2,0.2-0.3,0.2-0.5c0.1-0.3,0.1-0.5,0.2-0.8l1.1-0.2
		c0.2,0,0.3-0.2,0.3-0.4L52.2,34.9z M49.3,37.1c-0.3,0.8-1.2,1.3-2,1s-1.3-1.2-1-2s1.2-1.3,2-1C49.2,35.4,49.6,36.3,49.3,37.1z"/>
	<path class="st1" d="M59.7,26.6c-0.3-0.4-0.9-0.7-1.4-0.7H42c0.4,1.2,0.4,2.4,0.1,3.6h13.8L52.3,42v0.1H27.5l-4-12.7h4.8
		c-0.3-1.2-0.2-2.4,0.1-3.6h-6.5l-1.5-4.5c-0.2-0.6-0.6-1-1.2-1.2l-6.3-1.8c-1-0.3-1.9,0.3-2.2,1.2c-0.3,1,0.3,1.9,1.2,2.2l5.4,1.5
		l6.8,20.5l-1.4,4.7c-2,0.5-3.4,2.3-3.4,4.5c0,2.6,2.1,4.7,4.7,4.7c1.9,0,3.6-1.2,4.3-2.9H43c0.7,1.7,2.4,2.9,4.3,2.9
		c2.6,0,4.7-2.1,4.7-4.7c0-2.6-2.1-4.7-4.7-4.7c-1.9,0-3.6,1.2-4.3,2.9H28.4c-0.4-0.9-1.1-1.7-1.9-2.2l1-3.4h25
		c1.7,0,3.1-1.3,3.3-2.9L60,28.2C60.1,27.6,60,27,59.7,26.6z"/>
	<path class="st1" d="M37.9,25.2c1.5,1.4,1.6,3.8,0.2,5.4c-1.4,1.5-3.8,1.6-5.4,0.2c-1.5-1.4-1.6-3.8-0.2-5.4
		C33.9,23.8,36.3,23.8,37.9,25.2z"/>
	<path class="st1" d="M43.9,21.3l-0.4-0.4l-1.1-1L42,19.5l-1.6,1.2c-0.4-0.3-0.8-0.5-1.2-0.7l0.2-2.1l-0.6-0.1l-1.4-0.3l-0.6-0.1
		L36.1,19c-0.5-0.1-0.9-0.1-1.4,0l-0.9-1.9l-0.6,0.2l-1.4,0.4l-0.6,0.2l0.3,1.9c-0.4,0.2-0.9,0.4-1.3,0.7l-1.7-1.2l-0.4,0.4l-1,1.1
		l-0.4,0.4l1.2,1.5c-0.3,0.4-0.5,0.8-0.7,1.2l-2-0.2L25,24.3l-0.3,1.4l-0.1,0.6l1.8,0.7c0,0.5,0,0.9,0,1.4l-1.9,0.9l0.2,0.6l0.4,1.4
		l0.2,0.6l1.9-0.3c0.2,0.4,0.4,0.8,0.7,1.2l-1.2,1.8L27,35l1.1,1l0.4,0.4l1.6-1.2c0.4,0.3,0.8,0.5,1.2,0.7L31.1,38l0.6,0.1l1.4,0.3
		l0.6,0.1l0.7-1.8c0.5,0.1,0.9,0.1,1.4,0l0.9,1.9l0.6-0.2l1.4-0.4l0.6-0.2L39,36.2c0.4-0.2,0.8-0.4,1.3-0.7l1.7,1.2l0.4-0.4l1-1.1
		l0.4-0.4l-1.2-1.5c0.3-0.4,0.5-0.8,0.7-1.2l2,0.2l0.1-0.6l0.3-1.4l0.1-0.6L44,29c0-0.5,0-0.9,0-1.4l1.9-0.9V26l-0.4-1.4L45.3,24
		l-1.9,0.3c-0.2-0.4-0.4-0.8-0.7-1.2L43.9,21.3z M39.9,32.3c-2.4,2.5-6.3,2.6-8.9,0.2c-2.5-2.4-2.7-6.4-0.3-8.9s6.3-2.6,8.9-0.2
		C42.1,25.8,42.2,29.8,39.9,32.3z"/>
</g>
</svg>
