<?xml version="1.0" encoding="utf-8"?>
<!-- Generator: Adobe Illustrator 23.0.5, SVG Export Plug-In . SVG Version: 6.00 Build 0)  -->
<svg version="1.1" id="Capa_1" xmlns="http://www.w3.org/2000/svg" xmlns:xlink="http://www.w3.org/1999/xlink" x="0px" y="0px"
	 viewBox="0 0 218.3 154" style="enable-background:new 0 0 218.3 154;" xml:space="preserve">
<style type="text/css">
	.st0{fill:#FDBF14;}
	.st1{fill:#325C8A;}
	.st2{fill:#FDD360;}
	.st3{fill:#FFFFFF;}
	.st4{fill:#CB9830;}
	.st5{fill:#4B5058;}
	.st6{fill:#E5D382;}
	.st7{fill:#E5E7EA;}
	.st8{fill:#E5EBF6;}
	.st9{fill:#4060A4;}
	.st10{clip-path:url(#SVGID_2_);}
	.st11{fill:#E4CFCB;}
	.st12{fill:#BD8E0F;}
	.st13{fill:#B18D86;}
	.st14{fill:#F6E9E6;}
	.st15{fill:#D1B2AC;}
	.st16{fill:#EDEDEC;}
	.st17{fill:#972930;}
	.st18{fill:#E0D2B6;}
	.st19{fill:#2F4862;}
	.st20{fill:#D5C09B;}
	.st21{fill:#2B4057;}
	.st22{fill:#E0A433;}
	.st23{fill:#1A1714;}
	.st24{fill:#CDD3D4;}
	.st25{fill:#B7BCBE;}
	.st26{fill:#D58560;}
	.st27{fill:#CD7F59;}
	.st28{fill:#D6DEEE;}
	.st29{enable-background:new    ;}
	.st30{fill:#E6C03B;}
	.st31{fill:#DA9630;}
	.st32{fill:#E6C13B;}
	.st33{fill:#2C2B27;}
	.st34{fill:#B1BAD6;}
	.st35{fill:#D2D8E6;}
	.st36{fill:#2F4869;}
	.st37{fill:#3B5679;}
	.st38{fill:#EDEEEF;}
	.st39{fill:#151E34;}
	.st40{fill:#BECBDB;}
	.st41{fill:url(#SVGID_3_);}
	.st42{fill:url(#SVGID_4_);}
	.st43{fill:#E85687;}
	.st44{fill:#6985BE;}
</style>
<g>
	<g>
		<path class="st0" d="M30.8,93.6c10.1,1.8,19.1-3.9,29.8,0.5c11.2,4.7,9.4,34.9,33.1,49.5c18.4,11.4,61.9,20.8,94.2-14.2
			c32.4-35,28.8-84.3-3.3-93.5c-23.2-6.6-43.7-2.2-63.2-6.8C103.4,24.9,88.6,6.3,72,2.6c-27-6-46.6,13.8-56.8,30.4
			C5.3,48.8,1,88.2,30.8,93.6z"/>
		<path class="st1" d="M41.1,112.8c10.4-0.3,17.9-7.6,29.5-5.3c12.2,2.4,19.1,24.8,46.3,34.2c21.1,7.3,65.8,14.8,88.5-25.4
			s6.2-87.1-27.8-89.7c-24.7-1.8-43.8,6.4-64.1,5.8c-18.8-0.5-60.7-19.9-78.2-20.2C7.1,11.9,7.9,40.1,7.9,57.4
			C9.6,74.4,10.2,113.6,41.1,112.8z"/>
		<g>
			<g>
				<g>
					<rect x="17.9" y="24.9" class="st2" width="29.3" height="17.1"/>
				</g>
				<g>
					<rect x="17.9" y="42.2" class="st3" width="29.3" height="17.1"/>
				</g>
				<g>
					<rect x="20.6" y="44.6" class="st2" width="16.8" height="1.1"/>
				</g>
				<g>
					<rect x="20.6" y="47" class="st2" width="19.2" height="0.8"/>
				</g>
				<g>
					<rect x="20.6" y="49" class="st2" width="16.8" height="0.8"/>
				</g>
				<g>
					<rect x="20.4" y="52.3" class="st2" width="11" height="3"/>
				</g>
				<g>
					<rect x="22.9" y="53.4" class="st3" width="6" height="0.8"/>
				</g>
			</g>
			<g>
				<g>
					<rect x="50.9" y="24.9" class="st2" width="29.3" height="17.1"/>
				</g>
				<g>
					<rect x="50.9" y="42.2" class="st3" width="29.3" height="17.1"/>
				</g>
				<g>
					<rect x="53.6" y="44.6" class="st2" width="16.8" height="1.1"/>
				</g>
				<g>
					<rect x="53.6" y="47" class="st2" width="19.2" height="0.8"/>
				</g>
				<g>
					<rect x="53.6" y="49" class="st2" width="16.8" height="0.8"/>
				</g>
				<g>
					<rect x="53.4" y="52.3" class="st4" width="11" height="3"/>
				</g>
				<g>
					<rect x="55.9" y="53.4" class="st3" width="6" height="0.8"/>
				</g>
			</g>
		</g>
		<g>
			<g>
				<path class="st5" d="M122.7,97c-0.6,0-1.1-0.5-1.1-1.1v-6.4c0-0.6,0.5-1.1,1.1-1.1h7.1c0.6,0,1.1,0.5,1.1,1.1v6.4
					c0,0.6-0.5,1.1-1.1,1.1H122.7z"/>
				<g>
					<path class="st6" d="M129.8,88.6h-1.3v1.8h2.3v-0.9C130.7,89,130.3,88.6,129.8,88.6z"/>
					<path class="st6" d="M125.1,93.7v-1h-3.3v1.9h2.4C124.7,94.6,125.1,94.2,125.1,93.7z"/>
					<path class="st6" d="M124.2,90.6L124.2,90.6L124.2,90.6h-2.4v1.9h3.3v-1C125.1,91,124.7,90.6,124.2,90.6z"/>
					<path class="st6" d="M125.3,91.4h2.1c0-0.5,0.4-0.9,0.9-1v-1.8h-4v1.8C124.9,90.5,125.3,90.9,125.3,91.4z"/>
					<rect x="125.3" y="91.6" class="st6" width="2.1" height="2.1"/>
					<path class="st6" d="M127.4,93.9h-2.1c-0.1,0.5-0.4,0.9-0.9,0.9v2h4v-2.1C127.8,94.7,127.5,94.3,127.4,93.9z"/>
					<path class="st6" d="M127.6,93.7c0,0.5,0.4,0.9,0.9,0.9h2.3v-1.9h-3.2C127.6,92.7,127.6,93.7,127.6,93.7z"/>
					<path class="st6" d="M128.5,90.6L128.5,90.6c-0.5,0-0.9,0.4-0.9,0.9v1h3.2v-1.9H128.5L128.5,90.6z"/>
					<path class="st6" d="M124.2,88.6h-1.4c-0.5,0-0.9,0.4-0.9,0.9v0.9h2.3V88.6z"/>
					<path class="st6" d="M121.8,95.9c0,0.5,0.4,0.9,0.9,0.9h1.4v-2h-2.3V95.9z"/>
					<path class="st6" d="M128.5,96.9h1.3c0.5,0,0.9-0.4,0.9-0.9v-1.1h-2.3L128.5,96.9L128.5,96.9z"/>
				</g>
			</g>
			<g>
				<g>
					
						<rect x="133.6" y="109.2" transform="matrix(1 -2.392934e-03 2.392934e-03 1 -0.2622 0.3432)" class="st7" width="19.4" height="1.2"/>
				</g>
				<g>
					
						<rect x="137.5" y="106.1" transform="matrix(1 -6.000293e-03 6.000293e-03 1 -0.6356 0.8618)" class="st7" width="11.6" height="0.6"/>
				</g>
				<g>
					<rect x="120.8" y="104.5" class="st7" width="3.5" height="0.6"/>
				</g>
				<g>
					<rect x="120.8" y="114.7" class="st7" width="27.6" height="1.2"/>
				</g>
				<g>
					<g>
						<rect x="134.8" y="101.6" class="st7" width="12.3" height="1.2"/>
					</g>
					<g>
						<rect x="120.8" y="101.6" class="st7" width="12.3" height="1.2"/>
					</g>
					<g>
						<rect x="148.9" y="101.6" class="st7" width="12.3" height="1.2"/>
					</g>
					<g>
						<rect x="162.9" y="101.6" class="st7" width="12.3" height="1.2"/>
					</g>
				</g>
			</g>
			<g>
				<path class="st7" d="M178.6,116.2c0,1.8-1.4,3.2-3.2,3.2h-56.2c-1.8,0-3.2-1.4-3.2-3.2V83.5c0-1.8,1.5-3.2,3.2-3.2h56.2
					c1.8,0,3.2,1.4,3.2,3.2V116.2z"/>
				<path class="st8" d="M178.6,115.9c0,1.8-1.4,3.2-3.2,3.2h-56.2c-1.8,0-3.2-1.4-3.2-3.2V83.2c0-1.8,1.5-3.2,3.2-3.2h56.2
					c1.8,0,3.2,1.4,3.2,3.2V115.9z"/>
				<g>
					<path class="st9" d="M141.9,89c0.1,0,0.1-0.2,0.3-0.1s0.4,0.3,0.7,0.3c0.2-0.2-0.3-0.3-0.1-0.4c0.1,0,0.2,0.1,0.2,0.1
						c0.1-0.2-0.1-0.3-0.1-0.4c0.5,0,0.3-0.7,0.3-1.1c0.2-0.1,0.3-0.1,0.6-0.1c0-0.3-0.3-0.3-0.5-0.4c0.2,0,0.1-0.2,0.4-0.1
						c0-0.2-0.1-0.2-0.1-0.4c0.2,0,0.2-0.2,0.4-0.2c0.2-0.1,0.5,0.1,0.5-0.1c0.1-0.2-0.3-0.1-0.3-0.2c-0.1,0-0.1-0.2-0.3-0.2
						c-0.3,0-0.6,0.2-0.7,0.1c0-0.3,0.6-0.2,0.6-0.5c-0.1-0.2-0.4-0.2-0.8-0.2c-0.2-0.1-0.5-0.2-0.6,0c-0.1-0.1-0.2-0.1-0.3-0.1
						c-0.3,0.2-0.9,0-1.1,0.1c-0.3,0-0.6-0.1-0.8,0.1c0,0.1,0.2,0.4,0.1,0.5c-0.5-0.1-0.7,0.1-1.1-0.1c-0.6,0.1-0.9,0.5-1.6,0.6
						c-0.1,0.2,0.3,0.1,0.3,0.3c-0.2,0.2-0.5,0.2-0.7,0.3c-0.2-0.1-0.4-0.1-0.4,0.2c0.2-0.1,0.2,0.1,0.3,0.1c0-0.2,0.3-0.2,0.3,0
						c0.2,0,0.4-0.3,0.4,0.1c-0.3,0-0.7-0.1-0.8,0.1c0.1,0.3,0.3,0.3,0.5,0.4c0.2,0,0.1-0.2,0.3-0.1s0.4,0.3,0.8,0.2
						c-0.1,0.3,0,0.4,0.1,0.6c0,0.2-0.1,0.3-0.1,0.5c0.3,0.1,0.3-0.3,0.4-0.1c0,0.2-0.2,0.2-0.4,0.2c0.1,0.3,0.5,0.2,0.6,0.5
						c-0.1,0.1-0.3,0.2-0.4,0.3c0.2,0.1-0.2,0.1-0.1,0.3c0.4,0.3,0.1,1.1,0.4,1.5c0.1,0,0.3,0,0.4,0c0.2,0,0.1,0.3,0.3,0.3
						c0.1-0.1,0.1-0.3,0.3-0.3c-0.1-0.5,0.3-0.5,0.3-1c0.2,0,0.1-0.3,0.2-0.3c0.2,0.1,0.2-0.2,0.5,0c0.1-0.1,0.2-0.2,0.3-0.3
						c0.3-0.1,0.4-0.3,0.8-0.4c0-0.2,0.6-0.3,0.4-0.5C142.4,89.3,142.1,89.1,141.9,89z M142.6,88.8c-0.2-0.1,0-0.4,0.2-0.4
						C142.7,88.5,142.6,88.6,142.6,88.8z M143,85.5c0,0.2-0.1,0.2-0.2,0.3c-0.2-0.1-0.5-0.2-0.8-0.1C142.2,85.5,142.7,85.6,143,85.5
						z"/>
					<path class="st9" d="M134.1,86.6c0,0.1,0,0.3,0,0.4c0.2,0,0.2,0.1,0.4,0.1c0-0.3,0.4-0.6,0.6-0.5c0.1,0.3-0.3,0-0.3,0.2
						c0.2,0.1-0.2,0.1-0.2,0.3c0.2,0,0.2,0,0.2,0.2c-0.2,0-0.2-0.1-0.4-0.1c0,0.2-0.2,0.1-0.1,0.4c0.4-0.1,0.7-0.1,0.8,0.2
						c-0.5,0.1-0.8-0.3-1.1-0.1c0,0.3,0.4,0.1,0.4,0.4c0.5-0.1,1.1,0.3,1.3-0.2c0.2,0,0.3,0,0.3-0.2s-0.3,0-0.3-0.1
						c0.1,0,0.3,0,0.4,0c0-0.4,0.4-0.3,0.3-0.7c0.3,0,0.4-0.3,0.8-0.3c0.1-0.2,0.2-0.3,0.4-0.3c0.1-0.2-0.1-0.3,0-0.3
						c0.3-0.1,0.7,0.1,0.8-0.3c0-0.1-0.2,0-0.2-0.1c-1,0.1-2.5-0.2-3.6,0.3c-0.1,0.4,0.3,0.3,0.3,0.6c-0.4,0-0.3-0.5-0.8-0.4
						c0,0.1-0.1,0.1-0.1,0.3c-0.1,0-0.2,0-0.2,0.1C133.8,86.5,134,86.4,134.1,86.6z M135.4,87.8C135.4,87.8,135.3,87.9,135.4,87.8
						C135.3,87.8,135.4,87.7,135.4,87.8z"/>
					<path class="st9" d="M149.7,86.4c0-0.2,0.3-0.1,0.3-0.4c-0.6-0.1-1.1-0.1-1.7-0.1c0,0.1,0,0.2,0.1,0.3
						C148.7,86.3,149.1,86.5,149.7,86.4z"/>
					<path class="st9" d="M147.2,86.8c0,0.2-0.1,0.2,0,0.3c0.3,0,0.3-0.3,0.6-0.3c0,0.3-0.3,0.3-0.3,0.6c0.1,0.1,0.2,0.2,0.4,0.1
						c0,0.2,0.1,0.2,0.3,0.2c0.1-0.3,0.1-0.5,0.2-0.7c0.2,0.2,0.3,0.4,0.7,0.3c0.1-0.5-0.3-0.5-0.5-0.8c0,0.2-0.2-0.1-0.3-0.1
						c-0.2,0-0.3,0-0.3-0.1c0.1-0.2-0.1-0.4-0.3-0.3s0.1,0.3-0.1,0.4c-0.1-0.3-0.7-0.6-0.8,0C146.9,86.6,147.2,86.6,147.2,86.8z"/>
					<path class="st9" d="M153.6,86.3c0-0.4-0.6-0.3-0.6,0.1C153.3,86.6,153.4,86.3,153.6,86.3z"/>
					<path class="st9" d="M157.2,86.7c0.5-0.1,1,0.2,1.1-0.2c-0.1-0.3-0.7-0.4-1.1-0.2C157.1,86.3,157.2,86.6,157.2,86.7z"/>
					<path class="st9" d="M170,90.7c0.2,0,0.1-0.2,0.3-0.2c0.3,0,0.3,0.4,0.7,0.3c0.1-0.1-0.1-0.3,0.1-0.5c-0.2-0.1-0.4-0.4-0.6-0.1
						c0-0.2,0-0.3-0.1-0.3c-0.3-0.1-0.5-0.4-1.1-0.3c-0.1-0.1-0.2-0.1-0.3-0.3c-0.4,0.1-0.5-0.2-1-0.1c-0.1,0.2,0.2,0.3,0,0.4
						c-0.2,0-0.2-0.3-0.3-0.3c-0.2,0.2-0.5,0-0.9,0.1c-0.2-0.2-0.2-0.6-0.7-0.5c-0.1,0,0,0.2-0.1,0.2c-0.3-0.1-0.5-0.3-0.8-0.4
						c0,0.1-0.1,0.1-0.1,0.1c0.1-0.3-0.2-0.2-0.3-0.2c0.2-0.2-0.1-0.2-0.1-0.3c-0.3,0.1-0.3,0-0.6-0.1c0,0.1-0.2,0.1-0.3,0.1
						c-0.1,0.1,0.2,0.2,0,0.3c-0.5-0.1-1.2,0.1-1.7,0c-0.2,0-0.2-0.2-0.4-0.2c-0.3,0.1-0.5-0.1-0.7-0.1c-0.1,0-0.2,0-0.2,0
						c-0.2,0-0.3-0.2-0.6-0.1c0-0.2,0.2-0.2,0.2-0.4c-0.1-0.2-0.3-0.3-0.4-0.5c-0.2,0.1-0.5,0.1-0.8,0.1c-0.2-0.1-0.1-0.3-0.4-0.3
						c-0.1,0.1-0.2,0.2-0.2,0.5c-0.3-0.1-0.2,0.2-0.4,0.2c-0.1,0,0-0.3-0.3-0.2c-0.2,0.2-0.4,0.3-0.8,0.3c-0.1,0.1-0.2,0.2-0.4,0.2
						c-0.1,0.1,0,0.3-0.2,0.3c-0.1,0-0.4-0.1-0.4,0.1s0.4,0.1,0.3,0.4c-0.2-0.1-0.3-0.3-0.6-0.3c0,0.2,0,0.4-0.1,0.4
						c-0.1-0.1-0.1-0.2-0.1-0.4c-0.2-0.1-0.1,0.3-0.4,0.2c-0.1-0.1-0.1-0.4-0.4-0.3c-0.2,0.3-0.4,0.5-0.6,0.7
						c-0.4,0-0.4-0.1-0.8-0.1c-0.1,0.3,0.3,0.1,0.3,0.4c-0.3-0.1-0.5,0-1,0c-0.3,0.1-0.4,0.4-0.8,0.5c0-0.1,0-0.3,0-0.4
						c-0.2,0-0.3,0-0.4-0.1c0,0.4,0,0.7-0.4,0.7c0,0.2-0.2,0.2-0.4,0.3c-0.2,0.1,0.1,0.2-0.1,0.3c-0.4,0.1-0.4-0.5-0.4-0.6
						c0.3,0,0.6,0,0.8,0.1c0.2-0.4-0.4-0.6-0.8-0.7c-0.1-0.2-0.3-0.3-0.5-0.3c-0.1-0.2-0.2-0.3-0.3-0.4c-0.2,0-0.4,0-0.6,0
						c-0.2,0.1-0.3,0.3-0.5,0.4c0-0.1-0.1,0-0.2,0c-0.2,0.3-0.5,0.4-0.8,0.7c-0.1,0.3-0.2,0.6-0.4,0.7c0-0.1-0.1-0.1-0.2-0.1
						c0,0.1,0,0.2,0,0.3c-0.4,0-0.4,0.4-0.6,0.7c0.1,0.2,0.1,0.4,0.1,0.7c0.1,0.2,0.4,0.1,0.5,0.2c-0.1,0.2-0.3,0.3-0.3,0.5
						c0.1,0,0.1,0.1,0.1,0.2c-0.2,0-0.4,0.1-0.6,0.1c-0.1,0.1-0.2,0.2-0.1,0.4c-0.4-0.1-0.1,0.4-0.4,0.3c0,0.1,0,0.1-0.1,0.1
						c-0.3,0-0.3,0.2-0.5,0.3c-0.2,0-0.3,0.1-0.3,0.3c0.1,0.1,0.3,0.1,0.4,0.1c0,0.3,0.3,0.2,0.3,0.5c-0.1,0.1-0.1,0.2-0.2,0.3
						c-0.3-0.2-0.6,0.1-1,0c-0.1,0.2,0.1,0.7-0.1,0.7c0,0.2,0.2,0.3,0.1,0.6c0.3-0.1,0.4,0.1,0.6,0.1c0.2-0.1,0.3-0.1,0.5,0
						c0.1-0.3,0.4-0.5,0.3-0.9c0.3-0.1,0.2-0.5,0.6-0.5c0.3,0.2,0.4,0,0.6-0.1c-0.2,0.3-0.1,0.7,0,1c0.4,0,0.1-0.4,0.2-0.7
						c-0.1,0-0.1-0.1,0-0.1v0.1c0.1,0,0.1,0.2,0.2,0.3c0.3,0,0.5,0.1,0.6,0.4c0,0.1-0.2,0.1-0.3,0.1c0,0.2,0.2,0.2,0.3,0.3
						c0-0.3,0.2-0.4,0.3-0.5c0-0.2-0.1-0.1-0.1-0.2c0.1-0.2,0.2,0.2,0.3,0c-0.2-0.4-1-0.4-0.8-0.9c0.2,0.3,0.5,0.5,0.8,0.7
						c0,0.1,0.1,0.2,0.1,0.3c0,0.1,0.2,0.2,0.1,0.3c0,0.1,0,0.3,0,0.4c0.1,0.1,0.3,0.1,0.4,0.1c0.1-0.2-0.1-0.6,0.1-0.8
						c0.1,0,0.1,0,0.2,0c-0.1,0.3,0,0.2-0.1,0.5c0.1,0,0.1,0.2,0.2,0.3c0.2,0.2,0.7,0.1,0.8,0c0.2,0.1-0.2,0.3,0.1,0.3
						c0.3,0.1,0-0.4,0.3-0.3c0,0.1,0,0.3,0,0.4c-0.2,0.1-0.1,0.6-0.3,0.6c-0.5-0.2-1-0.2-1.7-0.3c-0.2,0.1-0.2,0.3-0.3,0.4
						c-0.3-0.3-0.9-0.3-1.1-0.7c0-0.2-0.1-0.3-0.1-0.4c0.1,0,0.1-0.2,0.1-0.3c-0.4,0-0.7,0.1-1,0.2c-0.5,0-1,0-1.2,0.3
						c-0.1-0.1-0.2-0.2-0.4-0.2c-0.1,0.2-0.3,0.3-0.4,0.4c-0.2,0.3-0.1,0.7-0.3,1c-0.1,0.2-0.4,0.4-0.6,0.5c0,0.4-0.2,0.6-0.3,0.9
						c0,0.6,0,1.2,0,1.7c0.2,0.3,0.4,0.6,0.5,0.9c0.3,0.2,0.5,0.5,0.9,0.5c0.3-0.1,0.6-0.1,0.9-0.1c0.1-0.1,0.1-0.4,0.4-0.3
						c0.1,0,0,0.2,0.1,0.3c0.3,0,0.4,0.1,0.6,0.1c0.1-0.1,0.2-0.2,0.4-0.1c0.1,0.5-0.1,0.8-0.1,1.2c0.2,0.3,0.5,0.6,0.4,1.1
						c0.2,0.2,0.2,0.6,0.3,0.9c-0.2,0.3-0.1,0.8-0.3,1.1c0.3,0.3,0.5,0.6,0.6,1.1c0,0.2,0,0.4,0,0.6c0.3,0.3,0.3,1,0.6,1.3
						c0.6,0,0.9-0.4,1.5-0.5c0.1-0.4,0.3-0.6,0.6-0.8c0-0.3,0.1-0.3,0.1-0.6c0.1-0.1,0.2-0.2,0.4-0.1c0-0.8,0.3-1.3,0.8-1.5
						c0.1-0.5,0.1-1.3,0-1.9c0.1-0.3,0.2-0.5,0.3-0.9c0.2-0.1,0.3-0.2,0.4-0.3c0.3-0.5,0.6-1,0.9-1.4c0-0.3,0.1-0.6-0.1-0.7
						c-0.3,0-0.3,0.2-0.5,0.2s-0.4,0-0.6,0c0-0.5-0.3-0.6-0.6-0.9c0.1-0.4-0.4-0.4-0.3-0.9c-0.1-0.2-0.3-0.2-0.4-0.4
						c0.1-0.2-0.1-0.5,0-0.5c0.2,0.1,0.3,0.5,0.3,0.6c0.3,0.3,0.4,0.7,0.7,0.9c0.2,0.3,0.1,0.7,0.4,0.9c0.4-0.2,0.8-0.5,1.3-0.5
						c0.1,0,0-0.3,0.1-0.3c0.3,0,0.4-0.3,0.6-0.3c0-0.3,0.2-0.3,0.2-0.5c-0.1-0.2-0.4-0.3-0.4-0.7c-0.2,0-0.4,0-0.5,0.1
						c-0.1-0.3-0.3-0.3-0.3-0.7c-0.2,0-0.2-0.2-0.3-0.3c0.1,0,0.2-0.1,0.3-0.1c0.3,0.2,0.2,1,0.9,0.9c0,0.1,0.2,0.1,0.1,0.3
						c0.3,0,0.4-0.2,0.6-0.2c0.1,0,0.1,0.2,0.2,0.1c0.4-0.1,0.5,0.2,0.8,0.3c-0.1,0-0.1,0.1-0.1,0.1c0.1,0.1,0.3,0.1,0.4,0.2
						c0,0.2,0.1,0.2,0.1,0.5c0.2,0.2,0.3,0.6,0.4,0.9c0.1,0.1,0.3,0.3,0.3,0.5c0,0.1,0,0.3,0,0.4c0.1,0.1,0.3,0.1,0.4,0.1
						c0.1-0.4,0.3-0.7,0.3-1.3c0.1,0,0.2,0,0.3,0c0-0.1,0-0.2,0-0.3c0.2,0.1,0.1-0.2,0.3-0.1c0-0.3,0.2-0.3,0.3-0.5
						c0.2-0.1,0.3-0.2,0.6-0.3c0.1,0.2,0.1,0.5,0.4,0.6c0,0.2-0.1,0.1-0.1,0.3c0.1,0.2,0.5,0,0.6,0.2c-0.1,0.1,0,0.2-0.1,0.4
						c0.2,0.1,0.3,0.2,0.3,0.4c0,0.1-0.2,0.1-0.1,0.3c0,0.2,0.2,0.2,0.1,0.5c0.3,0.3,0.6,0.6,1,0.8c0-0.4-0.3-0.5-0.3-0.9
						c-0.2-0.1-0.3-0.3-0.4-0.5c0-0.2-0.1-0.6,0.1-0.6c0.1,0.2,0.2,0.4,0.5,0.5c0,0.1,0.1,0.2,0.1,0.3c0.6-0.1,0.8-0.7,0.7-1.5
						c-0.1-0.1-0.2-0.1-0.3-0.1c0.1-0.3-0.3-0.3-0.1-0.5s0.2,0.2,0.4,0.1c0-0.3,0.4-0.3,0.7-0.3c0.2-0.3,0.5-0.6,0.6-1
						c0.1,0,0.1-0.1,0.2-0.1c0.1-0.3,0-0.8,0.2-0.9c-0.1-0.1-0.2-0.2-0.2-0.4c-0.1-0.1-0.2-0.1-0.3-0.3c0-0.2,0.1-0.1,0.1-0.3
						c0.1,0,0.2,0,0.2-0.1c0.2-0.1-0.3-0.4,0.1-0.4c0.1,0.2,0.3,0.3,0.4,0.5c-0.1,0.4,0.1,0.5,0.3,0.5c0.4-0.3,0-1,0.2-1.5
						c0.1-0.1,0.3-0.2,0.5-0.3c0.1-0.3,0.3-0.6,0.5-0.9c0.1-0.5-0.1-1.1,0-1.5c-0.1,0.4,0.1,0.4,0.2,0.7c0,0.4,0,0.8,0.3,0.9
						c0.1-0.1-0.1-0.2,0-0.4c0.2,0,0.1,0.1,0.3,0c0-0.2-0.2-0.2-0.1-0.5c-0.2,0-0.3-0.3-0.4-0.5c0-0.2,0-0.6-0.2-0.6
						c-0.1,0,0,0.3-0.2,0.3c-0.1-0.5-0.5,0.3-0.7-0.2c0-0.2,0.2-0.2,0.3-0.3c0.1-0.2,0.1-0.5,0.3-0.6c0.1,0.2,0.1-0.1,0.3-0.1
						c0.3,0,0.6,0.2,1,0.1c0,0.1,0.1,0.1,0.1,0.1c0.1-0.1,0.3-0.1,0.4-0.1c0-0.2-0.1-0.2-0.1-0.5c0.1,0,0.1-0.2,0.3-0.2
						c0.1,0,0.1,0.2,0.3,0.2c0-0.1,0.2-0.4,0.3-0.2c-0.2,0.4-0.5,0.8-0.6,1.3c0,0.2,0.2,0.3,0.3,0.4c0,0.3,0.1,0.5,0.3,0.6
						c0.2-0.2,0.2-0.4,0.4-0.5c-0.1-0.3,0.2-0.3,0.1-0.5c0-0.1,0.2-0.1,0.2-0.3c-0.1-0.1-0.3-0.1-0.3-0.3c0.1-0.6,0.5-0.5,1-0.4
						c0.1-0.1,0.1-0.3,0.2-0.4C169.5,91,169.7,90.8,170,90.7C170.3,91,170,91,170,90.7z M148.7,91.5c0.1,0.1,0.3,0.2,0.5,0.3
						c0,0.2,0,0.4,0,0.7c-0.1,0,0-0.4-0.3-0.3c-0.1,0.2-0.1,0.7-0.3,0.9c-0.2,0-0.4,0-0.5,0c-0.2,0-0.2,0.2-0.4,0.2
						c0-0.1-0.2-0.2-0.2-0.1c-0.2,0-0.2-0.2,0-0.2c-0.1-0.2-0.2-0.4-0.3-0.7c0.3,0,0.2,0.9,0.8,0.7c0.1-0.3,0.2-0.6,0.4-0.9
						c0-0.2-0.1-0.3-0.1-0.4c0-0.6,0.5-0.8,0.7-1.3c0.1,0,0.1,0,0.1,0.1C149.1,90.9,148.6,90.9,148.7,91.5z M149.4,91.9
						c0-0.2,0.2-0.2,0.4-0.2C149.8,91.9,149.6,91.9,149.4,91.9z M149.9,89.3C149.8,89.3,149.9,89.2,149.9,89.3
						C150,89.3,149.9,89.3,149.9,89.3z M151,99C151,99,151.1,98.9,151,99C151.1,99,151,99,151,99z M151.1,90.7
						C151.1,90.6,151.1,90.6,151.1,90.7C151.2,90.6,151.1,90.7,151.1,90.7z M155.8,89.6c-0.1,0-0.3,0-0.3-0.2c-0.2,0,0.1-0.3,0,0
						C155.6,89.5,155.8,89.4,155.8,89.6z M159.7,88.4C159.7,88.3,159.8,88.3,159.7,88.4C159.8,88.3,159.7,88.4,159.7,88.4z
						 M159.9,88.3C159.9,88.3,160,88.2,159.9,88.3C160,88.3,159.9,88.3,159.9,88.3z M160.1,88.2C160.1,88.1,160.2,88.1,160.1,88.2
						C160.2,88.1,160.1,88.2,160.1,88.2z M163,96.6c0.1-0.1,0.1-0.3,0.4-0.3c0,0.1,0,0.3,0.1,0.3C163.3,96.8,163.1,96.6,163,96.6z"
						/>
					<path class="st9" d="M140.4,104.6c-0.1-0.1-0.2,0-0.3,0.1c-0.1-0.2-0.3-0.3-0.6-0.4c-0.2,0-0.3,0-0.4,0
						c-0.1-0.2-0.5-0.1-0.6-0.3c-0.2,0-0.4,0-0.4-0.1c0.2-0.3-0.2-1.2-0.8-0.9c-0.2-0.1-0.3-0.3-0.4-0.6c-0.3-0.1-0.6-0.3-0.9-0.4
						c-0.1,0-0.1,0.1-0.2,0.1c-0.1-0.2-0.4-0.3-0.5-0.5c-0.2-0.1-0.1,0.2-0.3,0.2s-0.2-0.2-0.3-0.3c-0.1,0.1-0.1,0.2-0.3,0.2
						c-0.1,0.3-0.4,0.4-0.5,0.6c0-0.2-0.1-0.3-0.3-0.3c-0.2,0.1-0.2,0.2-0.4,0.3c-0.2-0.3,0.1-0.6,0-1.1c-0.1-0.2-0.5-0.1-0.8-0.3
						c0.1-0.3,0.2-0.5,0.2-0.9c-0.3,0-0.3,0-0.6,0c-0.1,0.1-0.1,0.5-0.3,0.5c-0.8,0-0.3-1.2-0.5-1.7c0.2-0.1,0.4-0.2,0.6-0.3
						c0.4,0,0.4,0.2,0.8,0.2c0-0.1,0-0.2,0.1-0.2c0.3,0,0.7-0.1,0.8,0.2c0,0.4,0.1,0.6,0.4,0.6c-0.1-0.3,0-0.5,0-0.7
						c-0.1-0.1-0.2-0.2-0.2-0.3c0.1-0.4,0.4-0.7,0.8-0.8c0.1-0.2,0.1-0.2,0-0.4c0.1,0,0.2,0,0.3-0.1c-0.2-0.4,0.2-0.3,0.1-0.7
						c0.2-0.1,0.4-0.2,0.6-0.3c0-0.2-0.2-0.2-0.1-0.4c0.2-0.2,0.6-0.3,0.9-0.4c0,0.2-0.1,0.1-0.1,0.3c0.3-0.1,0.5-0.2,0.7-0.4
						c-0.2-0.1-0.5,0-0.4-0.3c0-0.2,0.2-0.2,0.4-0.3c0-0.2-0.1-0.1-0.1-0.3c0.3,0.2,0.7-0.3,0.9-0.2c-0.1,0.4-0.4,0.6-0.6,0.9
						c0.2,0,0.3-0.1,0.5-0.1c0,0.1,0,0.3,0.1,0.3c0.1-0.2,0.2,0.1,0.4,0c0-0.2-0.1-0.3,0-0.5c-0.2,0-0.3-0.2-0.4-0.4
						c0-0.4,0-0.5,0-0.9c-0.1-0.1-0.2,0-0.3,0c0-0.3-0.3-0.3-0.3-0.6c0.1-0.1,0.1-0.2,0.1-0.3c-0.2-0.1-0.2-0.6-0.5-0.7
						c0,0.1,0.1,0.3-0.1,0.3c-0.1,0-0.4,0.1-0.4-0.1s0-0.4,0-0.7c-0.3,0.2-0.3-0.2-0.6-0.2c-0.2,0.2-0.1-0.1-0.3-0.1
						S135.2,91,135,91c0.1,0.7-0.2,1-0.1,1.5c-0.1,0-0.3-0.2-0.4,0c0.1,0.2,0.2,0,0.3,0.1c-0.2,0.1-0.2,0.5-0.3,0.8
						c-0.1-0.2-0.2-0.5-0.3-0.8c-0.1-0.1-0.1,0-0.3,0.1c-0.1-0.2-0.1-0.1-0.3-0.1c-0.2-0.2-0.4-0.4-0.7-0.5c0.1-0.3-0.2-0.2-0.2-0.5
						c0.1,0,0.1-0.1,0.1-0.2c0.2-0.1,0.3-0.4,0.5-0.5c0.1-0.2,0.2-0.5,0.6-0.5c0-0.1-0.1-0.1-0.1-0.3c0.4-0.1,0.7-0.1,0.9-0.3
						c0-0.3,0-0.5,0.1-0.7c-0.1-0.1-0.2-0.1-0.3-0.2c0.2,0,0.5,0,0.6,0.1c0.1-0.2,0.3,0.1,0.5,0c-0.1,0.3,0.3,0.2,0.3,0.5
						c-0.1,0.5-0.8,0.3-0.8,0.8c0.1,0.2,0.4,0.1,0.6,0.1c0.4,0.2,0.5,0.6,1.1,0.7c-0.1-0.3,0.1-0.3,0.1-0.7c0-0.2-0.2-0.2-0.2-0.4
						c0.2,0,0.3,0.2,0.5,0.3c0-0.2,0-0.3,0.2-0.3c0-0.2,0.1-0.2,0.1-0.4c-0.2,0-0.1-0.1-0.2-0.2c-0.2,0-0.4-0.1-0.6-0.2
						c0-0.1,0.2-0.1,0.2-0.3c-0.1-0.2-0.3-0.2-0.3-0.5c-0.2,0-0.4,0-0.6,0c0-0.2-0.2-0.2-0.2-0.3c-0.3,0-0.4,0-0.6,0.1
						c0-0.4-0.5-0.3-0.6-0.1c0-0.3,0-0.4-0.3-0.4c-0.3,0.2-0.7,0.9-0.3,1.3c0.1,0,0.3-0.1,0.3,0.1c-0.1,0.2-0.2,0.3-0.3,0.5
						c-0.2-0.2,0.1-0.1,0.1-0.4c-0.2-0.2-0.4-0.3-0.5-0.6c-0.2,0-0.2-0.2-0.5-0.1c0,0.2-0.1,0.1-0.1,0.3c0.2,0.1,0.1,0.6,0,0.7
						c-0.1-0.1-0.1-0.2-0.1-0.3c-0.3-0.1-0.3,0.2-0.6,0.3c-0.2-0.1-0.5-0.2-0.6-0.4c0.3,0,0.4,0.1,0.6,0.1c0.1-0.1,0-0.2,0-0.4
						c0.4-0.1,0.5-0.4,0.8-0.5c-0.1-0.2-0.1-0.4-0.1-0.5c-0.3,0-0.6,0-1,0c-0.1,0.2-0.5,0.2-0.5,0.5c0-0.1-0.1-0.2-0.1-0.3
						c-0.2,0-0.4,0.1-0.3-0.2c0.5,0.1,1-0.2,1.5-0.4c0,0.3,0.5,0.2,0.6,0.1c0-0.2-0.1-0.3-0.1-0.5c-0.4,0.1-0.6,0.3-1,0.3
						c0-0.1,0-0.3,0-0.4c-0.3-0.1-0.4,0.3-0.2,0.4c-0.4,0-0.6-0.1-0.9-0.1c0.1,0.3-0.3,0.2-0.3,0.4c0.2,0.1,0.2,0,0.2,0.1
						s-0.1,0.1-0.2,0.1c-0.1-0.4-0.6-0.3-1.1-0.3c0,0.3-0.2,0.5-0.4,0.7c0,0.2,0.2,0.2,0.1,0.5c0.3,0,0.5-0.1,0.7-0.2
						c-0.1,0.4,0.3,0.1,0.4,0.3c0,0.2-0.3-0.1-0.3,0.1c0,0.4,0.7,0,0.6,0.5c0.2-0.2,0.3-0.1,0.6,0c0,0,0,0,0.1,0
						c0-0.1,0.2-0.2,0.2-0.1s-0.1,0.1-0.2,0.1c0,0.2,0.3,0.4,0,0.5c-0.1,0-0.1-0.1-0.1-0.2c-0.6-0.1-0.9-0.4-1.5-0.3
						c-0.2-0.1-0.2-0.3-0.4-0.3c0,0.2-0.2,0.2-0.4,0.3c0-0.2,0-0.3-0.1-0.3c-0.2,0-0.2,0.3-0.5,0.3c-0.2,0-0.3-0.1-0.5-0.1
						c-0.1,0,0,0.1-0.1,0.1s-0.1-0.1-0.1-0.1c-0.1,0-0.2,0.1-0.4,0.1c-0.5-0.3-1.5-0.2-2-0.5c-0.5,0.2-1.1,0.3-1.4,0.3
						c-0.1,0.3,0.1,0.3,0.2,0.5c0.2,0,0.4,0,0.4,0.2c-0.3-0.1-0.2,0.1-0.3,0.2c-0.1-0.1-0.2-0.2-0.3-0.2c-0.2,0.3-0.8,0.2-1,0.5
						c0.4,0,0.5,0.2,0.5,0.5c0.3-0.1,0.6,0,0.9-0.1c-0.3,0.6-1.6,0.1-1.5,1.1c0.2,0.2,0.3,0.2,0.2,0.5c0.1,0,0.1-0.1,0.3-0.1
						c0,0.1,0,0.3,0.1,0.3c0.1-0.2,0,0.3,0.2,0.2c0.1-0.3,0.4-0.3,0.6-0.1c-0.3,0.2-0.4,0.6-0.7,0.8c-0.3,0.1-0.4,0.4-0.8,0.4
						c0.1,0.2-0.1,0.2-0.1,0.3c0.3,0,0.4-0.1,0.7-0.1c0.1-0.2,0.3-0.3,0.5-0.3c0.2-0.5,0.7-0.7,1-1.1h0.1c0.1-0.1,0-0.2,0.2-0.2
						c0,0,0-0.1,0.1-0.1c0,0,0,0.1-0.1,0.1c0,0.3-0.2,0.4-0.3,0.5c0.5,0.1,0.6-0.3,1.1-0.3c0-0.3,0-0.5-0.1-0.7
						c0.3,0.1,0.3-0.2,0.6-0.1c0.2,0.1,0.3,0.3,0.4,0.5c0.4,0.1,0.8,0.3,0.7,0.9c0.3,0,0-0.4,0.3-0.4c0,0.6,0,1.2,0.2,1.5
						c-0.2,0.2-0.1,0.2,0,0.5c0,0.1-0.2,0.1-0.1,0.3c0,0.7-0.1,1.2,0,1.9c0.2,0.1,0.3,0.3,0.4,0.4c0.2,0.3,0.2,0.7,0.4,0.9
						c-0.1,0-0.1,0.1-0.1,0.2c0.3,0.1,0.3,0.4,0.4,0.7c0.2-0.1,0.2,0.1,0.4,0.1c0-0.3-0.1-0.2-0.1-0.6c0,0-0.1-0.1,0-0.1
						c0,0,0,0,0,0.1c0.1,0,0.1,0.1,0.1,0.2c0.2,0.2,0.4,0.3,0.5,0.5c0,0.5,0.1,0.7,0.3,1c0.5,0.1,0.8,0.5,1.5,0.3
						c0.1,0.2,0.2,0.3,0.3,0.5c0.2-0.1,0.3,0.1,0.5,0.1c0.1,0.2,0.2,0.3,0.3,0.3c0,0.1,0,0.1,0,0.2c0.4,0,0.4,0.4,0.8,0.5
						c0.1-0.1,0.1-0.2,0.2-0.3c0,0.2,0.1,0.4,0.2,0.6c0,0.1-0.2,0.1-0.1,0.3c0,0.4-0.2,0.4-0.3,0.7c-0.1,0.5,0.3,0.7,0,0.9
						c0.1,0.1,0.3,0.2,0.4,0.3c-0.1,0.1-0.2,0.1-0.3,0.1c0,0.5,0.2,0.7,0.6,0.9c0,0.2-0.1,0.1-0.1,0.3c0.2,0.2,0.3,0.6,0.7,0.6
						c0.1,0.3,0.3,0.5,0.3,0.9c-0.1,0.1-0.1,0.2-0.1,0.3c0.1,0,0.1,0.1,0.1,0.3c-0.2,0.3,0.1,0.7,0,1.1c-0.3,0.2-0.2,1-0.3,1.4
						c0.1,0.2,0.3-0.1,0.3,0.1c0.1,0.3-0.2,0.3-0.3,0.5s0.2,0.1,0.1,0.3c-0.1,0.2,0.1,0.3-0.1,0.5c0.1,0.5,0.3,0.7,0.1,1.1
						c0.2,0.2,0.2,0.5,0.4,0.7c0,0.1,0.1,0.1,0.1,0.3c0.2,0,0.3,0.1,0.4,0.2c0.2,0,0.7,0.1,0.7-0.1c-0.2,0-0.3-0.1-0.4-0.3
						c0.1-0.2-0.3-0.1-0.2-0.3c0-0.3,0.2-0.3,0.2-0.6c0.2,0,0.2-0.1,0.3-0.3c0-0.2-0.2-0.2-0.2-0.4c0.2-0.2,0.4-0.9,0-0.9
						c0.4,0.1,0.4-0.2,0.5-0.5c0.3,0,0.5-0.2,0.7-0.3c0-0.3-0.1-0.4-0.1-0.7c0.2,0,0.3,0,0.5,0c0-0.1,0.1-0.1,0.1-0.1
						c0-0.2,0.1-0.3,0.3-0.3c0-0.4,0.2-0.5,0.4-0.7c0-0.2,0-0.3,0-0.5c0.1-0.1,0.2-0.3,0.3-0.4c0.3-0.1,0.3-0.1,0.6-0.2
						c0-0.4,0.3-0.8,0.1-1.3c0.1-0.1,0.1-0.2,0.1-0.3c0.1,0,0.1-0.1,0.2-0.1c0-0.2,0.2-0.3,0.3-0.5c0.2-0.2,0-0.3,0.2-0.4
						c0-0.2,0.1-0.2,0.1-0.4C140.5,104.9,140.5,104.7,140.4,104.6z M137.5,93.4C137.5,93.4,137.4,93.5,137.5,93.4
						C137.4,93.4,137.5,93.4,137.5,93.4z M132.6,88.2c0.2,0.1-0.1,0.2-0.1,0.3C132.3,88.4,132.6,88.2,132.6,88.2z M132.3,88.5
						c0.2,0,0.2,0.1,0.4,0.1c0,0.3-0.2,0.3-0.4,0.3C132.3,88.8,132.3,88.6,132.3,88.5z M130.4,88.6
						C130.3,88.6,130.4,88.6,130.4,88.6C130.5,88.6,130.4,88.7,130.4,88.6z M129,98.3C129.1,98.2,129.1,98.3,129,98.3
						C129.1,98.4,129,98.4,129,98.3z M129.1,98.4c0.2,0,0.1,0.2,0.3,0.3C129.3,98.9,129,98.6,129.1,98.4z"/>
					<path class="st9" d="M153.4,89.2c-0.1-0.3-0.4-0.4-0.3-0.9c0.5,0,0.6-0.4,1-0.5c0.4,0,0.6-0.1,0.6-0.5c-0.1,0-0.2,0-0.3,0
						c0,0.1,0,0.1-0.1,0.1c-0.5,0.1-0.8,0.2-1.2,0.4c0,0.3-0.3,0.3-0.3,0.7c-0.1,0.1-0.2,0.2-0.3,0.4c0.2,0.1,0.4,0.3,0.6,0.4
						C153.2,89.2,153.3,89.2,153.4,89.2z"/>
					<path class="st9" d="M164,88c0.2-0.1,0.2-0.3,0.4-0.4c-0.2,0-0.3-0.3-0.5-0.3c0,0-0.1,0.2-0.1,0.1c-0.1,0-0.3,0-0.4,0
						C163.3,87.9,163.8,87.8,164,88z"/>
					<path class="st9" d="M143.7,91c0-0.2,0.2-0.1,0.3-0.2c0.1-0.3-0.1-0.4-0.1-0.7c-0.3,0.1-0.4,0-0.6,0.1c-0.2,0-0.2-0.3-0.4-0.3
						c0.1,0.3-0.3,0.2-0.3,0.5c0.2,0.1,0.2-0.1,0.3-0.1c0,0.2-0.2,0.1-0.2,0.4c0.3-0.1,0.2,0.2,0.4,0.3
						C143.3,90.8,143.6,90.9,143.7,91z"/>
					<path class="st9" d="M135,91c-0.2-0.1-0.1-0.2-0.2-0.3c-0.2,0-0.2-0.1-0.4-0.1c-0.1,0.1,0,0.4-0.3,0.3c0,0.2,0.2,0.3,0.4,0.3
						C134.5,90.7,134.9,91.4,135,91z"/>
					<path class="st9" d="M146.2,93.4c-0.1-0.1-0.2-0.1-0.3-0.2c0.1-0.4-0.4-0.5-0.2-0.8c-0.1-0.1-0.2-0.1-0.3-0.2
						c0.1-0.1,0.2-0.1,0.2-0.3c-0.2,0-0.4,0.1-0.5,0.1c0,0.4-0.1,0.5-0.1,0.9c0.2,0.1,0.2,0.1,0.3,0.1c0,0.2-0.2,0.4-0.3,0.3
						c-0.1,0.3,0,0.4,0.1,0.6c-0.1,0.1-0.3,0-0.3,0.2c0.3,0,0.6-0.1,1-0.1C146,93.8,146,93.6,146.2,93.4z"/>
					<path class="st9" d="M144.5,93.7c0.1-0.1,0.4,0,0.5-0.1c-0.1-0.3,0-0.3,0-0.6c-0.1,0-0.2,0-0.3,0c0,0.3-0.1,0.1-0.3,0.2
						C144.4,93.3,144.4,93.6,144.5,93.7z"/>
					<path class="st9" d="M166.3,95.6c0.1,0,0,0.2,0.2,0.2c0.1-0.2,0.1-0.5,0.4-0.5c-0.3-0.1-0.5-0.2-0.9-0.3c0,0.3-0.1,0.5-0.1,0.7
						C166.1,95.9,166,95.6,166.3,95.6z"/>
					<path class="st9" d="M164.8,97.7c0,0.2,0.1,0.3,0.3,0.4c0-0.2,0.2-0.4,0.4-0.5c0.1,0,0.1,0,0.2,0.1c0.2-0.3,0.6-0.3,0.8-0.5
						c0-0.5-0.1-0.8-0.1-1.3c-0.1,0-0.2,0-0.3,0c0.1,0.3,0,0.5,0.1,0.8l-0.1,0.1c-0.2,0.1-0.3,0.2-0.6,0.4
						C165.3,97.3,164.9,97.2,164.8,97.7c0.1,0.1,0.4-0.2,0.4,0C165.1,97.7,164.9,97.7,164.8,97.7z"/>
					<path class="st9" d="M149.3,97.2c0,0.2,0.2,0.1,0.4,0.2C149.7,97.1,149.6,97.1,149.3,97.2C149.4,97.2,149.3,97.2,149.3,97.2z"
						/>
					<path class="st9" d="M163.5,99.5c0.1,0.1,0.2,0.2,0.2,0.4c0.3,0,0.2-0.3,0.3-0.6C163.8,99.1,163.5,99.3,163.5,99.5z"/>
					<path class="st9" d="M134.1,99.3c0,0.1,0,0.2,0,0.3c0.1,0,0.2,0,0.3,0C134.3,99.4,134.2,99.3,134.1,99.3z"/>
					<path class="st9" d="M134.8,99.6c0-0.2,0-0.3-0.1-0.3s-0.1,0-0.2,0C134.5,99.5,134.5,99.6,134.8,99.6z"/>
					<path class="st9" d="M134.8,99.5c0,0.1,0,0.2,0,0.3c0.1,0,0.2,0,0.3-0.1C135.1,99.6,135,99.5,134.8,99.5z"/>
					<path class="st9" d="M134.7,100.6c0.2,0,0.3,0.1,0.4,0.1c0-0.2,0.3-0.1,0.4-0.1c-0.1-0.4-0.4-0.4-0.8-0.4
						c0-0.2-0.1-0.1-0.1-0.3c-0.1-0.1-0.3-0.1-0.4-0.3c-0.3,0-0.6,0-0.9,0c0,0.1-0.1,0.2-0.1,0.3c0.3,0,0.3-0.2,0.6-0.1
						s0.3,0.4,0.6,0.4c0.2,0,0.5-0.1,0.5,0.1C134.6,100.3,134.7,100.4,134.7,100.6z"/>
					<path class="st9" d="M135.3,99.9c0-0.1-0.2-0.1-0.3-0.1C134.9,100,135.4,100.1,135.3,99.9z"/>
					<path class="st9" d="M163.7,100.6c0.1,0.2,0.2,0.3,0.4,0.4c0.1-0.2,0.3-0.3,0.3-0.6C164.2,100.1,163.7,100.3,163.7,100.6z"/>
					<path class="st9" d="M162.2,100.8c0.2,0,0.2-0.3,0.3-0.4c-0.1-0.1-0.1-0.1-0.3-0.1C162.1,100.6,162.1,100.4,162.2,100.8z"/>
					<path class="st9" d="M134,100.5c0,0.1,0,0.2,0,0.3c0.2-0.1,0.2,0,0.4-0.1C134.5,100.4,134.2,100.5,134,100.5z"/>
					<path class="st9" d="M135.7,100.7c0.2,0,0.4,0,0.4-0.3c-0.1,0-0.3,0-0.4,0C135.7,100.5,135.7,100.6,135.7,100.7z"/>
					<path class="st9" d="M142.4,100.7c0,0.1-0.2,0.1-0.1,0.3c0.1,0,0.2,0,0.3,0C142.5,100.8,142.5,100.7,142.4,100.7z"/>
					<path class="st9" d="M164.2,101.8c0.1,0.1,0.2,0,0.4,0c0,0.2-0.1,0.3,0.1,0.3c0.1-0.2,0.3-0.3,0.6-0.3c0.1-0.3-0.2-0.3-0.3-0.4
						c0-0.2-0.1-0.3-0.3-0.3c-0.1,0.1-0.1,0.3-0.1,0.5C164.4,101.5,164.3,101.6,164.2,101.8z"/>
					<path class="st9" d="M157.9,102c0.1,0.4-0.2,0.5,0,0.7c0.2,0,0.2-0.2,0.3-0.2C158.2,102.3,158.1,102.1,157.9,102z"/>
					<path class="st9" d="M162.1,103.8c0.1,0.3,0.3,0.3,0.3,0.7c0.4-0.1,0.3,0.3,0.8,0.2c0-0.2,0.2-0.1,0.2-0.2c0,0-0.1,0-0.1-0.1
						c0.2-0.1,0.1-0.5,0.3-0.6c-0.1-0.2,0-0.4-0.1-0.6c0.1-0.1,0.2-0.1,0.2-0.3c-0.2-0.1-0.3-0.3-0.6-0.3
						C163.1,103.3,162.3,103.2,162.1,103.8z"/>
					<path class="st9" d="M160.9,103.3c-0.1-0.2-0.3-0.3-0.3-0.5c-0.2,0-0.1-0.1-0.3-0.1c0,0.3-0.2,0-0.3,0.1c0,0.8,0.9,0.6,0.8,1.5
						c0.3,0,0.4,0.5,0.7,0.3c0.1-0.3-0.1-0.5-0.1-0.9C161.2,103.7,161,103.5,160.9,103.3z"/>
					<path class="st9" d="M164.5,103.9c0-0.3-0.4-0.2-0.5-0.4c-0.3,0.3-0.6,1-0.1,1.3c0-0.2,0-0.3,0.1-0.4c0.1,0.1,0.1,0.3,0.4,0.2
						c0-0.3-0.2-0.4-0.3-0.7C164.3,104,164.4,104,164.5,103.9z"/>
					<path class="st9" d="M165.9,103.6c-0.2-0.1-0.7-0.1-0.7,0.2C165.4,104,165.9,103.9,165.9,103.6z"/>
					<path class="st9" d="M166.6,103.9c-0.1,0-0.3,0-0.4,0c-0.1,0.1-0.1,0.2-0.3,0.2s-0.1-0.2-0.3-0.1c0,0.2-0.2,0.1-0.2,0.3
						c0,0.2,0.2-0.1,0.3,0c0.3,0.2,0.7,0.4,0.9,0.7c0,0.1,0,0.3,0,0.4c0.3-0.2,0.4,0.1,0.7,0.2c0.2,0,0.2-0.3,0.4-0.3
						c0.2,0.1,0.3,0.5,0.6,0.3c-0.1-0.1-0.2-0.2-0.2-0.4c-0.2-0.2-0.4-0.3-0.5-0.5c0-0.1,0-0.1,0-0.2
						C167.1,104.4,167,104,166.6,103.9z"/>
					<path class="st9" d="M163.2,105.4c0-0.2-0.2-0.2-0.2-0.4c-0.5,0-0.9-0.1-1.3-0.3c0,0.1-0.2,0.2-0.1,0.4
						C162.2,105.2,162.5,105.5,163.2,105.4z"/>
					<path class="st9" d="M167.9,108.1c0-0.3-0.1-0.5-0.1-0.8c-0.1,0-0.1-0.2-0.3-0.3c0-0.5-0.5-0.6-0.4-1.2c-0.1,0-0.1-0.1-0.3-0.1
						c-0.2,0.3,0.1,1-0.2,1.1c-0.2,0.1-0.1-0.2-0.4-0.1c0-0.2-0.3-0.1-0.3-0.3c0-0.2,0.3,0,0.3-0.3c-0.2-0.3-0.9-0.1-1.2-0.2
						c-0.1,0,0,0.3-0.1,0.3c-0.2,0-0.4,0.1-0.6,0.2c-0.1,0.2,0,0.6-0.3,0.6c-0.1-0.2-0.3,0-0.5,0c-0.1,0,0,0.4-0.1,0.4
						s-0.1-0.2-0.3-0.1c-0.2,0.2-0.1,0.6-0.3,0.7c-0.1,0.1-0.4,0-0.5,0.2c0.1,0.3,0.2,0.7,0.1,1c0.1,0.1,0.2,0.2,0.2,0.3
						c0,0.3-0.1,0.4-0.1,0.7c0.2,0,0.2,0.2,0.4,0.1c0.3-0.1,0.4-0.4,0.9-0.3c0.2-0.3,0.7-0.4,1.2-0.3c0.2,0.1,0.3,0.4,0.4,0.6
						c0.2-0.1,0.2,0.2,0.4,0c0,0.2,0,0.4-0.1,0.5c0.4,0.2,0.6,0.3,1.3,0.3c0.2-0.1,0.3-0.3,0.5-0.3c0-0.3,0.3-0.3,0.3-0.7
						c0.2,0,0.2-0.3,0.4-0.3c-0.1-0.2,0.1-0.4,0.1-0.6c0-0.4-0.1-0.8-0.2-1.2C168.1,108,168,108.3,167.9,108.1z"/>
					<path class="st9" d="M153.1,105.9c-0.1,0.2-0.2,0.4-0.3,0.7c-0.3,0.1-0.4,0.3-0.6,0.5c-0.1,0.2,0.1,0.3,0.1,0.5
						c-0.1,0.1-0.1,0.3-0.2,0.4c0.1,0.3,0,0.6,0.2,0.8c0.2,0,0.3-0.1,0.5-0.1c0.1-0.3,0.1-0.4,0.3-0.7c0-0.1,0-0.2,0-0.3
						c0-0.1,0.1-0.1,0.1-0.1c-0.1-0.3,0.1-0.6,0.1-1.1C153.1,106.4,153.4,105.9,153.1,105.9z"/>
					<path class="st9" d="M171.4,110.5c0-0.2,0-0.4-0.2-0.3c0,0.2,0,0.4,0,0.5c-0.1,0.2-0.3,0.2-0.3,0.5c0.4-0.1,0.1,0.2,0.1,0.4
						c0.4,0,0.4-0.5,0.6-0.7c0.1-0.1,0.3-0.1,0.3-0.3C171.8,110.3,171.7,110.5,171.4,110.5z"/>
					<path class="st9" d="M170.7,111.3c-0.1,0.1-0.2,0.2-0.2,0.4c-0.1,0-0.2,0-0.3,0.1s-0.1,0.3-0.3,0.4c-0.3,0.1-0.3,0.4-0.4,0.7
						c0.2-0.1,0.3,0,0.6,0c0.1-0.2,0.3-0.2,0.2-0.5c0.1,0,0.2,0,0.3,0c0-0.4,0.5-0.3,0.5-0.7C171,111.5,170.8,111.4,170.7,111.3z"/>
					<path class="st9" d="M166.4,111.5c-0.1,0.1,0.2,0.4,0.3,0.6c0.3,0,0.5-0.2,0.4-0.6C166.8,111.5,166.5,111.4,166.4,111.5z"/>
					<path class="st9" d="M137.6,113.6c0.1,0,0.2,0,0.3,0C137.9,113.3,137.6,113.3,137.6,113.6z"/>
				</g>
				<g>
					<path class="st7" d="M172.3,90.8c2.4,0,4.3-1.9,4.3-4.3s-1.9-4.3-4.3-4.3H167c-2.4,0-4.3,1.9-4.3,4.3s1.9,4.3,4.3,4.3H172.3z"
						/>
					<g>
						<g>
							<path class="st9" d="M167.3,90.3L167.3,90.3L167.3,90.3c-1,0-1.9-0.4-2.6-1.1c-0.7-0.7-1.1-1.7-1.1-2.7
								c0-2.1,1.7-3.8,3.7-3.8c2.1,0,3.7,1.7,3.7,3.8C171,88.6,169.3,90.3,167.3,90.3z M167.3,83.4c-1.7,0-3.1,1.4-3.1,3.1
								c0,0.8,0.3,1.6,0.9,2.2s1.4,0.9,2.2,0.9v0.3v-0.3c1.7,0,3.1-1.4,3.1-3.1S169,83.4,167.3,83.4z"/>
						</g>
						<g>
							<path class="st9" d="M172.2,90.3L172.2,90.3L172.2,90.3c-2.1,0-3.7-1.7-3.7-3.8c0-2.1,1.7-3.8,3.7-3.8c2.1,0,3.7,1.7,3.7,3.8
								C176,88.6,174.3,90.3,172.2,90.3z M172.2,83.4c-1.7,0-3.1,1.4-3.1,3.1s1.4,3.2,3.1,3.2V90v-0.3c1.7,0,3.1-1.4,3.1-3.1
								C175.4,84.8,174,83.4,172.2,83.4z"/>
						</g>
						<g>
							<path class="st9" d="M167.3,90.2L167.3,90.2L167.3,90.2c-0.3,0-0.5-0.1-0.8-0.4c-0.6-0.6-1-1.9-0.9-3.3
								c0-2.1,0.8-3.7,1.7-3.7c1,0,1.7,1.6,1.7,3.7S168.3,90.2,167.3,90.2z M167.3,83.5c-0.5,0-1.1,1.2-1.1,3.1
								c0,1.5,0.4,2.5,0.8,2.9c0.1,0.1,0.2,0.2,0.3,0.2l0,0c0.5,0,1.1-1.2,1.1-3.1C168.4,84.6,167.8,83.5,167.3,83.5z"/>
						</g>
						<g>
							<polygon class="st9" points="170.7,86.8 163.9,86.8 163.9,86.2 170.7,86.2 							"/>
						</g>
						<g>
							<g>
								<polygon class="st9" points="170.1,85.2 164.5,85.2 164.5,84.6 170.2,84.6 								"/>
							</g>
							<g>
								<polygon class="st9" points="170.1,88.4 164.4,88.4 164.4,87.8 170.1,87.8 								"/>
							</g>
						</g>
					</g>
				</g>
				<rect x="136.9" y="85.1" class="st7" width="23.2" height="3.3"/>
			</g>
		</g>
		<g>
			<g>
				<g>
					<g>
						<g>
							<g>
								<defs>
									<rect id="SVGID_1_" x="82.7" y="48.8" width="39.4" height="69.9"/>
								</defs>
								<clipPath id="SVGID_2_">
									<use xlink:href="#SVGID_1_"  style="overflow:visible;"/>
								</clipPath>
								<g class="st10">
									<g>
										<g>
											<rect x="78.3" y="70.1" class="st11" width="3.1" height="1"/>
											<rect x="78.3" y="84" class="st11" width="3.1" height="1"/>
										</g>
										<rect x="81.1" y="64" class="st12" width="67.8" height="52"/>
										<rect x="81.1" y="63.7" class="st13" width="67.8" height="1.7"/>
										<g>
											<rect x="134.4" y="70.4" class="st14" width="10" height="11.4"/>
											<rect x="122.2" y="70.4" class="st14" width="10" height="11.4"/>
											<rect x="110" y="70.4" class="st14" width="10" height="11.4"/>
											<rect x="97.7" y="70.4" class="st14" width="10" height="11.4"/>
											<rect x="85.5" y="70.4" class="st14" width="10" height="11.4"/>
										</g>
										<polygon class="st14" points="130.7,87.6 132.2,87.6 144.4,87.6 144.4,111.1 132.2,111.1 130.7,111.1 122.2,111.1 
											122.2,87.6 										"/>
										<polygon class="st11" points="132.2,87.6 144.4,87.6 144.4,92 122.2,92 122.2,87.6 130.7,87.6 										"/>
										<polygon class="st13" points="130.5,87.6 132.1,87.6 145.1,87.6 145.1,88.7 132.1,88.7 130.5,88.7 121.5,88.7 121.5,87.6 
																					"/>
										<polygon class="st15" points="130.5,110 132.1,110 145.1,110 145.1,111.1 132.1,111.1 130.5,111.1 121.5,111.1 121.5,110 
																					"/>
										<polygon class="st14" points="94,87.6 95.6,87.6 107.8,87.6 107.8,111.1 95.6,111.1 94,111.1 85.5,111.1 85.5,87.6 
																					"/>
										<polygon class="st11" points="95.6,87.6 107.8,87.6 107.8,92 85.5,92 85.5,87.6 94,87.6 										"/>
										<polygon class="st13" points="93.9,87.6 95.5,87.6 108.5,87.6 108.5,88.7 95.5,88.7 93.9,88.7 84.9,88.7 84.9,87.6 
																					"/>
										<polygon class="st15" points="93.9,110 95.5,110 108.5,110 108.5,111.1 95.5,111.1 93.9,111.1 84.9,111.1 84.9,110 
																					"/>
										<polygon class="st16" points="74.9,68.4 75.3,68.4 79,68.4 79,86.7 75.3,86.7 74.9,86.7 72.3,86.7 72.3,68.4 										
											"/>
										<rect x="110" y="87.6" class="st15" width="10" height="27"/>
										<rect x="110.9" y="103.5" class="st13" width="8.1" height="0.6"/>
										<rect x="110.9" y="105.1" class="st13" width="8.1" height="0.5"/>
										<rect x="107.8" y="114.6" class="st14" width="14.4" height="2.2"/>
										<rect x="110" y="87.6" class="st13" width="10" height="4.4"/>
										<rect x="79.3" y="116" class="st15" width="71.4" height="3.2"/>
										<rect x="79.3" y="61" class="st15" width="71.4" height="3.2"/>
									</g>
								</g>
							</g>
						</g>
					</g>
				</g>
			</g>
		</g>
		<g>
			<g>
				<path class="st17" d="M146,53.4c0,1.6,1.3,3,3,3l0.7-1.4c1.6,0,3-2.5,3-4.1v-1.1c0-1.6-1.3-3-3-3H149c-1.6,0-3,1.3-3,3V53.4z"/>
				<path class="st17" d="M152.1,49.6c0.2,0,0.4,0,0.6,0c0,0.3,0,0.5,0,0.8c0.4,2.5,2.6,4.3,5.1,4.3c0,2.4-1.9,4.5-4.4,4.9
					c-2.8,0.4-5.3-1.5-5.7-4.2C147.4,52.5,149.3,50,152.1,49.6z"/>
				<path class="st18" d="M147.2,47.9c0,0.3,0,0.6,0.1,0.8c0.3,1.9,1.5,3.4,2.7,3.5c0,0.9,0.3,1.6,0.4,2.3c0.2,1.5,1.8,1.7,1.8,1.7
					c0.2,1.3-5,3.2-4.9,3s1.2-1.8,1.6-3.2c0.3-1-0.1-1.8-0.5-2.4c-0.7-0.8-1.7-0.8-1.7-0.8c-0.1,0-0.2,0-0.3-0.1
					c-0.1-0.2-0.1-0.4-0.1-0.6v-2.5C146.3,48.9,146.7,48.2,147.2,47.9z"/>
				<path class="st19" d="M143.9,75.3C143.9,75.3,143.9,75.2,143.9,75.3C143.9,75.2,143.9,75.2,143.9,75.3c0.4-2.2,1.1-4.2,2-6.1
					c0.7-1.3,2-2.6,2.6-3.2c1.6,0.8,3.1,0.5,4.5,1.6c0.2,0.6,0.3,1.2,0.5,2c0.2,1.3,0.4,2.4,0.6,3.6c2.3,0.2,7.8,0.6,9.9,1
					c1.2,0.3,1.3,0.8,1.5,0.9c-0.1,2-1.8,3.2-2.7,4.8c-0.2,0.3-13.5,0-15.8,0.2C147.4,80.1,142.6,80.2,143.9,75.3z"/>
				<path class="st20" d="M164.7,77.9c0.4-0.4,0.6-1,0.8-1.4c0.2-0.9,0.2-1.5-0.1-1.7c-1-0.8-4.3,0.9-12.8,13.5
					c-1.8,2.8-5.6,8.1-4.5,7.4c1.9-1.2,2.4-2.8,3.7-4C162,81.1,163.1,79.8,164.7,77.9z"/>
				<path class="st21" d="M147.7,95.3l1.5-2.4c0.1-0.2,0.4-0.4,0.6-0.3l-1.2,1.8c-0.2,0.4-0.2,0.8,0.1,1.1c0.1,0.1,0.2,0.1,0.3,0.1
					l-0.3,0.6c-0.2,0.4-0.6,0.5-0.9,0.2C147.6,96.1,147.5,95.6,147.7,95.3z"/>
				<path class="st18" d="M147.5,64l-2.3-4.1c-0.9-1.2-0.4-2.8,1-3.1l7.3-1.7c0.9-0.1,2.3,1.1,2.1,2.6l-1.5,4.9L147.5,64z"/>
				<path class="st21" d="M154.5,55.9c-1,4.5,1.5,12.5,1.5,12.5s1.4,0.3,1.7-0.5c0.3-1-0.5-3.3-1.1-9.5
					C156.2,54.5,154.7,55.1,154.5,55.9z"/>
				<path class="st21" d="M144.7,57.7c-0.6,5.5-2.1,12.5-2.1,12.5s1.5,1.2,2,0.5c0.6-0.9,1.2-4.1,1.9-10.1
					C146.8,56.9,144.8,57,144.7,57.7z"/>
				<path class="st22" d="M153.4,65.6c0,0.6-0.4,1.8-0.8,1.9l-4.3-0.3c-0.4,0-1.5-0.4-1.5-0.9v-1.9c0-0.6,0.3-1,0.8-1l5.3-1.5
					c0.4,0,0.8,0.4,0.8,1L153.4,65.6z"/>
				<path class="st23" d="M153.1,67.5c0,0.1-0.3,0.1-0.7,0.1l-4.1-0.3c-0.4,0-0.7-0.1-0.7-0.2v-0.2c0-0.1,0.3-0.1,0.7-0.1l4.1,0.3
					c0.4,0,0.7,0.1,0.7,0.2V67.5z"/>
				<path class="st22" d="M154.5,57.1c-0.1-0.3-0.2-0.5-0.3-0.7c-3.7,2.9-6.5,1.8-8.5,1.4c0,0.1,0,0.2,0,0.4c0,1.4,0.1,2.7,0.1,4.1
					c0,1.1,1.5,2,2.3,2c2.7,0,3.3-0.2,5.9-1c0.7-0.2,1.9-1.4,1.6-2.4C155.3,59.6,154.9,58.4,154.5,57.1z"/>
				<path class="st19" d="M147.7,56.3c0,0-2.6,0-3,1.4s0.6,3.3,0.6,3.3s0.8,2.5,1.1,3.9s-0.6,2.7-0.3,2.4c0.1-0.1,0.7,0,1.7-0.5
					s0.4-2.4,0.2-3c-0.1-0.6-0.7-3.5-0.6-4C147.4,59.3,147.7,56.3,147.7,56.3z"/>
				<path class="st19" d="M156,56.9c0,0,0.2-1.1-0.3-1.6c-0.8-0.6-2.7-0.5-3.3-0.3s-1,0.4-1,0.4s2.2,0.7,2.2,4.6
					c0,0.7-0.1,2-0.3,3.1c-0.2,1-0.2,3.1-0.2,3.1s1.3,0.2,1.4,0.3c0.1,0.2,0.1-1.2,0.9-2.5C156.1,62.6,156,56.9,156,56.9z"/>
				<path class="st21" d="M153.4,54.9c1.1,0.8,1.7,1.5,1.8,6.1c0,0.7-0.2,2.1-0.3,3.3c0.1-0.1,0.5-0.8,0.5-0.9
					c0.7-1.3,0.6-6.5,0.6-6.5s0.1-1-0.4-1.5C155.1,55,154.1,54.8,153.4,54.9z"/>
				<path class="st18" d="M162.4,78.9c0.3-0.5,0.4-1,0.6-1.5c0-0.9-0.1-1.4-0.4-1.7c-1.1-1-3.6,0.9-7.7,9.2c-2,4.2-3.7,8.1-6.4,10.3
					c-0.4,0.3-0.5,0.4-0.6,0.8c-0.4,1.2-0.2,2.6-0.2,2.6c0.6-0.6,1.7-2.4,3.2-4.2C154,90.4,158.7,84.7,162.4,78.9z"/>
				<path class="st19" d="M146.9,97.7l1.3-2.5c0.1-0.2,0.3-0.4,0.6-0.4l-1,1.9c-0.2,0.4-0.1,0.8,0.2,1.1c0.1,0.1,0.2,0.1,0.3,0.1
					l-0.3,0.6c-0.2,0.4-0.6,0.5-0.9,0.3C146.8,98.5,146.7,98,146.9,97.7z"/>
				<g>
					<path class="st20" d="M136.5,79c0,0-0.4,0.4-0.5,0.7c0,0.2-0.1,1.2-0.1,1.2s0.3-0.3,0.3-0.7C136.2,79.7,136.5,79,136.5,79z"/>
					<path class="st20" d="M136.3,79.7c-0.3,0.2-0.4,0.7-0.4,1.2s-0.3,0.7-0.3,0.7s0-0.3,0.1-1.1c0-0.2,0.1-0.5,0.1-0.7
						C135.9,79.1,137.1,79.1,136.3,79.7z"/>
					<path class="st18" d="M136.9,78.6c0,0.3-0.2,0.7-0.1,0.9c0.2,0.4,0.5,0.6,0.5,0.6c-0.5,0.2-0.9-0.6-1.2-0.7
						C135.8,79.1,136.8,77.9,136.9,78.6z"/>
					<path class="st18" d="M139.1,76.1c-0.8,0.6-1.7,1.3-2,1.9c-0.4,0.7-0.3,1.3-0.8,1.7c-0.1,0-0.1,0.1-0.1,0.1
						c-0.1,0.1-0.3,0.2-0.3,0.3c0,0.1-0.2,0.3-0.2,0.2c0.1-0.9,0.4-1.8,0.5-2c0.3-0.3,1.8-2.2,2.6-2.8
						C139.5,74.9,140.1,75.3,139.1,76.1z"/>
					<path class="st18" d="M136.2,79.6c0,0-0.1-0.2-0.3-0.1c-0.2,0.2-0.5,0.6-0.6,0.8c-0.1,0.2-0.4,1.2-0.4,1.2s0.3-0.2,0.5-0.6
						C135.6,80.3,136.2,79.6,136.2,79.6z"/>
					<path class="st18" d="M139.7,74.3c0.7,0,2.4-1.1,2.5-0.7c-1.2,1.7-5.8,4.4-5.8,4.4L139.7,74.3z"/>
				</g>
				<path class="st21" d="M139.3,75.2c0.3,0.1,0.4,0.3,0.4,0.7c1.2-0.9,4.6-3.6,4.9-5.3c0.1-0.5-0.9-1.8-2.5,0
					c-1.9,2.3-2.9,3.7-3.2,4.5C139,75.1,139.2,75.2,139.3,75.2z"/>
				<g>
					<path class="st20" d="M160.1,59.1c0,0,0.2,0.1,0.3-0.1s0.1-0.8,0.1-1s-0.2-1.2-0.2-1.2s-0.2,0.3-0.1,0.7
						C160.3,58.2,160.1,59.1,160.1,59.1z"/>
					<path class="st20" d="M160.1,59c0.2-0.4,0-0.8-0.2-1.3s-0.1-0.8-0.1-0.8s0.2,0.3,0.5,1c0.1,0.2,0.2,0.4,0.2,0.7
						C160.4,59.3,159.7,59.9,160.1,59z"/>
					<path class="st18" d="M156.5,67.5c-0.1-1.6,2.5-5.6,2.5-5.6s1.4-1.2-0.9,4.8C157.4,68.4,156.6,67.9,156.5,67.5z"/>
					<path class="st18" d="M160,58.6l0.2,0.1l0.1,0.7c0,0-0.2,1.2-0.5,1.6s-0.6,2.3-0.7,2.5c-0.1,0.2-1.2,0.3-1.2,0.3s0.8-1.8,1-2.5
						s0.2-1.9,0.3-2.2c0.1-0.5,0.2-0.8,0.2-0.8s0.3,0.1,0.1,0.9c0,0.2,0.2,0.2,0.2,0.2L160,58.6z"/>
					<path class="st18" d="M160.1,59.4c0,0,0.2-0.6,0-0.9c-0.1-0.2-0.6-1.1-0.6-1.1s-0.1,0.4,0.1,0.7
						C160,58.7,160.1,59.4,160.1,59.4z"/>
					<path class="st20" d="M159.8,59.3h-0.2c0,0.1,0,0.1,0,0.2s0,0.8,0,0.8s0.1-0.5,0.2-0.6C159.8,59.6,159.9,59.4,159.8,59.3
						l0.1-0.2L159.8,59.3z"/>
					<path class="st20" d="M159.6,59.1c0.1-0.5,0-0.8,0-0.8c0,0.1-0.1,0.3-0.2,0.6c0,0.1,0,0.3-0.1,0.6c0,0,0.2,0.1,0.3,0.5
						c0,0.1,0.1-0.4,0.1-0.7C159.7,59.3,159.6,59.3,159.6,59.1z"/>
				</g>
				<path class="st21" d="M158.5,65.5c0-0.2-1.2-0.5-1.4-0.1l-0.2,0.3c0,0-1.5,2.2-0.3,2.9C156.7,68.5,158.1,68.6,158.5,65.5z"/>
			</g>
			<g>
				<rect x="150.8" y="73.9" class="st24" width="12.7" height="0.3"/>
				<path class="st24" d="M156.4,73.9c0,0.2,0.1,0.4,0.3,0.4h6.5c0.2,0,0.4-0.1,0.6-0.6l3.2-5.9c0-0.3-0.2-0.4-0.4-0.4l-6.7,0.2
					c-0.2,0-0.3,0.2-0.4,0.4L156.4,73.9z"/>
				<path class="st25" d="M157.2,74.2L157.2,74.2h-6.4c0.2,0.1,0.6,0.2,1,0.2h5.3h0.1h5.3c0.4,0,0.8-0.1,1-0.2H157.2z"/>
			</g>
		</g>
		<g>
			<g>
				<g>
					<path class="st26" d="M69.9,59.2v5.7c0,1.5,1.8,2.7,4,2.7s4-1.2,4-2.7v-5.7H69.9z"/>
					<path class="st3" d="M77.9,59.2v5.7c0,1.5,1.8,2.7,4,2.7s4-1.2,4-2.7v-5.7H77.9z"/>
					<path class="st26" d="M86,59.2v5.7c0,1.5,1.8,2.7,4,2.7s4-1.2,4-2.7v-5.7H86z"/>
					<path class="st3" d="M94,59.2v5.7c0,1.5,1.8,2.7,4,2.7s4-1.2,4-2.7v-5.7H94z"/>
					<path class="st26" d="M102.1,59.2v5.7c0,1.5,1.8,2.7,4,2.7s4-1.2,4-2.7v-5.7H102.1z"/>
					<path class="st3" d="M110.2,59.2v5.7c0,1.5,1.8,2.7,4,2.7s4-1.2,4-2.7v-5.7H110.2z"/>
					<path class="st26" d="M118.2,59.2v5.7c0,1.5,1.8,2.7,4,2.7s4-1.2,4-2.7v-5.7H118.2z"/>
					<path class="st3" d="M126.3,59.2v5.7c0,1.5,1.8,2.7,4,2.7s4-1.2,4-2.7v-5.7H126.3z"/>
				</g>
				<g>
					<path class="st27" d="M81.5,50.2c-3.9,3-7.7,6-11.6,9c2.7,0,5.4,0,8.1,0c2.9-3,5.8-6,8.7-9C84.9,50.2,83.2,50.2,81.5,50.2z"/>
					<path class="st28" d="M86.6,50.2c-2.9,3-5.8,6-8.7,9c2.7,0,5.4,0,8.1,0c1.9-3,3.9-6,5.8-9C90.1,50.2,88.4,50.2,86.6,50.2z"/>
					<path class="st27" d="M91.8,50.2c-1.9,3-3.9,6-5.8,9c2.7,0,5.4,0,8.1,0c1-3,1.9-6,2.9-9C95.2,50.2,93.5,50.2,91.8,50.2z"/>
					<path class="st28" d="M97,50.2c-1,3-1.9,6-2.9,9c2.7,0,5.4,0,8.1,0c0-3,0-6,0-9C100.4,50.2,98.7,50.2,97,50.2z"/>
					<path class="st27" d="M102.1,50.2c0,3,0,6,0,9c2.7,0,5.4,0,8.1,0c-1-3-1.9-6-2.9-9C105.5,50.2,103.8,50.2,102.1,50.2z"/>
					<path class="st28" d="M107.3,50.2c1,3,1.9,6,2.9,9c2.7,0,5.4,0,8.1,0c-1.9-3-3.9-6-5.8-9C110.7,50.2,109,50.2,107.3,50.2z"/>
					<path class="st27" d="M112.4,50.2c1.9,3,3.9,6,5.8,9c2.7,0,5.4,0,8.1,0c-2.9-3-5.8-6-8.7-9C115.8,50.2,114.1,50.2,112.4,50.2z"
						/>
					<path class="st28" d="M126.3,59.2c2.7,0,5.4,0,8.1,0c-3.9-3-7.7-6-11.6-9c-1.7,0-3.4,0-5.2,0C120.5,53.2,123.4,56.2,126.3,59.2
						z"/>
				</g>
				<g>
					<rect x="81.5" y="48.3" class="st27" width="5.2" height="1.9"/>
					<rect x="86.6" y="48.3" class="st3" width="5.2" height="1.9"/>
					<rect x="91.8" y="48.3" class="st27" width="5.2" height="1.9"/>
					<rect x="96.9" y="48.3" class="st3" width="5.2" height="1.9"/>
					<rect x="102.1" y="48.3" class="st27" width="5.2" height="1.9"/>
					<rect x="107.3" y="48.3" class="st3" width="5.2" height="1.9"/>
					<rect x="112.4" y="48.3" class="st27" width="5.2" height="1.9"/>
					<rect x="117.6" y="48.3" class="st3" width="5.2" height="1.9"/>
				</g>
			</g>
		</g>
		<g>
			<g>
				<g>
					<g>
						<g class="st29">
							<g>
								<path class="st30" d="M179.8,133.7c0-0.8-0.1-1.8-0.1-2.6C179.7,131.6,179.7,133.1,179.8,133.7
									C179.8,133.6,179.8,133.7,179.8,133.7z"/>
							</g>
							<g>
								<path class="st22" d="M201.1,130c0,1,0.1,1.9,0.1,2.9c0,0.7-0.9,1.5-2.9,2.2c-4.3,1.4-11.7,1.8-16.5,0.9
									c-2.6-0.5-4-1.3-4-2.1l-0.1-2.9c0,0.8,1.4,1.6,4,2.1c4.9,0.9,12.3,0.6,16.5-0.9C200.2,131.5,201.1,130.7,201.1,130z"/>
							</g>
							<g>
								<path class="st30" d="M197.1,127.9c4.9,0.9,5.4,2.9,1.1,4.3c-4.3,1.4-11.7,1.8-16.5,0.9c-4.9-0.9-5.4-2.9-1.1-4.3
									C184.8,127.3,192.2,126.9,197.1,127.9z M183,132.6c4,0.8,10.2,0.5,13.7-0.7s3.1-2.8-0.9-3.6c-4-0.8-10.2-0.5-13.7,0.7
									C178.5,130.2,178.9,131.8,183,132.6"/>
							</g>
							<path class="st22" d="M195.8,128.3c4,0.8,4.4,2.4,0.9,3.6c-3.5,1.2-9.7,1.5-13.7,0.7s-4.4-2.4-0.9-3.6
								C185.6,127.9,191.7,127.5,195.8,128.3z"/>
							<path class="st31" d="M182.1,129.4c3.5-1.2,9.7-1.5,13.7-0.7c2,0.4,3.1,1,3.3,1.6c0.2-0.8-0.9-1.5-3.3-2
								c-4-0.8-10.2-0.5-13.7,0.7c-1.8,0.6-2.6,1.3-2.4,1.9C179.8,130.4,180.6,129.9,182.1,129.4z"/>
							<g>
								<path class="st31" d="M191.9,131.1c0.3,0.3,0.1,0.6-0.7,0.9c-0.9,0.3-2.4,0.5-3.6,0.4c-0.5,0-0.9-0.1-1.3-0.1h-0.2H186
									l-0.3,0.1h-0.2l-0.9-0.2l0.4-0.1l-0.7-0.1h-0.1l-0.3,0.1h-0.2l-0.9-0.2l0.4-0.1l-0.7-0.1l0.9-0.3h0.1l0.5,0.1h0.2l2.7-0.9
									l1-0.3l2.3-0.8l-0.7-0.1l0.9-0.3h0.1l0.5,0.1h0.2l0.3-0.1h0.1l1.1,0.2l-0.4,0.1l0.5,0.1h0.2l0.3-0.1h0.1l1.1,0.2l-0.4,0.1
									c1.3,0.3,1.5,0.8,0.3,1.2C193.5,130.9,192.7,131,191.9,131.1z M187.9,132c0.7,0,1.6,0,2.2-0.2c0.7-0.2,0.7-0.6-0.2-0.7
									l-2-0.4h-0.1l-2.6,0.9l2,0.4C187.4,131.9,187.7,131.9,187.9,132 M191.1,129.5l-2.2,0.7l1.7,0.3c0.2,0,0.4,0.1,0.6,0.1
									c0.6,0,1.4,0,1.9-0.2c0.6-0.2,0.6-0.5-0.2-0.6L191.1,129.5L191.1,129.5"/>
							</g>
							<g>
								<path class="st32" d="M191.9,130.7c0.3,0.3,0.1,0.6-0.7,0.9c-0.9,0.3-2.4,0.5-3.6,0.4c-0.5,0-0.9-0.1-1.3-0.1h-0.2H186
									l-0.3,0.1h-0.2l-0.9-0.2l0.4-0.1l-0.7-0.1h-0.1l-0.3,0.1h-0.2l-0.9-0.2l0.4-0.1l-0.7-0.1l0.9-0.3h0.1l0.5,0.1h0.2l2.7-0.9
									l1-0.3l2.3-0.8l-0.7-0.1l0.9-0.3h0.1l0.5,0.1h0.2l0.3-0.1h0.1l1.1,0.2l-0.4,0.1l0.5,0.1h0.2l0.3-0.1h0.1l1.1,0.2l-0.4,0.1
									c1.3,0.3,1.5,0.8,0.3,1.2C193.5,130.6,192.7,130.7,191.9,130.7z M187.9,131.6c0.7,0,1.6,0,2.2-0.2c0.7-0.2,0.7-0.6-0.2-0.7
									l-2-0.4h-0.1l-2.6,0.9l2,0.4C187.4,131.6,187.7,131.6,187.9,131.6 M191.1,129.2l-2.2,0.7l1.7,0.3c0.2,0,0.4,0.1,0.6,0.1
									c0.6,0,1.4,0,1.9-0.2c0.6-0.2,0.6-0.5-0.2-0.6L191.1,129.2L191.1,129.2"/>
							</g>
							<path class="st31" d="M178.8,132.2v2.8c0.7,0.4,1.7,0.7,3,1s2.8,0.4,4.4,0.5v-2.9c-1.6-0.1-3.1-0.2-4.5-0.5
								C180.4,132.8,179.4,132.5,178.8,132.2z"/>
						</g>
					</g>
					<g>
						<g class="st29">
							<g>
								<path class="st30" d="M180.8,130.3c0-0.8-0.1-1.8-0.1-2.6C180.8,128.3,180.8,129.7,180.8,130.3L180.8,130.3z"/>
							</g>
							<g>
								<path class="st22" d="M202.2,126.7c0,1,0.1,1.9,0.1,2.9c0,0.7-0.9,1.5-2.9,2.2c-4.3,1.4-11.7,1.8-16.5,0.9
									c-2.6-0.5-4-1.3-4-2.1l-0.1-2.9c0,0.8,1.4,1.6,4,2.1c4.9,0.9,12.3,0.6,16.5-0.9C201.2,128.2,202.2,127.4,202.2,126.7z"/>
							</g>
							<g>
								<path class="st30" d="M198.2,124.5c4.9,0.9,5.4,2.9,1.1,4.3c-4.3,1.4-11.7,1.8-16.5,0.9c-4.9-0.9-5.4-2.9-1.1-4.3
									C185.9,124,193.3,123.6,198.2,124.5z M184.1,129.2c4,0.8,10.2,0.5,13.7-0.7c3.5-1.2,3.1-2.8-0.9-3.6s-10.2-0.5-13.7,0.7
									C179.6,126.9,180,128.5,184.1,129.2"/>
							</g>
							<path class="st22" d="M196.8,125c4,0.8,4.4,2.4,0.9,3.6c-3.5,1.2-9.7,1.5-13.7,0.7s-4.4-2.4-0.9-3.6
								C186.7,124.5,192.8,124.2,196.8,125z"/>
							<path class="st31" d="M183.1,126c3.5-1.2,9.7-1.5,13.7-0.7c2,0.4,3.1,1,3.3,1.6c0.2-0.8-0.9-1.5-3.3-2
								c-4-0.8-10.2-0.5-13.7,0.7c-1.8,0.6-2.6,1.3-2.4,1.9C180.9,127.1,181.7,126.5,183.1,126z"/>
							<g>
								<path class="st31" d="M193,127.7c0.3,0.3,0.1,0.6-0.7,0.9c-0.9,0.3-2.4,0.5-3.6,0.4c-0.5,0-0.9-0.1-1.3-0.1h-0.2h-0.1
									l-0.3,0.1h-0.2l-0.9-0.2l0.4-0.1l-0.7-0.1h-0.1l-0.3,0.1h-0.2l-0.9-0.2l0.4-0.1l-0.7-0.1l0.9-0.3h0.1l0.5,0.1h0.2l2.7-0.9
									l1-0.3l2.3-0.8l-0.7-0.1l0.9-0.3h0.1l0.5,0.1h0.2l0.3-0.1h0.1l1.1,0.2l-0.4,0.1l0.5,0.1h0.2l0.3-0.1h0.1l1.1,0.2l-0.4,0.1
									c1.3,0.3,1.5,0.8,0.3,1.2C194.6,127.5,193.8,127.7,193,127.7z M189,128.6c0.7,0,1.6,0,2.2-0.2c0.7-0.2,0.6-0.6-0.2-0.7
									l-2-0.4h-0.1l-2.6,0.9l2,0.4C188.5,128.6,188.7,128.6,189,128.6 M192.2,126.2l-2.2,0.7l1.7,0.3c0.2,0,0.4,0.1,0.6,0.1
									c0.6,0,1.4,0,1.9-0.2c0.6-0.2,0.6-0.5-0.2-0.6L192.2,126.2L192.2,126.2"/>
							</g>
							<g>
								<path class="st32" d="M193,127.3c0.3,0.3,0.1,0.6-0.7,0.9c-0.9,0.3-2.4,0.5-3.6,0.4c-0.5,0-0.9-0.1-1.3-0.1h-0.2h-0.1
									l-0.3,0.1h-0.2l-0.9-0.2l0.4-0.1l-0.7-0.1h-0.1l-0.3,0.1h-0.2l-0.9-0.2l0.4-0.1l-0.7-0.1l0.9-0.3h0.1l0.5,0.1h0.2l2.7-0.9
									l1-0.3l2.3-0.8l-0.7-0.1l0.9-0.3h0.1l0.5,0.1h0.2l0.3-0.1h0.1l1.1,0.2l-0.4,0.1l0.5,0.1h0.2l0.3-0.1h0.1l1.1,0.2l-0.4,0.1
									c1.3,0.3,1.5,0.8,0.3,1.2C194.6,127.2,193.8,127.3,193,127.3z M189,128.2c0.7,0,1.6,0,2.2-0.2c0.7-0.2,0.6-0.6-0.2-0.7
									l-2-0.4h-0.1l-2.6,0.9l2,0.4C188.5,128.2,188.7,128.2,189,128.2 M192.2,125.8l-2.2,0.7l1.7,0.3c0.2,0,0.4,0.1,0.6,0.1
									c0.6,0,1.4,0,1.9-0.2c0.6-0.2,0.6-0.5-0.2-0.6L192.2,125.8L192.2,125.8"/>
							</g>
							<path class="st31" d="M179.8,128.8v2.8c0.7,0.4,1.7,0.7,3,1s2.8,0.4,4.4,0.5v-2.9c-1.6-0.1-3.1-0.2-4.5-0.5
								C181.5,129.4,180.5,129.1,179.8,128.8z"/>
						</g>
					</g>
				</g>
				<g>
					<g>
						<g class="st29">
							<g>
								<path class="st30" d="M179.8,126.4c0-0.8-0.1-1.8-0.1-2.6C179.7,124.3,179.7,125.8,179.8,126.4
									C179.8,126.3,179.8,126.4,179.8,126.4z"/>
							</g>
							<g>
								<path class="st22" d="M201.1,122.7c0,1,0.1,1.9,0.1,2.9c0,0.7-0.9,1.5-2.9,2.2c-4.3,1.4-11.7,1.8-16.5,0.9
									c-2.6-0.5-4-1.3-4-2.1l-0.1-2.9c0,0.8,1.4,1.6,4,2.1c4.9,0.9,12.3,0.6,16.5-0.9C200.2,124.2,201.1,123.4,201.1,122.7z"/>
							</g>
							<g>
								<path class="st30" d="M197.1,120.6c4.9,0.9,5.4,2.9,1.1,4.3c-4.3,1.4-11.7,1.8-16.5,0.9c-4.9-0.9-5.4-2.9-1.1-4.3
									C184.8,120,192.2,119.6,197.1,120.6z M183,125.3c4,0.8,10.2,0.5,13.7-0.7s3.1-2.8-0.9-3.6s-10.2-0.5-13.7,0.7
									C178.5,122.9,178.9,124.5,183,125.3"/>
							</g>
							<path class="st22" d="M195.8,121c4,0.8,4.4,2.4,0.9,3.6c-3.5,1.2-9.7,1.5-13.7,0.7s-4.4-2.4-0.9-3.6
								C185.6,120.6,191.7,120.2,195.8,121z"/>
							<path class="st31" d="M182.1,122.1c3.5-1.2,9.7-1.5,13.7-0.7c2,0.4,3.1,1,3.3,1.6c0.2-0.8-0.9-1.5-3.3-2
								c-4-0.8-10.2-0.5-13.7,0.7c-1.8,0.6-2.6,1.3-2.4,1.9C179.8,123.1,180.6,122.6,182.1,122.1z"/>
							<g>
								<path class="st31" d="M191.9,123.8c0.3,0.3,0.1,0.6-0.7,0.9c-0.9,0.3-2.4,0.5-3.6,0.4c-0.5,0-0.9-0.1-1.3-0.1h-0.2H186
									l-0.3,0.1h-0.2l-0.9-0.2l0.4-0.1l-0.7-0.1h-0.1l-0.3,0.1h-0.2l-0.9-0.2l0.4-0.1l-0.7-0.1l0.9-0.3h0.1l0.5,0.1h0.2l2.7-0.9
									l1-0.3l2.3-0.8l-0.7-0.1l0.9-0.3h0.1l0.5,0.1h0.2l0.3-0.1h0.1l1.1,0.2l-0.4,0.1l0.5,0.1h0.2l0.3-0.1h0.1l1.1,0.2l-0.4,0.1
									c1.3,0.3,1.5,0.8,0.3,1.2C193.5,123.6,192.7,123.7,191.9,123.8z M187.9,124.6c0.7,0,1.6,0,2.2-0.2c0.7-0.2,0.7-0.6-0.2-0.7
									l-2-0.4h-0.1l-2.6,0.9l2,0.4C187.4,124.6,187.7,124.6,187.9,124.6 M191.1,122.2l-2.2,0.7l1.7,0.3c0.2,0,0.4,0.1,0.6,0.1
									c0.6,0,1.4,0,1.9-0.2c0.6-0.2,0.6-0.5-0.2-0.6L191.1,122.2L191.1,122.2"/>
							</g>
							<g>
								<path class="st32" d="M191.9,123.4c0.3,0.3,0.1,0.6-0.7,0.9c-0.9,0.3-2.4,0.5-3.6,0.4c-0.5,0-0.9-0.1-1.3-0.1h-0.2H186
									l-0.3,0.1h-0.2l-0.9-0.2l0.4-0.1l-0.7-0.1h-0.1l-0.3,0.1h-0.2l-0.9-0.2l0.4-0.1l-0.7-0.1l0.9-0.3h0.1l0.5,0.1h0.2l2.7-0.9
									l1-0.3l2.3-0.8l-0.7-0.1l0.9-0.3h0.1l0.5,0.1h0.2l0.3-0.1h0.1l1.1,0.2l-0.4,0.1l0.5,0.1h0.2l0.3-0.1h0.1l1.1,0.2l-0.4,0.1
									c1.3,0.3,1.5,0.8,0.3,1.2C193.5,123.2,192.7,123.4,191.9,123.4z M187.9,124.3c0.7,0,1.6,0,2.2-0.2c0.7-0.2,0.7-0.6-0.2-0.7
									l-2-0.4h-0.1l-2.6,0.9l2,0.4C187.4,124.3,187.7,124.3,187.9,124.3 M191.1,121.9l-2.2,0.7l1.7,0.3c0.2,0,0.4,0.1,0.6,0.1
									c0.6,0,1.4,0,1.9-0.2c0.6-0.2,0.6-0.5-0.2-0.6L191.1,121.9L191.1,121.9"/>
							</g>
							<path class="st31" d="M178.8,124.8v2.8c0.7,0.4,1.7,0.7,3,1s2.8,0.4,4.4,0.5v-2.9c-1.6-0.1-3.1-0.2-4.5-0.5
								C180.4,125.5,179.4,125.2,178.8,124.8z"/>
						</g>
					</g>
					<g>
						<g class="st29">
							<g>
								<path class="st30" d="M180.8,123c0-0.8-0.1-1.8-0.1-2.6C180.8,121,180.8,122.4,180.8,123L180.8,123z"/>
							</g>
							<g>
								<path class="st22" d="M202.2,119.3c0,1,0.1,1.9,0.1,2.9c0,0.7-0.9,1.5-2.9,2.2c-4.3,1.4-11.7,1.8-16.5,0.9
									c-2.6-0.5-4-1.3-4-2.1l-0.1-2.9c0,0.8,1.4,1.6,4,2.1c4.9,0.9,12.3,0.6,16.5-0.9C201.2,120.8,202.2,120.1,202.2,119.3z"/>
							</g>
							<g>
								<path class="st30" d="M198.2,117.2c4.9,0.9,5.4,2.9,1.1,4.3c-4.3,1.4-11.7,1.8-16.5,0.9c-4.9-0.9-5.4-2.9-1.1-4.3
									C185.9,116.6,193.3,116.3,198.2,117.2z M184.1,121.9c4,0.8,10.2,0.5,13.7-0.7s3.1-2.8-0.9-3.6s-10.2-0.5-13.7,0.7
									C179.6,119.6,180,121.1,184.1,121.9"/>
							</g>
							<path class="st22" d="M196.8,117.6c4,0.8,4.4,2.4,0.9,3.6c-3.5,1.2-9.7,1.5-13.7,0.7s-4.4-2.4-0.9-3.6
								C186.7,117.2,192.8,116.9,196.8,117.6z"/>
							<path class="st31" d="M183.1,118.7c3.5-1.2,9.7-1.5,13.7-0.7c2,0.4,3.1,1,3.3,1.6c0.2-0.8-0.9-1.5-3.3-2
								c-4-0.8-10.2-0.5-13.7,0.7c-1.8,0.6-2.6,1.3-2.4,1.9C180.9,119.8,181.7,119.2,183.1,118.7z"/>
							<g>
								<path class="st31" d="M193,120.4c0.3,0.3,0.1,0.6-0.7,0.9c-0.9,0.3-2.4,0.5-3.6,0.4c-0.5,0-0.9-0.1-1.3-0.1h-0.2h-0.1
									l-0.3,0.1h-0.2l-0.9-0.2l0.4-0.1l-0.7-0.1h-0.1l-0.3,0.1h-0.2l-0.9-0.2l0.4-0.1l-0.7-0.1l0.9-0.3h0.1l0.5,0.1h0.2l2.7-0.9
									l1-0.3l2.3-0.8l-0.7-0.1l0.9-0.3h0.1l0.5,0.1h0.2l0.3-0.1h0.1l1.1,0.2l-0.4,0.1l0.5,0.1h0.2l0.3-0.1h0.1l1.1,0.2l-0.4,0.1
									c1.3,0.3,1.5,0.8,0.3,1.2C194.6,120.2,193.8,120.4,193,120.4z M189,121.3c0.7,0,1.6,0,2.2-0.2c0.7-0.2,0.6-0.6-0.2-0.7
									l-2-0.4h-0.1l-2.6,0.9l2,0.4C188.5,121.2,188.7,121.3,189,121.3 M192.2,118.9l-2.2,0.7l1.7,0.3c0.2,0,0.4,0.1,0.6,0.1
									c0.6,0,1.4,0,1.9-0.2c0.6-0.2,0.6-0.5-0.2-0.6L192.2,118.9L192.2,118.9"/>
							</g>
							<g>
								<path class="st32" d="M193,120c0.3,0.3,0.1,0.6-0.7,0.9c-0.9,0.3-2.4,0.5-3.6,0.4c-0.5,0-0.9-0.1-1.3-0.1h-0.2h-0.1
									l-0.3,0.1h-0.2l-0.9-0.2l0.4-0.1l-0.7-0.1h-0.1H185h-0.2l-0.9-0.2l0.4-0.1l-0.7-0.1l0.9-0.3h0.1l0.5,0.1h0.2l2.7-0.9l1-0.3
									l2.3-0.8l-0.7-0.1l0.9-0.3h0.1l0.5,0.1h0.2l0.3-0.1h0.1l1.1,0.2l-0.4,0.1l0.5,0.1h0.2l0.3-0.1h0.1l1.1,0.2l-0.4,0.1
									c1.3,0.3,1.5,0.8,0.3,1.2C194.6,119.9,193.8,120,193,120z M189,120.9c0.7,0,1.6,0,2.2-0.2c0.7-0.2,0.6-0.6-0.2-0.7l-2-0.4
									h-0.1l-2.6,0.9l2,0.4C188.5,120.9,188.7,120.9,189,120.9 M192.2,118.5l-2.2,0.7l1.7,0.3c0.2,0,0.4,0.1,0.6,0.1
									c0.6,0,1.4,0,1.9-0.2c0.6-0.2,0.6-0.5-0.2-0.6L192.2,118.5L192.2,118.5"/>
							</g>
							<path class="st31" d="M179.8,121.5v2.8c0.7,0.4,1.7,0.7,3,1s2.8,0.4,4.4,0.5v-2.9c-1.6-0.1-3.1-0.2-4.5-0.5
								C181.5,122.1,180.5,121.8,179.8,121.5z"/>
						</g>
					</g>
				</g>
			</g>
			<g>
				<g>
					<path class="st33" d="M183,100.9c0.9,1.9,3.3,2.7,5.2,1.7c2-1,2.8-3.3,1.8-5.2c-0.9-1.9-3.3-2.7-5.2-1.7
						C182.9,96.6,182,98.9,183,100.9z"/>
					<path class="st33" d="M181,105.8c1.2,2.4,4.1,3.4,6.6,2.2c2.5-1.2,3.5-4.1,2.3-6.5s-4.1-3.4-6.6-2.2
						C180.9,100.4,179.8,103.4,181,105.8z"/>
					<g>
						<g>
							<g>
								<path class="st20" d="M185.1,111.1c0,0,0.1,0.6-3,1.4s-7.8,1.2-7.8,1.2l7-2.5C181.3,111.2,184,110.4,185.1,111.1z"/>
								<path class="st20" d="M176.8,113.3c-1.5,0.4-1.9,1.3-2.4,1.7c-0.5,0.4-1,0.9-1,0.9c0.1-0.7,0.6-0.9,0.8-1.1
									c0.2-0.3,0.1-0.2-0.4,0c-0.3,0.1-0.7,0.7-1,1.1c-0.3,0.3-0.5,0.4-0.5,0.4s0.2-0.6,0.6-1.2c0.4-0.7,1-1.3,1.2-1.4
									c0.3-0.2,1.2-0.5,2-0.6C177,112.9,177.9,113,176.8,113.3z"/>
								<path class="st20" d="M174.3,113.7c0,0-1,0.6-1.2,0.8c-0.1,0.1-0.5,0.9-0.5,0.9s0.4-0.2,0.6-0.5
									C173.3,114.6,174.3,113.7,174.3,113.7z"/>
							</g>
							<path class="st34" d="M183.4,110.1c0,0,2.9-0.6,3.2,1.1c0.2,1-0.4,1.5-1.3,1.7c-1.6,0.3-3.5,0.6-3.5,0.6l-1.6-2.4
								L183.4,110.1z"/>
						</g>
						<path class="st34" d="M183.2,108.7l0.8-7.9c0,0-0.1-2.1,0.7-2c1.1,0.1,1.3,1.8,1.4,2.5c0.2,1.3,0.5,1.8,0.4,5.1
							c0,2,0.1,4.3,0,5.7c-0.1,0.9-1-0.1-2-0.2C182.8,111.7,183.2,108.7,183.2,108.7z"/>
					</g>
					<polygon class="st18" points="166,130.8 163.3,136.5 159.7,136.6 157.8,136.2 161.8,135.2 163.9,129.9 					"/>
					<path class="st19" d="M162.9,137.4l-0.5-0.1l-0.3-0.6l-2.9,0.1l-2.4-0.4c0,0,0-0.2,0.2-0.2c0.4-0.2,2.3-0.3,2.3-0.3
						s-0.2,0.5,0,0.6s2.5,0,3-0.1c0.9-0.1,1.4-0.4,1.4-0.2C163.6,136.2,162.9,137.4,162.9,137.4z"/>
					<path class="st19" d="M180.5,119.2l-8.6-0.2l-6.4,14l-2.7-1l6.2-16.9c0,0,0.5-1.1,3.1-1.1c2.5,0,12.7-0.3,13.9,0
						C188.8,114.8,180,116.8,180.5,119.2z"/>
					<path class="st33" d="M186.6,95.9c0.9,1.9,3.3,2.7,5.2,1.7c2-0.9,2.8-3.3,1.8-5.2c-0.9-1.9-3.3-2.7-5.2-1.7
						C186.5,91.6,185.7,94,186.6,95.9z"/>
					<path class="st33" d="M182.6,94.6c0.7,1.5,2.5,2.1,3.9,1.4v-1.6c1.5-0.7,2.1-2.5,1.4-3.9l-0.5-1c-0.7-1.5-2.5-2.1-3.9-1.4
						l-0.7,0.3c-1.5,0.7-2.1,2.5-1.4,3.9L182.6,94.6z"/>
					<path class="st18" d="M181.8,90.2c0.1,0.2,0.3,0.5,0.4,0.7c1.1,1.6,2.8,2.4,4,2c0.4,0.8,0.9,1.4,1.4,1.9
						c0.5,0.6,1.7,0.9,1.7,0.9c0.8,1.1,0.3,4.3-2.4,4.6c-1.7,0.2-1.3-1.6-0.7-2.6c0.3-0.5,0.5-1.1,0.5-1.4c-0.2-1-0.6-1.1-1.2-1.5
						c-1-0.4-1.9,0-1.9,0c-0.1,0-0.2,0-0.3,0c-0.1-0.1-0.3-0.3-0.4-0.5l-1.1-2.2C181.5,91.4,181.5,90.8,181.8,90.2z"/>
					<path class="st19" d="M190.4,116.4c0,0-1.3,0.3-1.6,0.4c-0.5,0.2-1.8,0-1.8,0s-0.2-6.8-0.5-9.1c-0.3-2.4-0.9-3-0.9-3.7
						c0-1.2,0.1-1.5,0.3-2.4s-0.4-2.1-0.2-1.9c0.3,0.4,1.6,1,2.7-0.3C188.6,99.1,190.4,116.4,190.4,116.4z"/>
					<path class="st35" d="M186,96.9c0,0-1.7,1.7-1.6,2.3c0.1,0.6-0.1,3,0.3,5.5c0.4,2.5,0.7,3.2,0.8,5c0.1,1.9-0.4,2.3-0.2,4.5
						c0.1,1.8,0.4,3.4,0.4,3.4s0.8,0.2,1.4-0.4c0.6-0.7,0.4-6.9,0.2-8.4s-1.1-5.5-1.1-6.6c0.1-1.1,0.4-3.6,0.6-3.9
						C187.2,97.4,186.1,97,186,96.9z"/>
					<path class="st34" d="M186,96.7c0,0,0.1,0.1,0.2,0.2c0.2,0.2,0.5,0.5,0.5,0.5s-0.3-0.2-0.5,0.1c-0.2,0.4-0.3,1.2-0.3,1.2
						s-0.6-1-0.5-1.4C185.7,96.8,186,96.7,186,96.7z"/>
					<path class="st33" d="M188.3,100.8c0.7,2.1,2.9,3.3,5.1,2.6c2.2-0.7,3.4-2.9,2.7-5.1c-0.7-2.1-2.9-3.3-5.1-2.6
						C188.9,96.5,187.7,98.7,188.3,100.8z"/>
					<polygon class="st18" points="174.4,132 174.3,136 173.5,137 171.3,138.2 169.7,137.9 172.6,135.8 172.8,131.6 					"/>
					<path class="st36" d="M174.2,136.9l-0.7,0.5l-0.2-0.2l-2,1.3c0,0-1.8,0.5-2.2,0.1c-0.1-0.1,0.2-0.4,0.6-0.7
						c0.3-0.2,0.5-0.3,0.5-0.3s0.1,0.3,0.8,0.4c0.2,0,1.7-0.9,2.2-1.2c0.9-0.4,1.2-1.1,1.3-1C174.5,136,174.2,136.9,174.2,136.9z"/>
					<path class="st37" d="M191.5,111l-1,2.5l-1.8,0.2l-14.4,0.9c0,0-1.3-0.4-2.1,1.6c-1.2,2.9,0.4,17.4,0.4,17.4h2.1l1.2-13.7
						c0,0,13.8,2.4,17.8,1.2c1.5-0.5,2.7-3.2,2.5-5.9c-0.2-2.1-1.6-4.1-1.6-4.1L191.5,111z"/>
					<path class="st35" d="M189.5,116.1c0,0-0.7-6-1-8.9c-0.4-2.9-0.3-7.6-0.4-8.3c-0.1-0.7-0.4-1.7-0.4-1.7s0.7-1.6,1.6-1.5
						c0.8,0,3.3,0.9,4.5,1.4c0.8,0.3,0.4,10,0.5,10.5c0.3,1.8,1.2,3.9,1.8,5.4c0.5,1.1,0.8,2.9,0.8,2.9S192.2,115.2,189.5,116.1z"/>
					<path class="st34" d="M189.1,95.2l-0.7,0.8c0,0-0.9,1.3-0.6,1.1c0.4-0.2,0.8,1.1,0.8,1.1l1.3-2.6L189.1,95.2z"/>
					<g>
						<path class="st18" d="M194.6,109.9c0,0,1.1,0.7-2.9,1.2c-4,0.4-9.9,0.1-9.9,0.1l9.1-1.7C190.8,109.4,193.3,108.9,194.6,109.9z
							"/>
						<path class="st18" d="M184.9,111.1c-1.9,0.2-2.6,1.2-3.3,1.6s-1.4,0.9-1.4,0.9c0.3-0.8,0.9-0.9,1.2-1.2
							c0.3-0.3,0.2-0.1-0.5-0.1c-0.4,0-1,0.7-1.4,1.1c-0.4,0.3-0.6,0.4-0.6,0.4s0.4-0.7,1-1.3c0.7-0.7,1.5-1.3,1.7-1.4
							c0.4-0.2,1.6-0.4,2.6-0.4C185.2,110.7,186.3,110.9,184.9,111.1z"/>
						<path class="st20" d="M181.7,111.1c0,0-1.4,0.5-1.6,0.7c-0.2,0.1-0.8,0.9-0.8,0.9s0.5-0.2,0.8-0.5
							C180.3,112,181.7,111.1,181.7,111.1z"/>
					</g>
					<path class="st34" d="M192.2,108.8l-1.3-8.8c0,0,0.3-1.8,0.9-2.4c0.7-0.7,1.9-0.5,1.9-0.5s1.5,1.2,1.6,8.2
						c0.1,4.7,0.5,6.7-1.5,6.9c-1.9,0.2-4.1,0.3-4.1,0.3l-1.4-2.9L192.2,108.8z"/>
				</g>
				<g>
					<rect x="168.9" y="113.5" class="st24" width="12.6" height="0.3"/>
					<path class="st24" d="M175.9,113.5c0,0.2-0.1,0.4-0.3,0.4h-6.4c-0.2,0-0.4-0.1-0.6-0.6l-3.2-5.8c0-0.3,0.2-0.4,0.4-0.4l6.6,0.2
						c0.2,0,0.3,0.2,0.4,0.4L175.9,113.5z"/>
					<path class="st25" d="M175.1,113.8L175.1,113.8h6.4c-0.2,0.1-0.6,0.2-1,0.2h-5.3h-0.1h-5.3c-0.4,0-0.8-0.1-1-0.2H175.1z"/>
				</g>
			</g>
		</g>
		<g>
			<polygon class="st18" points="28.6,71.9 30.4,69.1 33.6,69.2 32.8,72 31.6,74.1 			"/>
			<g>
				<g>
					<g>
						<path class="st21" d="M36.2,65.8c0,0.7-0.6,1.2-1.3,1.1l-4.6-0.3c-0.7,0-1.2-0.6-1.1-1.3l0,0c0-0.7,0.6-1.2,1.3-1.1l4.6,0.3
							C35.8,64.5,36.3,65.1,36.2,65.8L36.2,65.8z"/>
						<path class="st21" d="M35.3,67.8c-0.1,1.2-1.1,2.2-2.4,2.1l-2.4-0.1c-1.2-0.1-2.2-1.1-2.1-2.4l0,0c0.1-1.2,1.1-2.2,2.4-2.1
							l2.4,0.1C34.4,65.5,35.3,66.6,35.3,67.8L35.3,67.8z"/>
						<path class="st18" d="M36.8,71.5l0.4-7c0.1-1.1-0.9-0.1-2-0.1l-1.1-0.1C33,64.2,32,65.1,32,66.2l-0.3,5L36.8,71.5z"/>
						<path class="st18" d="M32.8,67.8c0,0.5-0.4,0.9-0.9,0.8l0,0c-0.5,0-0.9-0.4-0.8-0.9l0,0c0-0.5,0.4-0.9,0.9-0.8l0,0
							C32.5,66.9,32.9,67.3,32.8,67.8L32.8,67.8z"/>
						<path class="st18" d="M36.4,69.2c0,0.3,0.2,0.5,0.5,0.5h0.4c0.3,0,0.5-0.2,0.5-0.5c0,0-0.7-2.7-1-2.7c0,0-0.2,0.2-0.3,0.5
							L36.4,69.2z"/>
						<path class="st21" d="M34.1,70.9c-2-0.1-2.2-0.7-2.2-1.5c0,0-0.6,1.7-0.7,2.3v0.6c-0.1,1.2,1.1,2.3,2.7,2.4l2.8,0.2l0.2-3.1
							v-0.7L34.1,70.9z"/>
						<path class="st21" d="M36.9,69.8l-1.6-0.1c-0.7,0-1.4,0.5-1.4,1.3c0,0.1,0,0.2,0,0.3l2.9,0.2L36.9,69.8z"/>
						<path class="st18" d="M34.8,71.1v0.4c0,0.1,0.1,0.2,0.2,0.2l1.3,0.1c0.1,0,0.2-0.1,0.2-0.2v-0.4L34.8,71.1z"/>
						<path class="st21" d="M36.6,63.2L32.5,63c-0.4,0-0.8,0.3-0.9,0.8l-0.1,1.6l4.9,0.3L36.6,63.2z"/>
						<path class="st21" d="M39.1,64.6c0,0.7-0.6,1.2-1.3,1.1L35,65.5c-0.7,0-1.2-0.6-1.1-1.3l0,0c0-0.7,0.6-1.2,1.3-1.1l2.8,0.2
							C38.7,63.3,39.2,63.9,39.1,64.6L39.1,64.6z"/>
					</g>
					
						<rect x="31" y="65.7" transform="matrix(5.956883e-02 -0.9982 0.9982 5.956883e-02 -35.5793 94.7208)" class="st21" width="2.9" height="1.1"/>
					
						<rect x="32.2" y="63.6" transform="matrix(5.977908e-02 -0.9982 0.9982 5.977908e-02 -33.2053 95.2517)" class="st21" width="3.5" height="3.3"/>
					<path class="st18" d="M33.1,67.1c0.1-0.9,0.8-1.6,1.8-1.6l0.9,0.1c0.9,0.1,1.4,0.8,1.3,1.7l0,0c-0.1,0.9-0.8,1.6-1.8,1.6h-0.6
						C33.7,68.8,33,68,33.1,67.1L33.1,67.1z"/>
				</g>
			</g>
			<g>
				<path class="st38" d="M43,88.1c0.3,0.1,1.7,0.7,1.7,0.7s-0.1,0.8-0.1,1S44.2,89.4,44,90c-0.2,0.7,0.1,1.3,0.1,1.3l1.2,0.8
					l0.7,0.1l0.5-0.3l0.1-1.2l-0.2-2.1L44.2,87l-1.4,0.2L43,88.1z"/>
				<path class="st38" d="M43.9,85.8l2.4,1.7c0,0,0.5,0.8,0.9,1.5s0.5,1.2,0.5,1.2s-0.2,1.3-0.4,1.5s-0.9-0.1-0.9-0.1l-1.3,0.1
					c0,0-0.4-0.2-0.1-0.6c0.4-0.4,1.2-0.3,1.2-0.3s0-0.7,0-1s-1-1.6-1-1.6l-1.9-1L43.9,85.8z"/>
				<polygon class="st34" points="37.1,80.6 44.2,85.4 43,88.5 37.8,87.5 				"/>
			</g>
			<path class="st39" d="M18.4,129.5c0,0-1.6,0.5-2.2,0.5s-1.5-0.4-2-0.6c-0.4-0.2-1.1-0.6-1.3-1.1c-0.3-0.8-0.8-3.2-0.8-3.2
				l-0.5,0.3l-0.7-1.7c0,0,1-2.2,1.7-2.3c1-0.1,2.9,2.6,2.9,2.6l0.2,3l1,1.6c0,0,1,0.3,1.3,0.4C18.3,129,18.4,129.5,18.4,129.5z"/>
			<path class="st39" d="M42.6,127.8l1.5,3l2.6-1.1l-0.1-0.8l1.2-0.4l1.7-0.3l5.1-3.9c0,0-0.2-0.5-0.4-0.6c-0.8-0.2-2.9,1.3-2.9,1.3
				l-4.1,0.5L42.6,127.8z"/>
			<polygon class="st21" points="30.1,104.4 28.1,109.5 16.4,125 12.5,121.3 22.2,106.2 23.8,93.7 			"/>
			<path class="st19" d="M29.3,87.5c0,0,7.1,20.8,9.3,25.6s9.9,12.1,9.9,12.1l-7.1,3.4c0,0-9.9-16.1-12.1-21.8
				c-2.2-5.6-6.7-11.7-6.7-11.7s-4.4-2.8-3-8.7C21,80.6,29.3,87.5,29.3,87.5z"/>
			<path class="st40" d="M34.2,75.5l-3.1,16.3l-11.7-6.1l7.9-14.5C27.2,71.2,29.9,68.4,34.2,75.5z"/>
			<g>
				<path class="st5" d="M85.9,125.6c0,1.4-1.2,2.6-2.6,2.6s-2.6-1.2-2.6-2.6c0-1.4,1.2-2.6,2.6-2.6
					C84.8,123.1,85.9,124.2,85.9,125.6z"/>
				<path class="st25" d="M84.9,125.6c0,0.9-0.7,1.5-1.5,1.5c-0.9,0-1.5-0.7-1.5-1.5c0-0.9,0.7-1.5,1.5-1.5
					C84.2,124.1,84.9,124.8,84.9,125.6z"/>
				<path class="st24" d="M84.7,125.6c0,0.8-0.6,1.4-1.4,1.4s-1.4-0.6-1.4-1.4c0-0.8,0.6-1.4,1.4-1.4
					C84.1,124.3,84.7,124.9,84.7,125.6z"/>
				<path class="st24" d="M83.9,125c0,0.8-0.5,1-1,0.4l-2-2.2c-0.5-0.6-0.3-1.1,0.5-1.1h1.1c0.8,0,1.5,0.7,1.5,1.5L83.9,125z"/>
				<path class="st25" d="M81.1,123.4c0.1,0,0.2,0,0.3,0h1.1c0.8,0,1.4,0.6,1.4,1.3v-1.1c0-0.8-0.6-1.5-1.5-1.5h-1.1
					c-0.8,0-1,0.5-0.5,1.1L81.1,123.4z"/>
				<path class="st5" d="M66.2,125.6c0,1.4-1.2,2.6-2.6,2.6S61,127,61,125.6c0-1.4,1.2-2.6,2.6-2.6
					C65.1,123.1,66.2,124.2,66.2,125.6z"/>
				<path class="st25" d="M65.2,125.6c0,0.9-0.7,1.5-1.5,1.5c-0.9,0-1.5-0.7-1.5-1.5c0-0.9,0.7-1.5,1.5-1.5
					C64.5,124.1,65.2,124.8,65.2,125.6z"/>
				<path class="st24" d="M65,125.6c0,0.8-0.6,1.4-1.4,1.4c-0.8,0-1.4-0.6-1.4-1.4c0-0.8,0.6-1.4,1.4-1.4
					C64.4,124.3,65,124.9,65,125.6z"/>
				<path class="st24" d="M64.2,125c0,0.8-0.5,1-1,0.4l-2-2.2c-0.5-0.6-0.3-1.1,0.5-1.1h1.1c0.8,0,1.5,0.7,1.5,1.5L64.2,125z"/>
				<path class="st25" d="M61.4,123.4c0.1,0,0.2,0,0.3,0h1.1c0.8,0,1.4,0.6,1.4,1.3v-1.1c0-0.8-0.6-1.5-1.5-1.5h-1.1
					c-0.8,0-1,0.5-0.5,1.1L61.4,123.4z"/>
				<g>
					<g>
						
							<rect x="71.5" y="87.1" transform="matrix(0.1094 -0.994 0.994 0.1094 -38.6262 164.0441)" class="st24" width="1.4" height="33"/>
					</g>
				</g>
				<g>
					<g>
						
							<rect x="72.7" y="93.7" transform="matrix(6.115869e-02 -0.9981 0.9981 6.115869e-02 -39.7385 175.4533)" class="st24" width="1.4" height="30.3"/>
					</g>
				</g>
				<path class="st25" d="M86.5,122.7L86.5,122.7l-24.8-0.2c-0.6,0-1.5-0.1-2-0.7c-0.7-0.8-0.4-2.1-0.2-3.5c0.5-2.2,0.8-3.6,0.8-3.6
					c0.1-0.3,0.4-0.6,0.7-0.6c4.6,0,13.6,0.1,14.8,0c0.4,0,0.7,0.3,0.8,0.7c0,0.4-0.3,0.7-0.7,0.8c-1.3,0.1-11.6,0-14.3,0
					c-0.1,0.6-0.3,1.7-0.6,3c-0.1,0.5-0.4,2-0.1,2.3c0.1,0.1,0.4,0.2,0.9,0.2l24.8,0.2c0.4,0,0.7,0.3,0.7,0.7
					C87.3,122.4,86.9,122.7,86.5,122.7z"/>
				<path class="st24" d="M61.7,122c-0.5,0-1.3-0.1-1.8-0.6c-0.6-0.7-0.4-2-0.1-3.3c0.5-2.2,0.8-3.6,0.8-3.7c0-0.2,0.2-0.3,0.4-0.3
					c2.9,0,7.2,0.1,10.5,0.1c2.6,0,4.1,0,4.5-0.1l0,0c0.2,0,0.4,0.2,0.4,0.4c0,0.1,0,0.2-0.1,0.3c-0.1,0.1-0.2,0.1-0.3,0.1
					c-0.4,0-2,0.1-4.6,0.1c-3.5,0-8,0-9.8,0h-0.3l-0.1,0.3c-0.1,0.6-0.4,1.7-0.6,3.1c-0.3,1.5-0.4,2.3-0.1,2.6
					c0.2,0.2,0.6,0.3,1.2,0.3l25.1,0.2c0.2,0,0.4,0.2,0.4,0.4s-0.2,0.4-0.4,0.4L61.7,122z"/>
				<g>
					<g>
						<path class="st24" d="M63.7,113.5c-0.3,0-0.6-0.2-0.7-0.5l-4.6-15.4c-0.1-0.4,0.1-0.8,0.5-0.9s0.8,0.1,0.9,0.5l4.6,15.4
							c0.1,0.4-0.1,0.8-0.5,0.9C63.9,113.5,63.8,113.5,63.7,113.5z"/>
					</g>
					<g>
						<path class="st24" d="M67.3,113.5c-0.3,0-0.6-0.2-0.7-0.6L63,98.2c-0.1-0.4,0.1-0.8,0.5-0.9s0.8,0.1,0.9,0.5l3.7,14.8
							c0.1,0.4-0.1,0.8-0.5,0.9C67.4,113.5,67.4,113.5,67.3,113.5z"/>
					</g>
					<g>
						<path class="st24" d="M70.9,113.5c-0.3,0-0.6-0.2-0.7-0.6l-2.7-14.1c-0.1-0.4,0.2-0.8,0.6-0.8c0.4-0.1,0.8,0.2,0.8,0.6
							l2.7,14.1C71.7,113.1,71.4,113.5,70.9,113.5C71,113.5,70.9,113.5,70.9,113.5z"/>
					</g>
					<g>
						<path class="st24" d="M74.5,113.5c-0.4,0-0.7-0.3-0.7-0.6L72,99.4c-0.1-0.4,0.2-0.8,0.6-0.8c0.4-0.1,0.8,0.2,0.8,0.6l1.8,13.5
							C75.2,113.1,75,113.5,74.5,113.5L74.5,113.5z"/>
					</g>
					<g>
						<path class="st24" d="M78,113.5c-0.4,0-0.7-0.3-0.7-0.7l-0.8-12.9c0-0.4,0.3-0.7,0.7-0.8c0.4,0,0.7,0.3,0.8,0.7l0.9,12.9
							C78.8,113.2,78.5,113.5,78,113.5C78.1,113.5,78.1,113.5,78,113.5z"/>
					</g>
					<g>
						<path class="st24" d="M81.6,113.5L81.6,113.5c-0.4,0-0.7-0.3-0.7-0.7l0.1-12.3c0-0.4,0.3-0.7,0.7-0.7l0,0
							c0.4,0,0.7,0.3,0.7,0.7l-0.1,12.3C82.3,113.2,82,113.5,81.6,113.5z"/>
					</g>
					<g>
						<path class="st24" d="M85.2,113.5C85.2,113.5,85.1,113.5,85.2,113.5c-0.5,0-0.8-0.4-0.7-0.8l1-11.7c0-0.4,0.4-0.7,0.8-0.7
							s0.7,0.4,0.7,0.8l-1,11.7C85.9,113.2,85.6,113.5,85.2,113.5z"/>
					</g>
				</g>
				<g>
					<g>
						<path class="st24" d="M87.7,113.9H60.6c-0.3,0-0.6-0.2-0.7-0.5l-7.6-18.7l0,0c0,0-0.4-0.7-2.1-1.3c-2.2-0.7-4.8-1.9-4.9-2
							c-0.4-0.2-0.5-0.6-0.4-1c0.2-0.4,0.6-0.5,1-0.4c0,0,2.6,1.2,4.8,1.9c2.4,0.8,2.9,1.9,3,2.1l0.7,1.8l35.4,4.6
							c0.2,0,0.4,0.1,0.5,0.3c0.1,0.2,0.2,0.4,0.1,0.5L88.5,113C88.4,113.6,88.1,113.9,87.7,113.9z M61.1,112.4h26.1l1.7-10.5
							L55,97.5L61.1,112.4z"/>
					</g>
				</g>
				<g>
					<g>
						<path class="st24" d="M87.7,113.9H60.6c-0.3,0-0.6-0.2-0.7-0.5l-7.6-18.7l0,0c0,0-0.4-0.7-2.1-1.3c-2.2-0.7-4.8-1.9-4.9-2
							c-0.4-0.2-0.5-0.6-0.4-1c0.2-0.4,0.6-0.5,1-0.4c0,0,2.6,1.2,4.8,1.9c2.4,0.8,2.9,1.9,3,2.1l0.7,1.8l35.4,4.6
							c0.2,0,0.4,0.1,0.5,0.3c0.1,0.2,0.2,0.4,0.1,0.5L88.5,113C88.4,113.6,88.1,113.9,87.7,113.9z M61.1,112.4h26.1l1.7-10.5
							L55,97.5L61.1,112.4z"/>
					</g>
				</g>
				<g>
					<g>
						<polygon class="st25" points="87.5,111.9 89.2,101.4 55.4,97 55.6,97.6 88.8,101.9 87.2,111.9 						"/>
					</g>
					<g>
						<path class="st25" d="M88.1,113.4H60.9c-0.3,0-0.6-0.2-0.7-0.5l-7.6-18.7c0,0-0.4-0.7-2.1-1.3c-2.2-0.7-4.8-1.9-4.9-2
							c-0.3-0.1-0.5-0.5-0.4-0.8c-0.1,0.1-0.3,0.2-0.3,0.3c-0.2,0.4,0,0.8,0.4,1c0.1,0.1,2.7,1.2,4.9,2c1.7,0.6,2.1,1.3,2.1,1.3
							l7.6,18.7c0.1,0.3,0.4,0.5,0.7,0.5h27.2c0.4,0,0.7-0.3,0.7-0.6l0,0C88.4,113.3,88.2,113.4,88.1,113.4z"/>
					</g>
				</g>
				<g>
					<path class="st7" d="M60.9,113c-0.1,0-0.2-0.1-0.3-0.2l-7.7-19h-0.1c-0.3-0.3-0.9-0.8-2.2-1.3c-2.2-0.7-4.7-1.9-4.9-1.9
						c-0.1,0-0.1-0.1-0.1-0.2s0-0.1,0-0.2s0.1-0.2,0.3-0.2H46c0,0,2.7,1.2,4.8,1.9c2.2,0.7,2.7,1.7,2.7,1.9l0.8,2l35.7,4.7
						c0.1,0,0.1,0,0.2,0.1c0,0.1,0.1,0.1,0.1,0.2l-1.9,11.8c0,0.1-0.1,0.2-0.3,0.2H60.9V113z M61.1,112.4h26.8l1.9-11.3l-35.1-4.6
						L61.1,112.4z"/>
				</g>
				<path class="st5" d="M50.7,91.8L46,89.9c-0.5-0.2-1.1,0-1.3,0.5s0,1.1,0.5,1.3l4.8,2L50.7,91.8z"/>
				<path class="st7" d="M67.5,112.9c-0.1,0-0.2-0.1-0.3-0.2l-1.1-4.2l-3.3-0.2l1.3,4.3c0,0.1,0,0.3-0.2,0.4h-0.1
					c-0.1,0-0.2-0.1-0.3-0.2l-1.3-4.5l-3.4-0.2v-0.6l3.2,0.2l-1.6-5.4l-4.2-0.5l0.1-0.6l4,0.4L58.9,97c0-0.1,0-0.3,0.2-0.3h0.1
					c0.1,0,0.2,0.1,0.3,0.2l1.4,4.8l3.7,0.4l-1.1-4.4c0-0.1,0-0.1,0-0.2s0.1-0.1,0.2-0.1c0,0,0,0,0.1,0s0.2,0.1,0.3,0.2l1.1,4.6
					l3.7,0.4l-0.8-4.3c0-0.2,0.1-0.3,0.2-0.3c0,0,0,0,0.1,0s0.2,0.1,0.3,0.2l0.9,4.5l3.7,0.4l-0.6-4.2c0-0.2,0.1-0.3,0.2-0.3l0,0
					c0.2,0,0.3,0.1,0.3,0.2l0.6,4.3l3.7,0.4l-0.3-4c0-0.1,0-0.1,0.1-0.2c0-0.1,0.1-0.1,0.2-0.1l0,0c0.2,0,0.3,0.1,0.3,0.3l0.3,4.1
					l3.7,0.4v-3.9c0-0.2,0.1-0.3,0.3-0.3c0.2,0,0.3,0.1,0.3,0.3v3.9l3.7,0.4l0.3-3.7c0-0.1,0.1-0.3,0.3-0.3c0.1,0,0.2,0,0.2,0.1
					s0.1,0.1,0.1,0.2l-0.3,3.8l2.1,0.2l-0.1,0.6l-2.1-0.2l-0.3,4l2.5,0.2v0.6l-2.5-0.2l-0.3,3c0,0.1-0.1,0.3-0.3,0.3
					c-0.1,0-0.2,0-0.2-0.1s-0.1-0.1-0.1-0.2l0.3-3l-3.3-0.2v3.2c0,0.2-0.1,0.3-0.3,0.3c-0.2,0-0.3-0.1-0.3-0.3v-3.2l-3.3-0.2
					l0.2,3.4c0,0.1,0,0.1-0.1,0.2c0,0.1-0.1,0.1-0.2,0.1l0,0c-0.2,0-0.3-0.1-0.3-0.3l-0.2-3.5l-3.3-0.2l0.5,3.6
					c0,0.2-0.1,0.3-0.2,0.3l0,0c-0.2,0-0.3-0.1-0.3-0.2l-0.6-3.8l-3.3-0.2l0.7,3.8c0,0.2-0.1,0.3-0.2,0.3c0,0,0,0-0.1,0
					s-0.2-0.1-0.3-0.2l-0.8-4l-3.3-0.2l1,4.1C67.8,112.7,67.7,112.8,67.5,112.9L67.5,112.9z M82.3,108.9l3.4,0.2l0.4-4l-3.7-0.4
					L82.3,108.9z M78.4,108.6l3.4,0.2v-4.3l-3.7-0.4L78.4,108.6z M74.5,108.4l3.4,0.2l-0.3-4.5l-3.7-0.4L74.5,108.4z M70.5,108.1
					l3.4,0.2l-0.6-4.7l-3.7-0.4L70.5,108.1z M66.6,107.9l3.4,0.2l-1-5l-3.7-0.4L66.6,107.9z M62.6,107.7l3.4,0.2l-1.3-5.2l-3.7-0.4
					L62.6,107.7z"/>
			</g>
			<path class="st34" d="M38.1,82.5c0,0-2.5-5.2-3.5-6.8c-0.7-1.1-3-3.5-3-3.5s-1.6,0.9-1.9,1.9c-0.9,2.8,0.7,5.9,0.7,5.9l7.4,7.5
				l1.5-1.6L38.1,82.5z"/>
			<polygon class="st34" points="29.7,69.9 28.8,70.7 33,73.9 33.1,72.7 			"/>
		</g>
	</g>
	<g>
		
			<linearGradient id="SVGID_3_" gradientUnits="userSpaceOnUse" x1="40.75" y1="-1197.4756" x2="40.75" y2="-1199.8873" gradientTransform="matrix(1 0 0 -1 0 -1162.4004)">
			<stop  offset="0" style="stop-color:#B7443B"/>
			<stop  offset="1" style="stop-color:#C9593A"/>
		</linearGradient>
		<polygon class="st41" points="43.1,37.4 40.7,35.8 38.4,37.4 38.4,32.4 40.7,32.4 43.1,32.4 		"/>
		
			<linearGradient id="SVGID_4_" gradientUnits="userSpaceOnUse" x1="40.8" y1="-1188.986" x2="40.8" y2="-1194.1139" gradientTransform="matrix(1 0 0 -1 0 -1162.4004)">
			<stop  offset="0" style="stop-color:#B7443B"/>
			<stop  offset="1" style="stop-color:#C9593A"/>
		</linearGradient>
		<path class="st42" d="M44.3,30.5c0,2-1.6,3.5-3.5,3.5c-2,0-3.5-1.6-3.5-3.5c0-2,1.6-3.5,3.5-3.5S44.3,28.6,44.3,30.5z"/>
		<polygon class="st3" points="40.7,28.4 41.4,29.3 42.4,29.3 42.2,30.3 42.9,31.2 41.9,31.6 41.7,32.7 40.7,32.2 39.7,32.7 
			39.5,31.6 38.5,31.2 39.2,30.3 39,29.3 40,29.3 		"/>
	</g>
	<g>
		<path class="st3" d="M154.4,42.3c0-2.6,2.1-4.8,4.8-4.8h19.1c2.6,0,4.8,2.1,4.8,4.8c0,2.6-2.1,4.8-4.8,4.8h-15.4L159,51v-3.9
			C156.4,46.9,154.4,44.9,154.4,42.3z"/>
		<path class="st43" d="M159.3,40.5c0.5-0.5,1.4-0.5,1.9,0l0.3,0.3l0.3-0.3c0.5-0.5,1.4-0.5,1.9,0s0.5,1.3,0,1.9l-0.3,0.3l0,0
			l-1.9,1.9l-1.9-1.9l0,0l-0.3-0.3C158.8,41.9,158.8,41.1,159.3,40.5z"/>
		<path class="st43" d="M166.5,40.5c0.5-0.5,1.3-0.5,1.9,0l0.3,0.3l0.3-0.3c0.5-0.5,1.3-0.5,1.9,0c0.5,0.5,0.5,1.3,0,1.9l-0.3,0.3
			l0,0l-1.9,1.9l-1.9-1.9l0,0l-0.3-0.3C165.9,41.9,165.9,41.1,166.5,40.5z"/>
		<path class="st43" d="M173.6,40.5c0.5-0.5,1.4-0.5,1.9,0l0.3,0.3l0.3-0.3c0.5-0.5,1.3-0.5,1.9,0c0.5,0.5,0.5,1.3,0,1.9l-0.3,0.3
			l0,0l-1.9,1.9l-1.9-1.9l0,0l-0.3-0.3C173.1,41.9,173.1,41.1,173.6,40.5z"/>
	</g>
	<g>
		<path class="st44" d="M62.8,51.8h-9.5c-2.6,0-4.8,2.1-4.8,4.8c0,2.5,2,4.6,4.5,4.8v3.9l3.9-3.9h5.9c2.6,0,4.8-2.1,4.8-4.8
			C67.6,53.9,65.5,51.8,62.8,51.8z"/>
		<g>
			<g>
				<path class="st3" d="M60.8,55.1h-2.3c0.1-0.3,0.2-0.6,0.3-0.7c0-0.2,0-0.6,0-0.6c0-0.3-0.2-0.5-0.5-0.5H58v0.8
					c0,0-0.9,1.1-0.9,1.6v2.6c0,0.3,0.2,0.5,0.5,0.5h1.9c0.3,0,0.6-0.2,0.7-0.5l1-2.6C61.2,55.3,61.1,55.1,60.8,55.1z"/>
				<rect x="56.6" y="55.5" class="st3" width="0.7" height="2.9"/>
				<rect x="54.5" y="55.1" class="st3" width="1.3" height="3.7"/>
			</g>
		</g>
	</g>
</g>
</svg>
