<svg id="Layer_1" data-name="Layer 1" xmlns="http://www.w3.org/2000/svg" viewBox="0 0 268.32 118.2"><defs><style>.cls-1{fill:#5437e2;}.cls-2{font-size:67.57px;font-family:ErasITC-Demi, Eras Demi ITC;font-weight:300;letter-spacing:-0.03em;}</style></defs><title>fonect</title><path class="cls-1" d="M105.05,14.55c15.69,0,30.2,9.76,37.88,25.47l3.35,6.85L153.36,44a33.25,33.25,0,0,1,40.79,12.87h9.13l-1-2.12a41,41,0,0,0-21.45-18.63,41.53,41.53,0,0,0-30.62.44c-8.74-17.89-25.7-30-45.19-30h0C83.62,6.49,65.26,21.14,57.51,42a37.59,37.59,0,0,0-14.42-2.87C21,39.11,3,58.32,3,82c0,21.63,14.92,39.68,34.36,42.66l-5.09-9.87C20,110,11.13,97.1,11.13,82c0-19.22,14.34-34.85,32-34.85a29.36,29.36,0,0,1,11.3,2.25l7.81,3.22,2.93-7.87C72,26.41,87.63,14.55,105.05,14.55" transform="translate(-3 -6.49)"/><path class="cls-1" d="M266.65,71.42A4.65,4.65,0,0,1,262,66.79c0-28.11-23.06-51-51.4-51a4.63,4.63,0,1,1,0-9.26c33.49,0,60.74,27,60.74,60.22A4.66,4.66,0,0,1,266.65,71.42Z" transform="translate(-3 -6.49)"/><path class="cls-1" d="M250.12,71.42a4.65,4.65,0,0,1-4.67-4.63,34.76,34.76,0,0,0-34.87-34.58,4.64,4.64,0,1,1,0-9.27A44.09,44.09,0,0,1,254.8,66.79,4.66,4.66,0,0,1,250.12,71.42Z" transform="translate(-3 -6.49)"/><path class="cls-1" d="M232.89,71.42a4.66,4.66,0,0,1-4.68-4.63A17.57,17.57,0,0,0,210.59,49.3a4.63,4.63,0,1,1,0-9.26,26.89,26.89,0,0,1,27,26.75A4.65,4.65,0,0,1,232.89,71.42Z" transform="translate(-3 -6.49)"/><text class="cls-2" transform="translate(26.2 99.31)">fonect</text></svg>