<?xml version="1.0" encoding="utf-8"?>
<!-- Generator: Adobe Illustrator 23.0.5, SVG Export Plug-In . SVG Version: 6.00 Build 0)  -->
<svg version="1.1" id="Layer_1" xmlns="http://www.w3.org/2000/svg" xmlns:xlink="http://www.w3.org/1999/xlink" x="0px" y="0px"
	 viewBox="0 0 280.9 131.7" style="enable-background:new 0 0 280.9 131.7;" xml:space="preserve">
<style type="text/css">
	.st0{fill:#5437E2;}
</style>
<g>
	<g>
		<path class="st0" d="M105,14.5c15.7,0,30.2,9.8,37.9,25.5l3.3,6.9l7.1-2.9c4.1-1.7,8.4-2.5,12.8-2.5c4,0,8,0.7,11.8,2.2
			c6.7,2.6,12.4,7.2,16.2,13.2h9.1l-1-2.1c-4.5-8.2-11.9-15-21.5-18.6c-4.9-1.8-9.8-2.7-14.7-2.7c-5.5,0-10.9,1.1-15.9,3.2
			c-8.7-17.9-25.7-30-45.2-30l0,0C83.6,6.5,65.3,21.1,57.5,42c-4.5-1.8-9.3-2.9-14.4-2.9C20.9,39.1,3,58.3,3,82
			c0,21.6,14.9,39.7,34.4,42.7l-5.1-9.9C20,110,11.1,97.1,11.1,82c0-19.2,14.3-34.9,32-34.9c3.9,0,7.7,0.8,11.3,2.3l7.8,3.2l2.9-7.9
			C72,26.4,87.6,14.5,105,14.5"/>
	</g>
	<g>
		<g>
			<path class="st0" d="M266.6,71.4c-2.6,0-4.7-2.1-4.7-4.6c0-28.1-23.1-51-51.4-51c-2.6,0-4.7-2.1-4.7-4.6s2.1-4.6,4.7-4.6
				c33.5,0,60.7,27,60.7,60.2C271.3,69.3,269.2,71.4,266.6,71.4z"/>
		</g>
		<g>
			<path class="st0" d="M250.1,71.4c-2.6,0-4.7-2.1-4.7-4.6c0-19.1-15.6-34.6-34.9-34.6c-2.6,0-4.7-2.1-4.7-4.6
				c0-2.6,2.1-4.6,4.7-4.6c24.4,0,44.2,19.7,44.2,43.8C254.8,69.3,252.7,71.4,250.1,71.4z"/>
		</g>
		<g>
			<path class="st0" d="M232.9,71.4c-2.6,0-4.7-2.1-4.7-4.6c0-9.6-7.9-17.5-17.6-17.5c-2.6,0-4.7-2.1-4.7-4.6c0-2.6,2.1-4.6,4.7-4.6
				c14.9,0,27,12,27,26.7C237.6,69.3,235.5,71.4,232.9,71.4z"/>
		</g>
	</g>
</g>
<g>
	<path d="M33.7,105.8l0.4-5.4l1-21.4H31c0.1-0.7,0.1-1.7,0.2-3.2s0.1-2.6,0.1-3.2h4.5v-1.3c0-2.4,0.1-4.2,0.3-5.4
		c0.2-1.2,0.6-2.3,1.1-3.1s1.3-1.5,2.3-2.1s2.1-1,3.2-1.2c1.2-0.2,2.4-0.3,3.6-0.3c2.5,0,5.2,0.4,8,1.1c0.1,2.5,0.2,4.6,0.4,6.3
		c-2.1-0.7-4-1.1-5.8-1.1c-0.7,0-1.3,0.1-1.9,0.2c-0.6,0.2-1,0.4-1.4,0.7c-0.4,0.3-0.7,0.7-0.9,1.1c-0.2,0.5-0.4,1-0.5,1.6
		s-0.1,1.3-0.1,2.2v1.2h8.4c-0.1,1.5-0.3,3.7-0.4,6.5h-7.9c-0.4,8.8-0.8,17.7-1,26.9c-2,0-3.6-0.1-4.8-0.1
		C37.2,105.7,35.7,105.8,33.7,105.8z"/>
	<path d="M71.6,71.5c2.5,0,5,0.4,7.3,1.1s4.3,1.9,5.9,3.4s2.8,3.3,3.6,5.4c0.8,2.1,1.2,4.4,1.2,6.8c0,2.5-0.4,4.9-1.3,7.3
		c-0.9,2.3-2.1,4.3-3.7,6.1c-1.6,1.7-3.7,3-6.1,3.8s-5,1.3-7.8,1.3c-2.6,0-5-0.4-7.3-1.1c-2.3-0.8-4.3-1.9-5.9-3.4
		c-1.6-1.5-2.9-3.4-3.7-5.5c-0.8-2.2-1.3-4.5-1.3-6.8c0-2.4,0.4-4.7,1.2-6.9c0.8-2.2,2-4.2,3.6-5.9c1.6-1.7,3.7-3,6.3-4
		C66.2,71.9,68.9,71.5,71.6,71.5z M71.6,78.2c-1.9,0-3.6,0.5-5.1,1.4s-2.6,2.3-3.4,4.2c-0.7,1.8-1.1,3.9-1.1,6
		c0,1.9,0.3,3.6,0.9,5.1c0.6,1.5,1.6,2.7,3,3.6s3,1.4,4.9,1.4s3.6-0.5,5.1-1.4c1.5-1,2.6-2.4,3.3-4.2c0.7-1.9,1.1-3.9,1.1-6.2
		c0-1.8-0.3-3.5-0.9-5s-1.5-2.7-2.9-3.6C75.2,78.7,73.5,78.2,71.6,78.2z"/>
	<path d="M92.9,105.8c0.5-5,0.9-10.6,1.3-16.8s0.5-11.8,0.6-16.7c2,0,3.6,0.1,4.9,0.1c1.4,0,3,0,4.6-0.1l-0.4,5.6
		c0.7-1,1.3-1.7,1.8-2.3c0.5-0.6,1.2-1.1,2-1.7c0.8-0.5,1.7-1,2.6-1.3s1.9-0.6,3.1-0.8c1.1-0.2,2.3-0.3,3.5-0.3c2,0,3.8,0.2,5.6,0.7
		c1.8,0.5,3.2,1.3,4.3,2.4c1.1,1.1,1.8,2.3,2.2,3.5c0.4,1.3,0.5,2.6,0.5,4.1c0,0.6,0,1.5-0.1,2.8l-0.7,14.4c-0.1,2-0.1,4.1-0.2,6.4
		c-1.7,0-3.2-0.1-4.5-0.1c-1.7,0-3.4,0-5.1,0.1c0.2-1.9,0.4-5.3,0.7-10c0.3-4.8,0.4-7.9,0.4-9.5c0-1.7-0.3-3.1-0.8-4.2
		s-1.4-1.9-2.6-2.4s-2.4-0.8-3.7-0.8c-1.3,0-2.5,0.3-3.7,0.8c-1.1,0.5-2.1,1.2-3,2.2s-1.6,2.2-2,3.7c-0.5,1.5-0.9,4.1-1.1,7.6
		c-0.2,3.1-0.4,7.4-0.5,12.6c-1.7,0-3.2-0.1-4.6-0.1C96.6,105.7,94.9,105.8,92.9,105.8z"/>
	<path d="M164.2,98.3c-0.3,1.3-0.7,3.6-1.2,7c-2.4,0.5-4.4,0.8-6,1s-3.3,0.3-4.9,0.3c-2.9,0-5.5-0.3-7.7-0.9c-2.3-0.6-4.3-1.6-6-3.1
		s-3-3.4-3.8-5.6s-1.2-4.5-1.2-7c0-2.7,0.5-5.3,1.4-7.9c0.9-2.5,2.3-4.6,4-6.2s3.6-2.8,5.8-3.4c2.2-0.7,4.5-1,6.8-1
		c2.2,0,4.4,0.3,6.4,0.8c2,0.6,3.7,1.5,5.1,2.7c1.4,1.3,2.4,2.8,3.2,4.6c0.7,1.8,1.1,3.8,1.1,6c0,1-0.1,2.1-0.3,3.2h-24.2
		c0,0.8-0.1,1.5-0.1,1.9c0,1.5,0.3,2.8,0.8,4.1c0.5,1.2,1.2,2.3,2.2,3.1c1,0.9,2.1,1.5,3.5,1.9c1.3,0.4,2.7,0.6,4,0.6
		c1.5,0,3.2-0.2,4.9-0.5C159.6,99.7,161.7,99.1,164.2,98.3z M142.9,85h15.4c0-1.1,0-1.8-0.1-2.3s-0.2-1.1-0.4-1.7s-0.5-1.2-0.9-1.7
		s-0.9-0.9-1.4-1.2c-0.5-0.3-1.1-0.6-1.8-0.8c-0.7-0.2-1.4-0.3-2.2-0.3c-0.9,0-1.8,0.1-2.7,0.4s-1.7,0.7-2.4,1.2s-1.3,1.2-1.8,1.8
		c-0.5,0.7-0.8,1.3-1,2C143.3,83.1,143.1,83.9,142.9,85z"/>
	<path d="M196.2,98.2c-0.1,0.9-0.3,1.9-0.5,3.1c-0.2,1.1-0.5,2.6-0.7,4.3c-3.1,0.7-6.2,1.1-9.3,1.1c-1.8,0-3.5-0.2-5.1-0.5
		s-3.2-0.9-4.6-1.8s-2.7-2-3.7-3.3s-1.9-3.1-2.4-5c-0.5-2-0.8-4-0.8-6.1c0-2.8,0.4-5.4,1.3-8c0.9-2.6,2.2-4.6,3.9-6.3
		c1.7-1.6,3.6-2.7,5.7-3.3c2.1-0.6,4.4-0.9,7-0.9c1.4,0,2.9,0.1,4.4,0.2c1.5,0.2,3.3,0.5,5.4,1l0.5,7.2c-3.3-1.1-6.1-1.7-8.6-1.7
		c-1.5,0-2.9,0.3-4.2,0.8s-2.5,1.3-3.4,2.4c-1,1.1-1.6,2.3-2,3.8s-0.6,2.9-0.6,4.4c0,2.1,0.3,3.9,1,5.4c0.6,1.5,1.8,2.7,3.3,3.5
		s3.4,1.3,5.4,1.3c1,0,2.2-0.1,3.6-0.4S194.6,98.7,196.2,98.2z"/>
	<path d="M221.4,98.9c-0.3,1.2-0.7,3.5-1.3,6.7c-1.8,0.4-3.3,0.7-4.4,0.8c-1.1,0.1-2,0.2-3,0.2c-1.6,0-3.1-0.2-4.4-0.5
		c-1.3-0.3-2.3-0.9-3.2-1.6c-0.8-0.8-1.4-1.7-1.7-2.7s-0.4-2.1-0.4-3.3c0-0.3,0-0.7,0-1.2s0.1-2,0.3-4.7l0.8-13.7h-4.7
		c0.1-1.3,0.2-3.4,0.3-6.4h5c0.1-1.3,0.3-3.4,0.4-6.5l3.9-0.8c0.8-0.2,2.4-0.5,4.7-1.1c-0.2,3-0.2,5.8-0.3,8.3h8.4
		c-0.2,3-0.2,5.1-0.2,6.4h-8.4c-0.5,9-0.7,14.1-0.7,15.5s0.1,2.4,0.4,3.2s0.8,1.3,1.4,1.6s1.4,0.5,2.1,0.5c0.6,0,1.1,0,1.7-0.1
		S219.9,99.3,221.4,98.9z"/>
</g>
</svg>
