<?xml version="1.0" encoding="utf-8"?>
<!-- Generator: Adobe Illustrator 23.0.5, SVG Export Plug-In . SVG Version: 6.00 Build 0)  -->
<svg version="1.1" xmlns="http://www.w3.org/2000/svg" xmlns:xlink="http://www.w3.org/1999/xlink" x="0px" y="0px"
	 viewBox="0 0 280.3 254.8" style="enable-background:new 0 0 280.3 254.8;" xml:space="preserve">
<style type="text/css">
	.st0{fill:#5437E2;}
</style>
<g id="bg">
</g>
<g id="txt">
</g>
<g id="Layer_4">
	<g>
		<g>
			<g>
				<path class="st0" d="M258.1,241.1H48.9c-2.7,0-5-2.2-5-5v-49.8c0-8.2,6.7-14.9,14.9-14.9h189.2c8.2,0,14.9,6.7,14.9,14.9v49.8
					C263.1,238.9,260.9,241.1,258.1,241.1z M53.9,231.2h199.2v-44.8c0-2.7-2.2-5-5-5H58.9c-2.7,0-5,2.2-5,5V231.2z"/>
			</g>
			<g>
				<path class="st0" d="M238.2,201.3h-19.9c-2.8,0-5-2.2-5-5c0-2.7,2.2-5,5-5h19.9c2.8,0,5,2.2,5,5
					C243.2,199.1,240.9,201.3,238.2,201.3z"/>
			</g>
			<g>
				<path class="st0" d="M233.2,216.2c0-2.7,2.2-5,5-5l0,0c2.7,0,5,2.2,5,5l0,0c0,2.7-2.2,5-5,5l0,0
					C235.4,221.2,233.2,219,233.2,216.2z M213.3,216.2c0-2.7,2.2-5,5-5l0,0c2.7,0,5,2.2,5,5l0,0c0,2.7-2.2,5-5,5l0,0
					C215.5,221.2,213.3,219,213.3,216.2z"/>
			</g>
			<g>
				<path class="st0" d="M78.8,221.2c-8.2,0-14.9-6.7-14.9-14.9c0-8.2,6.7-14.9,14.9-14.9c8.2,0,14.9,6.7,14.9,14.9
					C93.8,214.5,87.1,221.2,78.8,221.2z M78.8,201.3c-2.7,0-5,2.2-5,5c0,2.7,2.2,5,5,5c2.7,0,5-2.2,5-5
					C83.8,203.5,81.6,201.3,78.8,201.3z"/>
			</g>
		</g>
		<g>
			<path class="st0" d="M148.5,221.2h-19.9c-2.7,0-5-2.2-5-5v-19.9c0-2.7,2.2-5,5-5h19.9c2.7,0,5,2.2,5,5v19.9
				C153.5,219,151.3,221.2,148.5,221.2z M133.6,211.3h10v-10h-10V211.3z"/>
		</g>
		<g>
			<path class="st0" d="M168.5,221.2h-19.9c-2.7,0-5-2.2-5-5v-19.9c0-2.7,2.2-5,5-5h19.9c2.7,0,5,2.2,5,5v19.9
				C173.4,219,171.2,221.2,168.5,221.2z M153.5,211.3h10v-10h-10V211.3z"/>
		</g>
		<g>
			<path class="st0" d="M188.4,221.2h-19.9c-2.8,0-5-2.2-5-5v-19.9c0-2.7,2.2-5,5-5h19.9c2.7,0,5,2.2,5,5v19.9
				C193.4,219,191.1,221.2,188.4,221.2z M173.4,211.3h10v-10h-10V211.3z"/>
		</g>
		<g>
			<path class="st0" d="M118.7,201.3c-2.7,0-5-2.2-5-5v-29.9c0-8.2,6.7-14.9,14.9-14.9h124.5c2.7,0,5-2.2,5-5c0-2.7-2.2-5-5-5h-29.9
				c-8.2,0-14.9-6.7-14.9-14.9c0-8.2,6.7-14.9,14.9-14.9h29.9c1.1,0,2.1-0.3,3-1c2.1-1.6,5.4-1.1,7,1c0.8,1,1.1,2.4,0.9,3.7
				c-0.2,1.3-0.9,2.5-1.9,3.3c-2.5,1.9-5.7,3-8.9,3h-29.9c-2.7,0-5,2.2-5,5c0,2.7,2.2,5,5,5h29.9c8.2,0,14.9,6.7,14.9,14.9
				c0,8.2-6.7,14.9-14.9,14.9H128.6c-2.7,0-5,2.2-5,5v29.9C123.6,199.1,121.4,201.3,118.7,201.3z M257.9,102.9
				c-0.8,0-1.7-0.2-2.4-0.6c-1.2-0.6-2-1.7-2.4-2.9c-0.4-1.3-0.2-2.6,0.4-3.8c1.3-2.3,4.4-3.2,6.8-1.9h0.1c2.3,1.3,3.2,4.3,1.9,6.7
				C261.4,101.9,259.7,102.9,257.9,102.9z M238.2,101.7h-44.8c-2.7,0-5-2.2-5-5s2.2-5,5-5h44.8c2.7,0,5,2.2,5,5
				S240.9,101.7,238.2,101.7z"/>
		</g>
		<g>
			<path class="st0" d="M128.6,221.2h-19.9c-2.7,0-5-2.2-5-5v-19.9c0-2.7,2.2-5,5-5h19.9c2.7,0,5,2.2,5,5v19.9
				C133.6,219,131.4,221.2,128.6,221.2z M113.7,211.3h10v-10h-10V211.3z"/>
		</g>
	</g>
	<g>
		<path class="st0" d="M183.4,141.5H44c-8.2,0-14.9-6.7-14.9-14.9V27c0-8.2,6.7-14.9,14.9-14.9h139.4c8.2,0,14.9,6.7,14.9,14.9v99.6
			C198.3,134.8,191.6,141.5,183.4,141.5z M44,22c-2.7,0-5,2.2-5,5v99.6c0,2.7,2.2,5,5,5h139.4c2.7,0,5-2.2,5-5V27c0-2.7-2.2-5-5-5
			H44z"/>
	</g>
	<g>
		<path class="st0" d="M73.8,126.7h-10c-8.2,0-14.9-5.7-14.9-12.7V37.8c0-7,6.7-12.7,14.9-12.7h10c8.2,0,14.9,5.7,14.9,12.7V114
			C88.8,121,82.1,126.7,73.8,126.7z M63.9,33.6c-2.7,0-5,1.9-5,4.2V114c0,2.3,2.2,4.2,5,4.2h10c2.7,0,5-1.9,5-4.2V37.8
			c0-2.3-2.2-4.2-5-4.2H63.9z"/>
	</g>
	<g>
		<path class="st0" d="M173.4,61.9h-69.7c-2.7,0-5-2.2-5-5V37c0-2.8,2.2-5,5-5h69.7c2.8,0,5,2.2,5,5v19.9
			C178.4,59.6,176.2,61.9,173.4,61.9z M108.7,51.9h59.8v-10h-59.8V51.9z"/>
	</g>
	<g>
		<path class="st0" d="M153.5,76.8c0-2.7,2.2-5,5-5l0,0c2.7,0,5,2.2,5,5l0,0c0,2.7-2.2,5-5,5l0,0C155.8,81.8,153.5,79.5,153.5,76.8z
			 M133.6,76.8c0-2.7,2.2-5,5-5l0,0c2.7,0,5,2.2,5,5l0,0c0,2.7-2.2,5-5,5l0,0C135.8,81.8,133.6,79.5,133.6,76.8z M113.7,76.8
			c0-2.7,2.2-5,5-5l0,0c2.7,0,5,2.2,5,5l0,0c0,2.7-2.2,5-5,5l0,0C115.9,81.8,113.7,79.5,113.7,76.8z"/>
	</g>
	<g>
		<path class="st0" d="M153.5,96.7c0-2.7,2.2-5,5-5l0,0c2.7,0,5,2.2,5,5l0,0c0,2.7-2.2,5-5,5l0,0C155.8,101.7,153.5,99.5,153.5,96.7
			z M133.6,96.7c0-2.7,2.2-5,5-5l0,0c2.7,0,5,2.2,5,5l0,0c0,2.7-2.2,5-5,5l0,0C135.8,101.7,133.6,99.5,133.6,96.7z M113.7,96.7
			c0-2.7,2.2-5,5-5l0,0c2.7,0,5,2.2,5,5l0,0c0,2.7-2.2,5-5,5l0,0C115.9,101.7,113.7,99.5,113.7,96.7z"/>
	</g>
	<g>
		<path class="st0" d="M153.5,116.6c0-2.7,2.2-5,5-5l0,0c2.7,0,5,2.2,5,5l0,0c0,2.7-2.2,5-5,5l0,0
			C155.8,121.6,153.5,119.4,153.5,116.6z M133.6,116.6c0-2.7,2.2-5,5-5l0,0c2.7,0,5,2.2,5,5l0,0c0,2.7-2.2,5-5,5l0,0
			C135.8,121.6,133.6,119.4,133.6,116.6z M113.7,116.6c0-2.7,2.2-5,5-5l0,0c2.7,0,5,2.2,5,5l0,0c0,2.7-2.2,5-5,5l0,0
			C115.9,121.6,113.7,119.4,113.7,116.6z"/>
	</g>
</g>
</svg>
