<?xml version="1.0" encoding="utf-8"?>
<!-- Generator: Adobe Illustrator 23.0.5, SVG Export Plug-In . SVG Version: 6.00 Build 0)  -->
<svg version="1.1" xmlns="http://www.w3.org/2000/svg" xmlns:xlink="http://www.w3.org/1999/xlink" x="0px" y="0px"
	 viewBox="0 0 268.1 251.2" style="enable-background:new 0 0 268.1 251.2;" xml:space="preserve">
<style type="text/css">
	.st0{fill:#5437E2;}
</style>
<g id="bg">
</g>
<g id="txt">
</g>
<g id="Layer_4">
	<g>
		<g>
			<path class="st0" d="M123.1,155.3c-9.4,0-18.5-2.5-26.6-7.3c-12.5,3.2-25.9,0.6-36.3-7c-5.9,5.2-13.9,7.5-21.5,6.1
				c-11-1.9-19.7-11.1-21-22.2c-0.2-1-0.2-2.1-0.2-3.1c0-13.8,10.8-25,24.5-25.6c0-0.2,0-0.4,0-0.6c0.4-19.9,15.9-32.2,25.2-37.7
				c0.3-11.5,7.1-20.9,19.5-27.3C91.2,28.2,96,27,101,27h0c7.5,0,14.2,2.6,19.8,5.1c8.8-13.3,23.6-21.2,39.4-21.2
				c4,0,8,0.5,11.8,1.5c1.3,0.3,2.4,1.1,3,2.2c0.7,1.1,0.9,2.5,0.5,3.8c-0.6,2.6-3.4,4.3-6,3.6c-3-0.8-6.1-1.1-9.3-1.1
				c-13.9,0-26.5,7.7-33.1,20c-1.2,2.3-4.2,3.3-6.5,2.2c-6.4-3.1-13.2-6.1-19.5-6.1H101c-3.4,0-6.4,0.8-9.5,2.4
				c-10.5,5.9-14,10.9-14.2,20c0,0.4,0,0.7,0,1.1c0.1,2-1,3.8-2.7,4.8l0,0c0,0-0.1,0-0.1,0c-0.4,0.2-1.6,0.8-3.3,2
				c-1.9,1.2-4.9,3.3-8,6.2c-5.1,4.8-11.1,12.5-11.1,22.2c0,1.8,0.2,3.4,0.6,5.1c0.3,1.6-0.2,3.4-1.4,4.5c-1.2,1.2-2.9,1.7-4.6,1.3
				c-1.2-0.3-2.3-0.4-3.4-0.4c-8.7,0-15.7,7-15.7,15.7c0,0.6,0,1.3,0.1,1.9c0.7,6.6,6.3,12.4,12.8,13.5c0.9,0.2,1.8,0.3,2.8,0.3
				c4.9,0,9.5-2.3,12.5-6.4c0.8-1.1,2.1-1.8,3.5-1.9c1.4-0.2,2.8,0.3,3.8,1.3c8.8,8.1,21.5,10.9,32.6,7.3c1.4-0.4,3-0.2,4.2,0.6
				c13.4,8.7,31.4,9,44.9,0.8c7.2-4.4,16.5-5.1,24.3-1.9c11.7,4.7,25,3.9,36-2.2c1.7-0.9,4-0.7,5.5,0.4c5.2,4.1,11.7,5.7,18.4,4.4
				c8.7-1.7,15.8-9,17.3-17.7c0.2-1.3,0.3-2.7,0.3-4c0-10.2-6.9-19-16.7-21.5c-2-0.5-3.4-2.1-3.7-4.1c-2.1-14.7-12-27.4-25.8-33
				c-1.7-0.7-2.9-2.3-3.1-4.2c-0.3-3.7-1.1-7.4-2.5-10.9c-1-2.5,0.2-5.4,2.8-6.5c2.5-1,5.5,0.3,6.5,2.8c1.3,3.5,2.3,7.1,2.8,10.8
				c14.6,7,25.3,20.6,28.6,36.5c12.5,4.6,21,16.7,21,30.2c0,1.9-0.1,3.8-0.5,5.7c-2.3,12.8-12.4,23.2-25.1,25.8
				c-8.4,1.6-16.9,0.1-23.8-4.4c-13,6.2-28.3,6.7-41.7,1.3c-4.9-2-10.8-1.5-15.3,1.2C142,152.7,132.6,155.3,123.1,155.3z
				 M188.2,31.4c-1.2,0-2.4-0.4-3.3-1.2c-2-1.8-2.2-5-0.4-7c1.8-2,5.1-2.2,7.1-0.4c2,1.8,2.2,5,0.4,7
				C191,30.8,189.6,31.4,188.2,31.4z"/>
		</g>
		<g>
			<path class="st0" d="M230.3,114.7c-0.4,0-0.8,0-1.2-0.2c-2.7-0.7-4.3-3.4-3.6-6.1c0.9-3.4,1.3-6.9,1.3-10.5
				c0-1.9-0.1-3.8-0.4-5.6c-0.4-2.7,1.6-5.2,4.3-5.6c2.7-0.3,5.2,1.6,5.6,4.3c0.3,2.3,0.5,4.6,0.5,6.9c0,4.4-0.5,8.7-1.6,12.9
				C234.5,113.2,232.5,114.7,230.3,114.7z"/>
		</g>
	</g>
	<g>
		<path class="st0" d="M137.1,230c-2.7,0-5-2.2-5-5v-49.8c0-2.7,2.2-5,5-5c2.7,0,5,2.2,5,5V225C142.1,227.8,139.9,230,137.1,230z"/>
	</g>
	<g>
		<path class="st0" d="M117.2,230h-14.9c-2.7,0-5-2.2-5-5c0-2.7,2.2-5,5-5h10v-49.8c0-2.7,2.2-5,5-5c2.7,0,5,2.2,5,5V225
			c0,1.3-0.5,2.6-1.4,3.5C119.8,229.5,118.5,230,117.2,230z M82.3,230c-2.7,0-5-2.2-5-5c0-2.7,2.2-5,5-5c2.7,0,5,2.2,5,5
			C87.3,227.8,85.1,230,82.3,230z M62.4,230H42.5c-2.7,0-5-2.2-5-5c0-2.7,2.2-5,5-5h19.9c2.7,0,5,2.2,5,5
			C67.4,227.8,65.1,230,62.4,230z"/>
	</g>
	<g>
		<path class="st0" d="M97.3,210.1H22.6c-2.7,0-5-2.2-5-5c0-2.8,2.2-5,5-5h69.7v-34.9c0-2.7,2.2-5,5-5c2.8,0,5,2.2,5,5v39.8
			C102.2,207.8,100,210.1,97.3,210.1z"/>
	</g>
	<g>
		<path class="st0" d="M62.4,190.2L62.4,190.2c-2.7,0-5-2.2-5-5s2.2-5,5-5h10v-14.9v0c0-2.7,2.2-4.9,5-4.9c2.7,0,5,2.2,5,5v19.9
			c0,1.3-0.5,2.6-1.4,3.5c-0.9,0.9-2.2,1.4-3.5,1.4H62.4z M42.5,190.2c-2.7,0-5-2.2-5-5s2.2-5,5-5s5,2.2,5,5S45.2,190.2,42.5,190.2z
			"/>
	</g>
	<g>
		<path class="st0" d="M231.7,190.2c-2.7,0-5-2.2-5-5s2.2-5,5-5s5,2.2,5,5S234.5,190.2,231.7,190.2z M211.8,190.2h-14.9
			c-1.3,0-2.6-0.5-3.5-1.4c-0.9-0.9-1.4-2.2-1.4-3.5v-19.9c0-2.7,2.2-5,5-5c2.7,0,5,2.2,5,5v14.9h10c2.7,0,5,2.2,5,5
			S214.5,190.2,211.8,190.2z"/>
	</g>
	<g>
		<path class="st0" d="M236.7,230h-24.9c-2.7,0-5-2.2-5-5c0-2.7,2.2-5,5-5h24.9c2.7,0,5,2.2,5,5C241.7,227.8,239.4,230,236.7,230z
			 M191.9,230c-2.7,0-5-2.2-5-5c0-2.7,2.2-5,5-5c2.7,0,5,2.2,5,5C196.9,227.8,194.6,230,191.9,230z M172,230H157
			c-1.3,0-2.6-0.5-3.5-1.4c-0.9-0.9-1.4-2.2-1.4-3.5v-54.8v-0.1c0-2.7,2.2-4.9,5-4.9c2.7,0,5,2.2,5,5V220h10c2.7,0,5,2.2,5,5
			C176.9,227.8,174.7,230,172,230z"/>
	</g>
	<g>
		<path class="st0" d="M251.6,210.1h-74.7c-2.7,0-5-2.2-5-5v-39.8c0-2.7,2.2-5,5-5c2.8,0,5,2.2,5,5v34.9h69.7c2.7,0,5,2.2,5,5
			C256.6,207.8,254.4,210.1,251.6,210.1z"/>
	</g>
	<g>
		<g>
			<path class="st0" d="M157,125.4c-2.7,0-5-2.2-5-5V80.6c0-2.8,2.2-5,5-5c2.7,0,5,2.2,5,5v39.8C162,123.2,159.8,125.4,157,125.4z"
				/>
		</g>
		<g>
			<path class="st0" d="M124.7,125.4c-9.6,0-17.4-7.8-17.4-17.4V93c0-9.6,7.8-17.4,17.4-17.4c9.6,0,17.4,7.8,17.4,17.4V108
				C142.1,117.6,134.3,125.4,124.7,125.4z M124.7,85.6c-4.1,0-7.5,3.4-7.5,7.5V108c0,4.1,3.3,7.5,7.5,7.5c4.1,0,7.5-3.4,7.5-7.5V93
				C132.1,88.9,128.8,85.6,124.7,85.6z"/>
		</g>
		<g>
			<g>
				<path class="st0" d="M82.3,125.4c-2.3,0-4.3-1.6-4.8-3.8l-10-39.8c-0.7-2.7,1-5.4,3.6-6c2.7-0.7,5.4,1,6,3.6l5.1,20.5l5.1-20.5
					c0.7-2.7,3.4-4.3,6-3.6c2.7,0.7,4.3,3.4,3.6,6l-10,39.8C86.6,123.9,84.6,125.4,82.3,125.4z"/>
			</g>
		</g>
		<g>
			<g>
				<path class="st0" d="M191.9,105.5h-14.9c-2.7,0-5-2.2-5-5V80.6c0-2.8,2.2-5,5-5h14.9c8.2,0,14.9,6.7,14.9,14.9
					C206.8,98.8,200.1,105.5,191.9,105.5z M181.9,95.5h10c2.7,0,5-2.2,5-5c0-2.7-2.2-5-5-5h-10V95.5z"/>
			</g>
			<g>
				<path class="st0" d="M176.9,125.4c-2.7,0-5-2.2-5-5v-19.9c0-2.7,2.2-5,5-5c2.8,0,5,2.2,5,5v19.9
					C181.9,123.2,179.7,125.4,176.9,125.4z"/>
			</g>
		</g>
	</g>
</g>
</svg>
