<?xml version="1.0" encoding="utf-8"?>
<!-- Generator: Adobe Illustrator 23.0.5, SVG Export Plug-In . SVG Version: 6.00 Build 0)  -->
<svg version="1.1" xmlns="http://www.w3.org/2000/svg" xmlns:xlink="http://www.w3.org/1999/xlink" x="0px" y="0px"
	 viewBox="0 0 260.8 234.4" style="enable-background:new 0 0 260.8 234.4;" xml:space="preserve">
<style type="text/css">
	.st0{fill:#5437E2;}
</style>
<g id="bg">
</g>
<g id="txt">
</g>
<g id="Layer_4">
	<g>
		<g>
			<g>
				<g>
					<g>
						<path class="st0" d="M180.6,110.1c-1.3,0-2.6-0.5-3.5-1.5c-12.2-12.2-28.5-19-45.8-19c-17.3,0-33.6,6.7-45.8,19
							c-1.9,1.9-5.1,1.9-7,0c-1.9-1.9-1.9-5.1,0-7c14.1-14.1,32.9-21.9,52.8-21.9s38.7,7.8,52.8,21.9c1.9,1.9,1.9,5.1,0,7
							C183.1,109.6,181.9,110.1,180.6,110.1z"/>
					</g>
					<g>
						<path class="st0" d="M166.5,124.2c-1.3,0-2.5-0.5-3.5-1.5c-17.5-17.5-45.9-17.5-63.4,0c-1.9,1.9-5.1,1.9-7,0
							c-1.9-1.9-1.9-5.1,0-7c21.4-21.3,56.1-21.4,77.5,0c1.9,1.9,1.9,5.1,0,7C169,123.7,167.8,124.2,166.5,124.2z"/>
					</g>
				</g>
			</g>
		</g>
	</g>
	<g>
		<g>
			<path class="st0" d="M230.9,159.4c-8.2,0-14.9-6.7-14.9-14.9v-19.9c0-20.6-8.3-39.8-23.3-54.1c-1-0.9-1.6-2.2-1.6-3.6V41.4
				c0-1.8,1-3.5,2.6-4.4c1.6-0.9,3.6-0.8,5.1,0.2c29.5,19.5,47.1,52.1,47.1,87.3v19.9C245.8,152.7,239.1,159.4,230.9,159.4z
				 M201,64.7c16.1,16,24.9,37.2,24.9,59.8v19.9c0,2.7,2.2,5,5,5c2.7,0,5-2.2,5-5v-19.9c0-28.6-12.9-55.3-34.9-73.3V64.7z"/>
		</g>
		<g>
			<path class="st0" d="M31.7,159.4c-8.2,0-14.9-6.7-14.9-14.9v-19.9c0-35.1,17.6-67.8,47.1-87.2c1.5-1,3.5-1.1,5.1-0.2
				c1.6,0.9,2.6,2.6,2.6,4.4v25.4c0,1.4-0.6,2.7-1.5,3.6c-15.1,14.3-23.4,33.5-23.4,54.1v19.9C46.6,152.7,39.9,159.4,31.7,159.4z
				 M61.6,51.3c-22,17.9-34.9,44.7-34.9,73.3v19.9c0,2.7,2.2,5,5,5c2.7,0,5-2.2,5-5v-19.9c0-22.6,8.8-43.8,24.9-59.8V51.3z"/>
		</g>
		<g>
			<path class="st0" d="M196,76.8c-1.3,0-2.5-0.5-3.4-1.3c-14-13.3-32.2-20.6-51.3-20.6h-19.9c-19.1,0-37.4,7.3-51.3,20.6
				c-1.4,1.3-3.6,1.7-5.4,0.9c-1.8-0.8-3-2.6-3-4.6V36.5c0-1.7,0.8-3.2,2.2-4.2c8.5-5.7,17.8-10,27.6-13c2.5-0.8,5.4,0.7,6.2,3.3
				c0.7,2.6-0.7,5.4-3.3,6.2c-8,2.4-15.7,5.9-22.8,10.3v22c14.6-10.7,31.8-16.3,49.8-16.3h20c18,0,35.2,5.6,49.8,16.3v-22
				c-15-9.3-32.2-14.2-49.8-14.2h-8.9c-2.7,0-5-2.2-5-5s2.2-5,5-5h8.9c20.5,0,40.4,6,57.5,17.3c1.4,0.9,2.2,2.5,2.2,4.1v35.4
				c0,2-1.2,3.8-3,4.6C197.4,76.6,196.7,76.8,196,76.8z M112.4,25.3c-2.5,0-4.7-2-5-4.5c-0.1-1.3,0.3-2.6,1.1-3.6
				c0.8-1,2-1.6,3.4-1.8c2.7-0.2,5.1,1.8,5.4,4.5c0.2,2.7-1.8,5.2-4.5,5.4C112.7,25.3,112.6,25.3,112.4,25.3z"/>
		</g>
		<g>
			<path class="st0" d="M51.6,219.1H31.7c-11,0-19.9-8.9-19.9-19.9v-39.8c0-11,8.9-19.9,19.9-19.9h19.9c2.8,0,5,2.2,5,5v69.7
				C56.6,216.9,54.4,219.1,51.6,219.1z M31.7,149.4c-5.5,0-10,4.5-10,10v39.8c0,5.5,4.5,10,10,10h14.9v-59.8H31.7z"/>
		</g>
		<g>
			<path class="st0" d="M66.5,224.1H51.6c-2.8,0-5-2.2-5-5v-79.7c0-2.8,2.2-5,5-5h14.9c8.2,0,14.9,6.7,14.9,14.9v59.8
				C81.5,217.4,74.8,224.1,66.5,224.1z M56.6,214.2h10c2.7,0,5-2.2,5-5v-59.8c0-2.7-2.2-5-5-5h-10V214.2z"/>
		</g>
		<g>
			<path class="st0" d="M230.9,219.1H211c-2.8,0-5-2.2-5-5v-69.7c0-2.7,2.2-5,5-5h19.9c11,0,19.9,8.9,19.9,19.9v39.8
				C250.8,210.2,241.9,219.1,230.9,219.1z M215.9,209.2h14.9c5.5,0,10-4.5,10-10v-39.8c0-5.5-4.5-10-10-10h-14.9V209.2z"/>
		</g>
		<g>
			<path class="st0" d="M211,224.1H196c-8.2,0-14.9-6.7-14.9-14.9v-59.8c0-8.2,6.7-14.9,14.9-14.9H211c2.7,0,5,2.2,5,5v79.7
				C215.9,221.9,213.7,224.1,211,224.1z M196,144.4c-2.7,0-5,2.2-5,5v59.8c0,2.7,2.2,5,5,5h10v-69.7H196z"/>
		</g>
	</g>
	<g>
		<g>
			<path class="st0" d="M141,223.7h-5.9c-18.9,0-34.3-15.4-34.3-34.3v-30c0-18.9,15.4-34.3,34.4-34.3l5.9,0c0,0,0,0,0,0
				c2.9,0,5.6,1.1,7.7,3.2c2.1,2.1,3.2,4.8,3.2,7.7v14.7c0,6-4.9,10.9-10.9,10.9h-5.9c-2.1,0-3.8,1.7-3.8,3.8v18.2
				c0,2.1,1.7,3.8,3.8,3.8h5.9c6,0,10.9,4.9,10.9,10.9v14.7C151.8,218.8,147,223.7,141,223.7z M135.1,135
				c-13.4,0-24.4,10.9-24.4,24.4v30c0,13.4,10.9,24.4,24.4,24.4h5.9c0.5,0,0.9-0.4,0.9-0.9v-14.7c0-0.5-0.4-0.9-0.9-0.9h-5.9
				c-7.6,0-13.8-6.2-13.8-13.8v-18.2c0-7.6,6.2-13.8,13.8-13.8h5.9c0.5,0,0.9-0.4,0.9-0.9v-14.7c0-0.4-0.5-0.9-0.9-0.9L135.1,135z"
				/>
		</g>
	</g>
</g>
</svg>
