<?xml version="1.0" encoding="utf-8"?>
<!-- Generator: Adobe Illustrator 23.0.5, SVG Export Plug-In . SVG Version: 6.00 Build 0)  -->
<svg version="1.1" id="Capa_1" xmlns="http://www.w3.org/2000/svg" xmlns:xlink="http://www.w3.org/1999/xlink" x="0px" y="0px"
	 viewBox="0 0 397 109" style="enable-background:new 0 0 397 109;" xml:space="preserve">
<style type="text/css">
	.st0{display:none;fill:#FFFFFF;}
	.st1{fill:#FDBF14;}
	.st2{fill:#E2EBF7;}
</style>
<g>
	<rect x="-1.2" y="-7.7" class="st0" width="428.9" height="116.7"/>
	<g>
		<circle class="st1" cx="56.7" cy="54.8" r="47.5"/>
		<polyline class="st2" points="17.4,53.4 61.5,53.4 61.5,60.8 		"/>
		<polyline class="st2" points="54.9,53.4 61.5,53.4 61.5,81.6 		"/>
	</g>
	<g>
		<path class="st2" d="M153.2,90.4c-2.5,1.3-6.3,2-11.3,2c-12,0-17.9-6.2-17.9-18.6V48.6h-9V36.1h8.9V24.2l16.9-4.8v16.7h12.4v12.5
			h-12.4v22.2c0,5.7,2.3,8.6,6.8,8.6c1.8,0,3.6-0.5,5.5-1.6L153.2,90.4L153.2,90.4z"/>
		<path class="st2" d="M173,27.4c-2.9,0-5.2-0.8-7-2.6c-1.8-1.7-2.7-3.8-2.7-6.3s0.9-4.6,2.7-6.2s4.2-2.4,7-2.4
			c2.9,0,5.3,0.8,7.1,2.4s2.7,3.7,2.7,6.2c0,2.6-0.9,4.7-2.7,6.3C178.2,26.5,175.9,27.4,173,27.4z M181.3,91.1h-17v-55h17V91.1z"/>
		<path class="st2" d="M284.6,91.1h-16.9V59.7c0-8-2.9-12-8.8-12c-2.8,0-5.1,1.2-6.8,3.6c-1.8,2.4-2.6,5.4-2.6,9v30.8h-17V59.4
			c0-7.8-2.9-11.7-8.6-11.7c-2.9,0-5.2,1.1-7,3.4c-1.7,2.3-2.6,5.4-2.6,9.3v30.7h-17v-55h17v8.6h0.2c1.8-2.9,4.2-5.3,7.4-7.2
			c3.2-1.8,6.6-2.8,10.4-2.8c7.8,0,13.1,3.4,16,10.3c4.2-6.8,10.3-10.3,18.5-10.3c12,0,17.9,7.4,17.9,22.1L284.6,91.1L284.6,91.1z"
			/>
		<path class="st2" d="M349.1,68.4h-35.9c0.6,8,5.6,12,15.1,12c6.1,0,11.4-1.4,16-4.3v12.2c-5.1,2.7-11.7,4.1-19.8,4.1
			c-8.9,0-15.8-2.5-20.7-7.4c-4.9-4.9-7.4-11.8-7.4-20.6c0-9.1,2.6-16.4,7.9-21.7c5.3-5.3,11.8-8,19.6-8c8,0,14.2,2.4,18.6,7.1
			c4.4,4.8,6.6,11.2,6.6,19.4L349.1,68.4L349.1,68.4z M333.4,58c0-7.9-3.2-11.8-9.6-11.8c-2.7,0-5.1,1.1-7.1,3.4s-3.2,5.1-3.6,8.4
			H333.4L333.4,58z"/>
		<path class="st2" d="M359.6,91.1h-4.2v-20h4.2V91.1z"/>
		<path class="st2" d="M374.8,91.1h-3.9v-2h-0.1c-0.9,1.5-2.2,2.3-4,2.3c-1.3,0-2.3-0.4-3.1-1.1c-0.8-0.7-1.1-1.7-1.1-3
			c0-2.6,1.6-4.1,4.7-4.5l3.7-0.5c0-1.5-0.8-2.2-2.4-2.2s-3.1,0.5-4.6,1.4v-3.1c0.6-0.3,1.4-0.6,2.4-0.8s1.9-0.3,2.7-0.3
			c3.9,0,5.8,1.9,5.8,5.8L374.8,91.1L374.8,91.1z M370.9,85.6v-0.9l-2.5,0.3c-1.4,0.2-2,0.8-2,1.8c0,0.5,0.2,0.9,0.5,1.2
			s0.8,0.5,1.3,0.5c0.8,0,1.4-0.3,1.9-0.8C370.6,87.1,370.9,86.4,370.9,85.6z"/>
		<path class="st2" d="M382.7,89.5L382.7,89.5l-0.1,1.6h-4.2v-20h4.2v8.5h0.1c1-1.6,2.5-2.4,4.4-2.4c1.7,0,3.1,0.6,4,1.8
			s1.4,2.8,1.4,4.9c0,2.3-0.5,4.1-1.6,5.4c-1.1,1.4-2.6,2-4.4,2C384.8,91.4,383.5,90.8,382.7,89.5z M382.6,83.8v1.4
			c0,0.9,0.3,1.6,0.8,2.2c0.5,0.6,1.1,0.9,1.9,0.9c0.9,0,1.7-0.4,2.2-1.1c0.5-0.7,0.8-1.8,0.8-3.1c0-1.1-0.2-2-0.7-2.6
			s-1.2-0.9-2-0.9s-1.5,0.3-2.1,0.9C382.8,82,382.6,82.8,382.6,83.8z"/>
	</g>
</g>
</svg>
