<?xml version="1.0" encoding="utf-8"?>
<!-- Generator: Adobe Illustrator 23.0.5, SVG Export Plug-In . SVG Version: 6.00 Build 0)  -->
<svg version="1.1" id="Capa_1" xmlns="http://www.w3.org/2000/svg" xmlns:xlink="http://www.w3.org/1999/xlink" x="0px" y="0px"
	 viewBox="0 0 512 512" style="enable-background:new 0 0 512 512;" xml:space="preserve">
<style type="text/css">
	.st0{fill:#FDBF14;}
	.st1{fill:#FFFFFF;}
</style>
<g>
	<g>
		<circle class="st0" cx="235.6" cy="173.7" r="142.3"/>
		<polyline class="st1" points="117.7,169.6 250,169.6 250,191.8 		"/>
		<polyline class="st1" points="230.3,169.6 250,169.6 250,253.9 		"/>
	</g>
	<g>
		<path class="st1" d="M70.3,477.1c-4.3,2.3-10.9,3.5-19.6,3.5c-20.8,0-31-10.7-31-32.2v-43.6H4.1v-21.6h15.4v-20.6l29.3-8.3v28.9
			h21.5v21.6H48.8v38.4c0,9.9,4,14.9,11.8,14.9c3.1,0,6.2-0.9,9.5-2.8L70.3,477.1L70.3,477.1z"/>
		<path class="st1" d="M104.6,368c-5,0-9-1.4-12.1-4.5c-3.1-2.9-4.7-6.6-4.7-10.9c0-4.3,1.6-8,4.7-10.7c3.1-2.8,7.3-4.2,12.1-4.2
			c5,0,9.2,1.4,12.3,4.2c3.1,2.8,4.7,6.4,4.7,10.7c0,4.5-1.6,8.1-4.7,10.9C113.7,366.3,109.6,368,104.6,368z M119.1,478.4H89.7
			v-95.2h29.4L119.1,478.4L119.1,478.4z"/>
		<path class="st1" d="M297.8,478.4h-29.3V424c0-13.9-5-20.8-15.2-20.8c-4.8,0-8.8,2.1-11.8,6.2c-3.1,4.2-4.5,9.4-4.5,15.6v53.3
			h-29.4v-54.9c0-13.5-5-20.3-14.9-20.3c-5,0-9,1.9-12.1,5.9c-2.9,4-4.5,9.4-4.5,16.1v53h-29.4v-95.2h29.4v14.9h0.3
			c3.1-5,7.3-9.2,12.8-12.5c5.5-3.1,11.4-4.9,18-4.9c13.5,0,22.7,5.9,27.7,17.8c7.3-11.8,17.8-17.8,32-17.8c20.8,0,31,12.8,31,38.3
			L297.8,478.4L297.8,478.4z"/>
		<path class="st1" d="M409.5,439h-62.2c1,13.9,9.7,20.8,26.1,20.8c10.6,0,19.7-2.4,27.7-7.4v21.1c-8.8,4.7-20.3,7.1-34.3,7.1
			c-15.4,0-27.4-4.3-35.8-12.8s-12.8-20.4-12.8-35.7c0-15.8,4.5-28.4,13.7-37.6c9.2-9.2,20.4-13.9,33.9-13.9
			c13.9,0,24.6,4.2,32.2,12.3c7.6,8.3,11.4,19.4,11.4,33.6V439L409.5,439z M382.3,421c0-13.7-5.5-20.4-16.6-20.4
			c-4.7,0-8.8,1.9-12.3,5.9s-5.5,8.8-6.2,14.5H382.3L382.3,421z"/>
		<path class="st1" d="M430.3,478.1h-9.9V431h9.9V478.1z"/>
		<path class="st1" d="M466.2,478.1H457v-4.5h-0.2c-2.1,3.5-5.2,5.4-9.4,5.4c-3.1,0-5.4-0.9-7.3-2.6c-1.9-1.7-2.6-4-2.6-7.1
			c0-6.1,3.8-9.7,11.1-10.6l8.7-1.2c0-3.5-1.9-5.2-5.7-5.2s-7.3,1.2-10.8,3.3v-7.3c1.4-0.7,3.3-1.4,5.7-1.9c2.4-0.5,4.5-0.7,6.4-0.7
			c9.2,0,13.7,4.5,13.7,13.7L466.2,478.1L466.2,478.1z M457,465.1V463l-5.9,0.7c-3.3,0.5-4.7,1.9-4.7,4.2c0,1.2,0.5,2.1,1.2,2.8
			c0.7,0.7,1.9,1.2,3.1,1.2c1.9,0,3.3-0.7,4.5-1.9C456.3,468.7,457,467,457,465.1z"/>
		<path class="st1" d="M484.8,474.3L484.8,474.3l-0.2,3.8h-9.9V431h9.9v20h0.2c2.4-3.8,5.9-5.7,10.4-5.7c4,0,7.3,1.4,9.4,4.2
			c2.1,2.8,3.3,6.6,3.3,11.6c0,5.4-1.2,9.7-3.8,12.7c-2.6,3.3-6.1,4.7-10.4,4.7C489.7,478.8,486.9,477.4,484.8,474.3z M484.5,460.9
			v3.3c0,2.1,0.7,3.8,1.9,5.2c1.2,1.4,2.6,2.1,4.5,2.1c2.1,0,4-0.9,5.2-2.6c1.2-1.6,1.9-4.2,1.9-7.3c0-2.6-0.5-4.7-1.6-6.1
			c-1.2-1.4-2.8-2.1-4.7-2.1c-1.9,0-3.5,0.7-4.9,2.1C485.3,456.7,484.5,458.5,484.5,460.9z"/>
	</g>
</g>
</svg>
