<?xml version="1.0" encoding="utf-8"?>
<!-- Generator: Adobe Illustrator 23.0.5, SVG Export Plug-In . SVG Version: 6.00 Build 0)  -->
<svg version="1.1" id="Capa_1" xmlns="http://www.w3.org/2000/svg" xmlns:xlink="http://www.w3.org/1999/xlink" x="0px" y="0px"
	 viewBox="0 0 413.6 451.9" style="enable-background:new 0 0 413.6 451.9;" xml:space="preserve">
<style type="text/css">
	.st0{fill:#FDBF14;}
	.st1{fill:#FFFFFF;}
</style>
<g>
	<g>
		<circle class="st0" cx="206.8" cy="150.5" r="142.3"/>
		<polyline class="st1" points="85.6,146.4 222.2,146.4 222.2,177 		"/>
		<polyline class="st1" points="193.9,146.4 222.8,146.4 222.8,238.8 		"/>
	</g>
	<g>
		<path class="st1" d="M88.6,425.4c-3.7,2-9.4,3.1-17,3.1c-18,0-26.9-9.2-26.9-27.8v-37.7H31.4v-18.7h13.3v-17.8l25.3-7.1v25h18.6
			V363H70.1v33.3c0,8.6,3.4,12.9,10.2,12.9c2.7,0,5.3-0.8,8.2-2.4L88.6,425.4L88.6,425.4z"/>
		<path class="st1" d="M118.4,330.9c-4.3,0-7.8-1.2-10.5-3.9c-2.7-2.5-4.1-5.7-4.1-9.4c0-3.7,1.4-7,4.1-9.2
			c2.7-2.4,6.3-3.6,10.5-3.6c4.3,0,8,1.2,10.7,3.6s4.1,5.5,4.1,9.2c0,3.9-1.4,7.1-4.1,9.4C126.2,329.5,122.7,330.9,118.4,330.9z
			 M130.9,426.5h-25.5v-82.4h25.4L130.9,426.5L130.9,426.5z"/>
		<path class="st1" d="M285.6,426.5h-25.3v-47.1c0-12-4.3-18-13.2-18c-4.2,0-7.6,1.8-10.2,5.3c-2.7,3.6-3.9,8.1-3.9,13.5v46.1h-25.4
			v-47.6c0-11.7-4.3-17.5-12.9-17.5c-4.3,0-7.8,1.6-10.5,5.1c-2.5,3.4-3.9,8.1-3.9,13.9v46h-25.4v-82.4h25.4v12.9h0.3
			c2.7-4.3,6.3-8,11.1-10.9c4.8-2.7,9.9-4.2,15.6-4.2c11.7,0,19.6,5.1,24,15.4c6.3-10.2,15.4-15.4,27.7-15.4
			c18,0,26.9,11.1,26.9,33.2L285.6,426.5L285.6,426.5z"/>
		<path class="st1" d="M382.2,392.4h-53.8c0.9,12,8.4,18,22.6,18c9.1,0,17.1-2.1,24-6.4v18.3c-7.6,4.1-17.5,6.1-29.7,6.1
			c-13.3,0-23.7-3.7-31-11.1c-7.2-7.3-11.1-17.6-11.1-30.9c0-13.7,3.9-24.6,11.8-32.6c8-8,17.6-12,29.4-12c12,0,21.2,3.6,27.8,10.7
			c6.6,7.1,9.9,16.8,9.9,29.1L382.2,392.4L382.2,392.4z M358.7,376.9c0-11.8-4.8-17.6-14.4-17.6c-4.1,0-7.6,1.6-10.7,5.1
			c-3.1,3.4-4.8,7.6-5.3,12.6H358.7L358.7,376.9z"/>
	</g>
</g>
</svg>
