<?xml version="1.0" encoding="utf-8"?>
<!-- Generator: Adobe Illustrator 23.0.5, SVG Export Plug-In . SVG Version: 6.00 Build 0)  -->
<svg version="1.1" id="Capa_1" xmlns="http://www.w3.org/2000/svg" xmlns:xlink="http://www.w3.org/1999/xlink" x="0px" y="0px"
	 viewBox="0 0 70.9 70.9" style="enable-background:new 0 0 70.9 70.9;" xml:space="preserve">
<style type="text/css">
	.st0{fill:#E2EBF7;}
	.st1{fill:#325C8A;}
</style>
<path class="st0" d="M69.8,35.4c0,19-15.4,34.4-34.4,34.4S1,54.4,1,35.4S16.4,1,35.4,1S69.8,16.4,69.8,35.4z"/>
<g>
	<g>
		<path class="st1" d="M35.4,36.5c2.3,0,4.3-2.4,4.3-5.3s-1.9-5.3-4.3-5.3c-2.4,0-4.3,2.4-4.3,5.3C31.1,34.1,33,36.5,35.4,36.5z"/>
		<path class="st1" d="M35.4,48.3c0.5,0,1,0,1.4-0.1c2.8-0.3,5.4-1.4,7.6-3.1L44,40.2c-0.1-1.4-0.9-2.1-2.5-2.3c0,0-1.8-0.2-2.5-0.3
			v0.1l1.8,1.5l-2.2,1.1l1,1.7l-2.8,6.1l-0.4-8.7l0.4-0.3l-0.5-1.7h-1.7L34,39.1l0.4,0.3L34,48.1L31.2,42l1-1.7L30,39.2l1.8-1.5
			v-0.1c-0.7,0.1-1.9,0.2-2.3,0.3l0,0c-1.4,0.2-2.4,1-2.5,2.3l-0.4,5c2.1,1.6,4.6,2.7,7.4,3C34.4,48.3,34.9,48.3,35.4,48.3z"/>
	</g>
	<path class="st1" d="M21.6,35.7H17c-0.5-1.7-2.1-3-4-3c-2.3,0-4.1,1.8-4.1,4.1s1.9,4.1,4.1,4.1c1.9,0,3.5-1.3,4-3.1h4.5v-2.1H21.6z
		 M13.1,38.8c-1.1,0-1.9-0.9-1.9-1.9c0-1.1,0.9-1.9,1.9-1.9c1.1,0,1.9,0.9,1.9,1.9C15,37.9,14.1,38.8,13.1,38.8z"/>
	<path class="st1" d="M22.8,42.8l-3.9,2.3c-1.3-1.3-3.3-1.6-4.9-0.6c-2,1.1-2.6,3.7-1.5,5.6c1.1,2,3.7,2.6,5.6,1.5
		c1.7-1,2.4-2.9,1.9-4.6l3.9-2.3L22.8,42.8z M17,49.7c-0.9,0.5-2.1,0.2-2.7-0.7c-0.5-0.9-0.2-2.1,0.7-2.7c0.9-0.5,2.1-0.2,2.7,0.7
		C18.3,48,17.9,49.2,17,49.7z"/>
	<path class="st1" d="M27.5,48.3l-2.3,3.9c-1.7-0.4-3.6,0.3-4.6,1.9c-1.1,2-0.5,4.5,1.5,5.6s4.5,0.5,5.6-1.5c1-1.7,0.6-3.7-0.7-5
		l2.3-3.9L27.5,48.3z M25.9,57.2c-0.5,0.9-1.7,1.3-2.7,0.7c-0.9-0.5-1.2-1.7-0.7-2.7c0.5-0.9,1.7-1.2,2.7-0.7
		C26.1,55.1,26.4,56.3,25.9,57.2z"/>
	<path class="st1" d="M34.3,50.8v4.5c-1.7,0.5-3,2.1-3,4c0,2.3,1.9,4.1,4.1,4.1c2.3,0,4.1-1.8,4.1-4.1c0-1.9-1.3-3.5-3.1-4v-4.5
		H34.3z M37.3,59.2c0,1.1-0.9,1.9-1.9,1.9c-1.1,0-1.9-0.9-1.9-1.9c0-1.1,0.9-1.9,1.9-1.9C36.5,57.3,37.3,58.2,37.3,59.2z"/>
	<path class="st1" d="M41.4,49.5l2.3,3.9c-1.3,1.3-1.6,3.3-0.6,4.9c1.1,2,3.7,2.7,5.6,1.5c2-1.1,2.6-3.7,1.5-5.6
		c-1-1.7-2.9-2.4-4.6-1.9l-2.3-3.9L41.4,49.5z M48.3,55.3c0.5,0.9,0.2,2.1-0.7,2.7c-0.9,0.5-2.1,0.2-2.7-0.7
		c-0.5-0.9-0.2-2.1,0.7-2.7C46.5,54,47.7,54.4,48.3,55.3z"/>
	<path class="st1" d="M46.9,44.8l3.9,2.3c-0.4,1.7,0.3,3.6,1.9,4.6c2,1.1,4.5,0.5,5.6-1.5s0.5-4.5-1.5-5.6c-1.7-1-3.7-0.6-5,0.7
		L48,42.9L46.9,44.8z M55.8,46.4c0.9,0.5,1.2,1.7,0.7,2.7c-0.5,0.9-1.7,1.2-2.7,0.7c-0.9-0.5-1.2-1.7-0.7-2.7
		C53.6,46.2,54.8,45.9,55.8,46.4z"/>
	<path class="st1" d="M49.3,38h4.5c0.5,1.7,2.1,3,4,3c2.3,0,4.1-1.9,4.1-4.1c0-2.3-1.9-4.1-4.1-4.1c-1.9,0-3.5,1.3-4,3.1h-4.5V38z
		 M57.8,35c1.1,0,1.9,0.9,1.9,1.9c0,1.1-0.9,1.9-1.9,1.9c-1.1,0-1.9-0.9-1.9-1.9C55.9,35.8,56.7,35,57.8,35z"/>
	<g>
		<path class="st1" d="M35.4,51.8c-8.4,0-15.2-6.8-15.2-15.2S27,21.4,35.4,21.4s15.2,6.8,15.2,15.2C50.6,45,43.8,51.8,35.4,51.8
			L35.4,51.8z M35.4,23.5c-7.3,0-13.2,5.9-13.2,13.2s5.9,13.2,13.2,13.2S48.6,44,48.6,36.7S42.7,23.5,35.4,23.5L35.4,23.5z"/>
	</g>
</g>
<path class="st1" d="M40.5,11.9c0-2.9-2.3-5.3-5.1-5.3s-5.1,2.4-5.1,5.3c0,2.7,1.9,4.9,4.3,5.3v-3.7h-1.3V12h1.3v-1.2
	c0-1.3,0.8-2.1,1.9-2.1c0.6,0,1.1,0.1,1.1,0.1v1.3H37c-0.6,0-0.8,0.4-0.8,0.8v1h1.4l-0.2,1.5h-1.2v3.7
	C38.7,16.8,40.5,14.6,40.5,11.9z"/>
<path class="st1" d="M20,14.2c-1.4,0-2.5,1.1-2.5,2.5c0,1.4,1.1,2.5,2.5,2.5s2.5-1.1,2.5-2.5S21.4,14.2,20,14.2z M20,18.4
	c-0.9,0-1.7-0.7-1.7-1.7c0-0.9,0.7-1.7,1.7-1.7c0.9,0,1.7,0.7,1.7,1.7C21.6,17.6,20.9,18.4,20,18.4L20,18.4z M23.2,14.1
	c0,0.3-0.3,0.6-0.6,0.6c-0.3,0-0.6-0.3-0.6-0.6s0.3-0.6,0.6-0.6C22.9,13.5,23.2,13.7,23.2,14.1z M24.9,14.7c0-0.8-0.2-1.5-0.8-2.1
	c-0.6-0.6-1.3-0.8-2.1-0.8c-0.8,0-3.3,0-4.1,0c-0.8,0-1.5,0.2-2.1,0.8S15,13.9,15,14.7s0,3.3,0,4.1s0.2,1.5,0.8,2.1
	c0.6,0.6,1.3,0.8,2.1,0.8s3.3,0,4.1,0c0.8,0,1.5-0.2,2.1-0.8c0.6-0.6,0.8-1.3,0.8-2.1C24.9,17.9,24.9,15.5,24.9,14.7L24.9,14.7z
	 M23.8,19.6c-0.2,0.4-0.5,0.8-0.9,0.9c-0.7,0.3-2.2,0.2-2.9,0.2s-2.3,0.1-2.9-0.2c-0.4-0.2-0.8-0.5-0.9-0.9
	c-0.3-0.7-0.2-2.2-0.2-2.9s-0.1-2.3,0.2-2.9c0.2-0.4,0.5-0.8,0.9-0.9c0.7-0.3,2.2-0.2,2.9-0.2s2.3-0.1,2.9,0.2
	c0.4,0.2,0.8,0.5,0.9,0.9c0.3,0.7,0.2,2.2,0.2,2.9C24,17.4,24.1,19,23.8,19.6z"/>
<path class="st1" d="M54.1,12.5c-0.9-0.9-2.2-1.4-3.5-1.4c-2.7,0-4.9,2.1-4.9,4.7c0,0.8,0.2,1.6,0.7,2.4l-0.7,2.5l2.6-0.7
	c0.7,0.4,1.5,0.6,2.3,0.6l0,0c2.7,0,5-2.1,5-4.7C55.6,14.6,55,13.4,54.1,12.5z M50.6,19.8c-0.7,0-1.5-0.2-2.1-0.5l-0.1-0.1l-1.5,0.4
	l0.4-1.5L47.2,18c-0.4-0.6-0.6-1.3-0.6-2.1c0-2.2,1.8-3.9,4.1-3.9c1.1,0,2.1,0.4,2.9,1.2c0.8,0.7,1.2,1.7,1.2,2.8
	C54.7,18,52.9,19.8,50.6,19.8z M52.8,16.8c-0.1-0.1-0.7-0.3-0.8-0.4c-0.1,0-0.2-0.1-0.3,0.1c-0.1,0.1-0.3,0.4-0.4,0.5
	c-0.1,0.1-0.1,0.1-0.3,0c-0.7-0.3-1.2-0.6-1.7-1.4c-0.1-0.2,0.1-0.2,0.4-0.6c0-0.1,0-0.1,0-0.2c0-0.1-0.3-0.6-0.4-0.9
	c-0.1-0.2-0.2-0.2-0.3-0.2s-0.2,0-0.2,0c-0.1,0-0.2,0-0.3,0.1s-0.4,0.4-0.4,1s0.4,1.1,0.5,1.2c0.1,0.1,0.9,1.3,2.1,1.8
	c0.8,0.3,1.1,0.4,1.5,0.3c0.2,0,0.7-0.3,0.8-0.6c0.1-0.3,0.1-0.5,0.1-0.6C53,16.9,53,16.9,52.8,16.8z"/>
</svg>
