<?xml version="1.0" encoding="utf-8"?>
<!-- Generator: Adobe Illustrator 23.0.5, SVG Export Plug-In . SVG Version: 6.00 Build 0)  -->
<svg version="1.1" id="Capa_1" xmlns="http://www.w3.org/2000/svg" xmlns:xlink="http://www.w3.org/1999/xlink" x="0px" y="0px"
	 viewBox="0 0 344.2 232.3" style="enable-background:new 0 0 344.2 232.3;" xml:space="preserve">
<style type="text/css">
	.st0{fill:#FDBF14;}
	.st1{fill:#325C8A;}
	.st2{fill:#E5EBF6;}
	.st3{fill:#93B6DF;}
	.st4{fill:#6985BE;}
	.st5{fill:#FFFFFF;}
	.st6{fill:#E5B838;}
	.st7{fill:#D8A432;}
	.st8{fill:#E7C652;}
	.st9{fill:#3A4A5E;}
	.st10{fill:#D9E2E9;}
	.st11{fill:#BACCD8;}
	.st12{fill:none;}
	.st13{fill:#546FAE;}
	.st14{fill:#C95A3D;}
	.st15{fill:none;stroke:#D9E2E9;stroke-width:5.8384;}
	.st16{fill:#93B0CA;}
	.st17{fill:#E85687;}
	.st18{fill:#A2B936;}
	.st19{fill:#95AA30;}
	.st20{fill:#5484BF;}
	.st21{fill:#181F51;}
	.st22{fill:#E7BFAB;}
	.st23{fill:#E0A433;}
	.st24{fill:#3C66A1;}
	.st25{fill:#FC0846;}
	.st26{fill:#4675B5;}
	.st27{fill:#C54629;}
	.st28{fill:#E0D2B6;}
	.st29{fill:#2F4862;}
	.st30{fill:#D5C09B;}
	.st31{fill:#2B4057;}
	.st32{fill:#1A1714;}
	.st33{fill:#CDD3D4;}
	.st34{fill:#B7BCBE;}
	.st35{fill:#B1BAD6;}
	.st36{fill:#1D225E;}
	.st37{fill:#D2D8E6;}
	.st38{fill:#B7BFC6;}
	.st39{fill:#E5C867;}
	.st40{fill:#DDBA55;}
	.st41{fill:none;stroke:#353A45;stroke-width:0.75;stroke-miterlimit:10;}
	.st42{fill:#353A45;}
	.st43{fill:#EAEDEF;}
	.st44{fill:#C9697A;}
	.st45{fill:none;stroke:#353A45;stroke-width:0.25;stroke-miterlimit:10;}
	.st46{fill:#BECBDB;}
	.st47{fill:#1C1C17;}
	.st48{fill:#E1BC5A;}
	.st49{fill:#E5D382;}
	.st50{fill:#BFCBE2;}
	.st51{fill:#8997A1;}
	.st52{fill:#E5ECF0;}
</style>
<path class="st0" d="M11,105.7c0.7,17.6,4.5,83.3,40.7,105.8c35.5,20.8,112.4-8.9,188.8-5.4c91.1,9.9,97.9-49.9,97.3-95.8
	c-0.5-39.5,0.2-118.1-87.7-96.1c-47.3,11.9-132.5,13.4-156.7,12C8.7,21.4,13.6,90.2,11,105.7z"/>
<path class="st1" d="M270.3,33.7c-24.2-1.7-79.5,7-125-11.3C60.8-11.7,32.5,40.7,27.1,81.3c-6.3,47.1-32,131.2,57.8,122.6
	c72.9-9.3,125.2-14.2,167.9-0.3c52.3,11.4,81.7-49.6,83.7-68.3C337.6,118.7,355,39.6,270.3,33.7z"/>
<g>
	<g>
		<polygon class="st2" points="287.1,86.2 287.1,100.9 274.4,88.1 		"/>
		<path class="st2" d="M325.2,92.7c0,1-0.8,1.9-1.9,1.9h-52c-1,0-1.9-0.8-1.9-1.9V56.3c0-1,0.8-1.9,1.9-1.9h52c1,0,1.9,0.8,1.9,1.9
			V92.7z"/>
		<path class="st3" d="M280,60.5c0,1.6-1.3,2.9-2.9,2.9s-2.9-1.3-2.9-2.9c0-1.6,1.3-2.9,2.9-2.9S280,58.9,280,60.5z"/>
		<g>
			<rect x="282.5" y="61.3" class="st3" width="29.6" height="1.3"/>
			<rect x="282.5" y="58.4" class="st3" width="16.7" height="1.3"/>
		</g>
		<g>
			<rect x="274.4" y="66.2" class="st4" width="46.3" height="23.7"/>
			<polygon class="st5" points="299.9,78 297,79.7 294.1,81.4 294.1,78 294.1,74.7 297,76.4 			"/>
		</g>
	</g>
	<g>
		<path class="st6" d="M225.5,178.9c-2.4,0-4.4-2-4.4-4.4v-37.8c0-2.4,2-4.4,4.4-4.4h55.3c2.4,0,4.4,2,4.4,4.4v37.8
			c0,2.4-2,4.4-4.4,4.4H225.5z"/>
		<path class="st6" d="M225.5,178.9c-2.4,0-4.4-2-4.4-4.4v-37.8c0-2.4,2-4.4,4.4-4.4h55.3c2.4,0,4.4,2,4.4,4.4v37.8
			c0,2.4-2,4.4-4.4,4.4H225.5z"/>
		<path class="st7" d="M280.8,132.4h-55.3c-2.4,0-4.4,2-4.4,4.4v2.3l50.8,39.9h8.9c2.4,0,4.4-2,4.4-4.4v-37.8
			C285.2,134.3,283.2,132.4,280.8,132.4z"/>
		<path class="st8" d="M253.2,161.5l32-22.3v-2.5c0-2.4-2-4.4-4.4-4.4h-55.3c-2.4,0-4.4,2-4.4,4.4v2.5L253.2,161.5z"/>
	</g>
	<g>
		<path class="st9" d="M231.2,147.1V62.3c0-2.2-1.8-4-4-4H89.4c-2.2,0-4,1.8-4,4v84.8H231.2z"/>
		<path class="st10" d="M85.1,147.3v12.3c0,2.4,1.9,4.3,4.3,4.3h137.8c2.4,0,4.3-1.9,4.3-4.3v-12.3H85.1z"/>
		<path class="st10" d="M183.5,181.9c0,0-1.1-0.5-2.3-1c-1.3-0.5-2.9-1.1-3.8-1.5c-1.6-0.8-1.8-1.3-2.4-3.9c-0.7-2.9-1.3-9-1.5-11.6
			H143c-0.2,2.7-0.9,8.7-1.5,11.6c-0.6,2.6-0.7,3.1-2.4,3.9c-0.9,0.4-2.5,1-3.7,1.5l0,0c-1.2,0.5-2.2,0.8-2.2,0.8s-1,0.5,0.6,0.6
			h49.1C184.3,182.4,183.5,181.9,183.5,181.9z"/>
		<path class="st11" d="M173.9,167c-0.1-1.3-0.2-2.4-0.3-3.2H143c-0.1,0.8-0.2,1.9-0.3,3.2H173.9z"/>
		<rect x="92.2" y="65.1" class="st2" width="132.2" height="74.5"/>
	</g>
	<g>
		<g>
			<line class="st12" x1="100.8" y1="78.1" x2="110.2" y2="78.1"/>
			<rect x="100.8" y="77.3" class="st11" width="9.4" height="1.5"/>
		</g>
		<g>
			<rect x="97.5" y="91.8" class="st11" width="8.3" height="1.5"/>
		</g>
		<g>
			<line class="st12" x1="100.8" y1="82.8" x2="110.2" y2="82.8"/>
			<rect x="100.8" y="82" class="st11" width="9.4" height="1.5"/>
		</g>
		<g>
			<line class="st12" x1="99" y1="82.8" x2="97.5" y2="82.8"/>
			<rect x="97.5" y="82" class="st11" width="1.5" height="1.5"/>
		</g>
		<g>
			<line class="st12" x1="100.8" y1="86.5" x2="110.2" y2="86.5"/>
			<rect x="100.8" y="85.8" class="st11" width="9.4" height="1.5"/>
		</g>
		<g>
			<line class="st12" x1="99" y1="86.5" x2="97.5" y2="86.5"/>
			<rect x="97.5" y="85.8" class="st11" width="1.5" height="1.5"/>
		</g>
		<g>
			<line class="st12" x1="100.8" y1="96.6" x2="110.2" y2="96.6"/>
			<rect x="100.8" y="95.8" class="st11" width="9.4" height="1.5"/>
		</g>
		<g>
			<line class="st12" x1="99" y1="96.6" x2="97.5" y2="96.6"/>
			<rect x="97.5" y="95.8" class="st11" width="1.5" height="1.5"/>
		</g>
		<g>
			<rect x="97.5" y="101.8" class="st11" width="8.3" height="1.5"/>
		</g>
		<g>
			<rect x="97.5" y="120.8" class="st11" width="8.3" height="1.5"/>
		</g>
		<g>
			<line class="st12" x1="100.8" y1="106.6" x2="110.2" y2="106.6"/>
			<rect x="100.8" y="105.8" class="st11" width="9.4" height="1.5"/>
		</g>
		<g>
			<line class="st12" x1="99" y1="106.6" x2="97.5" y2="106.6"/>
			<rect x="97.5" y="105.8" class="st11" width="1.5" height="1.5"/>
		</g>
		<g>
			<line class="st12" x1="100.8" y1="109.9" x2="110.2" y2="109.9"/>
			<rect x="100.8" y="109.1" class="st11" width="9.4" height="1.5"/>
		</g>
		<g>
			<line class="st12" x1="99" y1="109.9" x2="97.5" y2="109.9"/>
			<rect x="97.5" y="109.1" class="st11" width="1.5" height="1.5"/>
		</g>
		<g>
			<line class="st12" x1="100.8" y1="113.2" x2="110.2" y2="113.2"/>
			<rect x="100.8" y="112.4" class="st11" width="9.4" height="1.5"/>
		</g>
		<g>
			<line class="st12" x1="99" y1="113.2" x2="97.5" y2="113.2"/>
			<rect x="97.5" y="112.4" class="st11" width="1.5" height="1.5"/>
		</g>
		<g>
			<line class="st12" x1="100.8" y1="116.5" x2="110.2" y2="116.5"/>
			<rect x="100.8" y="115.7" class="st11" width="9.4" height="1.5"/>
		</g>
		<g>
			<line class="st12" x1="99" y1="116.5" x2="97.5" y2="116.5"/>
			<rect x="97.5" y="115.7" class="st11" width="1.5" height="1.5"/>
		</g>
		<rect x="92.2" y="65.1" class="st4" width="132.2" height="7.4"/>
		<rect x="114.6" y="74.1" class="st5" width="78.2" height="31.3"/>
		<rect x="194.1" y="74.1" class="st5" width="23.5" height="36.2"/>
		<rect x="114.6" y="107" class="st5" width="78.2" height="31.3"/>
		<rect x="114.6" y="130.6" class="st10" width="78.2" height="8.7"/>
		<rect x="110.1" y="67" class="st13" width="61.5" height="3.5"/>
		<rect x="103.9" y="67" class="st5" width="3.8" height="3.5"/>
		<g>
			<path class="st5" d="M207.6,70.3c0,0,0-0.1,0-0.2c0-0.7-0.6-1.2-1.2-1.2c-0.2,0-1,0-1.2,0c-0.7,0-1.2,0.6-1.2,1.2
				c0,0.1,0,0.2,0,0.2H207.6z"/>
			<path class="st5" d="M206.5,67.4c0,0.5-0.4,0.8-0.8,0.8c-0.5,0-0.8-0.4-0.8-0.8c0-0.5,0.4-0.8,0.8-0.8
				C206.2,66.6,206.5,66.9,206.5,67.4z"/>
		</g>
		<path class="st14" d="M208.5,70.2c0,0.6-0.5,1.1-1.1,1.1s-1.1-0.5-1.1-1.1s0.5-1.1,1.1-1.1S208.5,69.6,208.5,70.2z"/>
		<path class="st5" d="M214.9,66.8h-3.4c-0.2,0-0.3,0.1-0.3,0.3v2.6c0,0.2,0.1,0.3,0.3,0.3h0.2v0.7l0.7-0.7h2.4
			c0.2,0,0.3-0.1,0.3-0.3v-2.6C215.2,66.9,215,66.8,214.9,66.8z"/>
		<g>
			<path class="st5" d="M221.8,68.1L221.8,68.1l-0.5-0.4h-0.1h-0.4l-0.2-0.3l0.3-0.3C221.4,67.3,221.7,67.7,221.8,68.1z"/>
			<path class="st5" d="M219.1,67.4l0.4,0.1l0.1,0.2l-0.2,0.2l-0.3,0.1v0.3l0.4,0.3l-0.1,0.5l-0.3,0.4c-0.2-0.3-0.3-0.6-0.3-1
				C218.7,68.1,218.8,67.7,219.1,67.4z"/>
			<path class="st5" d="M220.3,66.6c-1.1,0-1.9,0.9-1.9,1.9c0,1.1,0.9,1.9,1.9,1.9c1.1,0,1.9-0.9,1.9-1.9
				C222.2,67.4,221.3,66.6,220.3,66.6z M220.3,70.1c-0.4,0-0.8-0.1-1-0.4l0.4-0.5v-0.1l0.2-0.6l-0.1-0.2l-0.3-0.2h0.1l0,0l0.3-0.3
				v-0.2l-0.2-0.3l-0.1-0.1l-0.3-0.1c0.2-0.2,0.5-0.2,0.8-0.2c0.1,0,0.3,0,0.4,0l-0.3,0.3v0.2v0.1H220V68h0.3v-0.4l0.2,0.3l0.1,0.1
				h0.4l0.4,0.4h0.2h0.1c0,0,0,0,0,0.1C221.9,69.4,221.1,70.1,220.3,70.1z"/>
			<polygon class="st5" points="220.8,68.3 220.5,68.2 220.3,68.2 220.1,68.4 220.1,68.5 220.1,69.1 220.1,69.3 220.6,69.7 
				220.9,69.7 221.2,69.1 221.2,69 221.2,68.5 221.1,68.3 			"/>
			<polygon class="st5" points="220.9,68.9 220.7,69.4 220.4,69.1 220.4,68.6 220.5,68.5 220.7,68.6 220.7,68.7 220.9,68.7 			"/>
		</g>
		<path class="st14" d="M216.2,70.2c0,0.6-0.5,1.1-1.1,1.1s-1.1-0.5-1.1-1.1s0.5-1.1,1.1-1.1S216.2,69.6,216.2,70.2z"/>
		<path class="st11" d="M99.8,78.1c0,0.9-0.7,1.5-1.5,1.5c-0.9,0-1.5-0.7-1.5-1.5c0-0.9,0.7-1.5,1.5-1.5
			C99.1,76.6,99.8,77.3,99.8,78.1z"/>
		<rect x="203.3" y="80.9" class="st11" width="6.6" height="1.5"/>
		<rect x="196" y="75.9" class="st11" width="6.6" height="1.5"/>
		<rect x="196" y="106.6" class="st10" width="6.6" height="1.5"/>
		<rect x="209.6" y="75.9" class="st10" width="2.3" height="1.5"/>
		<rect x="213.1" y="75.9" class="st10" width="2.3" height="1.5"/>
		<rect x="194.1" y="111.7" class="st5" width="23.5" height="26"/>
		<rect x="194.1" y="126.2" class="st11" width="23.5" height="11.6"/>
		<rect x="196" y="113.5" class="st11" width="6.6" height="1.5"/>
		<rect x="209.6" y="113.5" class="st10" width="2.3" height="1.5"/>
		<rect x="213.1" y="113.5" class="st10" width="2.3" height="1.5"/>
		<rect x="203.3" y="83.8" class="st10" width="11.7" height="1.5"/>
		<path class="st10" d="M201.4,83c0,1.5-1.2,2.7-2.7,2.7S196,84.5,196,83s1.2-2.7,2.7-2.7S201.4,81.5,201.4,83z"/>
		<rect x="203.3" y="89.7" class="st11" width="6.6" height="1.5"/>
		<rect x="203.3" y="92.6" class="st10" width="11.7" height="1.5"/>
		<path class="st10" d="M201.4,91.8c0,1.5-1.2,2.7-2.7,2.7s-2.7-1.2-2.7-2.7s1.2-2.7,2.7-2.7C200.2,89.1,201.4,90.3,201.4,91.8z"/>
		<rect x="203.3" y="98.6" class="st11" width="6.6" height="1.5"/>
		<rect x="203.3" y="101.5" class="st10" width="11.7" height="1.5"/>
		<rect x="203.3" y="119.2" class="st11" width="6.6" height="1.5"/>
		<rect x="203.3" y="122.1" class="st10" width="11.7" height="1.5"/>
		<path class="st10" d="M201.4,100.7c0,1.5-1.2,2.7-2.7,2.7s-2.7-1.2-2.7-2.7s1.2-2.7,2.7-2.7S201.4,99.2,201.4,100.7z"/>
		<g>
			<line class="st15" x1="120.5" y1="102.1" x2="127.8" y2="102.1"/>
			<line class="st15" x1="116.6" y1="102.1" x2="118.7" y2="102.1"/>
			<line class="st15" x1="134.8" y1="102.1" x2="142" y2="102.1"/>
			<line class="st15" x1="130.9" y1="102.1" x2="132.9" y2="102.1"/>
			<line class="st15" x1="149.4" y1="102.1" x2="156.6" y2="102.1"/>
			<line class="st15" x1="145.5" y1="102.1" x2="147.5" y2="102.1"/>
			<rect x="116.7" y="75.9" class="st10" width="73.8" height="23.1"/>
		</g>
		<g>
			<g>
				<line class="st12" x1="125.5" y1="110.8" x2="158" y2="110.8"/>
				<rect x="125.5" y="110" class="st11" width="32.5" height="1.5"/>
			</g>
			<g>
				<rect x="116.7" y="119.1" class="st10" width="72.8" height="1.5"/>
			</g>
			<g>
				<rect x="116.7" y="122.3" class="st10" width="72.8" height="1.5"/>
			</g>
			<g>
				<rect x="116.7" y="125.5" class="st10" width="68.9" height="1.5"/>
			</g>
			<g>
				<line class="st12" x1="125.5" y1="114.1" x2="149.1" y2="114.1"/>
				<rect x="125.5" y="113.4" class="st11" width="23.6" height="1.5"/>
			</g>
			<path class="st10" d="M116.7,112.3c0,1.7,1.4,3.1,3.1,3.1s3.1-1.4,3.1-3.1s-1.4-3.1-3.1-3.1S116.7,110.6,116.7,112.3z"/>
		</g>
		<rect x="196.1" y="118.3" class="st10" width="5.3" height="5.3"/>
	</g>
	<g>
		<path class="st4" d="M87.8,87.2H73.1c-4.1,0-7.3,3.3-7.3,7.3c0,3.9,3.1,7.1,6.9,7.3v6.1l6-6h9.1c4.1,0,7.3-3.3,7.3-7.3
			C95.1,90.4,91.8,87.2,87.8,87.2z"/>
		<g>
			<g>
				<path class="st5" d="M84.6,92.3H81c0.2-0.4,0.4-0.9,0.4-1.1c0-0.3,0-0.9,0-0.9c0-0.5-0.4-0.8-0.8-0.8h-0.4v1.3
					c0,0-1.5,1.7-1.5,2.4v4.1c0,0.5,0.4,0.8,0.8,0.8h2.9c0.5,0,1-0.4,1.1-0.8l1.5-4.1C85.3,92.7,85,92.3,84.6,92.3z"/>
				<rect x="78.2" y="93" class="st5" width="1.1" height="4.5"/>
				<rect x="74.9" y="92.3" class="st5" width="2" height="5.7"/>
			</g>
		</g>
	</g>
	<g>
		<path class="st10" d="M119.3,42c-0.8,0-1.4,0.4-1.9,0.9l-3.6-2.3c0.1-0.2,0.1-0.4,0.1-0.6c0-0.2,0-0.4-0.1-0.6l3.6-2.3
			c0.4,0.6,1.1,0.9,1.9,0.9c1.3,0,2.3-1,2.3-2.3s-1-2.3-2.3-2.3s-2.3,1-2.3,2.3c0,0.1,0,0.2,0,0.3l-3.8,2.4c-0.4-0.4-1-0.7-1.6-0.7
			c-1.3,0-2.3,1-2.3,2.3s1,2.3,2.3,2.3c0.6,0,1.2-0.3,1.6-0.7L117,44c0,0.1,0,0.2,0,0.3c0,1.3,1,2.3,2.3,2.3s2.3-1,2.3-2.3
			C121.6,43,120.6,42,119.3,42z"/>
		<path class="st10" d="M119.3,34.7c0.6,0,1.2,0.5,1.2,1.2c0,0.6-0.5,1.2-1.2,1.2c-0.6,0-1.2-0.5-1.2-1.2
			C118.2,35.2,118.7,34.7,119.3,34.7z"/>
		<path class="st10" d="M111.6,41.2c-0.6,0-1.2-0.5-1.2-1.2c0-0.6,0.5-1.2,1.2-1.2c0.6,0,1.2,0.5,1.2,1.2
			C112.8,40.7,112.3,41.2,111.6,41.2z"/>
		<path class="st10" d="M119.3,45.5c-0.6,0-1.2-0.5-1.2-1.2c0-0.6,0.5-1.2,1.2-1.2c0.6,0,1.2,0.5,1.2,1.2
			C120.5,44.9,120,45.5,119.3,45.5z"/>
	</g>
	<g>
		<path class="st11" d="M95.6,158.7c0-1.1-0.9-2-2-2h-1.3V152l-4.7,4.7H72.1c-1.1,0-2,0.9-2,2v16.7c0,1.1,0.9,2,2,2h21.4
			c1.1,0,2-0.9,2-2L95.6,158.7L95.6,158.7z"/>
		<rect x="74.2" y="170.1" class="st5" width="17.4" height="1.3"/>
		<rect x="74.2" y="166.8" class="st5" width="17.4" height="1.3"/>
		<rect x="74.2" y="163.4" class="st5" width="17.4" height="1.3"/>
	</g>
	<path class="st11" d="M56.4,37.7c-3,0-5.5,2.4-5.5,5.5c0,3,5.5,9.5,5.5,9.5s5.5-6.5,5.5-9.5C61.9,40.1,59.4,37.7,56.4,37.7z
		 M56.2,45.6c-1.2,0-2.4-1-2.4-2.4c0-1.2,1-2.4,2.4-2.4c1.4,0,2.4,1,2.4,2.4C58.6,44.6,57.6,45.6,56.2,45.6z"/>
	<path class="st10" d="M79.8,53.3h-14c-0.9,0-1.6,0.7-1.6,1.6V65c0,0.9,0.7,1.6,1.6,1.6h1.6v3.1l3.5-3.1h8.9c0.9,0,1.6-0.7,1.6-1.6
		V54.8C81.3,54,80.6,53.3,79.8,53.3z"/>
	<g>
		<polyline class="st16" points="46.5,87 49,89.7 49,83 46.5,85.7 		"/>
		<path class="st16" d="M45.1,81.6h-6.7c-0.8,0-1.4,0.6-1.4,1.4v6.7c0,0.8,0.6,1.4,1.4,1.4h6.7c0.8,0,1.4-0.6,1.4-1.4V83
			C46.5,82.3,45.8,81.6,45.1,81.6z M42.1,87.3l-1.2,0.9v-1.8v-1.8l1.2,0.9l1.2,0.9L42.1,87.3z"/>
	</g>
	<g>
		<path class="st17" d="M250.1,104c0-4.1-3.3-7.3-7.3-7.3h-29.3c-4.1,0-7.3,3.3-7.3,7.3c0,4.1,3.3,7.3,7.3,7.3h23.7l6,6v-6.1
			C247,111.1,250.1,107.9,250.1,104z"/>
		<path class="st5" d="M242.4,101.2c-0.8-0.8-2.1-0.8-2.9,0l-0.5,0.5l-0.5-0.5c-0.8-0.8-2.1-0.8-2.9,0c-0.8,0.8-0.8,2.1,0,2.9
			l0.5,0.5l0,0l2.9,2.9l2.9-2.9l0,0l0.5-0.5C243.2,103.3,243.2,102,242.4,101.2z"/>
		<path class="st5" d="M231.5,101.2c-0.8-0.8-2.1-0.8-2.9,0l-0.5,0.5l-0.5-0.5c-0.8-0.8-2.1-0.8-2.9,0c-0.8,0.8-0.8,2.1,0,2.9
			l0.5,0.5l0,0l2.9,2.9l2.9-2.9l0,0l0.5-0.5C232.3,103.3,232.3,102,231.5,101.2z"/>
		<path class="st5" d="M220.5,101.2c-0.8-0.8-2.1-0.8-2.9,0l-0.5,0.5l-0.5-0.5c-0.8-0.8-2.1-0.8-2.9,0c-0.8,0.8-0.8,2.1,0,2.9
			l0.5,0.5l0,0l2.9,2.9l2.9-2.9l0,0l0.5-0.5C221.3,103.3,221.3,102,220.5,101.2z"/>
	</g>
	<g>
		<g>
			<path class="st18" d="M102.4,148.3c0,0.7-0.5,1.2-1.1,1.2h-2.2v4.5l-5.3-4.5h-11c-0.6,0-1.1-0.5-1.1-1.2v-13.7
				c0-0.7,0.5-1.2,1.1-1.2h18.5c0.6,0,1.1,0.5,1.1,1.2V148.3z"/>
		</g>
		<g>
			<g>
				<polygon class="st5" points="90,144.4 88.9,144.4 88.9,137.6 95.8,136.2 95.8,143.3 94.7,143.3 94.7,137.5 90,138.4 				"/>
			</g>
			<g>
				<polygon class="st5" points="89.6,140.2 89.4,138.4 95.3,137.2 95.5,139 				"/>
			</g>
			<g>
				<path class="st5" d="M87.1,144.4c0,0.6,0.5,1.2,1.2,1.2c0.6,0,1.2-0.5,1.2-1.2c0-0.6-0.5-1.2-1.2-1.2
					C87.6,143.3,87.1,143.8,87.1,144.4z"/>
				<path class="st5" d="M88.3,146.2c-0.9,0-1.7-0.8-1.7-1.7s0.8-1.7,1.7-1.7c0.9,0,1.7,0.8,1.7,1.7S89.2,146.2,88.3,146.2z
					 M88.3,143.8c-0.3,0-0.6,0.3-0.6,0.6s0.3,0.6,0.6,0.6c0.3,0,0.6-0.3,0.6-0.6S88.6,143.8,88.3,143.8z"/>
			</g>
			<g>
				<path class="st5" d="M92.9,143.3c0,0.6,0.5,1.2,1.2,1.2c0.6,0,1.2-0.5,1.2-1.2c0-0.6-0.5-1.2-1.2-1.2
					C93.5,142.1,92.9,142.6,92.9,143.3z"/>
				<path class="st5" d="M94.1,145c-0.9,0-1.7-0.8-1.7-1.7s0.8-1.7,1.7-1.7c0.9,0,1.7,0.8,1.7,1.7C95.8,144.2,95.1,145,94.1,145z
					 M94.1,142.6c-0.3,0-0.6,0.3-0.6,0.6s0.3,0.6,0.6,0.6c0.3,0,0.6-0.3,0.6-0.6C94.7,142.9,94.5,142.6,94.1,142.6z"/>
			</g>
		</g>
	</g>
	<g>
		<polygon class="st19" points="167.4,184.1 191.4,184.1 184.8,160.1 160.7,160.1 		"/>
		<polygon class="st18" points="188.4,181.8 183,162.5 163.8,162.5 169.1,181.8 		"/>
		<path class="st19" d="M177.5,168.4c0.3,0.9,1.2,1.7,2.2,1.7c0.9,0,1.5-0.8,1.2-1.7s-1.2-1.7-2.2-1.7
			C177.8,166.7,177.3,167.5,177.5,168.4z"/>
		<g>
			<polygon class="st19" points="174,172 172,175.9 170,179.8 176.1,179.8 182.3,179.8 178.1,175.9 			"/>
			<polygon class="st19" points="180.4,174.3 179,177 177.6,179.8 181.9,179.8 186.2,179.8 183.3,177 			"/>
		</g>
	</g>
	<g>
		<path class="st20" d="M109.4,148.1c-0.1-0.3-0.3-0.5-0.6-0.5c-0.7-0.2-1.6,0.6-2,1.9c-0.4,1.3-0.1,2.4,0.7,2.6
			c0.3,0.1,0.6,0,0.8-0.2c0.1-0.3,0.2-0.6,0.3-0.9C108.9,150,109.1,149,109.4,148.1z"/>
		<g>
			<path class="st21" d="M98.7,160.8c-0.7,3.7,1.9,7.2,5.6,7.9c3.8,0.7,7.4-1.8,8-5.5c0.7-3.7-1.9-7.2-5.6-7.9
				C102.9,154.7,99.3,157.1,98.7,160.8z"/>
			<path class="st21" d="M104.9,155c-0.6,3.4,1.7,6.7,5.2,7.3s6.8-1.6,7.4-5.1c0.6-3.4-1.7-6.7-5.2-7.3
				C108.8,149.3,105.5,151.6,104.9,155z"/>
			<path class="st21" d="M107.9,149.8c-0.6,3.3,1.4,6.3,4.5,6.9c3.1,0.5,6-1.7,6.6-4.9c0.6-3.3-1.4-6.3-4.5-6.9
				C111.4,144.4,108.5,146.6,107.9,149.8z"/>
			<path class="st21" d="M107.8,157.8c-0.7,4.1,2.1,8.1,6.3,8.9c4.2,0.8,8.3-2,9-6.1s-2.1-8.1-6.3-8.9
				C112.6,150.9,108.5,153.7,107.8,157.8z"/>
			<path class="st21" d="M101.3,160.3c-0.5,2.8,1.4,5.4,4.2,5.9c2.8,0.5,5.5-1.3,6-4.1s-1.4-5.4-4.2-5.9
				C104.5,155.6,101.8,157.5,101.3,160.3z"/>
			<path class="st21" d="M105.9,155.8c-0.5,2.8,1.4,5.4,4.2,5.9c2.8,0.5,5.5-1.3,6-4.1s-1.4-5.4-4.2-5.9
				C109.1,151.2,106.4,153,105.9,155.8z"/>
			<path class="st22" d="M112,147c0.1,0,0.2,0,0.3,0c0,1.1,0.6,2.6,1.8,3.8c0.3,0.3,0.6,0.6,0.9,0.8l-0.2,1
				c-0.3,1.5-1.8,2.5-3.3,2.2c-1.6-0.3-2.6-1.7-2.4-3.2l0.4-2.3C110.3,148.9,111.2,148.1,112,147z"/>
			<path class="st22" d="M107,158.7c-0.1-0.4-0.5-1.2-1.6-0.8s-1.9,1.4-2,4.2s-0.7,5-1.2,6.6c-0.4,1.5,1.5,4.5,2.7,2.7
				c1.1-1.8,1.7-6.4,1.8-7.7C106.9,162.4,107.1,159,107,158.7z"/>
			<path class="st22" d="M116.9,154.2c0,0-2.5,9.5-1.4,15.4c0.8,4.2,2.3,1.4,3.5,0.9c0,0-0.1-0.5-0.1-2.5c0-3.2,0.1-6.2,0.4-8
				c0.4-2.8,0.4-4.6-0.1-5.3C118.6,154.1,118.2,153.7,116.9,154.2z"/>
			<path class="st22" d="M118.5,169.5c0,0,0.1-0.8,1.2,3.6c1.1,4.4,1.7,12,2.8,13.4c1.1,1.4,1.5,0.6,1.3,0.8c-0.7,0.7-1,1.4-1.7,1.2
				c-0.7-0.1-2.3-3-4-8.1c-1.6-5-2.7-8.4-2.4-10C116.1,168.9,118.4,169.1,118.5,169.5z"/>
			<path class="st22" d="M109.3,157.9c0,0,3.8-1.3,4.3-1.6s-1.4,0,0.2-3.2c0,0-2.9-1.7-3.2-1.8c-0.3,0-0.5,0.6-0.5,0.6
				S110.7,155.1,109.3,157.9z"/>
			<path class="st22" d="M120.6,186.4c0,0,0.7,1.8,1.2,1.9c0.4,0.1,1.6,0,2.3-0.2c0.7-0.2,1.3-0.6,1.6-0.6c0.4,0,2.6,0.6,3.2,0.7
				c0.7,0,0.9,0,1.2-0.1c0.4-0.1,0.2-0.4,0.2-0.4s-0.3,0-1.3-0.2c-1.3-0.3-3.2-1.2-3.7-1.4c-0.8-0.5-0.9-0.5-1.4-0.3
				c-0.6,0.2-1.3,0.4-2,0.5C121.1,186.4,120.6,186.4,120.6,186.4z"/>
			<path class="st22" d="M121.3,187.8c0,0,0.3,0.9,1.6,1.3c0.9,0.3,1.1,0.3,1.6,0.3s0.6-0.1,0.6-0.1s0.1-0.4-0.5-0.5
				c-0.3,0-1-0.5-0.7-0.6C124.2,188,121.3,187.8,121.3,187.8z"/>
			<path class="st23" d="M106.3,179.2c0,0-1-3.7-1-5.7c0-2.1,0.2-5.7,0.1-5.9c0-0.1-1.4-1.1-1.3-2c0.1-1,1.4-3.5,1.6-4.3
				s0.2-3.5,0.2-3.5s2.2,0.5,4.9-0.4c2.7-1,6-3.1,6-3.1s1.8,0.2,0.4,8.3s-1.8,8.5-1.8,10.9c-0.1,3.5,2,7.4,2.2,10.3
				C117.9,186.7,107,180.2,106.3,179.2z"/>
			<path class="st24" d="M108.1,178.8c-3.8-1.5-6.3-1.4-15.3-0.4c-2.1,0.2-6.3,0.5-8.4,1.7c-1.9,1.1-2.4,3.8,7,5.7
				c8.6,1.7,19.7,2.5,22.6,0.2C116.8,183.6,111.8,180.2,108.1,178.8z"/>
			<path class="st22" d="M106.1,189.4c0,0,0.4,0.2,0.6,0.1c0.2-0.1,0.7-0.8,1.6-0.3s1.1,1.1,1.9,1.1s2.8-0.3,3.4,0.2
				s1.5,2.3,1.3,3.5c-0.2,1.3-0.6,1.4-1,0.8c-0.4-0.6-0.7-0.9-0.9-1c-0.2-0.1-2.4-0.9-3.1-1.3c-0.7-0.4-1.7-0.8-2-0.9
				c-0.3-0.1-1.9-0.4-2-0.4C105.7,191.3,106.1,189.4,106.1,189.4z"/>
			<path class="st25" d="M113.7,190.5c-0.6-0.5-2.6-0.1-3.4-0.2c-0.8,0-1.1-0.6-1.9-1.1c-0.7-0.4-1.2-0.2-1.6,0.3
				c0,0,0.1-0.1,0.3-0.1c0.5,0.1,1.5,0.9,2.3,1.2s2.3,0.6,3,1.1c0.4,0.3,0.6,1.3,0.7,2.1c0.1,0,0.1,0,0.1,0c0.2,0.1,0.5,0.4,0.9,1
				s0.8,0.4,1-0.8C115.2,192.8,114.2,191,113.7,190.5z"/>
			<path class="st26" d="M106.3,191.5c0,0-13.9-2.8-17-4s-8-2-6.7-5.4c1.1-3.1,4.6-3.4,9.1-1.5s4.6,2,8,4.1c4.3,2.6,6.8,4.9,6.8,4.9
				L106.3,191.5z"/>
			<polygon class="st21" points="113.4,167.6 113.8,168 112.1,170.7 109.6,170.7 109.2,170.2 110.7,168.2 			"/>
			<path class="st22" d="M105.2,169.9l3.4-0.9l1.2,0.1l-0.5,0.9l1.1,0.7l1.3-0.1l0.7-0.6l0.1,0.9c0,0-0.2,0.4-0.6,0.6
				c-0.4,0.2-1.9,1.8-1.9,1.8l-0.8-0.4l-1.9-0.9l-1.5,0.6L105.2,169.9z"/>
			<path class="st22" d="M88.9,188.1c0,0-0.3,0.3-0.1,0.7c0.2,0.4,0.7,0.7,0.6,1.2s-0.2,0.6-0.7,1s-1.4,0.9-2,2
				c-0.5,1.1-1.3,2.2-2.6,2.4c-1.3,0.2-2.3,0.1-2.9-0.2s-0.3-0.6,0.1-0.8s1.4-0.7,2-1.6c0.6-1,1.3-1.8,1.7-2.6
				c0.4-0.8,1-1.6,1.4-2.4C86.9,186.9,88.9,187.5,88.9,188.1z"/>
			<path class="st25" d="M87.1,190.8c-0.9,0.9-1.3,1.9-2.6,2.4c-0.6,0.3-1.5,0.3-1.8,0.1c-0.5,0.5-1.1,0.8-1.4,1
				c-0.4,0.2-0.8,0.5-0.1,0.8c0.6,0.3,1.6,0.4,2.9,0.2s2-1.3,2.6-2.4c0.5-1.1,1.4-1.6,2-2c0.5-0.4,0.6-0.5,0.7-1
				c0.1-0.4-0.2-0.7-0.5-1C88.7,189.5,88,190,87.1,190.8z"/>
			<path class="st20" d="M117.3,181.3c0,0-5.1-7.5-9.3-9.9c-4.2-2.4-14.7-11.2-7.1,4.1c3.9,7.9,6.6,12.6,10.1,13.5
				C114.6,189.8,121.1,188.9,117.3,181.3z"/>
			<path class="st20" d="M85.3,188.5c0,0,6.5-12.6,8.3-15.4c1.8-2.8,5-8.4,6.4-5.4s2.4,5.2-0.4,9.3s-2.8,4.1-6.4,7.6
				c-3.6,3.6-4.7,4.2-4.7,4.2L85.3,188.5z"/>
		</g>
		<path class="st20" d="M115.6,153.5c0.1,0.3,0.4,0.5,0.6,0.5c0.7,0.2,1.6-0.7,1.9-1.9c0.3-1.3,0-2.4-0.7-2.6
			c-0.3-0.1-0.6,0-0.8,0.2c-0.1,0.3-0.2,0.6-0.2,0.9C116,151.5,115.8,152.5,115.6,153.5z"/>
		<path class="st26" d="M118.1,152.1c0.2-0.8,0.2-1.6-0.1-2.1c-0.1,0.3-0.2,0.6-0.2,0.9c-0.3,1-0.5,2-0.7,2.9l0,0
			C117.5,153.5,117.9,152.9,118.1,152.1z"/>
		<g>
			<path class="st20" d="M117,150.9l-0.7-0.2c0.7-2.5-0.4-4.9-2.6-5.5c-2.1-0.6-4.6,1-5.5,3.5l-0.7-0.2c1-2.9,3.9-4.6,6.4-3.9
				C116.5,145.2,117.9,148,117,150.9z"/>
		</g>
	</g>
	<g>
		<path class="st27" d="M266.3,103.6c0,1.8-1.5,3.3-3.3,3.3l-0.8-1.6c-1.8,0-3.3-2.8-3.3-4.6v-1.2c0-1.8,1.5-3.3,3.3-3.3h0.8
			c1.8,0,3.3,1.5,3.3,3.3V103.6z"/>
		<path class="st27" d="M259.6,99.4c-0.2,0-0.5,0-0.7-0.1c0,0.3,0,0.6,0,0.9c-0.4,2.8-2.9,4.8-5.7,4.7c0,2.7,2.1,5,4.8,5.4
			c3.1,0.4,5.9-1.6,6.4-4.7C264.8,102.7,262.6,99.9,259.6,99.4z"/>
		<path class="st28" d="M265,97.5c0,0.3,0,0.6-0.1,0.9c-0.3,2.1-1.6,3.7-3,3.9c0,1-0.4,1.8-0.5,2.6c-0.2,1.7-2,1.8-2,1.8
			c-0.2,1.5,5.6,3.5,5.5,3.3s-1.4-2-1.8-3.6c-0.3-1.1,0.1-2,0.5-2.7c0.8-0.9,1.9-0.9,1.9-0.9c0.1,0,0.2,0,0.3-0.1
			c0.1-0.2,0.1-0.5,0.1-0.7v-2.7C265.9,98.6,265.6,97.9,265,97.5z"/>
		<g>
			<path class="st29" d="M268.6,127.9L268.6,127.9C268.6,127.8,268.6,127.8,268.6,127.9c-0.5-2.4-1.2-4.7-2.2-6.8
				c-0.8-1.5-2.3-2.8-2.9-3.5c-1.7,0.9-3.4,0.5-5,1.7c-0.2,0.7-0.4,1.4-0.5,2.2c-0.2,1.4-0.5,2.7-0.6,3.9c-2.5,0.2-8.7,0.7-11,1.2
				c-1.4,0.3-1.5,0.9-1.7,1c0.1,2.2,1.9,3.5,3,5.3c0.2,0.3,15.1,0.2,17.5,0.2C266.5,133.1,269.8,132.4,268.6,127.9z"/>
			<path class="st30" d="M245.5,130.8c-0.4-0.5-0.6-1.1-0.9-1.6c-0.2-1-0.2-1.7,0.1-1.9c1.1-0.9,4.8,1,14.2,15
				c2,3.1,6.6,9.5,5.5,8.4C248.8,134.7,247.6,133.2,245.5,130.8z"/>
			<path class="st31" d="M264.4,150.1l-1.7-2.7c-0.2-0.3-0.4-0.4-0.7-0.4l1.3,2c0.2,0.4,0.2,0.9-0.1,1.2c-0.1,0.1-0.2,0.1-0.4,0.1
				l0.4,0.6c0.2,0.4,0.7,0.5,1,0.2C264.6,151,264.6,150.5,264.4,150.1z"/>
			<path class="st28" d="M258.5,115.2l-3-4.7c-0.9-1.4-0.4-2.8,1.2-3.1l8.8-1.9c1-0.1,2.5,1.3,2.2,2.9l-1.9,5.4L258.5,115.2z"/>
			<path class="st31" d="M257.1,108.1c0.2,4.2-3.9,10.9-3.9,10.9s-1.6,0-1.7-0.7c-0.2-0.9,1.2-2.8,2.9-8.3
				C255.5,106.6,257.1,107.4,257.1,108.1z"/>
			<path class="st31" d="M267.5,105.7c3.1,2.2,5.2,8.6,5.2,8.6s-0.7,1.5-1.3,1.2c-0.8-0.4-1.7-2.2-4.4-6.6
				C265.4,106.2,267,105.3,267.5,105.7z"/>
			<path class="st20" d="M265,117.2c0,0.6-0.7,1.6-1.1,1.6l-4.6,0.1c-0.5,0-1.6-0.8-1.6-1.4v-2.1c0-0.6,0.4-1.1,0.9-1.1l6-1.4
				c0.5,0,0.9,0.5,0.8,1.2L265,117.2z"/>
			<path class="st32" d="M258.5,119.2c0,0.1,0.3,0.1,0.7,0.1l4.6-0.3c0.4,0,0.7-0.1,0.7-0.2v-0.3c0-0.1-0.3-0.1-0.7-0.1l-4.6,0.3
				c-0.4,0-0.7,0.1-0.7,0.2V119.2z"/>
			<path class="st20" d="M266.6,107.9c-0.1-0.3-0.2-0.6-0.3-0.8c-4.3,3-7.3,1.7-9.5,1.2c0,0.1,0,0.3,0,0.4c-0.1,1.5,0,3,0,4.5
				c-0.1,1.2,1.6,2.2,2.4,2.3c3,0.1,3.7,0,6.6-0.8c0.8-0.2,2.2-1.5,1.9-2.6C267.3,110.7,267,109.3,266.6,107.9z"/>
			<path class="st29" d="M259.1,106.8c0,0-3.2-0.1-3.7,1.4c-0.6,1.5,0.8,3.7,0.8,3.7s0.8,2.8,1,4.3s-0.7,3-0.4,2.7
				c0.1-0.1,0.8,0,1.9-0.5s0.5-2.6,0.4-3.3c-0.1-0.7-0.7-3.9-0.5-4.5C258.6,110,259.1,106.8,259.1,106.8z"/>
			<path class="st29" d="M268.2,107.7c0,0,0.2-1.3-0.3-1.8c-0.8-0.7-2.6-0.6-3.2-0.5c-0.6,0.2-1,0.4-1,0.4s2.1,0.8,2,5.2
				c0,0.7-0.2,2.2-0.5,3.4c-0.3,1.1-0.3,3.4-0.3,3.4s1.2,0.3,1.3,0.4c0.1,0.2,0.1-1.3,1-2.8C268.1,114,268.2,107.7,268.2,107.7z"/>
			<path class="st31" d="M265.5,105.4c1.2,1,1.9,1.8,1.7,6.8c0,0.8,0,2.3-0.1,3.7c0.1-0.1,0.1-0.3,0.2-0.4c0.8-1.4,1-7.7,1-7.7
				s0.1-1.1-0.4-1.6C267.3,105.6,266.3,105.3,265.5,105.4z"/>
			<path class="st28" d="M248.1,131.9c-0.3-0.5-0.4-1.1-0.6-1.7c0-1,0.1-1.6,0.4-1.9c1.3-1.1,4,1,8.5,10.2c2.3,4.6,4,8.7,7,11.2
				c0.4,0.4,0.7,0.7,0.8,1.1c0.4,1.3,0.2,2.9,0.2,2.9C262.3,151.7,254.1,141.3,248.1,131.9z"/>
			<path class="st29" d="M265.3,152.7l-1.4-2.8c-0.1-0.3-0.4-0.4-0.6-0.4l1.1,2.1c0.2,0.4,0.1,0.9-0.2,1.2c-0.1,0.1-0.2,0.1-0.4,0.1
				l0.3,0.6c0.2,0.4,0.7,0.6,1,0.3C265.4,153.7,265.5,153.2,265.3,152.7z"/>
			<path class="st31" d="M272.9,115.3c1.1-2.2-1.1-4.9-1.1-4.9s-0.8,0.1-1,0.5c-0.4,0.5-0.3,1.6,0.1,4
				C271.1,116.4,272.7,115.6,272.9,115.3z"/>
			<path class="st28" d="M272,113.4c0,0-0.5,0-0.9-2.1c-0.5-2.1,0-4.5,0-4.5l1.1,4.1C272.1,110.9,272.6,112.7,272,113.4z"/>
			<path class="st28" d="M271,106.8c0-0.2,0.2-0.4,0.3-0.7c0.2-0.4,0.5-1.1,0.8-1.5c0.3-0.5,0.5-1,0.5-1c0.1,0.6-0.2,0.8-0.3,1.1
				c-0.1,0.3-0.1,0.2,0.3-0.1c0.2-0.2,0.3-0.8,0.4-1.2c0.1-0.3,0.2-0.5,0.2-0.5s0,0.5-0.1,1.1s-0.4,1.3-0.5,1.4
				c-0.1,0.2-0.5,0.7-0.9,1.2c-0.1,0.1-0.5,0.8-0.3,1.6C271.5,108.7,270.9,107.7,271,106.8z"/>
			<path class="st28" d="M272.6,105.5c0,0,0.6-0.8,0.7-1c0-0.1,0.1-0.8,0.1-0.8s-0.2,0.3-0.3,0.6C273,104.5,272.6,105.5,272.6,105.5
				z"/>
		</g>
		<g>
			<rect x="245.1" y="126.5" class="st33" width="13" height="0.3"/>
			<path class="st33" d="M252.3,126.5c0,0.2-0.1,0.4-0.3,0.4h-6.7c-0.2,0-0.4-0.1-0.6-0.7l-3.3-6c0-0.3,0.2-0.4,0.4-0.4l6.8,0.2
				c0.2,0,0.3,0.2,0.4,0.5L252.3,126.5z"/>
			<path class="st34" d="M251.5,126.8L251.5,126.8h6.6c-0.2,0.1-0.6,0.2-1.1,0.2h-5.4h-0.1h-5.4c-0.4,0-0.8-0.1-1.1-0.2H251.5z"/>
		</g>
		<path class="st35" d="M251.3,107h0.5v-0.3h3.2v2.9c0,0.4-0.3,0.7-0.6,0.7h-2c-0.3,0-0.6-0.3-0.6-0.7v-0.2h-0.5
			c-0.2,0-0.4-0.2-0.4-0.5v-1.3C250.9,107.2,251.1,107,251.3,107z M251.3,108.8C251.3,108.8,251.3,108.9,251.3,108.8l0.6,0.1v-1.5
			h-0.5c0,0-0.1,0-0.1,0.1V108.8z"/>
		<g>
			<path class="st28" d="M251.5,113.7c-0.3-1.1-0.8-2.2-0.7-2.9c0.1-0.9,0.6-1.4,0.4-2c0-0.1,0-0.1,0-0.2c0-0.2-0.1-0.4-0.1-0.5
				s0-0.3,0-0.2c-0.5,0.9-0.9,1.9-0.9,2.1c0,0.5,0.2,3.2,0.4,4.2C250.9,115.3,251.9,115.2,251.5,113.7z"/>
			<path class="st28" d="M250.6,110.6c0,0-0.2,0.1-0.3-0.1c-0.1-0.3-0.2-0.9-0.2-1.1s0.2-1.4,0.2-1.4s0.2,0.4,0.1,0.8
				C250.4,109.6,250.6,110.6,250.6,110.6z"/>
			<path class="st28" d="M250.8,115.9c0.4-0.1,0.7-0.3,1.1-0.5c-0.8-2.9-1.6-5.3-1.6-5.3L250.8,115.9z"/>
			<path class="st28" d="M250.4,109.2l0.3-1.6l0.6-0.2l0.2,0.1v0.2l-0.1,0.1c0.1,0,0.1,0.3,0,0.3c0,0,0.1,0.3,0.1,0.4
				c-0.1,0.1-0.3,0.1-0.4,0.4c-0.1,0.3,0,0.6-0.1,0.6S250.4,109.2,250.4,109.2z"/>
		</g>
		<path class="st31" d="M250.6,115.2c0-0.2,1.4-0.3,1.5,0.1l0.2,0.3c0,0,1.2,2.7-0.2,3.2C252.1,118.8,250.5,118.7,250.6,115.2z"/>
	</g>
	<g>
		<path class="st36" d="M229.7,170.8c-11-1-8.6-8.4-17.3-12.7c-3.4-1.7-4.4,1.2-5.7,2.5l-1.3,0.6c-1.4,1.4-0.6,3.7,0.7,5.1l2.2,2.1
			c2.5,2,1.3,5.3,2.9,6.9c1.8,1.8,4.7,1.7,6.5-0.1c0.1,0.1,0.1,0.1,0.2,0.2c1.8,1.8,10.4,3,12.5,1.4
			C234.2,173.7,231.9,171,229.7,170.8z"/>
		<g>
			<g>
				<g>
					<path class="st30" d="M212.4,182.3c0,0-0.1,0.8-3.9,0.4c-3.8-0.4-9.4-1.8-9.4-1.8h8.9C208,180.9,211.4,181.1,212.4,182.3z"/>
					<path class="st30" d="M202.1,181.5c-1.8-0.1-2.7,0.7-3.4,1c-0.7,0.2-1.5,0.6-1.5,0.6c0.5-0.8,1-0.7,1.4-1
						c0.3-0.2,0.2-0.1-0.4-0.2c-0.4-0.1-1.1,0.6-1.5,0.9c-0.4,0.3-0.7,0.3-0.7,0.3s0.5-0.6,1.2-1.1c0.8-0.6,1.7-1.1,1.9-1.1
						c0.4-0.1,1.6-0.1,2.5,0.1C202.4,181.1,203.4,181.6,202.1,181.5z"/>
					<path class="st30" d="M199,180.9c0,0-1.4,0.3-1.7,0.4c-0.2,0.1-0.9,0.8-0.9,0.8s0.5-0.1,0.8-0.3
						C197.6,181.6,199,180.9,199,180.9z"/>
				</g>
				<path class="st26" d="M210.8,180.6c0,0,3.5,0.4,3.2,2.5c-0.2,1.2-1,1.5-2.1,1.4c-2-0.3-4.2-0.7-4.2-0.7l-0.8-3.3L210.8,180.6z"
					/>
			</g>
			<path class="st26" d="M210.9,182.1l1.6-11.5c0,0,0.1-2.5,1-2.3c1.3,0.2,3.2,3.9,3.3,4.7c0.1,1.6-2.2,9.7-2.5,11.3
				c-0.2,1.1-1.2-0.2-2.3-0.4C209.9,183.4,210.9,182.1,210.9,182.1z"/>
		</g>
		<polygon class="st28" points="258.6,167.6 262,161.6 266.1,161.8 268,162.4 263.6,163.1 260.8,168.7 		"/>
		<path class="st20" d="M262.6,160.6l0.5,0.2l0.2,0.7l3.2,0.1l2.6,0.7c0,0-0.1,0.2-0.2,0.3c-0.5,0.2-2.5,0.2-2.5,0.2s0.3-0.5,0-0.7
			c-0.2-0.1-2.7-0.2-3.3-0.2c-1,0.1-1.6,0.3-1.5,0.1C261.7,161.8,262.6,160.6,262.6,160.6z"/>
		<path class="st29" d="M241.5,179l9.4,1.1l8.4-14.8l2.8,1.4l-8.5,18c0,0-0.6,1.1-3.5,0.9c-2.8-0.2-14-0.9-15.3-1.4
			C231.9,183,241.8,181.6,241.5,179z"/>
		<path class="st28" d="M205.5,163.7c0.2,0.2,0.5,0.4,0.8,0.6c1.9,1.3,4.1,1.6,5.3,0.6c0.8,0.7,1.6,1.2,2.3,1.6
			c0.8,0.4,2.3,0.3,2.3,0.3c1.3,0.9,2.1,4.7-0.9,6.2c-1.8,0.9-2.1-1.2-1.9-2.7c0.1-0.7,0.2-1.5,0-1.8c-0.6-1.1-1.1-1.1-1.9-1.2
			c-1.3-0.1-2.2,0.8-2.2,0.8c-0.1,0.1-0.2,0.1-0.3,0.1c-0.2-0.1-0.4-0.3-0.6-0.4l-2.1-2.1C205.6,165.2,205.4,164.4,205.5,163.7z"/>
		<polygon class="st28" points="251,164.4 251.2,159.6 252.1,158.5 254.7,156.9 256.7,157.3 253.3,159.8 253.1,164.9 		"/>
		<path class="st20" d="M251.3,158.6l0.9-0.6l0.3,0.2l2.4-1.6c0,0,2.2-0.6,2.6-0.1c0.1,0.2-0.2,0.4-0.7,0.8
			c-0.4,0.3-0.6,0.4-0.6,0.4s-0.1-0.4-1-0.5c-0.3,0-2,1.1-2.6,1.4c-1.1,0.5-1.5,1.3-1.5,1.2C250.9,159.6,251.3,158.6,251.3,158.6z"
			/>
		<path class="st29" d="M232,186.8l2.1-0.1l17.3-1.2c0,0,1.6,0.5,2.5-2c1.4-3.5-0.6-20.9-0.6-20.9l-2.6,0.1l-1.3,16.5
			c0,0-12.1-3.9-14.9-2.9c-3.2,1.1-5.1,2.6-9.1,6.9c-1.8,1.9,0.6,3.5,0.6,3.5L232,186.8z"/>
		<path class="st20" d="M212.5,169.1c0,0,2.9-3.7,5.4-1.5c2.4,2.2,11,9,13.5,9.8l0.6,9.6c-7,0.5-12.8-3.1-13.3-3.8
			C217.2,180.9,211.5,172,212.5,169.1z"/>
		<path class="st26" d="M221,180.9c-0.7-0.9-2.1-3-3.5-5.2c-1.7-2.8-4.4-2.4-3,0.4c1.5,3,3.4,5.9,4.2,7.1c0.5,0.7,5.2,4.3,12.2,3.8
			l-0.7-1C225.2,185.6,221.4,181.5,221,180.9z"/>
		<g>
			<g>
				<path class="st28" d="M216.7,184.7c0,0,1.1,1.1-3.7,0.7c-3.4-0.3-3.3-0.1-11.7-2.3l11.1,0.2
					C212.4,183.3,215.5,183.3,216.7,184.7z"/>
				<path class="st28" d="M205,183.8c-2.3-0.2-3.3,0.8-4.3,1.1c-0.9,0.3-1.9,0.7-1.9,0.7c0.6-0.8,1.3-0.8,1.7-1.1s0.3-0.1-0.5-0.2
					c-0.5-0.1-1.3,0.6-1.9,1c-0.5,0.3-0.8,0.3-0.8,0.3s0.6-0.7,1.4-1.3c1-0.7,2.1-1.2,2.4-1.3c0.5-0.1,2-0.1,3.1,0.1
					C205.4,183.4,206.6,183.9,205,183.8z"/>
				<path class="st30" d="M201.2,183c0,0-1.8,0.3-2.1,0.5c-0.2,0.1-1.2,0.9-1.2,0.9s0.7,0,1.1-0.3C199.4,183.8,201.2,183,201.2,183z
					"/>
			</g>
			<path class="st20" d="M214.2,182.8l-1.6-13c0,0,1-1.3,1.9-0.8c1,0.5,2.9,1.8,2.9,1.8s1.6,4.5,2,8.5c0.7,6.6,0.4,6.7-2,7.3
				c-2.5,0.6-7.1,0-7.1,0l-1-3.7L214.2,182.8z"/>
		</g>
		<g>
			<path class="st37" d="M206.4,185.9L206.4,185.9v-0.5h-20.9v0.5l0,0l0.1,0.1c0.3,0.4,0.7,0.5,1.3,0.5H205
				C205.6,186.6,206.1,186.5,206.4,185.9L206.4,185.9z"/>
			<path class="st38" d="M201.3,186L201.3,186L201.3,186c0.1,0.2,0.2,0.3,0.4,0.3h3.2c0.5,0,1-0.1,1.3-0.4v-0.1l0,0v-0.2h-4.8
				L201.3,186L201.3,186z"/>
			<g>
				<rect x="188.1" y="185.5" class="st38" width="10.4" height="0.4"/>
			</g>
			<g>
				<path class="st33" d="M201.2,185.4l-2.7-10.3c-0.1-0.3-0.3-0.5-0.6-0.5h-14.6c-0.3,0-0.4,0.2-0.4,0.5l2.7,10.3H201.2z"/>
				<path class="st38" d="M193,180c0.1,0.5-0.2,0.9-0.7,0.9s-1.1-0.4-1.2-0.9c-0.1-0.5,0.2-0.9,0.7-0.9S192.8,179.5,193,180z"/>
			</g>
		</g>
	</g>
	<g>
		<path class="st17" d="M214.4,42.5c0,4.2-3.4,7.6-7.6,7.6c-4.2,0-7.6-3.4-7.6-7.6s3.4-7.6,7.6-7.6S214.4,38.3,214.4,42.5z"/>
		<path class="st5" d="M209.6,40.4c-0.7-0.7-1.8-0.7-2.5,0l-0.4,0.4l-0.4-0.4c-0.7-0.7-1.8-0.7-2.5,0s-0.7,1.8,0,2.5l0.4,0.4l0,0
			l2.5,2.5l2.5-2.5l0,0l0.4-0.4C210.3,42.2,210.3,41.1,209.6,40.4z"/>
	</g>
	<g>
		<path class="st20" d="M264.7,54.8c0,4.2-3.4,7.6-7.6,7.6c-4.2,0-7.6-3.4-7.6-7.6s3.4-7.6,7.6-7.6
			C261.3,47.2,264.7,50.6,264.7,54.8z"/>
		<g>
			<path class="st5" d="M260.5,53.1h-2.7c0.1-0.3,0.3-0.7,0.3-0.9s0-0.7,0-0.7c0-0.3-0.3-0.6-0.6-0.6h-0.3v1c0,0-1.1,1.3-1.1,1.8
				v3.1c0,0.3,0.3,0.6,0.6,0.6h2.2c0.3,0,0.7-0.3,0.9-0.6l1.1-3.1C261,53.4,260.9,53.1,260.5,53.1z"/>
			<rect x="255.7" y="53.6" class="st5" width="0.8" height="3.4"/>
			<rect x="253.2" y="53.1" class="st5" width="1.5" height="4.3"/>
		</g>
	</g>
	<g>
		<path class="st20" d="M204.9,50.1c0,2.1-1.7,3.8-3.8,3.8s-3.8-1.7-3.8-3.8s1.7-3.8,3.8-3.8S204.9,48,204.9,50.1z"/>
		<g>
			<path class="st5" d="M202.8,49.3h-1.3c0.1-0.1,0.1-0.3,0.2-0.4c0-0.1,0-0.3,0-0.3c0-0.2-0.1-0.3-0.3-0.3h-0.2v0.5
				c0,0-0.5,0.6-0.5,0.9v1.5c0,0.2,0.1,0.3,0.3,0.3h1.1c0.2,0,0.4-0.1,0.4-0.3l0.6-1.5C203.1,49.4,203,49.3,202.8,49.3z"/>
			<rect x="200.4" y="49.5" class="st5" width="0.4" height="1.7"/>
			<rect x="199.2" y="49.3" class="st5" width="0.7" height="2.2"/>
		</g>
	</g>
	<g>
		<g>
			<g>
				<g>
					<path class="st39" d="M242.8,45.4c0,3.2-2.6,5.8-5.8,5.8c-3.3,0-5.8-2.6-5.8-5.8c0-3.3,2.6-5.8,5.8-5.8S242.8,42.2,242.8,45.4z
						"/>
				</g>
				<path class="st40" d="M242.3,43.1c0.1,0.4,0.1,0.8,0.1,1.1c0,3.3-2.6,5.9-5.9,5.9c-2,0-3.8-1-4.8-2.4c0.9,2,2.9,3.4,5.3,3.4
					c3.2,0,5.8-2.6,5.8-5.8C242.8,44.6,242.5,43.8,242.3,43.1z"/>
			</g>
			<g>
				<g>
					<path class="st41" d="M238,44.4c0-0.5,0.4-1.1,0.9-1.1c0.5,0,0.9,0.6,0.9,1.1"/>
				</g>
				<g>
					<path class="st41" d="M234.2,44.4c0-0.5,0.4-1.1,0.9-1.1c0.5,0,0.9,0.6,0.9,1.1"/>
				</g>
			</g>
		</g>
		<path class="st42" d="M237,46.7c-1.4,0-2.8-0.1-3.9-0.5c0.4,1.8,2,3.2,3.9,3.2c1.9,0,3.5-1.4,3.9-3.2
			C239.6,46.5,238.4,46.7,237,46.7z"/>
		<path class="st43" d="M233.1,46.3c0.1,0.4,0.1,0.6,0.3,0.9c1,0.3,2.3,0.5,3.5,0.5c1.3,0,2.5-0.1,3.5-0.5c0.1-0.3,0.3-0.6,0.3-0.9
			c-1.1,0.3-2.5,0.5-3.9,0.5C235.6,46.7,234.2,46.5,233.1,46.3z"/>
		<path class="st44" d="M239.1,48.7c-0.6-0.4-1.4-0.6-2.3-0.6c-0.9,0-1.6,0.3-2.3,0.6c0.6,0.4,1.4,0.6,2.3,0.6
			C237.8,49.4,238.5,49.2,239.1,48.7z"/>
		<path class="st45" d="M237,46.7c-1.4,0-2.8-0.1-3.9-0.5c0.4,1.8,2,3.2,3.9,3.2c1.9,0,3.5-1.4,3.9-3.2
			C239.6,46.5,238.4,46.7,237,46.7z"/>
	</g>
	<g>
		<path class="st20" d="M163.4,35.4c0,3.1-2.5,5.7-5.7,5.7c-3.1,0-5.7-2.5-5.7-5.7c0-3.1,2.5-5.7,5.7-5.7S163.4,32.2,163.4,35.4z"/>
		<g>
			<path class="st5" d="M160.3,34.1h-2c0.1-0.2,0.2-0.5,0.2-0.6s0-0.5,0-0.5c0-0.3-0.2-0.5-0.5-0.5h-0.2v0.7c0,0-0.8,1-0.8,1.3v2.3
				c0,0.3,0.2,0.5,0.5,0.5h1.6c0.3,0,0.5-0.2,0.6-0.5l0.8-2.3C160.7,34.3,160.5,34.1,160.3,34.1z"/>
			<rect x="156.7" y="34.5" class="st5" width="0.6" height="2.6"/>
			<rect x="154.8" y="34.1" class="st5" width="1.1" height="3.2"/>
		</g>
	</g>
	<g>
		<path class="st17" d="M297.8,38.1c0,3.1-2.5,5.6-5.6,5.6s-5.6-2.5-5.6-5.6s2.5-5.6,5.6-5.6S297.8,35,297.8,38.1z"/>
		<path class="st5" d="M294.3,36.6c-0.5-0.5-1.3-0.5-1.8,0l-0.3,0.3l-0.3-0.3c-0.5-0.5-1.3-0.5-1.8,0s-0.5,1.3,0,1.8l0.3,0.3l0,0
			l1.8,1.8l1.8-1.8l0,0l0.3-0.3C294.8,37.9,294.8,37.1,294.3,36.6z"/>
	</g>
	<g>
		<path class="st20" d="M272.4,30c0,3.1-2.5,5.6-5.6,5.6s-5.6-2.5-5.6-5.6s2.5-5.6,5.6-5.6C269.9,24.4,272.4,26.9,272.4,30z"/>
		<g>
			<path class="st5" d="M269.3,28.7h-2c0.1-0.2,0.2-0.5,0.2-0.6s0-0.5,0-0.5c0-0.3-0.2-0.5-0.5-0.5h-0.2v0.7c0,0-0.8,0.9-0.8,1.3
				v2.2c0,0.3,0.2,0.5,0.5,0.5h1.6c0.3,0,0.5-0.2,0.6-0.5l0.8-2.2C269.7,28.9,269.6,28.7,269.3,28.7z"/>
			<rect x="265.8" y="29.1" class="st5" width="0.6" height="2.5"/>
			<rect x="264" y="28.7" class="st5" width="1.1" height="3.2"/>
		</g>
	</g>
	<g>
		<g>
			<g>
				<path class="st4" d="M58.4,185.9l0.1,3H61c0,0,0.1-0.4,0.3-0.4s0.4,0.4,0.6,0.4c0.5,0,1.1,0,1.3,0c0.5,0,4.9,0,4.9,0
					s0.1-0.6,0-0.7c-0.1-0.1-0.5-0.3-0.8-0.4c-1.3-0.4-4.9-1.6-5.5-3C61.2,183.2,58.4,185.9,58.4,185.9z"/>
				<path class="st10" d="M68.3,188.3c0.1,0.2,0,0.6,0,0.6s-4.5,0-4.9,0c-0.2,0-0.8,0-1.3,0c-0.2,0-0.5-0.4-0.6-0.4
					c-0.2,0-0.3,0.4-0.3,0.4h-2.4l-0.1-0.6H68.3z"/>
				<g>
					<path class="st10" d="M63.7,187.1c0.1,0.1,0.2,0,0.4-0.2c0.4-0.4,0.4-0.3,0.3-0.4c-0.1,0-0.2-0.1-0.4,0.1
						C63.8,186.8,63.7,187,63.7,187.1z"/>
					<path class="st10" d="M63.1,186.8c0.1,0.1,0.2,0,0.4-0.2c0.4-0.4,0.4-0.3,0.3-0.4c-0.1,0-0.2-0.1-0.4,0.1
						C63.1,186.5,63,186.7,63.1,186.8z"/>
					<path class="st10" d="M62.5,186.4c0.1,0.1,0.2,0,0.4-0.2c0.4-0.4,0.4-0.3,0.3-0.4c-0.1,0-0.2-0.1-0.4,0.1
						C62.5,186.1,62.4,186.3,62.5,186.4z"/>
				</g>
			</g>
			<g>
				<path class="st4" d="M39.9,188.9c-0.2,0.3-0.1,1-0.1,1s3.8,0.5,5,0.1c0.3-0.1,0.8-0.4,1.3-0.7c0.1-0.1,0.2-0.4,0.3-0.4
					c0.2-0.1,0.2,0.1,0.4,0c0.3-0.2,0.6-0.4,0.6-0.4c0.3-1.9-0.1-2.7-0.1-2.7s-2.4-1.2-3-0.4C42.9,187.4,40.4,188,39.9,188.9z"/>
				<path class="st10" d="M39.8,189.3c1.2,0.2,3.6,0.5,4.1,0.4c1.8-0.4,2.9-1.4,3.7-2.1c0,0.3,0,0.6-0.1,0.9c0,0-0.2,0.2-0.6,0.4
					c-0.1,0.1-0.2-0.1-0.4,0c-0.1,0.1-0.2,0.4-0.3,0.4c-0.5,0.3-1,0.6-1.3,0.7c-1.2,0.3-5-0.1-5-0.1S39.8,189.6,39.8,189.3z"/>
				<g>
					<path class="st10" d="M41.8,187.5c0,0.1,0.1,0.1,0.4,0.1c0.4,0,0.9,0,1.3,0.1c0.2,0,0.4,0,0.4-0.1s-0.2-0.2-0.4-0.2
						c-0.4-0.1-0.9-0.1-1.3-0.1C42,187.4,41.8,187.4,41.8,187.5z"/>
					<path class="st10" d="M42.6,187c0,0.1,0.1,0.1,0.4,0.2c0.4,0,0.9,0.1,1.3,0.2c0.2,0.1,0.4,0,0.4-0.1s-0.2-0.2-0.4-0.3
						c-0.4-0.1-0.8-0.2-1.3-0.2C42.7,186.8,42.6,186.9,42.6,187z"/>
					<path class="st10" d="M43.3,186.4c0,0.1,0.1,0.2,0.4,0.2c0.4,0.1,0.8,0.2,1.3,0.3c0.2,0.1,0.4,0.1,0.4,0s-0.2-0.2-0.4-0.3
						c-0.4-0.1-0.8-0.2-1.2-0.3C43.4,186.3,43.3,186.4,43.3,186.4z"/>
				</g>
			</g>
			<path class="st28" d="M65.1,113.5l-0.4-2.3l-0.1-1.3l0.1-1.8c0,0,0.5-0.7,0.8,1c0,0.3,0.4-1.7,0.4-1.7l0.4-1.4l0.5-0.2l1.1,0.7
				c0,0-0.1,0.6-1,0.3c-0.1,0-0.2,1.1-0.2,1.1l1.2,1.8c0,0,0.2,0.9-0.1,1.3c-0.4,0.4-0.4,0.4-0.4,0.4l-0.1-0.2l-0.1,1.8
				c0,0-0.1,0.7-0.7,1s-0.3,0.9-0.3,0.9L65.1,113.5z"/>
			<path class="st35" d="M62.7,126.9c0,0-2.4-4.7-1.8-6.5c0.6-1.7,3-8.1,3-8.1l3,1.7c0,0-2.1,12.6-2.8,13.4
				C63.5,128.2,62.9,127.2,62.7,126.9z"/>
			<path class="st31" d="M63.3,185.7l-5,0.2l1.2-52.3l10.6-3.2C70.1,130.4,68.4,164.5,63.3,185.7z"/>
			<polygon class="st29" points="55.4,134.6 42.4,186.7 48.3,186.9 67.5,131.4 			"/>
			<path class="st29" d="M59.5,134l0.8-0.6l9.8-2.9c0,0-0.2,3.5-0.6,8.9l-10.3,5.9L59.5,134z"/>
			<path class="st31" d="M55.4,134.8v-0.2l5.9-1.6l8.8-2.6c0,0,0,0.6-0.1,1.7L55.4,134.8z"/>
			<path class="st46" d="M49.3,107c0,0,5.7-4,10.8,2.7s10.5,20.6,10.5,20.6L55,135.4l-5.1-20.3C49.9,115.2,47.1,108.4,49.3,107z"/>
			<path class="st35" d="M49.2,107.3c0,0-1.8-0.2-1,5.2c0.8,5.3,2.6,15.8,3.5,18.4c0.2,0.6,1.1,3.7,2.4,1.8c1.4-1.8,2.3-8.9,0-18
				C52.6,108.8,50.1,107.3,49.2,107.3z"/>
			<polygon class="st47" points="69.5,116.2 69.8,116.6 68.7,120.1 66.4,120.8 65.9,120.3 66.7,117.1 			"/>
			<path class="st28" d="M61.7,120.9L65,119l1.3-0.2L66,120l1.3,0.5l1.3-0.5l0.6-0.9l0.3,1c0,0-0.1,0.5-0.4,0.9s-1.6,2.5-1.6,2.5
				l-1-0.2l-2.2-0.6l-1.4,1.1L61.7,120.9z"/>
			<path class="st35" d="M52.6,131.8c0,0,0.7-5.3,2.1-6.4c1.4-1,6.9-4.5,6.9-4.5l1.5,3.3c0,0-8.6,8.6-9.6,8.8
				C52.5,133.4,52.6,132.2,52.6,131.8z"/>
		</g>
		<g>
			<g>
				<path class="st28" d="M58.4,104.6c-1,2.8-1.6,4.2-1.7,4.3c-1.1,1-4.3-1.5-3.9-2.2c0.4-0.7,1-4.2,1-4.7
					C53.8,101.4,59,103,58.4,104.6z"/>
				<path class="st30" d="M56.7,102.6c-0.9-0.4-1.9-0.7-2.4-0.7c0,0.9-0.1,1.9,0,2.5c0.1,1.7,1.4,2.7,2.2,3.4
					c0.2,0.2,0.4,0.3,0.7,0.4c0.2-0.5,0.6-1.5,1.3-3.5C58.7,103.9,57.8,103.2,56.7,102.6z"/>
				<path class="st28" d="M61.1,97.1l-0.3,8c0,0-0.1,1.9-0.8,2.1c-0.8,0.2-2.8-0.1-3.6-0.8c-0.8-0.7-2.1-1.6-2.2-3.4
					c-0.1-1.7,0.2-5.9,0.2-5.9s0.7-1.3,3.2-0.3C60.1,98,61.1,97.1,61.1,97.1z"/>
				<path class="st29" d="M60.9,95.2c0.4,0.1,0.9,0.5,1.1,1.1c0.1,0.6-0.5,1.5-1.1,1.6s-4.1-0.2-4.5-0.4c-0.4-0.2-1.2-0.4-1.6-1.1
					c-0.2-0.4,1.1-1.3,1.9-1C58.7,96.1,59.5,94.7,60.9,95.2z"/>
				<path class="st29" d="M55.7,96.4l-0.1,3.5l-0.4,1.8h-0.4l-0.8-0.1c0,0-1.1-4.9,0.1-5.3C55.4,95.9,55.6,96.1,55.7,96.4z"/>
				<path class="st28" d="M54.7,102c0,0.3-0.3,0.5-0.6,0.5h-0.3c-0.3,0-0.5-0.3-0.5-0.6l0.1-1.3c0-0.3,0.3-0.5,0.6-0.5h0.3
					c0.3,0,0.5,0.3,0.5,0.6L54.7,102z"/>
			</g>
			<polygon class="st31" points="56.5,96.3 55.2,96.1 54.6,99.9 55.9,100.1 			"/>
			<path class="st28" d="M56.1,99.2c0.2-1.2,1.2-2,2.3-1.8l1,0.2c1.1,0.2,1.5,1.3,1.3,2.5l0,0c-0.2,1.2-1.2,2-2.3,1.8l-0.7-0.1
				C56.6,101.5,55.9,100.4,56.1,99.2L56.1,99.2z"/>
		</g>
	</g>
	<g>
		<g>
			<g>
				<path class="st39" d="M66,75.6c0,2.8-2.3,5.2-5.2,5.2c-2.8,0-5.2-2.3-5.2-5.2s2.3-5.2,5.2-5.2C63.7,70.5,66,72.8,66,75.6z"/>
			</g>
			<path class="st40" d="M65.6,73.6c0.1,0.3,0.1,0.7,0.1,1c0,2.9-2.4,5.3-5.3,5.3c-1.8,0-3.3-0.9-4.3-2.2c0.8,1.8,2.6,3.1,4.7,3.1
				c2.8,0,5.2-2.3,5.2-5.2C66,74.9,65.9,74.2,65.6,73.6z"/>
		</g>
		<path class="st41" d="M58,77c0.7,0.8,1.8,1.2,2.9,1.2c1.1,0,2.2-0.5,2.9-1.2"/>
		<g>
			<g>
				<path class="st42" d="M59.9,74.7c0,0.4-0.3,0.8-0.8,0.8c-0.4,0-0.8-0.3-0.8-0.8c0-0.4,0.3-0.8,0.8-0.8
					C59.5,73.9,59.9,74.3,59.9,74.7z"/>
			</g>
			<g>
				<path class="st42" d="M63.5,74.7c0,0.4-0.3,0.8-0.8,0.8c-0.4,0-0.8-0.3-0.8-0.8c0-0.4,0.3-0.8,0.8-0.8
					C63.1,73.9,63.5,74.3,63.5,74.7z"/>
			</g>
		</g>
	</g>
	<g>
		<g>
			<g>
				<path class="st39" d="M317.1,52.8c0,3.4-2.8,6.2-6.2,6.2c-3.4,0-6.2-2.8-6.2-6.2s2.8-6.2,6.2-6.2
					C314.4,46.7,317.1,49.4,317.1,52.8z"/>
			</g>
			<path class="st40" d="M316.6,50.4c0.1,0.4,0.1,0.8,0.1,1.2c0,3.5-2.8,6.3-6.3,6.3c-2.1,0-4-1-5.1-2.6c1,2.2,3.1,3.7,5.7,3.7
				c3.4,0,6.2-2.8,6.2-6.2C317.1,52,316.9,51.1,316.6,50.4z"/>
		</g>
		<path class="st41" d="M307.5,54.5c0.9,0.9,2.1,1.5,3.5,1.5s2.6-0.6,3.5-1.5"/>
		<g>
			<g>
				<path class="st41" d="M312,51.7c0-0.5,0.4-0.9,0.9-0.9s0.9,0.4,0.9,0.9"/>
			</g>
			<g>
				<path class="st41" d="M308,51.7c0-0.5,0.4-0.9,0.9-0.9s0.9,0.4,0.9,0.9"/>
			</g>
		</g>
	</g>
	<g>
		<path class="st20" d="M97,38.3c0,4.6-3.7,8.3-8.3,8.3c-4.6,0-8.3-3.7-8.3-8.3s3.7-8.3,8.3-8.3S97,33.7,97,38.3z"/>
		<g>
			<path class="st5" d="M92.4,36.4h-2.9c0.1-0.3,0.3-0.7,0.3-0.9s0-0.7,0-0.7c0-0.4-0.3-0.7-0.7-0.7h-0.3v1.1c0,0-1.2,1.4-1.2,2v3.3
				c0,0.4,0.3,0.7,0.7,0.7h2.4c0.4,0,0.8-0.3,0.9-0.7l1.2-3.3C93,36.7,92.8,36.4,92.4,36.4z"/>
			<rect x="87.2" y="37" class="st5" width="0.9" height="3.7"/>
			<rect x="84.5" y="36.4" class="st5" width="1.6" height="4.7"/>
		</g>
	</g>
	<g>
		<g>
			<g>
				<path class="st28" d="M287.3,107.5l-7.9-7.2c0,0-0.5,0.6-0.3,1.2c0.5,1.6,2.5,4.7,3.7,6.1c1.7,1.8,3.7,3.3,3.7,3.3L287.3,107.5z
					"/>
				<g>
					<g>
						<path class="st28" d="M279.4,102.2l-1-0.8c0,0-0.5-0.4-0.9-1s-0.2-1.2,0.4-1.8c0.5-0.5,0.9-0.6,0.9-0.6s0.9,0.4,0.7,1.1
							c-0.1,0.8,0.7,2.5,0.4,2.6C279.6,101.9,279.4,102.2,279.4,102.2z"/>
						<polygon class="st28" points="279.2,98.2 278.2,97.1 277.2,96.2 277.1,96.4 277.7,97.2 278,98.8 278.4,98.6 						"/>
						<polygon class="st28" points="277.4,97.6 276.3,97.1 276.1,97.3 277,98 277.7,99.1 278.4,98.6 						"/>
						<polygon class="st28" points="275.9,97.8 276.8,98.2 277.4,98.3 277.8,98.9 277.4,99.5 277,98.8 275.9,98.1 						"/>
						<polygon class="st28" points="275.7,98.7 277.4,99.1 277.7,99.6 277.4,100 276.7,99.5 275.8,99 						"/>
					</g>
					<path class="st28" d="M280.4,102.2c-0.5-0.6-0.4-1.4-0.4-1.4s0.2-2-0.1-2.4c-0.3-0.3-0.5-1.2-0.5-1.2s-0.3-0.3-0.4,0.5
						c-0.1,0.5,0,1,0,1s-0.6,1.1-0.5,1.5c0.1,0.7,1.4,2.1,1.4,2.1S280.5,102.3,280.4,102.2z"/>
				</g>
				<path class="st48" d="M296.8,105.4L288,107l-0.3,0.6l-0.5-0.4l-1.1,3.4l2.5,1.9l11.9-2.4c0,0,2.6-1.2,3.5-4.6
					C304.7,102.9,297.5,105.3,296.8,105.4z"/>
				<path class="st49" d="M288,111.1c0,0-0.1-2.4-0.1-3.7l-0.1,0.3l-0.5-0.4l-0.4,1.2l-0.3,1.7l0.6,0.4l0.2-0.5L288,111.1z"/>
			</g>
			<g>
				<path class="st30" d="M301,103c0,1.1,0.5,2.1,1.1,2.3c0.6,0.1,1.2,0.1,1.8,0.2c0.6,0,1.3-0.9,1.5-2c0.3-1.8,0.7-3.6,1-5.4
					c0.2-1.1,0-3.3-0.9-4.1c-0.8-0.7-1.8-0.8-2.7-0.3c-1,0.6-1.7,2.7-1.7,3.8C301.1,99.4,301.1,101.2,301,103z"/>
				<path class="st28" d="M296,119.4l-9.9,0.3c0,0,7.3,4.4,10,2.2C298.8,119.6,296,119.4,296,119.4z"/>
				<path class="st47" d="M300.6,178.4v1l5.6-0.1l0.1-2.7h-3.4C302.9,176.5,301.1,178.2,300.6,178.4z"/>
				<path class="st31" d="M304.7,130.9c0,0-2.5,16.6-5.4,23.9c-2.5,6.5-5.8-1.8-5.8-1.8l4.3-27.9l8-0.8
					C305.8,124.4,306.4,124.6,304.7,130.9z"/>
				<path class="st29" d="M299.5,125.9l-0.8,10.7l1.4,0.8c0,0,1.1,15.8,1.4,16.6c1.6,4.6,5.4,1.7,5.9,0.2s1.1-12.9,0.8-21.1
					c-0.4-8.3-0.4-8.3-0.4-8.3L299.5,125.9z"/>
				<path class="st29" d="M301.8,149.7c0,0-0.6,2.8-0.4,8.2c0.1,3.4,0.7,12.3,1.4,19c0,0.4,3.4,0,3.4,0s1.6-21.7,1.7-25.9
					C307.9,149.7,304.4,146.7,301.8,149.7z"/>
				<path class="st49" d="M300.7,103.8l5.2-1.2l2.7,3c0,0,2,2.7,2,8.7s-2,17.1-2,17.1l-12-3.8C296.7,127.5,297.2,106.5,300.7,103.8z
					"/>
				<path class="st48" d="M307.1,105.4c0,0,2.3,1.2,1.2,4.6c-1.9,5.9-5.8,10.7-6.6,11.6c-0.7,1-3.3,3.3-5.1,2.5
					c-1.7-0.8-1.7-0.8-1.7-0.8l-0.1-3.9l1.1-0.1l0.7-0.1c0,0,2.4-3.8,4.4-7.5C303.1,108,307.1,105.4,307.1,105.4z"/>
				<polygon class="st48" points="301.2,103.6 302.1,106.1 306.8,103.6 306.3,102.2 				"/>
				<polygon class="st48" points="301,102.9 301.1,103.5 300,105 300,103.8 				"/>
				<path class="st31" d="M294.8,152.6c0,0,0.9,0.3,3.9,0.3s-3.3,24-3.3,24l-4.2-1.5l2.5-24L294.8,152.6z"/>
				<path class="st47" d="M295.1,176.7l-0.4,2.1h-2.1c0,0-1.6,0-2,0s-2.8,0.1-2.8,0.1v-0.8c0,0,3.3-1.2,3.9-2.5
					C292.4,174.4,295.1,176.7,295.1,176.7z"/>
				<g>
					<path class="st31" d="M302.7,92.5l-0.1-1.3l-0.5,0.1l-1.4,0.1l-0.8,0.1c-0.9,0.1-1.6,0.9-1.5,1.8l0.1,1.3l0.5-0.1l1.4-0.1
						l0.8-0.1C302.1,94.2,302.8,93.4,302.7,92.5z"/>
					<path class="st28" d="M306,99.9c0.1,0.8-0.5,1.5-1.3,1.6l-3.4,0.3c-0.8,0.1-1.5-0.5-1.6-1.3l-0.6-6.7c-0.1-0.8,0.5-1.5,1.3-1.6
						l3.4-0.3c0.8-0.1,1.5,0.5,1.6,1.3L306,99.9z"/>
					<path class="st31" d="M302.7,91.2c0.6-0.1,1.1,0.2,1.5,0.6l0.6-0.1c0.7-0.1,1.3,0.5,1.4,1.2l0.3,3.2l-0.9,0.1l-0.1-1.3
						c0-0.5-0.5-0.9-1-0.8l-0.5,0.1l-1.4,0.1l-0.8,0.1c-0.9,0.1-1.7-0.6-1.8-1.5l-0.1-1.4L302.7,91.2z"/>
					<path class="st28" d="M305.3,97.1c0-0.4,0.3-0.8,0.7-0.9h0.1c0.4,0,0.8,0.3,0.9,0.7l0.1,1c0,0.4-0.3,0.8-0.7,0.9h-0.1
						c-0.3,0-0.6-0.1-0.8-0.4"/>
				</g>
			</g>
			<g>
				<path class="st28" d="M287.2,119.8c0,0,0.2-1.7-0.1-2.1c-0.3-0.4-1.6-1.6-1.6-1.6l-0.3-0.3c0,0-0.5,0.2,0.4,1.1
					c0.9,0.8,0.2,0.7,0.2,0.7l-1-0.4l-1.3-0.4l-0.6-0.3c0,0-0.3-0.2-0.4-0.2c-0.3,0.1-0.1,0.3-0.1,0.3l2.1,1.3l-2.2-0.6
					c0,0-0.3,0-0.4,0.1s0,0.2,0,0.2l2.4,1.3l-1.2-0.2c0,0-0.3,0-0.4,0.1c-0.1,0.2-0.1,0.2-0.1,0.2l4.4,1.3L287.2,119.8z"/>
				<path class="st28" d="M284.2,118.2l-1.6-0.3c0,0-0.3-0.1-0.5-0.1c-0.2,0.1-0.2,0.3-0.2,0.3l2.3,0.7L284.2,118.2z"/>
			</g>
		</g>
	</g>
	<g>
		<path class="st29" d="M175,58.6c0,0,9.5,0,13.1,0.1c2.5,0,2.8-3.6,1.8-4.1c-3-1.6-12.5-2.5-12.5-2.5L171,58
			C171,57.9,171.3,57.9,175,58.6z"/>
		<path class="st35" d="M183.9,39.2c0,0,2.4-0.7,3.5,2.5c1.6,4.9,1.5,9.4,1.3,10.3c-0.1,0.4-0.4,2-3.1,2c-1.1,0-0.7-2.3-0.7-2.3
			s-0.7-2-1.5-5.4C182.6,42.9,183.9,39.2,183.9,39.2z"/>
		<path class="st50" d="M185.8,39.5l-6.2-2l-4.7-0.3l-5.2,1.6c0,0-1.7,1.2-0.1,4.9c1.6,3.8,1,9.6,1,9.6l13.4,0.4
			c0,0,0.3-5.4,1.1-10.9C185.2,41.6,185.2,40.2,185.8,39.5z"/>
		<path class="st35" d="M176.7,53.5h0.7c0.7-5.2,0.7-10.7-0.1-15.9c-0.2,0.1-0.4,0.2-0.6,0.4C176.8,43.3,176.5,48.6,176.7,53.5z"/>
		<g>
			<path class="st30" d="M179.3,39c-0.1,0.7-0.7,1.3-1.3,1.4c-0.6,0-1.2,0-1.8,0s-1.2-0.7-1.3-1.4c-0.1-1.2-0.3-2.4-0.4-3.6
				c-0.1-0.7,0.3-2.1,1.3-2.6c0.9-0.4,1.8-0.4,2.7,0s1.4,1.9,1.3,2.6C179.6,36.6,179.5,37.8,179.3,39z"/>
		</g>
		<polygon class="st35" points="177.1,40.4 175.9,42.3 173.9,39.7 174.2,38.4 174.9,37.8 174.9,38.8 		"/>
		<polygon class="st35" points="177.2,40.4 178.3,42.3 180.2,39.9 179.9,38.4 179.4,37.8 179.2,39 		"/>
		<g>
			<path class="st31" d="M176.9,30.6c-0.5,0-0.9,0.3-1.2,0.6h-0.5c-0.6,0-1.1,0.5-1.1,1.1V35h0.8v-1.1c0-0.4,0.3-0.8,0.8-0.8h0.4
				h-0.7h0.5c0.8,0,1.4-0.6,1.4-1.4v-1.2L176.9,30.6L176.9,30.6z"/>
			<path class="st30" d="M175.5,36c0,0.4-0.3,0.7-0.7,0.7h-0.1c-0.4,0-0.7-0.3-0.7-0.7v-0.8c0-0.4,0.3-0.7,0.7-0.7h0.1
				c0.3,0,0.5,0.2,0.6,0.4"/>
			<path class="st31" d="M176.3,31.6v-1.1h0.4h1.2h0.7c0.8,0,1.4,0.6,1.4,1.4V33h-0.4h-1.2h-0.7C176.9,33.1,176.3,32.4,176.3,31.6z"
				/>
			<path class="st28" d="M179.8,37c0,0.6-0.4,1.5-1.1,1.8c-1,0.4-2.1,0.4-3.1,0c-0.7-0.3-1.1-1.3-1.1-1.8c0-1.6,0-3.2,0-4.8
				c0-0.6,0.6-1,1.3-1.1c1,0,1.9,0,2.8,0c0.7,0,1.3,0.5,1.3,1.1C179.8,33.8,179.8,35.4,179.8,37z"/>
			<path class="st31" d="M177.7,30.6c0.5,0,0.9,0.3,1.2,0.6h0.5c0.6,0,1.1,0.5,1.1,1.1V35h-0.8v-1.1c0-0.4-0.3-0.8-0.8-0.8l0,0h0.3
				H178c-0.8,0-1.4-0.6-1.4-1.4v-1.2L177.7,30.6L177.7,30.6z"/>
			<path class="st28" d="M179,35.2c0-0.4,0.3-0.7,0.7-0.7h0.1c0.4,0,0.7,0.3,0.7,0.7V36c0,0.4-0.3,0.7-0.7,0.7h-0.1
				c-0.3,0-0.5-0.2-0.6-0.4"/>
			<path class="st31" d="M176.5,31.9c0-0.1,0-0.2,0-0.3v-1.1h-0.4h-0.6c-0.8,0-1.4,0.6-1.4,1.4V33h0.3h0.2h0.6c0.1,0,0.2,0,0.3,0
				C175.5,32.5,175.9,32,176.5,31.9z"/>
		</g>
		<path class="st47" d="M164.1,76.7c-0.1,0.2,0,0.6,0,0.6s2.5,0.3,3.4,0.1c0.2,0,0.6-0.2,0.9-0.4c0.1,0,0.2-0.2,0.2-0.3
			c0.1-0.1,0.2,0,0.2,0c0.2-0.1,0.4-0.3,0.4-0.3c0.2-1.2-0.1-1.6-0.1-1.6s-2.2-0.7-2.6-0.2C165.6,75.8,164.4,76.3,164.1,76.7z"/>
		<path class="st47" d="M187.9,75.4l0.2,1.9l1.9,0.2c0,0,0.1-0.3,0.3-0.2c0.1,0,0.3,0.3,0.5,0.3c0.4,0,0.9,0.1,1,0.1
			c0.4,0,3.9,0.4,3.9,0.4s0.1-0.4,0-0.5c0-0.1-0.4-0.2-0.6-0.3c-1-0.4-3.7-1.5-4.1-2.5C190.5,73.5,187.9,75.4,187.9,75.4z"/>
		<g>
			<path class="st28" d="M185,51l-6.5,2.7c0,0,4.6,0.7,7.5,0.1C188,53.4,185.1,50.9,185,51z"/>
		</g>
		<path class="st29" d="M170.2,55.1c0,0-0.6,6-0.5,9.1c0.1,2.4,0.1,6.9-0.5,10.8c0,0.2-3.1,0.1-3.1,0.1s-1.1-14.8-1.4-17.2
			C164.4,55.4,165.3,53.7,170.2,55.1z"/>
		<path class="st31" d="M189.3,56.5c0,0-1,1.5-3.7,1.9c-1,0.1,1.6,17.3,1.6,17.3l4-1.3l-0.8-18.9L189.3,56.5z"/>
		<path class="st31" d="M178.4,58.4c0,0-5.2,0.7-8.6,1.1c-1.3,0.1-2.4-3.4-2.5-3.6c-0.9-1-1.8-0.8-1.8-0.9c0.7-0.8,4.6-1.6,8.7-2.5
			c4-0.9,4.7-0.4,4.7-0.4L178.4,58.4z"/>
		<path class="st29" d="M174.1,52.6c-4,1-7.9,1.7-8.7,2.5c0,0,0.9-0.1,1.8,0.9c0,0,0.3,1.2,0.4,1.6c-0.7-1.2,8.9-4.5,10.9-5.4
			C178.2,52,177.1,51.9,174.1,52.6z"/>
		<polygon class="st31" points="169.6,58.4 169.2,70 168.8,72.6 168.8,70 168.9,68.3 168,65.7 167.5,59.7 168.2,59.9 168.1,57.3 		
			"/>
		<path class="st29" d="M189.1,55.1l1,0.3l0.4,13.9l-2,5l1-3.4l-0.4-7c0,0-1.4,3.4-1.4,3.2c0-0.2,1.2-7.4,1.2-7.4s-1.3,1.1-1.2,1.1
			C187.7,60.7,188.4,55.7,189.1,55.1z"/>
		<path class="st50" d="M172.5,38.8c0,0-2.1-1.6-4.1,1.4c-3,4.4-4.3,9.1-4.8,10.5c-0.4,1-0.2,4,1.1,5.2c0.3,0.3,2.1,0.1,2.1,0.1
			l1.2-0.8l-0.5-0.9v-0.7c0,0,1.5-3.6,3.3-6.9C172.5,43.2,172.5,38.8,172.5,38.8z"/>
		<g>
			<path class="st28" d="M167.5,52.4l6.8,0.4c0,0-6.5,3-6.7,2.5C166.3,52.3,167.5,52.4,167.5,52.4z"/>
			<g>
				<path class="st28" d="M171.2,52.2c0.4-0.2,0.4-0.2,0.4-0.2s0.4,0.4,0.9,0.5c0.3,0,1.1,0.1,1.1,0.1h1.2h0.6c0,0,0.3,0,0.4,0
					c0.3,0.2,0,0.3,0,0.3l-2.2,0.3l2.1,0.3c0,0,0.3,0.1,0.3,0.2c0,0.1-0.1,0.1-0.1,0.1l-2.5,0.3l1.1,0.3c0,0,0.3,0.1,0.3,0.2
					c0,0.2,0,0.2,0,0.2l-2.3-0.2C172.5,54.5,170.8,52.3,171.2,52.2z"/>
				<path class="st28" d="M173.6,53.5l1.5,0.3c0,0,0.3,0,0.5,0.1s0.1,0.3,0.1,0.3l-2.3-0.2L173.6,53.5z"/>
			</g>
		</g>
		<g>
			<path class="st38" d="M183,54.7L183,54.7v-0.4h-13.3v0.4l0,0v0.1c0.2,0.4,0.6,0.4,1.1,0.4h11C182.4,55.2,182.8,55.2,183,54.7
				L183,54.7z"/>
			<g>
				<rect x="172" y="54.4" class="st51" width="8.8" height="0.3"/>
			</g>
			<g>
				<path class="st52" d="M183,54.3v-8.7c0-0.2-0.2-0.4-0.4-0.4h-12.5c-0.2,0-0.4,0.2-0.4,0.4v8.7H183z"/>
				<path class="st38" d="M177.2,49.7c0,0.4-0.4,0.8-0.8,0.8c-0.4,0-0.8-0.4-0.8-0.8c0-0.4,0.4-0.8,0.8-0.8
					C176.9,48.9,177.2,49.3,177.2,49.7z"/>
			</g>
		</g>
		<polygon class="st35" points="166.6,55.7 166.1,52.8 166.9,52 168.6,52.3 168.2,55.5 		"/>
		<polygon class="st50" points="187.3,53.6 187.5,52.5 185.3,50.6 184.1,51.1 185.7,54 		"/>
	</g>
</g>
</svg>
