<?xml version="1.0" encoding="utf-8"?>
<!-- Generator: Adobe Illustrator 23.0.5, SVG Export Plug-In . SVG Version: 6.00 Build 0)  -->
<svg version="1.1" id="Layer_1" xmlns="http://www.w3.org/2000/svg" xmlns:xlink="http://www.w3.org/1999/xlink" x="0px" y="0px"
	 viewBox="0 0 222 167.1" style="enable-background:new 0 0 222 167.1;" xml:space="preserve">
<style type="text/css">
	.st0{opacity:0.8;fill:#5437E2;}
	.st1{opacity:0.2;}
	.st2{opacity:0.8;}
	.st3{fill:#FFFFFF;fill-opacity:0;}
	.st4{opacity:6.666700e-02;fill:#FFFFFF;enable-background:new    ;}
	.st5{opacity:0.1333;fill:#FFFFFF;enable-background:new    ;}
	.st6{opacity:0.2;fill:#FFFFFF;enable-background:new    ;}
	.st7{opacity:0.2667;fill:#FFFFFF;enable-background:new    ;}
	.st8{opacity:0.3333;fill:#FFFFFF;enable-background:new    ;}
	.st9{opacity:0.4;fill:#FFFFFF;enable-background:new    ;}
	.st10{fill:#32C67B;}
	.st11{fill:url(#SVGID_1_);}
	.st12{enable-background:new    ;}
	.st13{clip-path:url(#SVGID_3_);enable-background:new    ;}
	.st14{fill:#82A4A8;}
	.st15{fill:#7E9FA3;}
	.st16{fill:#7A9A9E;}
	.st17{fill:#64D9E8;}
	.st18{fill:#8FEDFF;}
	.st19{fill:#C5F9FF;}
	.st20{fill:#AAD6DB;}
	.st21{fill:#EA4BBD;}
	.st22{fill:#EFB185;}
	.st23{fill:#111114;}
	.st24{fill:#43008D;}
	.st25{fill:#37007F;}
	.st26{fill:#FF61CB;}
	.st27{fill:#FEFFFF;}
	.st28{fill:#DD9569;}
	.st29{fill:#F2B78F;}
	.st30{fill:#E6A376;}
	.st31{fill:#231202;}
	.st32{fill:#B4B9BC;}
	.st33{fill:#7D8183;}
	.st34{fill:#E3E5E5;}
	.st35{fill:#BDBBBB;}
	.st36{fill:#D2D0D0;}
	.st37{fill:#D5DFE6;}
	.st38{fill:#E9F0F4;}
</style>
<g>
	<path class="st0" d="M186.3,54.3c-41.8-24.1-109.6-24.1-151.5,0C-7,78.4-7,117.6,34.8,141.7c41.8,24.2,109.6,24.2,151.5,0
		S228.1,78.4,186.3,54.3z"/>
	<g>
		<g class="st1">
			<path d="M190.8,78.5c2.5,1.4,2.5,3.8,0,5.2l-5,2.9L94,140.3l-7.7,4.5c-2.5,1.5-6.5,1.5-9,0L23.6,114c-2.5-1.4-2.5-3.8,0-5.2
				L128,47.7c2.5-1.5,6.5-1.5,9,0L190.8,78.5z"/>
		</g>
		<g>
			<g class="st2">
				<path class="st3" d="M201.4,31.9c0,11.9-9.7,21.6-21.6,21.6c-11.9,0-21.6-9.7-21.6-21.6s9.7-21.6,21.6-21.6
					C191.8,10.3,201.4,19.9,201.4,31.9z"/>
				<path class="st4" d="M198.2,31.9c0,10.1-8.2,18.4-18.4,18.4c-10.1,0-18.4-8.2-18.4-18.4c0-10.1,8.2-18.4,18.4-18.4
					C190,13.6,198.2,21.8,198.2,31.9z"/>
				<path class="st5" d="M194.9,32c0,8.3-6.8,15.1-15.1,15.1s-15.1-6.8-15.1-15.1s6.8-15.1,15.1-15.1
					C188.2,16.9,194.9,23.7,194.9,32z"/>
				<path class="st6" d="M191.7,32.1c0,6.5-5.3,11.8-11.8,11.8s-11.8-5.3-11.8-11.8s5.3-11.8,11.8-11.8S191.7,25.6,191.7,32.1z"/>
				<path class="st7" d="M188.4,32.2c0,4.7-3.8,8.5-8.5,8.5s-8.5-3.8-8.5-8.5s3.8-8.5,8.5-8.5C184.6,23.6,188.4,27.4,188.4,32.2z"/>
				<path class="st8" d="M185.2,32.2c0,2.9-2.4,5.3-5.3,5.3c-2.9,0-5.3-2.4-5.3-5.3s2.4-5.3,5.3-5.3C182.8,27,185.2,29.3,185.2,32.2
					z"/>
				<path class="st9" d="M181.9,32.3c0,1.1-0.9,2-2,2s-2-0.9-2-2c0-1.1,0.9-2,2-2C181.1,30.3,181.9,31.2,181.9,32.3z"/>
			</g>
			<g>
				<g>
					<path class="st10" d="M102,19.4c2.2-1.3,4.5,0.7,5.4,8.5c1,7.8,2.7,9.4,4.8,8.1c2.9-1.7,6.4-8.3,9.8-11
						c0.3-0.2,0.5-0.4,0.8-0.5c4-2.3,1.8,7.9,7.7,6.8c0.5-0.1,1-0.3,1.4-0.5c4.7-2.7,4.5-13.5,7.8-20.6c1-2.2,2.2-3.7,3.4-4.4
						c3-1.7,6.4,1.7,9.7,12.1c1,3.2,3.5,2.8,5.8,1.4c2.6-1.5,4.9-4,5.1-4.2c-0.1,0.3-1.9,15-6.6,17.7c-2.1,1.2-4.7,0-8-6
						c-0.7-1.2-1.3-1.5-2-1.2c-2.5,1.5-4.6,13.6-5.7,19.8c-0.5,2.9-1.9,5-3.5,5.9c-2.5,1.5-5.5-0.4-5.6-7.3
						c-0.2-9.2-8.8,6.9-11.7-7.7c-0.4-1.9-0.8-2.5-1.3-2.3c-1.7,1-3.8,14.3-3.7,19.7c0.1,6.6-1.7,10.4-3.8,11.6
						c-2.1,1.2-4.5-0.5-5.2-5c-1.1-6.8-2.6-8.1-4.6-6.9c-1.3,0.7-2.7,2.5-4.4,4.3c-1.6,1.8-3.4,3.8-5.3,4.9
						c-0.8,0.5-1.6,0.8-2.5,0.9c-0.5,0.1-1,0.2-1.4,0.4c-3.8,2.2,0.1,12.1-5.1,20.2c-1.3,2-2.4,3.2-3.5,3.8c-4,2.3-6.5-3.9-7.3-9.8
						c-0.3-2.6-1.2-3.2-2.2-2.6c-2,1.1-4.8,6.7-6.5,11.4c-0.5,1.5-1.1,2.3-1.6,2.7c-2,1.1-3.7-4.9-4.1-8.9C58,79.8,58,79.5,58,79.5
						s0,1.1-0.3,2.3c-0.3,1.2-0.9,2.7-2.1,3.3c-1,0.6-2.3,0.7-4.2-0.2c-0.6-0.3-1-0.3-1.4,0c-1.9,1.1-1.6,7.5-4.4,14.8
						c-1.1,2.9-2.2,4.4-3.2,5c-2.3,1.3-4.2-2.2-4.5-7c-0.4-8.6-8-5.2-11-3.4c-0.8,0.4-1.2,0.8-1.3,0.8c0.6-0.6,12.8-11.4,16.2-13.5
						c2.3-1.3,4.5-2.2,6.9-3.6c1.2-0.7,2.4-1.5,3.7-2.5c3.9-3,2.6-17.5,7.6-20.4c5.4-2.8,4.6,9.3,8.8,11.1c1.2,0.5,2.1,0.6,2.7,0.2
						c1.6-0.9,1.7-4.4,2.1-10.2c0.5-7.5,3.8-18.3,7.8-20.6c0.3-0.2,0.6-0.3,1-0.4c4.6-1.1,2.8,17.9,7,17.3c0.3,0,0.6-0.2,0.9-0.3
						c3.4-2,4.2-12.2,6.2-21.9C97.6,25.1,99.8,20.6,102,19.4z"/>
				</g>
				<g>
					
						<linearGradient id="SVGID_1_" gradientUnits="userSpaceOnUse" x1="27.0692" y1="117.2505" x2="176.232" y2="117.2505" gradientTransform="matrix(1 0 0 -1 0 167.8898)">
						<stop  offset="0" style="stop-color:#E3D969"/>
						<stop  offset="0.1535" style="stop-color:#E4BE71"/>
						<stop  offset="0.4039" style="stop-color:#E6997C"/>
						<stop  offset="0.6364" style="stop-color:#E87E84"/>
						<stop  offset="0.8423" style="stop-color:#E96E88"/>
						<stop  offset="1" style="stop-color:#E9688A"/>
					</linearGradient>
					<path class="st11" d="M98.6,12c8.8-5.1,0.7,27.2,10,24.8c1.6-0.4,3-1,4.2-1.7c7.5-4.3,6-12.9,11.5-16.1c6.2-3.6,7,11,12.2,8
						c0.2-0.1,0.4-0.2,0.5-0.4c5.1-3.9,8.1-13.4,12.8-16.1c5.3-3.1,4.8,9.4,9.9,6.4c1-0.6,2.3-1.8,3.9-4c1.4-1.9,2.9-3.2,4.3-4
						c4.5-2.6,8.1-0.6,8.3-0.5c-0.3,0.2-5.1,3.2-10.9,6.5c-4.4,2.6-8,8.9-10.2,13.2c-1.6,3.1-3,4.7-4.3,5.5c-2.1,1.2-4,0.1-6.2-0.8
						c-2.1-1-4.4-1.8-7.5-0.1c-1.3,0.7-2.6,1.9-4.2,3.7c-4.2,5-2.9,14.8-10.9,19.5c-5.3,3.1-8-0.2-11.7-3.8c-2-2-4.1-2.7-5.8-1.7
						c-1.5,0.9-2.8,3.1-3.5,7.1c-1.3,7.2-1.1,16.4-4.8,18.5c-0.6,0.4-1.3,0.5-2.2,0.4c-6.3-0.7-5.3-13.5-11.8-10.1
						c-0.1,0.1-0.3,0.1-0.4,0.2c-8.5,4.9-7.7,17.1-14.4,23c-0.9,0.8-1.7,1.4-2.4,1.8c-3.4,2-4.7-0.5-6.3-4.9
						c-1.5-4.2-4.2-7.2-8.8-4.6c-1.1,0.6-2.2,1.5-3.5,2.8c-1.2,1.2-2.4,2.1-3.5,2.8c-2.2,1.3-4.3,1.6-6.4,2c-2.1,0.4-4.2,0.7-6.4,2
						c-0.5,0.3-1.1,0.7-1.6,1.1c-1,0.7-1.4,1.1-1.6,1.2c-0.6,0.3,11-9,13.3-11.8c2.2-2.8,4.7-8.4,8.7-10.7c1.1-0.7,2.4-1,3.8-1
						c4.6,0.2,6.5,2,9.1,0.5c0.9-0.5,1.9-1.5,3.2-3.1c4.7-6,5.7-21.6,12.7-25.9c7-4,5,6.1,9.4,4.5C91.6,43.6,90,16.9,98.6,12z"/>
				</g>
			</g>
			<g>
				<g class="st12">
					<g>
						<defs>
							<path id="SVGID_2_" d="M166,18.6l17,9.9c-0.3-0.2-0.6-0.3-0.9-0.4l-17-9.9C165.4,18.3,165.7,18.5,166,18.6z"/>
						</defs>
						<clipPath id="SVGID_3_">
							<use xlink:href="#SVGID_2_"  style="overflow:visible;"/>
						</clipPath>
						<g class="st13">
							<path class="st14" d="M182.1,28.1l-17-9.9c0.1,0,0.2,0.1,0.4,0.1l17,9.9C182.4,28.2,182.2,28.1,182.1,28.1L182.1,28.1z"/>
							<path class="st15" d="M182.5,28.2l-17-9.9c0.2,0.1,0.4,0.2,0.5,0.3l17,9.9C182.8,28.4,182.7,28.3,182.5,28.2L182.5,28.2z"/>
							<path class="st16" d="M183,28.5l-17-9.9c0,0,0,0,0.1,0L183,28.5L183,28.5L183,28.5z"/>
						</g>
					</g>
				</g>
				<path class="st17" d="M176,37.9L159,28c1,0.6,1.5,1.8,1.5,3.7c0,0.6,0,1.1-0.1,1.7c0,0.1,0,0.1,0,0.2c-0.1,0.5-0.2,1-0.4,1.5
					v0.1c-0.2,0.5-0.4,1.1-0.6,1.6c0,0,0,0,0,0.1c-0.2,0.5-0.5,1-0.9,1.5c0,0,0,0.1-0.1,0.1c-0.3,0.5-0.6,0.9-1,1.4l-0.1,0.1
					c-0.3,0.4-0.7,0.8-1.1,1.2c-0.3,0.3-0.7,0.6-1.1,0.9c-0.2,0.1-0.3,0.3-0.5,0.4c-0.6,0.4-1.2,0.8-1.8,1.2
					c-0.4,0.3-0.8,0.5-1.2,0.7c-0.1,0-0.1,0.1-0.2,0.1c-0.4,0.2-0.7,0.3-1,0.5c-0.2,0.1-0.4,0.2-0.6,0.2l17,9.9
					c0.2-0.1,0.4-0.1,0.6-0.2l0,0c0.3-0.1,0.6-0.3,1-0.5c0.1,0,0.2-0.1,0.3-0.2c0.4-0.2,0.7-0.4,1.2-0.6c0.6-0.4,1.2-0.8,1.8-1.2
					c0.2-0.1,0.4-0.3,0.5-0.4c0.4-0.3,0.7-0.6,1.1-0.9c0.1,0,0.1-0.1,0.2-0.1c0.3-0.3,0.6-0.6,0.8-0.9l0.1-0.1l0.1-0.1
					c0.1-0.1,0.2-0.3,0.3-0.4c0.1-0.2,0.3-0.4,0.4-0.6c0.1-0.1,0.2-0.3,0.3-0.4c0,0,0,0,0-0.1c0,0,0,0,0-0.1
					c0.1-0.2,0.2-0.3,0.3-0.5s0.2-0.3,0.3-0.5s0.2-0.3,0.2-0.5c0,0,0,0,0-0.1l0,0c0.1-0.1,0.1-0.3,0.2-0.4c0.1-0.2,0.1-0.3,0.2-0.5
					c0.1-0.2,0.1-0.4,0.2-0.5c0-0.1,0-0.1,0.1-0.2V45c0-0.1,0.1-0.2,0.1-0.3c0.1-0.2,0.1-0.5,0.2-0.7c0-0.2,0.1-0.3,0.1-0.5
					c0-0.1,0-0.1,0-0.2c0-0.1,0-0.1,0-0.2c0.1-0.5,0.1-1,0.1-1.5C177.5,39.8,177,38.5,176,37.9z"/>
				<path class="st18" d="M172.1,30.3c0.6-0.3,1.1-0.6,1.7-0.8c0.1,0,0.2-0.1,0.2-0.1c0.4-0.2,0.9-0.4,1.3-0.5
					c0.2-0.1,0.3-0.1,0.5-0.2c0.5-0.2,0.9-0.3,1.3-0.4h0.1c0.2-0.1,0.5-0.1,0.7-0.2c0.3-0.1,0.5-0.1,0.8-0.2
					c0.4-0.1,0.8-0.1,1.2-0.1c0.1,0,0.2,0,0.2,0c0.3,0,0.6,0,0.9,0c0.1,0,0.1,0,0.2,0c0.3,0.1,0.7,0.1,1,0.2l-17-9.9
					c-0.1,0-0.1,0-0.2-0.1c-0.2-0.1-0.4-0.1-0.6-0.1c-0.1,0-0.1,0-0.2,0c-0.1,0-0.1,0-0.2,0c-0.1,0-0.2,0-0.4,0s-0.4,0-0.6,0
					c-0.1,0-0.1,0-0.2,0h-0.1c-0.3,0-0.7,0.1-1.1,0.1l0,0c-0.3,0-0.6,0.1-0.8,0.2c-0.2,0-0.4,0.1-0.6,0.1l0,0h-0.1
					c-0.4,0.1-0.9,0.3-1.3,0.4c-0.2,0.1-0.3,0.1-0.5,0.2s-0.4,0.1-0.6,0.2c-0.2,0.1-0.4,0.2-0.6,0.3c-0.1,0-0.2,0.1-0.3,0.1
					c-0.5,0.2-1.1,0.5-1.6,0.8c-0.1,0.1-0.2,0.1-0.4,0.2c-0.6,0.3-1.2,0.6-1.8,1c-5.5,3.2-9.4,5.8-12.2,8l17,9.9
					c2.8-2.1,6.7-4.8,12.2-8c0.6-0.4,1.2-0.7,1.8-1C171.9,30.4,172,30.4,172.1,30.3z"/>
				<g>
					<g>
						<polygon class="st17" points="157.9,84.6 140.9,74.7 140.7,29.5 157.8,39.4 						"/>
					</g>
				</g>
				<g>
					<g>
						<path class="st19" d="M182.1,28.1c2.5,0.8,4.3,3.6,4.3,8.1s-1.3,9.1-3.6,13c-3.1,5.1-7.6,9.2-12.9,12.3
							c-1.2,0.7-2.3,1.2-3.1,1.6v16.4l-8.9,5.2l-0.1-45.2c2.8-2.1,6.7-4.8,12.2-8C175.5,28.3,179.4,27.2,182.1,28.1z M169.8,53.6
							c4.8-2.8,7.7-7.3,7.7-11.9c0-4.2-2.6-5.3-7.1-2.7c-1.8,1.1-3.1,2-3.7,2.6v13.5C167.5,54.8,168.5,54.4,169.8,53.6L169.8,53.6z"
							/>
					</g>
				</g>
				<g class="st12">
					<g>
						<polygon class="st17" points="141,94.3 124,84.4 123.9,38.7 140.9,48.6 						"/>
					</g>
					<g>
						<g>
							<polygon class="st18" points="140.9,48.6 123.9,38.7 132.9,33.4 149.9,43.3 							"/>
						</g>
					</g>
					<g>
						<polygon class="st19" points="149.9,43.3 150.1,89.1 141,94.3 140.9,48.6 						"/>
					</g>
				</g>
				<path class="st17" d="M125.3,84.6c0-0.1,0-0.2,0-0.4c0.1-0.5,0.1-1,0.1-1.5c0-0.2,0-0.4,0-0.6c0-0.7,0.1-1.3,0.1-2
					c0-5-1.3-8.9-3.7-10.3l-17-9.9c2.4,1.4,3.7,5.3,3.7,10.3c0,0.7,0,1.3-0.1,2c0,0.2,0,0.4,0,0.6c0,0.5-0.1,1-0.1,1.5
					c0,0.2,0,0.4-0.1,0.5c-0.1,0.8-0.2,1.5-0.4,2.3c0,0.2-0.1,0.4-0.1,0.6c-0.1,0.4-0.2,0.7-0.3,1.1c-0.1,0.2-0.1,0.5-0.2,0.7
					s-0.1,0.5-0.2,0.7c-0.1,0.3-0.2,0.6-0.3,0.8c-0.1,0.2-0.1,0.3-0.2,0.5c-0.2,0.4-0.3,0.8-0.5,1.2c0,0.1-0.1,0.1-0.1,0.2
					c-0.2,0.4-0.3,0.7-0.5,1.1c0,0.1-0.1,0.2-0.1,0.3c-0.2,0.4-0.4,0.7-0.6,1.1c0,0.1-0.1,0.1-0.1,0.2c-0.2,0.3-0.4,0.7-0.6,1
					l-0.1,0.1c-0.2,0.3-0.5,0.7-0.7,1c-0.1,0.1-0.2,0.2-0.2,0.3c-0.2,0.2-0.4,0.4-0.5,0.6c-0.1,0.1-0.3,0.3-0.4,0.4
					s-0.3,0.2-0.4,0.4c-0.3,0.3-0.6,0.5-0.9,0.8c-0.1,0.1-0.2,0.2-0.4,0.3c-0.4,0.3-0.9,0.6-1.3,0.9c-0.4,0.2-0.8,0.4-1.1,0.6
					c-0.1,0.1-0.2,0.1-0.4,0.1c-0.2,0.1-0.4,0.1-0.6,0.2c-0.1,0-0.3,0.1-0.4,0.1s-0.2,0-0.3,0.1c-0.2,0-0.3,0.1-0.5,0.1
					c-0.1,0-0.2,0-0.2,0c-0.2,0-0.3,0-0.5,0c-0.1,0-0.1,0-0.2,0c-0.2,0-0.4,0-0.6-0.1h-0.1c-0.2,0-0.3-0.1-0.5-0.1h-0.1
					c-0.2-0.1-0.4-0.2-0.6-0.3l17,9.9l0,0c0.1,0.1,0.3,0.2,0.4,0.2h0.1h0.1c0.1,0,0.2,0.1,0.2,0.1c0.1,0,0.2,0,0.3,0.1h0.1h0.1
					c0.2,0,0.3,0,0.5,0.1c0,0,0,0,0.1,0c0,0,0,0,0.1,0s0.3,0,0.4,0s0.1,0,0.2,0s0.1,0,0.2,0s0.1,0,0.2,0s0.2,0,0.3-0.1
					c0.1,0,0.2,0,0.3-0.1c0.1,0,0.1,0,0.2,0s0.1-0.1,0.2-0.1c0.2-0.1,0.4-0.1,0.6-0.2c0.1,0,0.1,0,0.2-0.1l0.1-0.1
					c0.4-0.2,0.7-0.3,1.1-0.6c0.5-0.3,0.9-0.6,1.3-0.9c0.1-0.1,0.3-0.2,0.4-0.3c0.3-0.2,0.6-0.5,0.9-0.8c0.1-0.1,0.2-0.1,0.2-0.2
					c0.1-0.1,0.1-0.1,0.2-0.2s0.3-0.3,0.4-0.4s0.2-0.2,0.3-0.3c0.1-0.1,0.2-0.2,0.3-0.3c0.1-0.1,0.1-0.2,0.2-0.3
					c0.1-0.1,0.1-0.1,0.2-0.2c0.2-0.2,0.4-0.5,0.5-0.7l0,0c0,0,0,0,0-0.1c0.1-0.2,0.3-0.4,0.4-0.6c0.1-0.1,0.2-0.3,0.3-0.5l0.1-0.1
					l0.1-0.1c0.1-0.3,0.3-0.5,0.4-0.8c0-0.1,0.1-0.1,0.1-0.2s0.1-0.2,0.1-0.2c0.1-0.1,0.1-0.2,0.2-0.4c0.1-0.3,0.2-0.5,0.4-0.8
					c0,0,0,0,0-0.1l0,0c0.1-0.3,0.3-0.7,0.4-1c0-0.1,0-0.1,0.1-0.2s0.1-0.3,0.2-0.4c0.1-0.2,0.1-0.4,0.2-0.5c0-0.1,0.1-0.2,0.1-0.4
					c0.1-0.2,0.1-0.4,0.2-0.7c0-0.1,0.1-0.3,0.1-0.4s0-0.2,0.1-0.3c0.1-0.4,0.2-0.7,0.3-1.1c0-0.1,0.1-0.3,0.1-0.4s0-0.1,0-0.2
					c0.2-0.7,0.3-1.5,0.4-2.3C125.2,84.8,125.3,84.7,125.3,84.6z"/>
				<path class="st18" d="M96.9,93.9c0-0.6,0.1-1.1,0.2-1.7c0.1-1,0.3-2,0.5-3.1c0.1-0.4,0.2-0.8,0.3-1.2c0.1-0.4,0.2-0.8,0.3-1.3
					c0.2-0.6,0.3-1.1,0.5-1.7c0.1-0.2,0.1-0.4,0.2-0.7c0.2-0.8,0.5-1.5,0.8-2.2c0.1-0.2,0.1-0.3,0.2-0.5c0.2-0.6,0.5-1.2,0.8-1.8
					c0.1-0.2,0.2-0.3,0.2-0.5c0.3-0.7,0.7-1.4,1-2.1c0.1-0.1,0.1-0.3,0.2-0.4c0.3-0.6,0.7-1.2,1-1.7c0.1-0.1,0.2-0.3,0.3-0.4
					c0.4-0.7,0.8-1.3,1.3-1.9c0.1-0.1,0.2-0.3,0.3-0.4c0.3-0.5,0.7-0.9,1.1-1.4c0.2-0.3,0.4-0.5,0.7-0.8c0.3-0.3,0.6-0.7,0.9-1
					c0.4-0.4,0.7-0.8,1.1-1.2c0.3-0.3,0.6-0.6,0.9-0.9c0.2-0.2,0.4-0.4,0.7-0.6c0.4-0.3,0.8-0.7,1.1-1c0.2-0.2,0.5-0.4,0.7-0.6
					c0.4-0.3,0.9-0.7,1.3-1c0.2-0.1,0.4-0.3,0.6-0.4c0.7-0.4,1.3-0.9,2-1.3c0.6-0.4,1.3-0.7,1.9-1c0.2-0.1,0.4-0.2,0.5-0.3
					c0.5-0.2,0.9-0.4,1.4-0.6c0.1,0,0.2-0.1,0.3-0.1c0.5-0.2,1-0.3,1.6-0.5c0.2-0.1,0.5-0.1,0.7-0.2c0.3-0.1,0.7-0.1,1-0.2
					c0.2,0,0.4,0,0.5-0.1c0.4,0,0.7,0,1,0c0.1,0,0.3,0,0.4,0c0.5,0,0.9,0.1,1.3,0.1h0.1c0.4,0.1,0.8,0.2,1.1,0.3
					c0.1,0,0.2,0.1,0.3,0.1c0.4,0.2,0.8,0.3,1.1,0.5c0,0-0.1,0-0.1-0.1l-8.1-4.7l-8.8-5.1c0,0-0.1,0-0.1-0.1
					c-0.3-0.2-0.6-0.3-0.8-0.4c-0.1,0-0.1,0-0.2-0.1c-0.1,0-0.2-0.1-0.3-0.1c-0.1,0-0.2-0.1-0.4-0.1c-0.2-0.1-0.4-0.1-0.7-0.2
					c-0.1,0-0.1,0-0.2,0c0,0,0,0-0.1,0c-0.3-0.1-0.7-0.1-1-0.1c-0.1,0-0.1,0-0.2,0s-0.3,0-0.4,0c-0.2,0-0.3,0-0.5,0s-0.4,0-0.5,0.1
					c-0.2,0-0.3,0-0.5,0.1c-0.1,0-0.2,0-0.3,0c-0.2,0-0.5,0.1-0.7,0.2c-0.2,0.1-0.5,0.1-0.7,0.2c-0.1,0-0.1,0-0.2,0
					c-0.4,0.1-0.9,0.3-1.3,0.4c-0.1,0-0.2,0.1-0.3,0.1c-0.2,0.1-0.5,0.2-0.7,0.3s-0.5,0.2-0.7,0.3S101.1,51,101,51
					c-0.6,0.3-1.2,0.6-1.9,1c-0.7,0.4-1.3,0.8-2,1.3c-0.2,0.1-0.4,0.3-0.6,0.5c-0.4,0.3-0.9,0.6-1.3,1c-0.2,0.2-0.5,0.4-0.7,0.6
					c-0.4,0.3-0.8,0.6-1.1,1c-0.2,0.2-0.5,0.4-0.7,0.7c-0.1,0.1-0.3,0.2-0.4,0.4c-0.2,0.2-0.3,0.3-0.5,0.5c-0.4,0.4-0.8,0.8-1.2,1.2
					c-0.1,0.1-0.2,0.3-0.4,0.4c-0.2,0.2-0.3,0.4-0.5,0.6c-0.2,0.3-0.4,0.5-0.7,0.8c-0.1,0.1-0.2,0.2-0.3,0.4c-0.3,0.3-0.5,0.7-0.8,1
					c-0.1,0.2-0.2,0.3-0.3,0.5L87.5,63c-0.4,0.5-0.7,1-1,1.5c-0.1,0.1-0.1,0.2-0.2,0.3c-0.1,0.1-0.2,0.3-0.3,0.4
					c-0.2,0.3-0.3,0.5-0.5,0.8s-0.4,0.7-0.5,1c-0.1,0.1-0.1,0.2-0.2,0.4c0,0.1-0.1,0.1-0.1,0.2c-0.3,0.5-0.5,1-0.8,1.6
					c-0.1,0.1-0.1,0.2-0.2,0.3c-0.1,0.2-0.2,0.4-0.2,0.5c-0.1,0.3-0.2,0.5-0.3,0.8c-0.1,0.3-0.3,0.7-0.4,1c-0.1,0.2-0.1,0.3-0.2,0.5
					c0,0.1-0.1,0.1-0.1,0.2c-0.2,0.6-0.5,1.3-0.7,1.9v0.1c-0.1,0.2-0.1,0.4-0.2,0.6c-0.2,0.5-0.3,1-0.4,1.4c0,0.1-0.1,0.2-0.1,0.3
					c-0.1,0.4-0.2,0.8-0.3,1.2c-0.1,0.3-0.2,0.7-0.2,1c0,0.1,0,0.2,0,0.3c-0.2,1-0.4,2-0.5,3.1c0,0,0,0,0,0.1
					c-0.1,0.6-0.1,1.1-0.2,1.7c0,0.3-0.1,0.5-0.1,0.8c-0.1,0.9-0.1,1.7-0.1,2.5c0,7,2,12,5.7,14.2l17,9.9c-3.7-2.1-5.7-7.2-5.7-14.2
					c0-0.8,0-1.7,0.1-2.5C96.9,94.5,96.9,94.2,96.9,93.9z"/>
				<g>
					<path class="st19" d="M116.1,62.1c12.2-7.1,18.9-0.4,19,12.2c0,15-7.8,28.7-19.5,35.4c-11.8,6.8-18.8,0.6-18.8-12.5
						C96.7,83.6,104.3,68.9,116.1,62.1z M116,101.3c6.1-3.5,9.5-12.2,9.5-21.1c0-8.2-3.5-13.3-9.7-9.7c-6.1,3.5-9.6,12.2-9.6,21.1
						C106.3,100.6,110,104.8,116,101.3L116,101.3z"/>
				</g>
				<g>
					<polygon class="st20" points="76.4,121.6 59.4,111.7 59.6,111.6 76.6,121.5 					"/>
				</g>
				<path class="st18" d="M68.1,70.8l-5,22.5c-0.3,1.2-0.5,2.3-0.8,3.5c0,0.1,0,0.3-0.1,0.4c-0.5,2.1-0.9,4.2-1.3,6.4
					c-0.1,0.4-0.2,0.9-0.3,1.3c-0.4,2.2-0.8,4.4-1.2,6.7l17,9.9c0.4-2.2,0.8-4.4,1.2-6.6c0.1-0.5,0.2-0.9,0.3-1.4
					c0.4-2.1,0.8-4.2,1.3-6.3c0.3-1.3,0.6-2.6,0.8-3.9l5-22.5L68.1,70.8z"/>
				<g>
					<polygon class="st17" points="85.2,80.7 68.1,70.8 77.7,65.3 94.8,75.2 					"/>
				</g>
				<g>
					<polygon class="st18" points="58,96.4 41,86.5 50.9,80.8 67.9,90.7 					"/>
				</g>
				<g>
					<polygon class="st17" points="70.9,134.8 53.9,124.9 41,86.5 58,96.4 					"/>
				</g>
				<g>
					<path class="st19" d="M94.8,75.2l-13.3,53.5L71,134.8L58,96.4l9.9-5.7l4.9,16.6c1.4,4.6,2.6,9.2,3.6,14.3l0.2-0.1
						c1-6.1,2.2-12.2,3.6-18.3l5-22.5L94.8,75.2z"/>
				</g>
			</g>
			<g>
				<path class="st21" d="M113.4,32.9c0,0-2,0.1-2.1,2.3s1.3,12,3.5,14.1c2.2,2.1,2.5-2.5,2.5-2.5S116.9,32.7,113.4,32.9z"/>
				<path class="st22" d="M125.6,49.2c0,0,2.7,0.7,4.6,0.1c1.9-0.6,1.5-0.7,1.3-1c-0.3-0.6-2.7-0.6-3.1-0.8
					c-0.4-0.2,0.4-0.4,0.6-0.7c0.2-0.3,0.7-0.6,0.5-0.7c-0.1-0.1-0.5-0.2-1.2,0.3s-2.5,1.1-2.5,1.1L125.6,49.2z"/>
				<path class="st21" d="M126.2,47.1c0,0-0.2,0.5-0.2,1.2c-0.1,0.8,0.3,1.4,0.3,1.4s-8.9,1.1-11.1-0.2c0,0-1.9-3.5,1.4-4.1
					L126.2,47.1z"/>
				<path class="st21" d="M115.9,49.9c-0.2,0-0.4-0.1-0.7-0.3l0,0l0,0c-0.1-0.1-0.2-0.1-0.3-0.2c-2.2-2.1-3.6-11.8-3.5-14.1
					c0-0.4,0.1-0.8,0.2-1c0.5,2.5,3.1,14.1,4.1,14.4c0.9,0.3,7.8,0.3,10.3,0.4c0.1,0.5,0.2,0.7,0.2,0.7S118.8,50.7,115.9,49.9z"/>
				<g>
					<path class="st23" d="M123.5,76.6c0,0-0.5,1.8,0.8,2.2c1.2,0.4,2.3,0.9,2.8,1.3s5.8,2.6,6.5,1.5c0.6-1.1-1-2.3-1.4-2.6
						c-0.4-0.4-4.1-3.5-4.1-3.5L123.5,76.6z"/>
					<path class="st23" d="M119.2,79.7c0,0-0.5,1.8,0.8,2.2c1.2,0.4,2.3,0.9,2.7,1.3c0.5,0.4,5.8,2.6,6.5,1.5c0.6-1.1-1-2.3-1.4-2.6
						c-0.4-0.4-4.1-3.5-4.1-3.5L119.2,79.7z"/>
					<path class="st24" d="M114.3,51.3c0,0,13.2,8.1,13.5,10.1c0.4,2.1,0.5,14.4,0.5,14.4s-3.3,1.5-5,0.6l-1.5-11.6
						c0,0-10.4-7.5-10.8-7.7C110.6,56.8,114.3,51.3,114.3,51.3z"/>
					<path class="st25" d="M111.1,57.1c0.5,0.3,10.8,7.7,10.8,7.7l1.5,11.6c0.8,0.4,2,0.3,3,0.1c-0.5-3.5-1.6-11.2-2-13.2
						c-0.5-2.6-11.1-8.5-11.1-8.5l-2.1,2C111,57,111,57.1,111.1,57.1z"/>
					<path class="st24" d="M114.3,51.6c0,0-1.5,4.5-2.2,5.5c0,0,10.5,5.4,11.1,8.1s1.3,14.1,1.3,14.1s-2.3,1.5-5.5,0.5
						c0,0-1.3-8.8-1.4-12.3c0,0-15.8-4-14.8-12.7C102.8,54.8,108.9,57.1,114.3,51.6z"/>
					<path class="st25" d="M117.6,67.4c0.2,3.5,1.4,12.3,1.4,12.3c0.5,0.2,1.1,0.3,1.5,0.3c-0.1-1.4-0.2-3.2-0.4-5.5
						c-0.6-8.9-2-8.7-2-8.7C108,61.4,106,57.1,106,57.1l-3.2-1.9C102.3,63.5,117.6,67.4,117.6,67.4z"/>
				</g>
				<path class="st26" d="M107.4,33.8c0,0-5,2.6-5.1,3s-1.4,1.3,0.5,5.7c0,0,2.5,4.7,1.3,9.5c-0.7,2.8-1.3,4.2-1.3,4.2
					s2.2,3.3,8.4,0.9c1.3-0.5,3.3-2.2,4-3.6c0,0-0.6-4.1,0.1-8.8c0.7-4.8,1.1-10.9-1.6-11.7C113.7,33,113,32.1,107.4,33.8z"/>
				<path class="st27" d="M109.1,32.3c0,0,3.6,1.9,2.1,4.6l1.7,0.9C112.9,37.8,114.5,33,109.1,32.3z"/>
				<path class="st22" d="M106.8,30.4c0,0,1.5,2.3,0.4,3.9c-0.7,0.9,0.9,2.9,3.7,2.7c0,0,1.2-0.3,1.1-0.7c-0.3-1,0.1-1.6,0.5-2.3
					C112.8,33.1,106.8,30.4,106.8,30.4z"/>
				<path class="st28" d="M107.1,34.2c-0.1,0.1-0.1,0.2-0.1,0.4c1-1,3-1.1,3-1.1l-2.6-2.8c-0.1,0-0.2-0.1-0.3-0.1l-0.1,0.3
					C107.4,31.5,108,33.1,107.1,34.2z"/>
				<path class="st29" d="M111.9,36.2c-0.3-1.6,0.1-1.6,0.5-2.3c0.1-0.2-0.3-0.6-0.9-1c-0.1,0.1-0.3,0.3-0.4,0.5
					c-1,1.6-1,2.9-0.9,3.6c0.2,0,0.4,0,0.6,0C111.1,36.9,111.9,36.7,111.9,36.2z"/>
				<g>
					<path class="st22" d="M106.2,29.1c0,0,0.7,3.1,2.8,4.4c1.9,1.2,4.1,2,4.4-0.2c0.3-1.8,1.1-6.3-0.5-7.2c-2-1.1-2.8-2.6-5.1-1.7
						C107.9,24.4,105.2,25.6,106.2,29.1z"/>
					<path class="st30" d="M106.2,29.1c0,0,0.3,2.6,2.8,4.5c0.5,0.4,1.2,0.7,1.8,0.9c-1-0.7-1.1-0.9-1.9-1.8
						c-0.8-0.9,1.1-0.6-0.2-2.8c-0.4-0.8,1.7,0.2,2.2,0.2c2.9-0.1,2.6-1.7,2.7-2.4c-0.1-0.3-0.1-0.6-0.2-0.8l-0.3-0.5l-0.1-0.1
						c-0.3-0.4-0.6-0.7-0.9-1c-1.2,0-4.7,0.2-4.8,0.2c-0.1,0-0.6,0.8-1.2,1.6C105.9,27.5,105.9,28.2,106.2,29.1z"/>
					<path class="st31" d="M107.5,32c0,0-2.4-2.1-1.6-5.2c0,0,0.4-2.5,3.1-2.8c1.3-0.2,3.8-0.1,4.8,2.5c0.3,0.8,0.1,2.6-3.1,1.8
						c-0.5-0.1-1.7-0.3-2.1,0.1s-0.5,1.1-0.3,1.8c0.2,0.5-0.3,0.6-0.4,0.5s-0.7-1.7-1.3-1.1C106.2,30.2,107.4,31.9,107.5,32z"/>
					<path class="st31" d="M107.5,32c-0.1-0.1-1.3-1.8-0.7-2.3c0.6-0.6,1.2,0.9,1.3,1.1c0.1,0.1,0.6,0.1,0.4-0.5s-0.2-1.4,0.3-1.8
						c0.4-0.4,1.5-0.2,2.1-0.1c-0.5-0.3-1.6-0.4-2-1.3c-0.5-1.2-1.2-1.7-1.9-1.9c-0.8,0.8-0.9,1.8-0.9,1.8
						C105.1,29.9,107.5,32,107.5,32z"/>
				</g>
				<path class="st27" d="M107.5,33.5c0,0,0.6,2.7,3.7,3.4l-0.9,2.2C110.3,39,104.7,36.3,107.5,33.5z"/>
				<path class="st21" d="M102.3,36.8c-0.1,0.4-1.4,1.3,0.5,5.7c0,0,2.1,4.7,1.1,9.4c-0.4,2-0.7,1.6-1.4,3.3c-0.4,1,1.7,2.5,3.7,2.7
					c1-2.5,0.7-2.5,1.2-5.3c0.6-3.8,0.1-6.9-3-10.6c-2.8-3.3-1.6-4.6-1.7-5.5C102.4,36.6,102.3,36.7,102.3,36.8z"/>
				<path class="st31" d="M113.9,26.5c0,0,0.5,2.9-3.3,1.9c0,0-1.9-0.5-2.7-2.2c-0.2-0.4-0.6-1-1.2-1c0,0,1-1.4,3.6-1.3
					c1.2,0.1,2.5,1.2,2.8,1.4C113.4,25.5,112.9,26.8,113.9,26.5z"/>
				<g>
					<g>
						<g class="st12">
							<g>
								<polygon class="st32" points="107.9,57.4 107.8,57.9 114.8,62.7 114.8,62.2 								"/>
							</g>
							<g>
								<polygon class="st33" points="114.8,62.2 114.8,62.7 127.5,56.6 127.5,56.2 								"/>
							</g>
							<g>
								<polygon class="st34" points="107.9,57.4 114.8,62.2 127.5,56.2 120.6,51.4 								"/>
							</g>
						</g>
					</g>
					<g>
						<g class="st12">
							<g>
								<polygon class="st35" points="116.8,54.1 116.2,53.6 114.2,62.2 114.7,62.6 								"/>
							</g>
							<g>
								<polygon class="st36" points="130.1,47.8 129.6,47.3 116.2,53.6 116.8,54.1 								"/>
							</g>
							<g>
								<polygon class="st37" points="116.8,54.1 114.7,62.6 128,56.3 130.1,47.8 								"/>
							</g>
							<g>
								<polygon class="st38" points="116.8,54.1 116.8,54.1 128,56.3 130.1,47.8 								"/>
							</g>
						</g>
					</g>
				</g>
				<g>
					<path class="st22" d="M110.2,57.9c0,0,2.5,3,5.5,2.9c0,0,0.1-0.8-1.1-1.3s-1.5-1.6-1.5-1.7c0-0.1,1.1-0.1,1.5,0
						c0.5,0.1,1.1-0.5,0-0.7c-1.1-0.3-2.9-1-4-1C110.7,56.1,109.4,57.1,110.2,57.9z"/>
					<path class="st26" d="M104.4,36c0,0-2.5,0.1-3.5,2.1s-3.6,11.5-2.4,14.3s11.8,6,11.8,6c-0.5-1.8,0.9-2.9,0.9-2.9l-8.6-5.6
						C102.5,50,106.5,37.4,104.4,36z"/>
					<path class="st26" d="M102.5,50l8.6,5.6c0,0-0.2,0.2-0.5,0.6c-2.1-1.2-9-5.1-9.6-6.1c-0.6-1.1,3.1-11.8,3.7-13.4
						C105.9,39.4,102.5,50,102.5,50z"/>
				</g>
			</g>
		</g>
	</g>
</g>
</svg>
