<?xml version="1.0" encoding="utf-8"?>
<!-- Generator: Adobe Illustrator 23.0.5, SVG Export Plug-In . SVG Version: 6.00 Build 0)  -->
<svg version="1.1" id="Capa_1" xmlns="http://www.w3.org/2000/svg" xmlns:xlink="http://www.w3.org/1999/xlink" x="0px" y="0px"
	 viewBox="0 0 70.9 70.9" style="enable-background:new 0 0 70.9 70.9;" xml:space="preserve">
<style type="text/css">
	.st0{fill:#E2EBF7;}
	.st1{fill:#325C8A;}
</style>
<path class="st0" d="M69.8,35.4c0,19-15.4,34.4-34.4,34.4S1,54.4,1,35.4S16.4,1,35.4,1S69.8,16.4,69.8,35.4z"/>
<g>
	<path class="st1" d="M60.1,51.7H43c0,0.3-0.3,0.6-0.7,0.6H28.5c-0.4,0-0.6-0.3-0.7-0.6h-17c0,0.1,0,0.1,0,0.2v0.7
		c0,1.1,1,2.1,2.2,2.1h44.9c1.2,0,2.2-0.9,2.2-2.1V52C60.1,51.9,60.1,51.8,60.1,51.7z"/>
	<g>
		<path class="st1" d="M55.2,26.6h-7.1l-1.6,2.3h7.2v19.5H17.2V28.9H21c-0.5-0.7-0.8-1.5-0.9-2.3h-4.4c-0.6,0-1,0.4-1,1v22.2
			c0,0.5,0.5,1,1,1h39.6c0.6,0,1-0.4,1-1V27.6C56.3,27,55.8,26.6,55.2,26.6z"/>
	</g>
</g>
<g>
	<g>
		<path class="st1" d="M39.3,19.1c1.2,0,2.1-1.2,2.1-2.6c0-1.5-0.9-2.6-2.1-2.6c-1.1,0-2.1,1.2-2.1,2.6C37.3,18,38.2,19.1,39.3,19.1
			z"/>
		<path class="st1" d="M46.6,24.2L46.6,24.2L46.6,24.2l-3.5-3.9c-0.3-0.3-0.6-0.4-0.9-0.5c0,0-0.7-0.1-1-0.1l0.7,0.6l-1.1,0.6
			l0.5,0.9L40,24.9l-0.2-4.5l0.2-0.2l-0.3-1h-0.9l-0.3,1l0.2,0.2l-0.2,4.5l-1.4-3.2l0.5-0.9l-1.1-0.6l0.9-0.8v-0.1
			c-1-0.4-2.1-0.9-2.5-1.1L34,17.6v3.2c0.8,0.3,1.4,0.5,2,0.7c-0.1,3.2-0.2,6.3-0.3,9.5c0,0,0,0,0,0.1c0.1,0,0.2,0,0.3,0l0.3,10.2
			h2.8c0.1-3,0-8.2,0-10.2c0.1,0,0.2,0,0.3,0l0.3,10.2h2.8c0.1-3,0-8.2,0-10.2c0.1,0,0.2,0,0.3,0c0,0,0,0,0-0.1c0-0.5,0-1,0-1.5
			c0.5,0.3,1,0.6,1.6,0.9l1.2-2.4l0.6-1.2l0.3-0.6l0.1-0.3l0.1-0.1l0.1-0.1L46.6,24.2z M43.8,25.5l-0.6,1.1l-0.3,0.6
			c0-1.2-0.1-2.4-0.1-3.6l1.3,1.6L43.8,25.5z"/>
	</g>
	<g>
		<g>
			<path class="st1" d="M31.3,19.2h-8.2c-0.3,0-0.6-0.3-0.6-0.6s0.3-0.6,0.6-0.6h8.2c0.3,0,0.6,0.3,0.6,0.6S31.6,19.2,31.3,19.2
				L31.3,19.2z"/>
		</g>
		<g>
			<path class="st1" d="M31.3,21.7h-8.2c-0.3,0-0.6-0.3-0.6-0.6c0-0.3,0.3-0.6,0.6-0.6h8.2c0.3,0,0.6,0.3,0.6,0.6
				C31.9,21.4,31.6,21.7,31.3,21.7L31.3,21.7z"/>
		</g>
		<g>
			<path class="st1" d="M31.3,24.1h-8.2c-0.3,0-0.6-0.3-0.6-0.6c0-0.3,0.3-0.6,0.6-0.6h8.2c0.3,0,0.6,0.3,0.6,0.6
				C31.9,23.9,31.6,24.1,31.3,24.1L31.3,24.1z"/>
		</g>
		<g>
			<path class="st1" d="M31.3,26.6h-8.2c-0.3,0-0.6-0.3-0.6-0.6c0-0.3,0.3-0.6,0.6-0.6h8.2c0.3,0,0.6,0.3,0.6,0.6
				C31.9,26.3,31.6,26.6,31.3,26.6L31.3,26.6z"/>
		</g>
	</g>
	<path class="st1" d="M34,11.6h-9.8c-0.2,0-0.4,0.1-0.5,0.2l-3.4,3.4c-0.1,0.1-0.2,0.3-0.2,0.6v14.1c0,0.4,0.3,0.8,0.8,0.8H34
		c0.4,0,0.8-0.3,0.8-0.8V12.4C34.8,12,34.5,11.6,34,11.6z M23.7,13.9v1.3h-1.3L23.7,13.9z M33.3,29.1H21.6V16.4h2.8
		c0.3,0,0.6-0.3,0.6-0.6v-2.6h8.4v15.9H33.3z"/>
</g>
</svg>
