<?xml version="1.0" encoding="utf-8"?>
<!-- Generator: Adobe Illustrator 23.0.5, SVG Export Plug-In . SVG Version: 6.00 Build 0)  -->
<svg version="1.1" id="Capa_1" xmlns="http://www.w3.org/2000/svg" xmlns:xlink="http://www.w3.org/1999/xlink" x="0px" y="0px"
	 viewBox="0 0 474.8 302.6" style="enable-background:new 0 0 474.8 302.6;" xml:space="preserve">
<style type="text/css">
	.st0{fill:#5437E2;}
	.st1{fill:#3A4A5E;}
	.st2{fill:#D8E8F7;}
	.st3{fill:#B4CCE9;}
	.st4{fill:#325C8A;}
	.st5{clip-path:url(#SVGID_2_);}
	.st6{fill:#9EC2E7;}
	.st7{fill:#E5EBF6;}
	.st8{fill:#9FB0C4;}
	.st9{fill:#B6C8D9;}
	.st10{clip-path:url(#SVGID_5_);fill:#E5EBF6;}
	.st11{clip-path:url(#SVGID_7_);}
	.st12{fill:#5B7297;}
	.st13{fill:#42597D;}
	.st14{fill:#D8E3E0;}
	.st15{fill:#C5D1D1;}
	.st16{fill:#2C4D7D;}
	.st17{fill:#E7F1EE;}
	.st18{fill:none;stroke:#2C4D7D;stroke-width:1.6466;}
	.st19{fill:#2F4862;}
	.st20{fill:#1C1C17;}
	.st21{fill:#2B4057;}
	.st22{fill:#BF9E4B;}
	.st23{fill:#BD8E0F;}
	.st24{fill:#E0D2B6;}
	.st25{fill:#E8C882;}
	.st26{fill:#87E8DF;}
	.st27{fill:#7C5904;}
	.st28{fill:#D5C09B;}
	.st29{fill:#B7BFC6;}
	.st30{fill:#8997A1;}
	.st31{fill:#D8DDDF;}
	.st32{fill:#89A1CF;}
	.st33{fill:#EBF3FB;}
	.st34{fill:#FDBF14;}
</style>
<path class="st0" d="M366.6,36.8c-21.3,6.4-55.2,24.7-80.4,26.6c-26.5,2.1-56.4-54-117.5-57.6C121,2.9,28,27.6,4.9,121.6
	c-23.1,93.9,38.3,179.6,109.5,165.6c51.6-10.2,81.1-15.3,123-25.6c38.9-9.6,116.7,26.1,152.6,16.8c58.1-15.1,73.3-84,74.6-123.7
	C465.8,116.7,429.2,18,366.6,36.8z"/>
<g>
	<g>
		<path class="st1" d="M379.4,220.4V44.9c0-4.6-3.7-8.3-8.3-8.3h-285c-4.6,0-8.3,3.7-8.3,8.3v175.5H379.4z"/>
		<path class="st2" d="M77.3,220.8v25.4c0,4.9,4,8.8,8.9,8.8h285c4.9,0,8.9-4,8.9-8.8v-25.4H77.3z"/>
		<path class="st2" d="M280.8,292.4c0,0-2.2-1.1-4.7-2c-2.7-1-5.9-2.3-7.8-3.2c-3.3-1.6-3.6-2.6-4.9-8.1c-1.4-6-2.6-18.6-3.2-24
			h-63.1c-0.5,5.5-1.8,18.1-3.2,24c-1.2,5.5-1.5,6.5-4.9,8.1c-1.9,0.9-5.1,2.2-7.7,3.2l0,0c-2.6,1-4.7,1.7-4.7,1.7s-2,1.1,1.2,1.3
			h101.5C282.5,293.4,280.8,292.4,280.8,292.4z"/>
		<path class="st3" d="M260.9,261.6c-0.3-2.6-0.5-5-0.7-6.6h-63.1c-0.2,1.7-0.4,4-0.7,6.6H260.9z"/>
		<rect x="91.9" y="50.8" class="st4" width="273.5" height="154"/>
	</g>
	<g>
		<g>
			<g>
				<g>
					<g>
						<g>
							<g>
								<defs>
									<rect id="SVGID_1_" x="132.9" y="53.2" width="179.4" height="151.6"/>
								</defs>
								<clipPath id="SVGID_2_">
									<use xlink:href="#SVGID_1_"  style="overflow:visible;"/>
								</clipPath>
								<g class="st5">
									<rect x="143.1" y="66" class="st6" width="160.3" height="226.8"/>
									<rect x="138.5" y="60.3" class="st7" width="160.3" height="226.8"/>
									<rect x="195.7" y="78.4" class="st8" width="77.3" height="3.4"/>
									<rect x="196.2" y="254.9" class="st9" width="47.8" height="2.5"/>
									<rect x="196.2" y="259.1" class="st9" width="47.8" height="2.5"/>
									<rect x="196.2" y="263.4" class="st9" width="47.8" height="2.5"/>
									<rect x="196.2" y="254.9" class="st8" width="46.4" height="2.5"/>
									<rect x="196.2" y="259.1" class="st8" width="29.9" height="2.5"/>
									<rect x="196.2" y="263.4" class="st8" width="43.2" height="2.5"/>
									<rect x="161.9" y="223.5" class="st9" width="41.2" height="2.1"/>
									<rect x="161.9" y="227.3" class="st9" width="30.8" height="2.1"/>
									<rect x="161.9" y="231.1" class="st9" width="33.7" height="2.1"/>
									<rect x="155.5" y="255.2" class="st9" width="25.4" height="2.1"/>
									<rect x="155.5" y="259.1" class="st9" width="30.9" height="2.1"/>
									<rect x="155.5" y="262.9" class="st9" width="21.1" height="2.1"/>
									<rect x="161.9" y="235" class="st9" width="27.8" height="2.1"/>
									<rect x="161.9" y="238.8" class="st9" width="41.6" height="2.1"/>
									<rect x="155.3" y="223.5" class="st9" width="3.3" height="2.1"/>
									<rect x="155.3" y="227.3" class="st9" width="3.3" height="2.1"/>
									<rect x="155.3" y="231.1" class="st9" width="3.3" height="2.1"/>
									<rect x="155.3" y="235" class="st9" width="3.3" height="2.1"/>
									<rect x="155.3" y="238.8" class="st9" width="3.3" height="2.1"/>
									<rect x="174.9" y="135.6" class="st8" width="66.4" height="2.1"/>
									<rect x="155.4" y="135.6" class="st8" width="7" height="2.1"/>
									<rect x="174.9" y="139.5" class="st9" width="103.7" height="2.1"/>
									<rect x="174.9" y="143.3" class="st9" width="41.6" height="2.1"/>
									<rect x="174.9" y="147.1" class="st9" width="47.4" height="2.1"/>
									<rect x="174.9" y="151" class="st9" width="39.1" height="2.1"/>
									<rect x="174.9" y="159.2" class="st8" width="45.7" height="2.1"/>
									<rect x="155.4" y="159.2" class="st8" width="7" height="2.1"/>
									<rect x="174.9" y="163" class="st9" width="59" height="2.1"/>
									<rect x="174.9" y="166.8" class="st9" width="41.6" height="2.1"/>
									<rect x="174.9" y="170.7" class="st9" width="47.4" height="2.1"/>
									<rect x="174.9" y="179.4" class="st8" width="90.5" height="2.1"/>
									<rect x="155.4" y="179.4" class="st8" width="7" height="2.1"/>
									<rect x="174.9" y="183.2" class="st9" width="103.7" height="2.1"/>
									<rect x="174.9" y="187" class="st9" width="97.5" height="2.1"/>
									<rect x="174.9" y="195.1" class="st8" width="90.5" height="2.1"/>
									<rect x="155.4" y="195.1" class="st8" width="7" height="2.1"/>
									<rect x="163.6" y="135.6" class="st8" width="7" height="2.1"/>
									<rect x="163.6" y="159.2" class="st8" width="7" height="2.1"/>
									<rect x="163.6" y="179.4" class="st8" width="7" height="2.1"/>
									<rect x="163.6" y="195.1" class="st8" width="7" height="2.1"/>
									<rect x="174.9" y="198.9" class="st9" width="103.7" height="2.1"/>
									<rect x="174.9" y="202.7" class="st9" width="97.5" height="2.1"/>
									<rect x="155.3" y="127.4" class="st8" width="34.9" height="3.4"/>
									<rect x="155.3" y="217.1" class="st8" width="26.2" height="3.4"/>
									<rect x="155.3" y="248.5" class="st8" width="26.2" height="3.4"/>
									<rect x="226.9" y="223.5" class="st9" width="49.6" height="2.1"/>
									<rect x="226.9" y="227.3" class="st9" width="30.9" height="2.1"/>
									<rect x="226.9" y="231.1" class="st9" width="33.7" height="2.1"/>
									<rect x="226.9" y="235" class="st9" width="27.8" height="2.1"/>
									<rect x="220.3" y="223.5" class="st9" width="3.3" height="2.1"/>
									<rect x="220.3" y="227.3" class="st9" width="3.3" height="2.1"/>
									<rect x="220.3" y="231.1" class="st9" width="3.3" height="2.1"/>
									<rect x="220.3" y="235" class="st9" width="3.3" height="2.1"/>
									<rect x="220.3" y="217.1" class="st8" width="26.2" height="3.4"/>
									<rect x="195.7" y="87.8" class="st9" width="33.3" height="2.1"/>
									<rect x="195.7" y="91.6" class="st9" width="32.2" height="2.1"/>
									<rect x="233.9" y="87.8" class="st9" width="33.3" height="2.1"/>
									<rect x="233.9" y="91.6" class="st9" width="32.2" height="2.1"/>
									<rect x="195.7" y="106.4" class="st9" width="75.2" height="2.1"/>
									<rect x="195.7" y="110.2" class="st9" width="53.7" height="2.1"/>
									<rect x="195.7" y="114.3" class="st9" width="40.8" height="2.1"/>
									<g>
										<g>
											<g>
												<g>
													<g>
														<g>
															<g>
																<rect id="SVGID_3_" x="155" y="78.4" class="st7" width="33.5" height="41.6"/>
															</g>
															<g>
																<defs>
																	<rect id="SVGID_4_" x="155" y="78.4" width="33.5" height="41.6"/>
																</defs>
																<clipPath id="SVGID_5_">
																	<use xlink:href="#SVGID_4_"  style="overflow:visible;"/>
																</clipPath>
																<rect x="155" y="78.4" class="st10" width="33.5" height="41.6"/>
															</g>
														</g>
													</g>
												</g>
											</g>
										</g>
										<g>
											<g>
												<g>
													<g>
														<g>
															<g>
																<defs>
																	<rect id="SVGID_6_" x="155" y="78.4" width="33.5" height="41.6"/>
																</defs>
																<clipPath id="SVGID_7_">
																	<use xlink:href="#SVGID_6_"  style="overflow:visible;"/>
																</clipPath>
																<g class="st11">
																	<path class="st12" d="M171.5,123.9c7.7,0,14.9-1.1,21.3-3.1l-1.6-12.1c-0.2-1.5-2.9-2.5-6.2-2.9
																		c-9.1-1-18.1-1-27.1,0c-3.3,0.4-4.9,1.4-5.1,2.9l-2.7,12.1C157.7,123.1,165,123.9,171.5,123.9z"/>
																	<path class="st13" d="M192.8,120.8l-1.6-12.1c-0.2-1.5-2.9-2.5-6.2-2.9c-4.7-0.5-9.4-0.8-14.1-0.7l-4.2,6.1
																		l16.8,11.7C186.8,122.4,189.9,121.7,192.8,120.8z"/>
																	<path class="st14" d="M177.4,108c-0.2,2.7-3,4.7-6.3,4.7l0,0c-3.3,0-6.1-1.9-6.3-4.7c-0.1-1.4-0.2-2.8-0.3-4.2
																		c-0.2-2.7,2.7-5.3,6.5-5.3l0,0c3.8,0,6.7,2.6,6.5,5.3C177.6,105.2,177.5,106.6,177.4,108z"/>
																	<path class="st15" d="M173.3,98.8c-1.6,0.8-2.7,3.4-2.7,6.6c0,1.9,0,3.9,0,5.8c0,0.5,0,0.9,0.1,1.4
																		c0.1,0,0.3,0,0.4,0c3.3,0,6.1-1.9,6.3-4.7c0-0.8,0.1-1.5,0.1-2.3c0.1-1.6-0.1-3.1-0.5-4.3
																		C176.3,100.3,175,99.3,173.3,98.8z"/>
																	<path class="st16" d="M171.2,84.2L171.2,84.2L171.2,84.2L171.2,84.2L171.2,84.2c-7-0.1-8.7,4.5-8.3,12.5
																		c0.2,3.1,0.9,5.4,1.6,7.2c0.2,0.6,3.7,4.7,4.7,4.7c0.5,0,1.3,0.2,2,0.1c0.7,0,1.5-0.1,1.9-0.1
																		c1.1,0,4.5-4.1,4.7-4.7c0.7-1.8,1.4-4.1,1.6-7.2C179.8,88.9,177.5,84,171.2,84.2z"/>
																	<path class="st14" d="M164.9,98.8c0,0.8-0.4,1.6-1,1.6l0,0c-0.6,0.1-1.1-0.5-1.1-1.4c-0.1-1.3-0.1-2.7-0.2-4
																		c0-0.8,0.4-1.6,1-1.7l0,0c0.6-0.1,1.1,0.5,1.1,1.4C164.8,96.1,164.8,97.5,164.9,98.8z"/>
																	<path class="st14" d="M179.3,99.1c0,0.8-0.5,1.4-1.1,1.4l0,0c-0.6-0.1-1-0.8-1-1.6c0-1.3,0.1-2.7,0.2-4
																		c0-0.8,0.5-1.5,1.1-1.4l0,0c0.6,0.1,1.1,0.8,1,1.7C179.5,96.4,179.4,97.8,179.3,99.1z"/>
																	<path class="st17" d="M177.8,95.1c-0.2-3.6,0.3-7,0.3-7s-3.4-1.8-6.1-1.7c-0.3,0-0.6,0.1-0.9,0.2
																		c-0.3-0.1-0.6-0.2-0.9-0.2c-2.7-0.1-6.1,1.7-6.1,1.7s0.5,3.3,0.3,7c-0.2,3.6-0.7,6.8,0.5,7.8s3.3,3.3,6,3.5
																		c0.1,0,0.1,0,0.2,0c0,0,0.1,0,0.2,0c2.7-0.1,4.8-2.4,6-3.5C178.4,101.9,177.9,98.8,177.8,95.1z"/>
																	<path class="st14" d="M178.8,88.2c0,0-3.7-1.8-6.7-1.7c-0.2,0-0.5,0.1-0.7,0.1c0,6.6,0,13.2-0.1,19.8
																		c3-0.1,5.2-2.4,6.5-3.4s0.8-4.2,0.6-7.8C178.2,91.5,178.8,88.2,178.8,88.2z"/>
																	<g>
																		<path class="st16" d="M163.3,94.9c0,0-0.7-7.7-1.2-8.4c-0.5-0.8,6.7-2.4,8.8-2.4c2.1-0.1,4,0.5,5.3,0.8
																			c1.2,0.2-4.7,4.9-4.6,4.9c0.1-0.4,0.3-0.8,0.4-1.2c-0.4,0.3-0.9,0.7-1.3,1c-1.8-0.5-3.7-0.9-5.5-1.3c0,1,0,2,0,3
																			c-0.4,0.5-0.7,1-1.1,1.5c-0.1,0.7-0.2,1.3-0.2,2C163.6,94.9,163.5,94.9,163.3,94.9z"/>
																		<path class="st16" d="M178.9,94.9c0,0,0.9-7.7,1.2-8.4c0.4-0.9-6.7-2.4-8.8-2.4c-2.1-0.1-3.9,0.5-5.1,0.8
																			c-0.8,0.1,6.2-0.2,8.2,1c0.7,0.4-2,3.7-2,3.7c1.5-0.5,3.1-0.9,4.7-1.3c0,1,0,2,0,3c0.4,0.5,0.7,1,1.1,1.5
																			c0.1,0.7,0.2,1.3,0.2,2C178.5,94.9,178.7,94.9,178.9,94.9z"/>
																	</g>
																	<g>
																		<g>
																			<path class="st18" d="M169.1,94.3c-1.7-0.4-3.6-0.4-5.3,0.2c0,0.1-0.1,0.3-0.1,0.4c0,0.2,0,0.4,0,0.6
																				c-0.1,1.3,1.1,2.5,2.6,2.5c0.4,0,0.7,0,1.1,0c1.5-0.1,2.7-1.2,2.6-2.5c0-0.2,0-0.4,0-0.6
																				C170,94.6,169.1,94.3,169.1,94.3z"/>
																			<path class="st18" d="M178.1,94.3c-1.7-0.4-3.6-0.4-5.3,0.2c0,0.1-0.1,0.3-0.1,0.4c0,0.2,0,0.4,0,0.6
																				c-0.1,1.3,1.1,2.5,2.6,2.5c0.4,0,0.7,0,1.1,0c1.5-0.1,2.7-1.2,2.6-2.5c0-0.2,0-0.4,0-0.6
																				C179,94.6,178.1,94.3,178.1,94.3z"/>
																		</g>
																		<rect x="169.8" y="94.8" class="st16" width="3" height="1.3"/>
																	</g>
																	<path class="st16" d="M174.9,101.9c-0.4-0.5-1.5-1-3-1l-0.5,0.3c-0.1,0-0.5-0.3-0.5-0.3c-1.5,0-2.6,0.5-3,1
																		c-2.2,4.2-3,0.5-4-0.7c1.6,3.8,3.1,6.5,7.3,7.1h0.1c0,0,1.3-0.2,1.4-0.2c2.6,0,4.5-3.2,6.1-7
																		C177.9,102.3,177,106,174.9,101.9z"/>
																	<g>
																		<path class="st17" d="M169.6,102.7c0,0.1,0,0.1,0,0.2c0,0.6,0.5,1,1.1,1h1.3c0.6,0,1.1-0.4,1.1-1
																			c0-0.1,0-0.2,0-0.2H169.6z"/>
																	</g>
																</g>
															</g>
														</g>
													</g>
												</g>
											</g>
										</g>
									</g>
								</g>
							</g>
						</g>
					</g>
				</g>
			</g>
		</g>
	</g>
	<g>
		<path class="st19" d="M330.9,205.1c0,0,21.5,0,29.8,0.2c5.7,0.1,6.3-8.1,4-9.3c-6.9-3.7-28.4-5.7-28.4-5.7l-14.6,13.4
			C321.7,203.7,322.5,203.7,330.9,205.1z"/>
		<path class="st20" d="M306.1,246.2c-0.3,0.4-0.1,1.5-0.1,1.5s5.8,0.6,7.7,0.2c0.5-0.1,1.3-0.5,2.1-1c0.1-0.1,0.4-0.5,0.5-0.6
			c0.2-0.1,0.4,0.1,0.6,0c0.5-0.3,0.9-0.6,0.9-0.6c0.5-2.7-0.2-3.7-0.2-3.7s-4.9-1.6-5.9-0.5C309.5,244.2,306.9,245.4,306.1,246.2z"
			/>
		<path class="st20" d="M360.3,243.3l0.4,4.4l4.4,0.4c0,0,0.3-0.6,0.7-0.5c0.3,0,0.7,0.7,1.1,0.7c0.9,0.1,1.9,0.2,2.4,0.2
			c0.8,0.1,8.8,0.9,8.8,0.9s0.3-0.9,0.1-1.2c-0.1-0.2-0.8-0.5-1.3-0.7c-2.2-0.9-8.5-3.5-9.4-5.7C366.2,239,360.3,243.3,360.3,243.3z
			"/>
		<path class="st19" d="M320,197.2c0,0-1.4,13.5-1.2,20.7c0.2,5.4,0.2,15.7-1.1,24.5c-0.1,0.5-7,0.1-7,0.1s-2.5-33.5-3.2-39.1
			C306.8,197.9,308.9,194,320,197.2z"/>
		<path class="st21" d="M363.3,200.4c0,0-2.2,3.5-8.3,4.3c-2.2,0.3,3.5,39.2,3.5,39.2l9-2.9l-1.7-43.1L363.3,200.4z"/>
		<path class="st21" d="M338.5,204.8c0,0-11.8,1.7-19.6,2.5c-2.9,0.3-5.4-7.8-5.7-8.1c-2.1-2.2-4.2-1.9-4.1-2
			c1.7-1.8,10.5-3.5,19.7-5.7s10.6-0.8,10.6-0.8L338.5,204.8z"/>
		<polygon class="st21" points="318.7,204.7 317.8,231 316.9,237.1 316.8,231 317,227.2 314.9,221.3 313.8,207.6 315.4,208.2 
			315.2,202.2 		"/>
		<path class="st19" d="M363,197.2l2.2,0.6l0.8,31.6l-4.6,11.3l2.2-7.7l-0.9-15.9c0,0-3.2,7.7-3.2,7.3s2.7-16.7,2.7-16.7
			s-3,2.5-2.7,2.4C359.8,210,361.3,198.7,363,197.2z"/>
		<path class="st19" d="M328.8,191.5c-9.2,2.2-18,3.9-19.7,5.7c-0.1,0.1,2-0.2,4.1,2c0.1,0.1,0.6,2.7,1,3.6
			c-1.5-2.7,20.1-10.3,24.8-12.3C338.1,190.2,335.6,189.9,328.8,191.5z"/>
		<path class="st22" d="M326.8,160.2c0,0-8.4,1.4-9.4,3.2c-5.7,10.7-9.7,20.8-10.8,23.9c-0.8,2.4-3,11.2,2.4,11.9
			c0.9,0.1,4.7-0.8,4.7-0.8l2.6-0.9l-1.1-2.1l-0.1-1.7c0,0,3.4-8.1,7.5-15.8C326.8,170.2,326.8,160.2,326.8,160.2z"/>
		<path class="st22" d="M348.7,161.2c0,0,6.6,0.1,7.9,5.7c2.7,11,2.3,13,2.9,23.4c0.1,1-0.1,3.8-6.2,3.9c-2.5,0.1-2.4-4.6-2.4-4.6
			s-1.6-4.6-3.3-12.3C345.8,169.5,348.7,161.2,348.7,161.2z"/>
		<path class="st23" d="M353.6,162.4l-12.2-5.1l-10.7-0.7l-11.7,5.5c0,0-1.9,0.3-1.2,9.5c0.7,9.6,3,21.7,3,21.7l30.4,1
			c0,0-0.8-17.5,0.6-25.4C352.2,166,352.2,163.9,353.6,162.4z"/>
		<g>
			<path class="st24" d="M353.6,188l-14.8,6.1c0,0,10.5,1.5,17.1,0.2C360.3,193.3,353.8,187.8,353.6,188z"/>
		</g>
		<g>
			<path class="st24" d="M313.8,191l15.4,0.8c0,0-14.8,6.8-15.3,5.6C311.1,190.8,313.8,191,313.8,191z"/>
			<g>
				<path class="st24" d="M322.2,190.5c0.9-0.4,0.8-0.4,0.8-0.4s0.8,1,2,1.2c0.6,0.1,2.5,0.1,2.5,0.1l2.8,0.1l1.3-0.1
					c0,0,0.7-0.1,0.9,0c0.6,0.4,0.1,0.7,0.1,0.7l-5.1,0.7l4.9,0.6c0,0,0.6,0.2,0.6,0.5s-0.2,0.3-0.2,0.3l-5.7,0.6l2.5,0.6
					c0,0,0.6,0.2,0.6,0.5c0.1,0.4,0.1,0.4,0.1,0.4l-5.2-0.5C325.3,195.8,321.3,191,322.2,190.5z"/>
				<path class="st24" d="M327.8,193.7l3.4,0.6c0,0,0.8,0.1,1.1,0.3c0.4,0.3,0.2,0.6,0.2,0.6l-5.2-0.4L327.8,193.7z"/>
			</g>
		</g>
		<path class="st25" d="M312.1,198.5c0,0-5,2.7-4.7-7.2c0-1.6,6.5-1.2,6.5-1.2l7.6,0.4l2.3,5.7L312.1,198.5z"/>
		<path class="st25" d="M314.4,194.3l8.2-1.1l-1.1-2.7l-7.6-0.4c0,0-0.8-0.3-3.9,0.9C305.3,194,314.4,194.3,314.4,194.3z"/>
		<path class="st25" d="M357.9,194c0,0,1.5-2,1.4-2.6c-0.6-3.7-4.9-4.4-4.9-4.4l-11.3,3l2.6,5.7L357.9,194z"/>
		<path class="st26" d="M329.2,159.1c0,0,12.4-3.8,12.6,0.1c0.3,3.9-2,20.6-3.1,23.2c-1.2,2.6-5.2-2.1-7.2-10.6
			S329.2,159.1,329.2,159.1z"/>
		<path class="st27" d="M330.8,160.6l2.7,11.2l0.3,9.4l-5.3-14.9l1.4-1.4l-2.2-0.1c0,0,0.1-5.3,1.6-7c1.4-1.7,4-1.5,2.7-0.4
			C330.6,158.5,330.8,160.6,330.8,160.6z"/>
		<path class="st27" d="M340.9,157.3c0,0,2-0.1,2.6,1.6c0.7,1.7,1.2,5.6,1.2,5.6l-2,0.9l1.6,1.4l-5.9,16.2c0,0,0.4-13,0.9-15.6
			C339.9,164.7,340.9,157.3,340.9,157.3z"/>
		<g>
			<g>
				<path class="st28" d="M340.7,160.6c-0.2,1.6-1.5,3.1-3,3.1c-1.3,0-2.7,0-4,0c-1.4-0.1-2.7-1.5-3-3.1c-0.3-2.7-0.7-5.4-1-8.1
					c-0.2-1.6,0.7-4.9,2.9-5.8c2-0.9,4.2-0.9,6.1,0c2.1,1,3.1,4.2,2.9,5.8C341.4,155.2,341.1,157.9,340.7,160.6z"/>
			</g>
			<g>
				<path class="st21" d="M335.2,141.5c-1.1,0-2.1,0.6-2.7,1.5h-1.1c-1.4,0-2.5,1.1-2.5,2.5v6.1h1.7V149c0-1,0.8-1.7,1.8-1.7h1h-1.6
					h1.1c1.8,0,3.2-1.4,3.2-3.2v-2.6H335.2z"/>
				<path class="st28" d="M332.1,153.8c0,0.8-0.7,1.5-1.5,1.5h-0.1c-0.8,0-1.5-0.7-1.5-1.5V152c0-0.8,0.7-1.5,1.5-1.5h0.1
					c0.6,0,1.2,0.4,1.4,0.9"/>
				<path class="st21" d="M333.8,143.9v-2.4h1h2.7h1.6c1.8,0,3.2,1.4,3.2,3.2v2.4h-1h-2.7H337C335.2,147.1,333.8,145.7,333.8,143.9z
					"/>
				<path class="st24" d="M341.8,156.2c0,1.3-1,3.4-2.6,4.1c-2.2,0.9-4.8,0.9-7,0c-1.6-0.7-2.6-2.8-2.6-4.1c0-3.6,0-7.2,0-10.9
					c0-1.3,1.3-2.4,2.9-2.4c2.2,0,4.3,0,6.5,0c1.6,0,2.9,1.1,2.9,2.4C341.8,148.9,341.8,152.5,341.8,156.2z"/>
				<path class="st21" d="M337,141.5c1.1,0,2.1,0.6,2.7,1.5h1.1c1.4,0,2.5,1.1,2.5,2.5v6.1h-1.8V149c0-1-0.8-1.7-1.7-1.7l0,0h0.6
					h-2.8c-1.8,0-3.2-1.4-3.2-3.2v-2.6H337z"/>
				<path class="st24" d="M340.1,152c0-0.8,0.7-1.5,1.5-1.5h0.1c0.8,0,1.5,0.7,1.5,1.5v1.9c0,0.8-0.7,1.5-1.5,1.5h-0.1
					c-0.6,0-1.2-0.4-1.4-0.9"/>
				<path class="st21" d="M334.3,144.5c0-0.2,0.1-0.4,0.1-0.6v-2.4h-1h-1.3c-1.8,0-3.2,1.4-3.2,3.2v2.4h0.7h0.3h1.3
					c0.2,0,0.4,0,0.7-0.1C332.1,145.8,333,144.8,334.3,144.5z"/>
			</g>
		</g>
		<g>
			<path class="st29" d="M349.2,196.3L349.2,196.3v-1H319v1l0,0l0.1,0.2c0.5,0.8,1.4,1,2.5,1h25c1.1,0,2-0.1,2.5-1L349.2,196.3z"/>
			<g>
				<rect x="324" y="195.6" class="st30" width="20" height="0.7"/>
			</g>
			<g>
				<path class="st31" d="M349.1,195.4l0.1-19.8c0-0.5-0.4-0.9-0.9-0.9H320c-0.5,0-0.9,0.4-1,0.9l-0.1,19.8H349.1z"/>
				<path class="st29" d="M335.9,185.1c0,1-0.8,1.8-1.8,1.8s-1.8-0.8-1.8-1.8s0.8-1.8,1.8-1.8C335.1,183.2,335.9,184,335.9,185.1z"
					/>
			</g>
		</g>
	</g>
	<g>
		<g>
			<g>
				<path class="st32" d="M385.4,106.5c0,0.9-0.7,1.7-1.7,1.7h-54.9c-0.9,0-1.7-0.7-1.7-1.7V93l-2.3-2.6l2.3-3v-2.2
					c0-0.9,0.7-1.7,1.7-1.7h54.9c0.9,0,1.7,0.7,1.7,1.7V106.5z"/>
				<g>
					<rect x="331.5" y="87.4" class="st3" width="12.5" height="2"/>
					<rect x="345.7" y="87.4" class="st3" width="15.1" height="2"/>
					<rect x="362.8" y="87.4" class="st3" width="5.7" height="2"/>
					<rect x="331.5" y="92.3" class="st3" width="19.9" height="2"/>
					<rect x="352.8" y="92.3" class="st3" width="3.2" height="2"/>
					<rect x="358" y="92.3" class="st3" width="23.3" height="2"/>
					<rect x="331.5" y="97.1" class="st3" width="5.1" height="2"/>
					<rect x="338.3" y="97.1" class="st3" width="20.1" height="2"/>
					<rect x="359.9" y="97.1" class="st3" width="12" height="2"/>
					<rect x="331.5" y="101.9" class="st3" width="25" height="2"/>
					<rect x="358.4" y="101.9" class="st3" width="5.2" height="2"/>
					<rect x="365.9" y="101.9" class="st3" width="13.3" height="2"/>
				</g>
			</g>
			<g>
				<path class="st33" d="M334,124.5c0,0.9,0.7,1.7,1.7,1.7h54.6c0.9,0,1.7-0.7,1.7-1.7v-2.6l2.3-2.6l-2.3-3v-2.2
					c0-0.9-0.7-1.7-1.7-1.7h-54.6c-0.9,0-1.7,0.7-1.7,1.7V124.5z"/>
				<g>
					<rect x="377.4" y="118.3" class="st32" width="3.5" height="2"/>
					<rect x="364.7" y="118.3" class="st32" width="11.3" height="2"/>
					<rect x="339.4" y="118.3" class="st32" width="23.3" height="2"/>
				</g>
			</g>
		</g>
		<g>
			<path class="st2" d="M405.8,111.4c-4.2,0-7.7,3.4-7.7,7.7c0,4.2,3.4,7.7,7.7,7.7c4.2,0,7.7-3.4,7.7-7.7
				C413.4,114.8,410,111.4,405.8,111.4z"/>
			<path class="st32" d="M408.6,119.5c-0.6-0.3-1.3-0.5-1.9-0.6c0-0.2,0-0.3,0.1-0.5c0.1-0.1,0.3-0.2,0.3-0.4c0-0.1,0-0.3,0.1-0.4
				c0,0,0,0,0.1,0s0.1,0,0.1-0.1l0.1-0.7c0-0.1,0-0.1-0.1-0.1h-0.1c0-0.1,0-0.3,0-0.4c0-0.2,0.1-0.7-0.2-1c-0.5-0.5-1.6-0.5-2.1,0
				c-0.3,0.3-0.3,0.8-0.2,1c0,0.1,0,0.3,0,0.4c0,0,0,0-0.1,0s-0.1,0.1-0.1,0.1l0.1,0.7c0,0.1,0.1,0.1,0.1,0.1h0.1
				c0,0.1,0,0.3,0.1,0.4c0,0.1,0.1,0.3,0.3,0.4c0,0.2,0,0.3,0.1,0.5c-0.7,0.1-1.3,0.3-1.9,0.6c-0.2,0.1-0.3,0.4-0.3,0.6
				s0,0.5,0.1,0.7c0,0.2,0.2,0.4,0.4,0.5c1.7,0.3,3.4,0.3,5.1,0c0.2,0,0.4-0.2,0.4-0.5c0-0.2,0-0.5,0.1-0.7
				C408.9,119.8,408.8,119.6,408.6,119.5z"/>
		</g>
		<g>
			<path class="st32" d="M315.2,82.5c-4.2,0-7.7,3.4-7.7,7.7c0,4.2,3.4,7.7,7.7,7.7c4.2,0,7.7-3.4,7.7-7.7
				C322.8,85.9,319.4,82.5,315.2,82.5z"/>
			<path class="st3" d="M318,90.6c-0.6-0.3-1.3-0.5-1.9-0.6c0-0.2,0-0.3,0.1-0.5c0.1-0.1,0.3-0.2,0.3-0.4c0-0.1,0-0.3,0.1-0.4
				c0,0,0,0,0.1,0s0.1,0,0.1-0.1l0.1-0.7c0-0.1,0-0.1-0.1-0.1h-0.1c0-0.1,0-0.3,0-0.4c0-0.2,0.1-0.7-0.2-1c-0.5-0.5-1.6-0.5-2.1,0
				c-0.3,0.3-0.3,0.8-0.2,1c0,0.1,0,0.3,0,0.4c0,0,0,0-0.1,0s-0.1,0.1-0.1,0.1l0.1,0.7c0,0.1,0.1,0.1,0.1,0.1h0.1
				c0,0.1,0,0.3,0.1,0.4c0,0.1,0.1,0.3,0.3,0.4c0,0.2,0,0.3,0.1,0.5c-0.7,0.1-1.3,0.3-1.9,0.6c-0.2,0.1-0.3,0.4-0.3,0.6
				s0,0.5,0.1,0.7c0,0.2,0.2,0.4,0.4,0.5c1.7,0.3,3.4,0.3,5.1,0c0.2,0,0.4-0.2,0.4-0.5c0-0.2,0-0.5,0.1-0.7
				C318.3,91,318.2,90.7,318,90.6z"/>
		</g>
	</g>
	<path class="st34" d="M126.6,73.9c0-4.3-2.7-8-6.4-9.6l-2.2,4.4v-6c0-0.5-0.4-0.9-0.9-0.9h-5.2c-0.5,0-0.9,0.4-0.9,0.9v6l-2.2-4.4
		c-3.8,1.5-6.4,5.2-6.4,9.6v3.4h24.1L126.6,73.9L126.6,73.9z M127.4,79.1h-25.9c-0.5,0-0.9,0.4-0.9,0.9v1.7c0,0.5,0.4,0.9,0.9,0.9
		h25.9c0.5,0,0.9-0.4,0.9-0.9V80C128.3,79.4,127.9,79.1,127.4,79.1z"/>
</g>
</svg>
