<?xml version="1.0" encoding="utf-8"?>
<!-- Generator: Adobe Illustrator 23.0.5, SVG Export Plug-In . SVG Version: 6.00 Build 0)  -->
<svg version="1.1" id="Capa_1" xmlns="http://www.w3.org/2000/svg" xmlns:xlink="http://www.w3.org/1999/xlink" x="0px" y="0px"
	 viewBox="0 0 2121 1357" style="enable-background:new 0 0 2121 1357;" xml:space="preserve">
<style type="text/css">
	.st0{fill:#5437E2;}
	.st1{opacity:0.3;fill:#51A4FF;enable-background:new    ;}
	.st2{fill:#C8E6FF;}
	.st3{fill:#B4AB90;}
	.st4{fill:#1A6416;}
	.st5{fill:#265005;}
	.st6{fill:#4B7B26;}
	.st7{fill:#F3F7F8;}
	.st8{fill:#DFDEDA;}
	.st9{fill:#91B2D7;}
	.st10{fill:#769FCD;}
	.st11{fill:#ADC5E1;}
	.st12{fill:#D6E6F2;}
	.st13{fill:#435973;}
	.st14{fill:#59779A;}
	.st15{fill:#B9D7EA;}
	.st16{fill:#3B5067;}
	.st17{fill:#F7FBFC;}
	.st18{fill:#89A1CF;}
	.st19{fill:#FFFFFF;}
	.st20{opacity:0.99;fill:#3F72AF;enable-background:new    ;}
	.st21{fill:#D5ECFF;}
	.st22{fill:#CAE5FF;}
	.st23{fill:#5AACFF;}
	.st24{fill:#E7EAEE;}
	.st25{fill:#B1B5BD;}
	.st26{fill:#332A27;}
	.st27{fill:#4C4340;}
	.st28{fill:url(#SVGID_1_);}
	.st29{fill:url(#SVGID_2_);}
	.st30{fill:#502F26;}
	.st31{fill:#E9ECF0;}
	.st32{fill:url(#SVGID_3_);}
	.st33{fill:url(#SVGID_4_);}
	.st34{fill:#222831;}
	.st35{fill:#111419;}
	.st36{fill:#4E535A;}
	.st37{fill:#363B44;}
	.st38{fill:#D79B3D;}
	.st39{fill:#3F4650;}
	.st40{fill:#366ED8;}
	.st41{fill:#2953A2;}
	.st42{fill:url(#SVGID_5_);}
	.st43{fill:url(#SVGID_6_);}
	.st44{fill:url(#SVGID_7_);}
	.st45{fill:#B73128;}
	.st46{fill:url(#SVGID_8_);}
	.st47{fill:#7D3425;}
	.st48{fill:#343C42;}
	.st49{fill:#CE3B29;}
	.st50{fill:url(#SVGID_9_);}
	.st51{fill:url(#SVGID_10_);}
	.st52{fill:#BC8877;}
	.st53{fill:#333333;}
	.st54{fill:#FEFEFE;}
	.st55{fill:#B93624;}
	.st56{fill:#F9D5CB;}
	.st57{fill:url(#SVGID_11_);}
	.st58{fill:#D8453B;}
	.st59{fill:url(#SVGID_12_);}
	.st60{fill:#666666;}
	.st61{fill:#D0DCDB;}
	.st62{fill:#8C9695;}
	.st63{fill:#232625;}
	.st64{fill:#969E9F;}
	.st65{fill:url(#SVGID_13_);}
	.st66{fill:url(#SVGID_14_);}
	.st67{fill:#080A0C;}
	.st68{fill:#3B3E44;}
	.st69{fill:#F5D157;}
	.st70{fill:url(#SVGID_15_);}
	.st71{fill:url(#SVGID_16_);}
	.st72{fill:url(#SVGID_17_);}
	.st73{fill:#4C3529;}
	.st74{fill:#A8B2BB;}
	.st75{fill:#70777D;}
	.st76{fill:#B9C3CE;}
	.st77{fill:#788997;}
	.st78{fill:#E3E4E6;}
	.st79{fill:#EC714E;}
	.st80{fill:#FFAB64;}
	.st81{fill:#FCFDFE;}
	.st82{fill:url(#SVGID_18_);}
	.st83{fill:url(#SVGID_19_);}
	.st84{fill:url(#SVGID_20_);}
	.st85{display:none;}
</style>
<g id="Layer_3">
	<g>
		<path class="st0" d="M516.1,1151.5c96.3-27.3,149.1-113,262.7-118.9c119.4-6.3,236.6,186.3,512.4,209.9
			c214,18.4,648.6-16.9,765.6-445.3c117.1-428.4-147.3-827-470.5-771.2c-234.6,41.4-393.5,162.8-584.2,205.1
			c-176.5,39.6-613-42.7-776.9-4.2c-263.9,63.6-190,324.7-149.3,486C131.8,867.5,229.7,1231.7,516.1,1151.5z"/>
	</g>
	<g>
		<path class="st1" d="M1851.3,678.2h-110.1c-3,0-5.5-2.5-5.5-5.5v-49.8c0-3,2.5-5.5,5.5-5.5h110.1c3,0,5.5,2.5,5.5,5.5v49.8
			C1856.8,675.7,1854.3,678.2,1851.3,678.2z"/>
		<path class="st1" d="M1801.5,726.6h-110.1c-3,0-5.5-2.5-5.5-5.5v-49.8c0-3,2.5-5.5,5.5-5.5h110.1c3,0,5.5,2.5,5.5,5.5v49.8
			C1807,724.1,1804.5,726.6,1801.5,726.6z"/>
	</g>
	<g>
		<path class="st2" d="M1107,823.8c-16.1,0-29.2-13.1-29.2-29.2c0-16.1,13.1-29.2,29.2-29.2s29.2,13.1,29.2,29.2
			S1123.1,823.8,1107,823.8z M1107,778.3c-8.9,0-16.2,7.3-16.2,16.2s7.3,16.2,16.2,16.2c8.9,0,16.2-7.3,16.2-16.2
			C1123.3,785.6,1116,778.3,1107,778.3z"/>
	</g>
	<g>
		<path class="st2" d="M327.1,649.4c-22.7,0-41.2-18.5-41.2-41.2s18.5-41.2,41.2-41.2s41.2,18.5,41.2,41.2
			C368.3,630.9,349.8,649.4,327.1,649.4z M327.1,585.3c-12.6,0-22.9,10.3-22.9,22.9c0,12.6,10.3,22.9,22.9,22.9s22.9-10.3,22.9-22.9
			S339.8,585.3,327.1,585.3z"/>
	</g>
	<g>
		<g>
			<path class="st3" d="M556.5,747.9c0,0,38.4-11.9,67.6,0C624.1,747.9,591,758.5,556.5,747.9z"/>
			<path class="st4" d="M579.1,750.5c0,0-27.8-15.9-34.5-50.4c0,0,26.5,35.8,43.7,41.1l-5.7,5.7L579.1,750.5z"/>
			<path class="st5" d="M527.4,635.2c0,0,17.2,82.2,54.3,114h14.6C596.3,749.2,535.3,653.8,527.4,635.2z"/>
			<path class="st6" d="M579.1,750.5c0,0-31.8-90.1-33.1-124.6c0,0,43.7,123.3,53,120.6L579.1,750.5z"/>
			<path class="st6" d="M604.4,750.5c0,0,27.8-15.9,34.5-50.4c0,0-26.5,35.8-43.7,41.1l5.7,5.7L604.4,750.5z"/>
			<path class="st6" d="M653.5,635.2c0,0-17.2,82.2-54.3,114h-14.6C584.5,749.2,645.5,653.8,653.5,635.2z"/>
			<path class="st5" d="M601.8,750.5c0,0,31.8-90.1,33.1-124.6c0,0-42.6,118-51.9,124.6H601.8z"/>
			<path class="st6" d="M599.1,749.2c0,0,13.3-74.2,9.3-92.8c0,0-22.5,94.1-26.5,94.1L599.1,749.2z"/>
			<polygon class="st6" points="584.5,749.2 585.7,618 604.2,750.5 			"/>
			<path class="st5" d="M581.7,750.5c0,0-13.3-74.2-9.3-92.8c0,0,22.5,94.1,26.5,94.1L581.7,750.5z"/>
			<path class="st7" d="M620.2,812.8h-55.7c-9.8-7.6-12.4-46.6-13.1-60.3c-0.1-2.6,1.9-4.7,4.5-4.7h68.4c2.2,0,4.1,1.6,4.4,3.8
				C632.1,776.9,620.2,812.8,620.2,812.8z"/>
			<path class="st8" d="M620.2,812.8h-13.5c10-26.8,6.4-53.8,4.2-64.9h13.5c2.2,0,4.1,1.6,4.4,3.8
				C632.1,776.9,620.2,812.8,620.2,812.8z"/>
		</g>
		<g>
			<rect x="396.2" y="826.1" class="st9" width="262.5" height="341.7"/>
			<rect x="337.9" y="826.1" class="st10" width="58.3" height="0.7"/>
			<rect x="337.9" y="837.4" class="st10" width="58.3" height="330.3"/>
			<rect x="395.5" y="812.9" class="st11" width="270.9" height="13.9"/>
			<rect x="325.6" y="812.8" class="st9" width="70.8" height="13.9"/>
			<rect x="414.3" y="867.7" class="st12" width="111.1" height="50"/>
			<rect x="537.9" y="867.7" class="st12" width="111.1" height="50"/>
			<rect x="414.3" y="938.6" class="st12" width="111.1" height="50"/>
			<rect x="537.9" y="938.6" class="st12" width="111.1" height="50"/>
			<rect x="412.9" y="1009.4" class="st12" width="111.1" height="50"/>
			<rect x="536.5" y="1009.4" class="st12" width="111.1" height="50"/>
			<rect x="412.9" y="1080.3" class="st12" width="111.1" height="50"/>
			<rect x="536.5" y="1080.3" class="st12" width="111.1" height="50"/>
			<path class="st10" d="M494.1,894.8h-48.6c-1.1,0-1.9-0.9-1.9-1.9l0,0c0-1.1,0.9-1.9,1.9-1.9h48.6c1.1,0,1.9,0.9,1.9,1.9l0,0
				C496,893.9,495.1,894.8,494.1,894.8z"/>
			<path class="st10" d="M617.9,894.8h-48.6c-1.1,0-1.9-0.9-1.9-1.9l0,0c0-1.1,0.9-1.9,1.9-1.9h48.6c1.1,0,1.9,0.9,1.9,1.9l0,0
				C619.8,893.9,619,894.8,617.9,894.8z"/>
			<path class="st10" d="M493.5,965.5h-48.6c-1.1,0-1.9-0.9-1.9-1.9l0,0c0-1.1,0.9-1.9,1.9-1.9h48.6c1.1,0,1.9,0.9,1.9,1.9l0,0
				C495.4,964.6,494.5,965.5,493.5,965.5z"/>
			<path class="st10" d="M617.3,965.5h-48.6c-1.1,0-1.9-0.9-1.9-1.9l0,0c0-1.1,0.9-1.9,1.9-1.9h48.6c1.1,0,1.9,0.9,1.9,1.9l0,0
				C619.2,964.6,618.4,965.5,617.3,965.5z"/>
			<path class="st10" d="M489.9,1036.5h-48.6c-1.1,0-1.9-0.9-1.9-1.9l0,0c0-1.1,0.9-1.9,1.9-1.9h48.6c1.1,0,1.9,0.9,1.9,1.9l0,0
				C491.8,1035.6,491,1036.5,489.9,1036.5z"/>
			<path class="st10" d="M613.7,1036.5h-48.6c-1.1,0-1.9-0.9-1.9-1.9l0,0c0-1.1,0.9-1.9,1.9-1.9h48.6c1.1,0,1.9,0.9,1.9,1.9l0,0
				C615.6,1035.6,614.8,1036.5,613.7,1036.5z"/>
			<path class="st10" d="M489.9,1107.2h-48.6c-1.1,0-1.9-0.9-1.9-1.9l0,0c0-1.1,0.9-1.9,1.9-1.9h48.6c1.1,0,1.9,0.9,1.9,1.9l0,0
				C491.8,1106.3,491,1107.2,489.9,1107.2z"/>
			<path class="st10" d="M613.7,1107.2h-48.6c-1.1,0-1.9-0.9-1.9-1.9l0,0c0-1.1,0.9-1.9,1.9-1.9h48.6c1.1,0,1.9,0.9,1.9,1.9l0,0
				C615.6,1106.3,614.8,1107.2,613.7,1107.2z"/>
			<rect x="337.9" y="826.7" class="st13" width="58.3" height="10.7"/>
			<rect x="337.8" y="826.7" class="st14" width="0" height="10.7"/>
			<rect x="396.2" y="826.7" class="st14" width="262.5" height="10.7"/>
			<rect x="349.7" y="1167.8" class="st15" width="28.7" height="31.5"/>
			<rect x="349.7" y="1167.8" class="st10" width="28.7" height="14.7"/>
			<rect x="406.8" y="1167.8" class="st15" width="28.7" height="31.5"/>
			<rect x="406.8" y="1167.8" class="st10" width="28.7" height="14.7"/>
			<rect x="567.4" y="1167.8" class="st15" width="28.7" height="31.5"/>
			<rect x="567.4" y="1167.8" class="st10" width="28.7" height="14.7"/>
			<rect x="618.8" y="1167.8" class="st15" width="28.7" height="31.5"/>
			<rect x="618.8" y="1167.8" class="st10" width="28.7" height="14.7"/>
		</g>
		<g>
			<g>
				<polygon class="st16" points="442.2,752.7 417.5,812.9 442.2,812.9 				"/>
				<polygon class="st15" points="417.5,719.8 439.4,812.9 518.8,812.9 494.1,719.8 				"/>
				<polygon class="st12" points="428.5,728 446,804.7 509.9,804.7 488.7,728 				"/>
				<polygon class="st17" points="452.2,787.3 496,787.3 497.9,792.5 453.9,792.5 				"/>
			</g>
			<g>
				<path class="st10" d="M460.7,769.2l-2.2,12.2H452l7.1-46l9.8-0.4l25.2,46.4h-7.2l-7.2-12.4L460.7,769.2z M477.6,764.6l-7.8-13.5
					c-1.9-3.3-3.4-6.4-4.9-9.5h-0.2c-0.3,3.2-0.6,6.5-1.2,9.6l-2.6,13.6L477.6,764.6z"/>
			</g>
		</g>
	</g>
	<g>
		<path class="st18" d="M1409.8,612H904.2c-5.1,0-9.3-4.1-9.3-9.3V285.3c0-5.1,4.1-9.3,9.3-9.3h505.6c5.1,0,9.3,4.1,9.3,9.3v317.5
			C1419,607.9,1414.9,612,1409.8,612z"/>
		<path class="st19" d="M916.1,287.6c0,2.9-2.4,5.3-5.3,5.3c-2.9,0-5.3-2.4-5.3-5.3s2.4-5.3,5.3-5.3
			C913.7,282.3,916.1,284.7,916.1,287.6z"/>
		<path class="st19" d="M931.9,287.6c0,2.9-2.4,5.3-5.3,5.3c-2.9,0-5.3-2.4-5.3-5.3s2.4-5.3,5.3-5.3
			C929.6,282.3,931.9,284.7,931.9,287.6z"/>
		<path class="st19" d="M947.8,287.6c0,2.9-2.4,5.3-5.3,5.3c-2.9,0-5.3-2.4-5.3-5.3s2.4-5.3,5.3-5.3
			C945.4,282.3,947.8,284.7,947.8,287.6z"/>
		<rect x="905.5" y="301.8" class="st20" width="501.9" height="31"/>
		<rect x="905.5" y="332.9" class="st21" width="501.9" height="266.5"/>
		<rect x="905.5" y="332.9" class="st19" width="113.8" height="266.5"/>
		<g>
			<path class="st19" d="M1375.9,588.8v-1.1h5.3l0.1,0.7v0.3L1375.9,588.8L1375.9,588.8z M1370.6,588.8h-5.3v-1.1h5.3V588.8z
				 M1360,588.8h-5.3v-1.1h5.3V588.8z M1349.4,588.8h-5.3v-1.1h5.3V588.8z M1338.8,588.8h-5.3v-1.1h5.3V588.8z M1328.2,588.8h-5.3
				v-1.1h5.3V588.8z M1317.6,588.8h-5.3v-1.1h5.3V588.8z M1307.1,588.8h-5.3v-1.1h5.3V588.8z M1296.5,588.8h-5.3v-1.1h5.3V588.8z
				 M1285.9,588.8h-5.3v-1.1h5.3V588.8z M1275.3,588.8h-5.3v-1.1h5.3V588.8z M1264.7,588.8h-5.3v-1.1h5.3V588.8z M1254.1,588.8h-5.3
				v-1.1h5.3V588.8z M1243.5,588.8h-5.3v-1.1h5.3V588.8z M1233,588.8h-5.3v-1.1h5.3V588.8z M1222.4,588.8h-5.3v-1.1h5.3V588.8z
				 M1211.8,588.8h-5.3v-1.1h5.3V588.8z M1201.2,588.8h-5.3v-1.1h5.3V588.8z M1190.6,588.8h-5.3v-1.1h5.3V588.8z M1180,588.8h-5.3
				v-1.1h5.3V588.8z M1169.5,588.8h-5.3v-1.1h5.3V588.8z M1158.9,588.8h-5.3v-1.1h5.3V588.8z M1148.3,588.8h-5.3v-1.1h5.3V588.8z
				 M1137.7,588.8h-5.3v-1.1h5.3V588.8z M1127.1,588.8h-5.3v-1.1h5.3V588.8z M1116.5,588.8h-5.3v-1.1h5.3V588.8z M1105.9,588.8h-5.3
				v-1.1h5.3V588.8z M1095.4,588.8h-5.3v-1.1h5.3V588.8z M1084.8,588.8h-5.3v-1.1h5.3V588.8z M1074.2,588.8h-5.3v-1.1h5.3V588.8z
				 M1063.6,588.8h-5.3v-1.1h5.3V588.8z M1053,588.8h-5.3v-1.1h0.2h5v1.1H1053z M1386.4,586.9l-0.7-0.8c1.3-1.1,2.2-2.5,2.5-4.2
				l1,0.2C1388.9,583.9,1387.9,585.6,1386.4,586.9z M1042.6,586.7c-1.4-1.2-2.4-3-2.7-4.8l1-0.2c0.3,1.6,1.1,3.1,2.4,4.2
				L1042.6,586.7z M1389.4,576.7h-1.1v-5.3h1.1V576.7z M1040.8,576.5h-1.1v-5.3h1.1V576.5z M1389.4,566.1h-1.1v-5.3h1.1V566.1z
				 M1040.8,565.9h-1.1v-5.3h1.1V565.9z M1389.4,555.5h-1.1v-5.3h1.1V555.5z M1040.8,555.4h-1.1v-5.3h1.1V555.4z M1389.4,545h-1.1
				v-5.3h1.1V545z M1040.8,544.8h-1.1v-5.3h1.1V544.8z M1388.3,534.5c-0.3-1.6-1.1-3.1-2.4-4.2l0.7-0.8c1.4,1.2,2.4,2.9,2.8,4.8
				L1388.3,534.5z M1040.9,534.3l-1-0.2c0.4-1.9,1.4-3.5,2.9-4.7l0.7,0.8C1042.1,531.2,1041.2,532.7,1040.9,534.3z M1381.3,528.5
				h-0.2h-5.1v-1.1h5.3L1381.3,528.5z M1370.8,528.5h-5.3v-1.1h5.3V528.5z M1360.2,528.5h-5.3v-1.1h5.3V528.5z M1349.6,528.5h-5.3
				v-1.1h5.3V528.5z M1339,528.5h-5.3v-1.1h5.3V528.5z M1328.4,528.5h-5.3v-1.1h5.3V528.5z M1317.9,528.5h-5.3v-1.1h5.3V528.5z
				 M1307.3,528.5h-5.3v-1.1h5.3V528.5z M1296.7,528.5h-5.3v-1.1h5.3V528.5z M1286.1,528.5h-5.3v-1.1h5.3V528.5z M1275.5,528.5h-5.3
				v-1.1h5.3V528.5z M1264.9,528.5h-5.3v-1.1h5.3V528.5z M1254.3,528.5h-5.3v-1.1h5.3V528.5z M1243.8,528.5h-5.3v-1.1h5.3V528.5z
				 M1233.2,528.5h-5.3v-1.1h5.3V528.5z M1222.6,528.5h-5.3v-1.1h5.3V528.5z M1212,528.5h-5.3v-1.1h5.3V528.5z M1201.4,528.5h-5.3
				v-1.1h5.3V528.5z M1190.8,528.5h-5.3v-1.1h5.3V528.5z M1180.3,528.5h-5.3v-1.1h5.3V528.5z M1169.7,528.5h-5.3v-1.1h5.3V528.5z
				 M1159.1,528.5h-5.3v-1.1h5.3V528.5z M1148.5,528.5h-5.3v-1.1h5.3V528.5z M1137.9,528.5h-5.3v-1.1h5.3V528.5z M1127.3,528.5h-5.3
				v-1.1h5.3V528.5z M1116.7,528.5h-5.3v-1.1h5.3V528.5z M1106.2,528.5h-5.3v-1.1h5.3V528.5z M1095.6,528.5h-5.3v-1.1h5.3V528.5z
				 M1085,528.5h-5.3v-1.1h5.3V528.5z M1074.4,528.5h-5.3v-1.1h5.3V528.5z M1063.8,528.5h-5.3v-1.1h5.3V528.5z M1053.2,528.5h-5.3
				v-1.1h5.3V528.5z"/>
		</g>
		<g>
			<path class="st19" d="M1357,515.8h-129.5c-3.3,0-5.9-2.6-5.9-5.9v-42.3c0-3.3,2.6-5.9,5.9-5.9H1357c3.3,0,5.9,2.6,5.9,5.9V510
				C1362.9,513.2,1360.2,515.8,1357,515.8z"/>
			<rect x="1237" y="492.7" class="st22" width="110.4" height="2.2"/>
			<rect x="1237" y="499.3" class="st22" width="110.4" height="2.2"/>
			<rect x="1237" y="505.9" class="st22" width="70.6" height="2.2"/>
			<path class="st23" d="M1252.5,477.2c0,4.3-3.5,7.7-7.7,7.7s-7.7-3.5-7.7-7.7c0-4.3,3.5-7.7,7.7-7.7S1252.5,473,1252.5,477.2z"/>
			<path class="st23" d="M1284.5,479.4h-22.1c-1.2,0-2.2-1-2.2-2.2l0,0c0-1.2,1-2.2,2.2-2.2h22.1c1.2,0,2.2,1,2.2,2.2l0,0
				C1286.7,478.4,1285.7,479.4,1284.5,479.4z"/>
		</g>
		<g>
			<path class="st19" d="M1357,456.2h-129.5c-3.3,0-5.9-2.6-5.9-5.9V408c0-3.3,2.6-5.9,5.9-5.9H1357c3.3,0,5.9,2.6,5.9,5.9v42.3
				C1362.9,453.6,1360.2,456.2,1357,456.2z"/>
			<rect x="1237" y="433.1" class="st22" width="110.4" height="2.2"/>
			<rect x="1237" y="439.7" class="st22" width="110.4" height="2.2"/>
			<rect x="1237" y="446.3" class="st22" width="70.6" height="2.2"/>
			<circle class="st23" cx="1244.8" cy="417.6" r="7.7"/>
			<path class="st23" d="M1284.5,419.8h-22.1c-1.2,0-2.2-1-2.2-2.2l0,0c0-1.2,1-2.2,2.2-2.2h22.1c1.2,0,2.2,1,2.2,2.2l0,0
				C1286.7,418.8,1285.7,419.8,1284.5,419.8z"/>
		</g>
		<g>
			<path class="st19" d="M1357,396.6h-129.5c-3.3,0-5.9-2.6-5.9-5.9v-42.3c0-3.3,2.6-5.9,5.9-5.9H1357c3.3,0,5.9,2.6,5.9,5.9v42.3
				C1362.9,394,1360.2,396.6,1357,396.6z"/>
			<rect x="1237" y="373.5" class="st22" width="110.4" height="2.2"/>
			<rect x="1237" y="380.1" class="st22" width="110.4" height="2.2"/>
			<rect x="1237" y="386.7" class="st22" width="70.6" height="2.2"/>
			
				<ellipse transform="matrix(0.2298 -0.9732 0.9732 0.2298 610.257 1487.2582)" class="st23" cx="1244.8" cy="358.1" rx="7.7" ry="7.7"/>
			<path class="st23" d="M1284.5,360.2h-22.1c-1.2,0-2.2-1-2.2-2.2l0,0c0-1.2,1-2.2,2.2-2.2h22.1c1.2,0,2.2,1,2.2,2.2l0,0
				C1286.7,359.2,1285.7,360.2,1284.5,360.2z"/>
		</g>
		<g>
			<g>
				<g>
					<path class="st19" d="M1211.7,359.5v138.3c0,9-7.1,16.4-16,16.9c-0.3,0-0.7,0-1,0h-138.3c-9.4,0-17-7.6-17-17V359.5
						c0-9.4,7.6-17,17-17h138.3C1204.1,342.6,1211.7,350.2,1211.7,359.5z"/>
				</g>
				<g>
					<g>
						<g>
							<path class="st23" d="M1102.5,461.7c-0.2,0-0.4,0-0.6,0c-5.8-0.3-11-5.1-15.2-14.3c-3.7-8-7.9-12.2-12.4-12.4
								c-0.1,0-0.2,0-0.3,0c-6.5,0-12.3,8.1-14.3,11.3c-0.4,0.7-1.3,0.9-2,0.5l0,0c-0.8-0.4-1-1.4-0.5-2.1c2.3-3.6,9-12.9,17.2-12.6
								c5.7,0.2,10.8,4.9,15,14.1c3.8,8.1,8,12.3,12.7,12.5c8,0.4,15.1-10.8,15.8-11.9c0.3-0.6,1.8-3.9,4.1-7.2
								c3.6-5.1,7.3-7.8,11-7.8c4.7-0.1,8.9,3.8,12.6,11.7c3.3,7.1,7.2,10.8,11.4,11.1c7.5,0.5,14.2-9.8,14.3-9.9l0.1-0.1
								c10.6-14.5,16.7-23.9,22.3-34.7l2.7,1.4c-5.7,10.9-11.8,20.4-22.5,35c-0.6,0.9-7.5,11.3-16.3,11.3c-0.2,0-0.5,0-0.7,0
								c-5.4-0.4-10.1-4.7-13.9-12.8c-2.1-4.5-5.6-9.9-9.7-9.9h-0.1c-5.6,0.1-10.9,9.7-12.4,13.3v0.1l-0.1,0.1
								C1120.2,448.9,1112.4,461.7,1102.5,461.7z"/>
						</g>
					</g>
					<g>
						<path class="st23" d="M1199,409.6c0,2-1.6,3.6-3.6,3.6s-3.6-1.6-3.6-3.6s1.6-3.6,3.6-3.6S1199,407.7,1199,409.6z"/>
						<path class="st23" d="M1137,433c0,2-1.6,3.6-3.6,3.6s-3.6-1.6-3.6-3.6s1.6-3.6,3.6-3.6C1135.5,429.4,1137,431,1137,433z"/>
						<path class="st23" d="M1160.9,455.4c0,2-1.6,3.6-3.6,3.6s-3.6-1.6-3.6-3.6s1.6-3.6,3.6-3.6S1160.9,453.4,1160.9,455.4z"/>
						<path class="st23" d="M1105.5,459.9c0,2-1.6,3.6-3.6,3.6s-3.6-1.6-3.6-3.6s1.6-3.6,3.6-3.6S1105.5,458,1105.5,459.9z"/>
						<path class="st23" d="M1077.6,433c0,2-1.6,3.6-3.6,3.6s-3.6-1.6-3.6-3.6s1.6-3.6,3.6-3.6S1077.6,431,1077.6,433z"/>
					</g>
				</g>
			</g>
			<g>
				<polygon class="st22" points="1198.6,499.8 1050.3,499.8 1050.3,385.9 1051.4,385.9 1051.4,498.7 1198.6,498.7 				"/>
			</g>
			<path class="st23" d="M1068.6,357c0,4.9-4,8.9-8.9,8.9s-8.9-4-8.9-8.9s4-8.9,8.9-8.9S1068.6,352.1,1068.6,357z"/>
			<rect x="1049.8" y="368.1" class="st22" width="33.2" height="1.7"/>
			<rect x="1049.8" y="373.4" class="st22" width="33.2" height="1.7"/>
			<rect x="1049.8" y="378.6" class="st22" width="21.2" height="1.7"/>
		</g>
	</g>
	<g>
		<g>
			
				<ellipse transform="matrix(1 -4.832295e-03 4.832295e-03 1 -0.7933 7.6574)" class="st19" cx="1584.2" cy="168" rx="70.7" ry="70.7"/>
			<path class="st9" d="M1587.3,94.1c40.8,1.7,72.6,36.2,70.9,77s-36.2,72.6-77,70.9c-40.8-1.7-72.6-36.2-70.9-77
				S1546.5,92.4,1587.3,94.1z M1581.4,235.4c37.2,1.5,68.7-27.5,70.2-64.6c1.5-37.2-27.5-68.7-64.6-70.2
				c-37.2-1.5-68.7,27.5-70.2,64.6C1515.3,202.4,1544.3,233.9,1581.4,235.4z"/>
		</g>
		<path class="st11" d="M1582.2,216.9L1582.2,216.9c1.8,0.1,3.2,1.6,3.1,3.4l-0.4,8.7c-0.1,1.8-1.6,3.2-3.4,3.1l0,0
			c-1.8-0.1-3.2-1.6-3.1-3.4l0.4-8.7C1578.9,218.3,1580.4,216.9,1582.2,216.9z"/>
		<path class="st11" d="M1586.9,103.9L1586.9,103.9c1.8,0.1,3.2,1.6,3.1,3.4l-0.4,8.7c-0.1,1.8-1.6,3.2-3.4,3.1l0,0
			c-1.8-0.1-3.2-1.6-3.1-3.4l0.4-8.7C1583.6,105.2,1585.1,103.8,1586.9,103.9z"/>
		<path class="st11" d="M1535.3,166L1535.3,166c-0.1,1.8-1.6,3.2-3.4,3.1l-8.7-0.4c-1.8-0.1-3.2-1.6-3.1-3.4l0,0
			c0.1-1.8,1.6-3.2,3.4-3.1l8.7,0.4C1534,162.7,1535.4,164.2,1535.3,166z"/>
		<path class="st11" d="M1648.4,170.7L1648.4,170.7c-0.1,1.8-1.6,3.2-3.4,3.1l-8.7-0.4c-1.8-0.1-3.2-1.6-3.1-3.4l0,0
			c0.1-1.8,1.6-3.2,3.4-3.1l8.7,0.4C1647,167.3,1648.4,168.9,1648.4,170.7z"/>
		<g>
			<path class="st14" d="M1594.6,154.5l-28.6,39.8c-0.3,0.4-0.9,0-0.6-0.4l23.7-43.5c0.8-1.5,2.4-2.4,4.1-2.3h0.8
				c0.9,0,1.6,0.8,1.6,1.7l-0.1,2.2C1595.4,153,1595.1,153.8,1594.6,154.5z"/>
			<path class="st9" d="M1630.5,196.5l-60.2-43.2c-0.6-0.5-1.5-0.5-2.2-0.2l-2.2,1c-1.2,0.5-2,1.7-2,3l-0.1,1.8c0,0.8,0.4,1.5,1,1.9
				l62.9,38.2l2.6,0.1L1630.5,196.5z"/>
			<path class="st9" d="M1574,167.1c0.2-5,4.4-9,9.5-8.8c5,0.2,9,4.4,8.8,9.5c-0.2,5-4.4,9-9.5,8.8
				C1577.8,176.3,1573.8,172.1,1574,167.1z"/>
		</g>
	</g>
	<g>
		<path class="st24" d="M798.6,457.1c0,0-91.5,8.6-97.2,22.9s54.3,123,42.9,208.8h134.4c0,0,0-147.3,11.4-191.7
			c1.3-5.1-1.3-10.5-6.1-12.7C863,474.7,812.1,452.6,798.6,457.1z"/>
		<path class="st25" d="M776.2,453.9c0,0-15.1,11.2-12.5,12.9c2.6,1.7,24.1,36.2,24.1,36.2l11.2-24.6L776.2,453.9z"/>
		<path class="st25" d="M804.4,478.5l12.5,21.1l14.7-32.8c0,0-11.2-12.9-13.8-12.9L804.4,478.5z"/>
		<path class="st18" d="M798.2,502v128.6l13.3,25.2l13.3-21.9c0,0,8.1-78.6-13.3-131.9l6.2-18.1l-14.8-9l-16.7,10.5L798.2,502z"/>
		<g>
			<path class="st26" d="M833.4,371.3v27.9L780.3,415c0,0-11.5-27.3-10.1-37.3c0.1-0.5,0.2-0.9,0.3-1.4c2.6-10.2,17.9-25.8,37.1-23
				c12.4,1.8,19.3,6.8,22.8,10.4C832.4,365.8,833.4,368.5,833.4,371.3z"/>
			<path class="st27" d="M833.4,399.3l-53.1,15.8c0,0-11.5-27.3-10.1-37.3c0.1-0.5,0.2-0.9,0.3-1.4c10.6-0.8,28.3-1.6,31.3,0.6
				C804.4,378.9,820.6,390.2,833.4,399.3z"/>
			<g>
				
					<linearGradient id="SVGID_1_" gradientUnits="userSpaceOnUse" x1="-213.6513" y1="926.9858" x2="-220.1996" y2="892.4983" gradientTransform="matrix(1 0 0 -1 1013.9998 1355.8898)">
					<stop  offset="0" style="stop-color:#914627"/>
					<stop  offset="1" style="stop-color:#A96644"/>
				</linearGradient>
				<path class="st28" d="M780.9,410.5l-3.5,50.5c-0.3,4,1.9,7.7,5.6,9.4c9.5,4.4,27.4,10.2,33.3-5.9c1-2.6,1.2-5.5,0.8-8.2
					l-6.3-44.3L780.9,410.5z"/>
				
					<linearGradient id="SVGID_2_" gradientUnits="userSpaceOnUse" x1="10297.3262" y1="1766.5867" x2="10231.0947" y2="1740.5869" gradientTransform="matrix(-0.99 0.141 -0.141 -0.99 11214.4365 692.8776)">
					<stop  offset="0" style="stop-color:#914627"/>
					<stop  offset="1" style="stop-color:#A96644"/>
				</linearGradient>
				<path class="st29" d="M833.4,375.3c0,0,15.5,64.8-21.2,64.3S780.8,410,780.8,410s-10.4-2.3-7.4-12.2c2.1-7.1,8.7-2.4,12.3,0.9
					c0.9,0.8,2.3,0.2,2.3-1c-0.1-7.1,0.9-22.8,11.6-22.8C813.4,374.6,819.8,373.4,833.4,375.3z"/>
				<g>
					<path class="st30" d="M823.8,415.5c1.3-0.2,2.3-0.7,3-1.6c2.2-2.8,0.2-8,0.1-8.2c-0.1-0.3-0.5-0.5-0.8-0.4s-0.5,0.5-0.4,0.8
						c0,0,1.8,4.8,0.1,7c-0.8,1-2.3,1.4-4.4,1.1c-0.3,0-0.7,0.2-0.7,0.5s0.2,0.7,0.5,0.7C822.2,415.6,823.1,415.7,823.8,415.5z"/>
				</g>
				<g>
					<path class="st30" d="M819.4,427.2L819.4,427.2c2.8-0.4,4.3-2.7,4.4-2.8c0.2-0.3,0.1-0.7-0.2-0.9c-0.3-0.2-0.7-0.1-0.9,0.2
						c0,0-1.3,1.9-3.5,2.2l0,0c-1.7,0.2-3.6-0.5-5.7-2.2c-0.3-0.2-0.7-0.2-0.9,0.1c-0.2,0.3-0.2,0.7,0.1,0.9
						C815.1,426.7,817.3,427.5,819.4,427.2z"/>
				</g>
				<path class="st30" d="M829.5,401.1c0.1,1,0.8,1.8,1.5,1.7c0.7-0.1,1.1-1,1-2s-0.8-1.8-1.5-1.7
					C829.8,399.2,829.3,400.1,829.5,401.1z"/>
				<path class="st30" d="M810.8,403.1c0.1,1,0.8,1.8,1.5,1.7c0.7-0.1,1.1-1,1-2s-0.8-1.8-1.5-1.7
					C811.1,401.2,810.7,402.1,810.8,403.1z"/>
			</g>
		</g>
		<path class="st31" d="M776.2,450.3c0,0-15.1,11.2-12.5,12.9c2.6,1.7,24.1,36.2,24.1,36.2l11.2-24.6L776.2,450.3z"/>
		<path class="st31" d="M803.3,474.8l12.5,21.1l14.7-32.8c0,0-11.2-12.9-13.8-12.9L803.3,474.8z"/>
		<g>
			
				<linearGradient id="SVGID_3_" gradientUnits="userSpaceOnUse" x1="-318.5668" y1="186.8398" x2="-292.9668" y2="186.8398" gradientTransform="matrix(1 0 0 -1 1013.9998 1355.8898)">
				<stop  offset="0" style="stop-color:#914627"/>
				<stop  offset="1" style="stop-color:#A96644"/>
			</linearGradient>
			<polygon class="st32" points="696.7,1153.6 695.4,1185.7 721,1185.7 721,1152.4 			"/>
			
				<linearGradient id="SVGID_4_" gradientUnits="userSpaceOnUse" x1="-162.7998" y1="190.4398" x2="-135.7527" y2="190.4398" gradientTransform="matrix(1 0 0 -1 1013.9998 1355.8898)">
				<stop  offset="0" style="stop-color:#914627"/>
				<stop  offset="1" style="stop-color:#A96644"/>
			</linearGradient>
			<polygon class="st33" points="851.2,1150 852.6,1182.1 878.2,1182.1 878.2,1148.8 			"/>
			<path class="st34" d="M934.6,1205.2h-84.5V1174c0-1.2,1-2.1,2.1-2.1l27.9,1.1c0,0,13.5,14.2,26.3,16.8c11.2,2.2,22.3,2.5,26.7,11
				C933.8,1202.1,934.2,1203.5,934.6,1205.2z"/>
			<path class="st34" d="M728,1202.3c-0.2,3.4-0.6,4.4-0.6,4.4H689c-1.3,0-2.4-1.1-2.3-2.5c0-0.6,0.1-1.2,0.2-2
				c0.8-7.4,2.8-22.1,8-27.3c8-8.2,31-8.3,32.5,9.8C728.1,1193.7,728.1,1199.1,728,1202.3z"/>
			<path class="st35" d="M934.6,1205.2h-84.5v-4.3h83C933.8,1202.1,934.2,1203.5,934.6,1205.2z"/>
			<path class="st35" d="M728,1202.3c-0.2,3.4-0.6,4.4-0.6,4.4H689c-1.3,0-2.4-1.1-2.3-2.5c0-0.6,0.1-1.2,0.2-2L728,1202.3
				L728,1202.3z"/>
			<g>
				<path class="st34" d="M881.9,1156.3c0,2.8-2.2,5.1-5,5.1h-23.6c-2.6,0-4.8-2-5-4.6l-29.5-312.4l-3.3-34.5v-0.4l-34,131.1
					l-10.6,40.8l-45.7,176.2c-0.4,1.6-1.8,2.6-3.4,2.6l-27.8,0.1c-2.1,0-3.8-1.8-3.5-3.9l58.4-474.9h125.5l4.1,258.8l0.7,41.9
					L881.9,1156.3z"/>
				<polygon class="st35" points="828.2,740.3 815.4,809.5 827.2,932 				"/>
				<path class="st36" d="M781.4,940.6l-10.6,40.8c-7.2-2.1-10.5-12.9-7.3-24C766.6,946.7,774.4,939.5,781.4,940.6z"/>
				<path class="st36" d="M879.2,982.2c-0.5,0-0.9,0-1.4,0c-7.5-0.5-13-10.4-12.1-22c0.8-10.4,6.3-18.7,12.8-19.9L879.2,982.2z"/>
				
					<rect x="734.4" y="735.2" transform="matrix(0.4556 -0.8902 0.8902 0.4556 -247.4616 1072.7374)" class="st37" width="37.8" height="6.9"/>
			</g>
			<g>
				<path class="st35" d="M874.6,701.1c-42.9,1.6-85.9,1.7-128.8,0v-12.4c42.9,0,85.9,0,128.8,0V701.1z"/>
				<rect x="809.2" y="688.7" class="st38" width="21.6" height="13.5"/>
				<rect x="761.1" y="688.7" class="st39" width="4.2" height="12.9"/>
				<rect x="782.5" y="688.7" class="st39" width="4.2" height="13.7"/>
				<rect x="841.4" y="688.7" class="st39" width="4.2" height="13.7"/>
				<rect x="861.2" y="688.7" class="st39" width="4.2" height="13.7"/>
			</g>
		</g>
		<g>
			<path class="st40" d="M776.7,630.3c-0.7,39.6-2,75.9-2.8,96.7c-0.5,11.4-10.3,20.2-21.7,19.3c-10.6-0.8-20-3.7-28.4-8.3
				c-3.1-1.7-4.7-5.3-3.7-8.7c37.6-138.4-20.9-220.1-20.2-251c0.1-3.3,32.3-12.2,35.3-13.5l19.5-8.4l4.6-2c4.4-1.9,9.4,0.6,10.6,5.3
				C777.3,487.8,777.9,563.8,776.7,630.3z"/>
			<path class="st41" d="M776.7,630.3L750.6,525l9.4-11.5l-11.5-9.4c-2.6-15.7,3.6-39.8,6.2-47.7l4.6-2c4.4-1.9,9.4,0.6,10.6,5.3
				C777.3,487.8,777.9,563.8,776.7,630.3z"/>
		</g>
		<g>
			<path class="st40" d="M875.4,741.2l-26.7,4.9c-5.8,1.1-11-3.8-10.3-9.6c3.3-29.5,2.4-79,0.1-128.1
				c-3.4-74.7-10.1-148.3-10.1-148.3L844,465l43.5,21c3.3,1.6,5.3,5,5.1,8.7L875.4,741.2z"/>
			<path class="st41" d="M848.3,513.8l9.2,9.2l-19,85.5v-0.1c-3.4-74.7-10.1-148.3-10.1-148.3L844,465l13.6,40.7L848.3,513.8z"/>
		</g>
		<g>
			
				<linearGradient id="SVGID_5_" gradientUnits="userSpaceOnUse" x1="-3274.6287" y1="-1869.1571" x2="-3263.4827" y2="-1816.2147" gradientTransform="matrix(-0.6067 -0.795 0.795 -0.6067 226.6508 -3035.3372)">
				<stop  offset="0" style="stop-color:#914627"/>
				<stop  offset="1" style="stop-color:#A96644"/>
			</linearGradient>
			<path class="st42" d="M717.7,674.1c0,0,13.3,22,40,23.6c26.4,1.6-11.6-21.3-11.6-21.3s14.3,6,10.8-1.5
				C753.3,667.4,726,664,726,664L717.7,674.1z"/>
			<path class="st40" d="M707,475.1c0,0,24.2,38,10.3,73.6l-53.4,49.1l68.7,66.2l-15.2,19.5l-102.6-70.4c-5.3-3.4-8.4-9.5-7.9-15.8
				c0.3-3.6,1.2-7.1,2.9-9.4C629.2,560.9,692.5,474.3,707,475.1z"/>
		</g>
		<polygon class="st18" points="921.6,653.3 828.2,667.8 832.4,514.3 936.1,503.9 		"/>
		
			<linearGradient id="SVGID_6_" gradientUnits="userSpaceOnUse" x1="69.1584" y1="527.1398" x2="119.2096" y2="527.1398" gradientTransform="matrix(0.9947 0.1024 0.1024 -0.9947 768.492 1101.6283)">
			<stop  offset="0" style="stop-color:#914627"/>
			<stop  offset="1" style="stop-color:#A96644"/>
		</linearGradient>
		<path class="st43" d="M940.2,596c-1.1,5.5-5.5,9.8-11.1,10.8c-15.3,2.7-43.7,4.6-37.7-21.1c3.5-15.3,20.6-8.9,20.6-8.9
			s-18.5-10-7.6-12.6c7.6-1.8,23.1,10.4,31.6,17.8c3.7,3.3,5.4,8.3,4.4,13.1L940.2,596z"/>
	</g>
	<g>
		<g>
			
				<linearGradient id="SVGID_7_" gradientUnits="userSpaceOnUse" x1="-1643.6741" y1="368.8222" x2="-1583.2544" y2="372.1419" gradientTransform="matrix(1 0 0 -1 2232.8042 1355.8898)">
				<stop  offset="0" style="stop-color:#FBB59E"/>
				<stop  offset="1" style="stop-color:#FFEBD1"/>
			</linearGradient>
			<polygon class="st44" points="577,766.3 591.5,932.5 603.2,1142.7 625.9,1204.8 656.5,1204.8 619.9,1139.1 636.9,938.1 
				637.8,769.9 			"/>
			<path class="st45" d="M602.9,1136.1c0,0-11.9,7.2-10.2,19.5s10.2,58.5,10.2,58.5h4.3V1169l14.5,45.1h48.5c0,0,9.4-15.4-18.7-18.5
				l-12.9,0.3c-4,0.1-7.9-2-10.5-5.7C620.3,1179.6,605.1,1156.3,602.9,1136.1z"/>
		</g>
		<g>
			<path class="st45" d="M513.9,1133c0,0-12.8,65.6-8.6,81h36.8c0,0-1.3-70.3-7.9-79.2C527.6,1125.8,513.9,1133,513.9,1133z"/>
			
				<linearGradient id="SVGID_8_" gradientUnits="userSpaceOnUse" x1="-1718.9042" y1="374.1898" x2="-1620.5042" y2="374.1898" gradientTransform="matrix(1 0 0 -1 2232.8042 1355.8898)">
				<stop  offset="0" style="stop-color:#FBB59E"/>
				<stop  offset="1" style="stop-color:#FFEBD1"/>
			</linearGradient>
			<polygon class="st46" points="523.9,772 521.9,960.7 515.7,1136.1 513.9,1195.5 537,1195.5 533.6,1137.1 567,950.4 612.3,767.9 
							"/>
		</g>
		<path class="st47" d="M587.8,406.3c0,0-46.6-5.1-51.8,32c-5.1,37.1,18.5,78,1.3,143.2l68.4,7.7c0,0,14.1-117.6,13.4-135.5
			C618.5,435.7,617.2,412.7,587.8,406.3z"/>
		<path class="st48" d="M632.6,686.9c0,0,34.9,92.3,39,218.4c0,0-46.2,43.1-189.7,1c0,0,15.4-150.8,58.5-219.5
			C540.3,686.9,590.6,710.4,632.6,686.9z"/>
		<path class="st49" d="M537,687.3l-32.4-156.4c0,0,16.6-26.5,73.9-20.4c30,3.2,44.1,5.8,50.7,7.5c3.4,0.9,6.1,3.7,6.8,7.2l5.8,27.2
			c0,0,37,25.3,2.9,66.2L633.5,685c-0.3,1.7-1.4,3.2-2.9,4.1c-9,4.8-41.9,19-89.7,2.6C538.8,690.8,537.4,689.2,537,687.3z"/>
		<g>
			<g>
				
					<linearGradient id="SVGID_9_" gradientUnits="userSpaceOnUse" x1="-1659.1925" y1="880.4395" x2="-1652.4244" y2="815.9548" gradientTransform="matrix(1 0 0 -1 2232.8042 1355.8898)">
					<stop  offset="0" style="stop-color:#FBB59E"/>
					<stop  offset="1" style="stop-color:#FFEBD1"/>
				</linearGradient>
				<path class="st50" d="M564.6,477.5l-0.9,35.5c-0.1,2.2,2,6.3,3.8,7.8c5,4,19.4,4.4,23.1-7.4c0.5-1.8,0.6-3.6,0.3-5.4l-5.7-30.4
					L564.6,477.5z"/>
				
					<linearGradient id="SVGID_10_" gradientUnits="userSpaceOnUse" x1="9611.6768" y1="488.8165" x2="9528.542" y2="452.3486" gradientTransform="matrix(-0.9828 0.185 -0.185 -0.9828 10087.5684 -842.3312)">
					<stop  offset="0" style="stop-color:#FBB59E"/>
					<stop  offset="1" style="stop-color:#FFEBD1"/>
				</linearGradient>
				<path class="st51" d="M611.4,433.7c0,0,13.4,60.9-18.4,65.7c-22.2,3.3-32.9-28.4-32.9-28.4s-10.6-1.8-8-12
					c2.6-10.1,14.9,2.6,14.9,2.6s3.7-5.7,17.5-8.3C605.8,449.4,599.9,442,611.4,433.7z"/>
				<g>
					<path class="st52" d="M603.7,474.7c1.3-0.2,2.3-0.8,2.9-1.7c2.1-2.9-0.2-8.1-0.3-8.3c-0.1-0.3-0.5-0.5-0.8-0.3
						c-0.3,0.1-0.5,0.5-0.3,0.8c0,0,2.1,4.7,0.4,7c-0.8,1.1-2.2,1.5-4.4,1.3c-0.3,0-0.7,0.2-0.7,0.6c0,0.3,0.2,0.7,0.6,0.7
						C602,474.8,602.9,474.8,603.7,474.7z"/>
				</g>
				<g>
					<path class="st52" d="M599.7,486.6C599.7,486.6,599.8,486.6,599.7,486.6c2.8-0.6,4.2-2.9,4.3-3c0.2-0.3,0.1-0.7-0.2-0.9
						c-0.3-0.2-0.7-0.1-0.9,0.2c0,0-1.2,1.9-3.4,2.4l0,0c-1.7,0.3-3.7-0.3-5.8-1.9c-0.3-0.2-0.7-0.2-0.9,0.1
						c-0.2,0.3-0.2,0.7,0.1,0.9C595.3,486.3,597.6,487,599.7,486.6z"/>
				</g>
				<path class="st52" d="M608.7,459.9c0.2,1,0.9,1.8,1.6,1.6c0.7-0.1,1.1-1.1,0.9-2.1c-0.2-1-0.9-1.8-1.6-1.6
					C608.9,457.9,608.5,458.9,608.7,459.9z"/>
				<path class="st52" d="M590,462.8c0.2,1,0.9,1.8,1.6,1.6c0.7-0.1,1.1-1.1,0.9-2.1c-0.2-1-0.9-1.8-1.6-1.6
					C590.2,460.8,589.8,461.7,590,462.8z"/>
			</g>
			<path class="st53" d="M550.2,454.4c7-4.4,27.3,4,31.2,5.9c0-0.8,0.1-1.6,0.3-2.4c1.4-5.3,6.6-8.5,11.5-7.2c3.7,1,6.3,4.3,6.7,8.2
				c0.5-0.4,1.1-0.6,1.7-0.5c0.3,0,0.5,0.1,0.7,0.2c0.1-0.6,0.2-1.3,0.3-1.9c1.4-5.3,6.6-8.5,11.5-7.2s7.8,6.7,6.4,12
				c-1.4,5.3-6.6,8.5-11.5,7.2c-3.8-1-6.4-4.5-6.7-8.4c-0.1-0.2-0.4-0.5-0.8-0.6c-0.5,0-1,0.4-1.3,0.8c-0.1,0.1-0.1,0.1-0.2,0.1
				c0,0.7-0.1,1.4-0.3,2.2c-1.4,5.3-6.6,8.5-11.5,7.2c-3.7-1-6.3-4.3-6.7-8.1c-2.4-1.2-23.7-10.5-30.5-6.2c-2.3,1.4-3.4,4-3.3,7.8
				c0,0.4-0.3,0.7-0.7,0.7c-0.1,0-0.1,0-0.2,0c-0.3-0.1-0.5-0.3-0.5-0.6C546.1,459,547.5,456,550.2,454.4z M609.4,467.3
				c4.2,1.1,8.7-1.7,9.9-6.3c1.2-4.6-1.2-9.3-5.5-10.4c-4.2-1.1-8.7,1.7-9.9,6.3C602.7,461.5,605.1,466.2,609.4,467.3z M588.4,468.6
				c4.2,1.1,8.7-1.7,9.9-6.3c1.2-4.6-1.2-9.3-5.5-10.4c-4.2-1.1-8.7,1.7-9.9,6.3S584.2,467.4,588.4,468.6z"/>
			<path class="st54" d="M560.5,469.5c0,1.1-0.9,2-2,2s-2-0.9-2-2s0.9-2,2-2S560.5,468.4,560.5,469.5z"/>
		</g>
		<path class="st55" d="M561,510.4c0,0-15.6,2.9-13.6,6.8c1.9,3.9,14.1,32.6,30.6,34.5l6.8-19.5l17.5,17.5c0,0,8.3-23.8,6.3-36.5
			l-13.6-1.9c0,0-4.9,14.6-11.7,14.6C576.5,526,563.9,525,561,510.4z"/>
		<path class="st49" d="M561,507.5c0,0-14.1,2.4-12.2,6.3c1.9,3.9,11.7,30.2,28.2,32.1l6.8-19.5l17.5,17.5c0,0,7.8-19.5,5.8-32.1
			l-14.1-3.4c0,0-2.4,15.1-9.2,15.1C577,523.6,563.9,522.1,561,507.5z"/>
		<path class="st55" d="M649.3,600.1c0,0-68.1,16.5-101.2,2.9c0,0-17.5-2.9-20.4-12.6c0,0,0,22.4,21.4,27.2
			C570.5,622.5,650.2,623.4,649.3,600.1z"/>
		<g>
			<polygon class="st18" points="601.5,692 716.7,681.7 734.1,520.7 613.1,526.9 			"/>
			<path class="st56" d="M734.7,613.6c-0.5,4.8-3.8,8.9-8.5,10.2c-12.8,3.7-36.9,7.7-34.1-14.7c1.7-13.4,16.8-9.4,16.8-9.4
				s-16.7-6.9-7.6-10.1c6.4-2.2,20.6,6.8,28.5,12.5c3.5,2.5,5.3,6.6,4.9,10.8L734.7,613.6z"/>
		</g>
		<g>
			
				<linearGradient id="SVGID_11_" gradientUnits="userSpaceOnUse" x1="5969.3062" y1="-1576.6753" x2="6040.8594" y2="-1379.4678" gradientTransform="matrix(-2.300000e-03 1 1 2.300000e-03 2048.1499 -5342.2744)">
				<stop  offset="0" style="stop-color:#FBB59E"/>
				<stop  offset="1" style="stop-color:#FFEBD1"/>
			</linearGradient>
			<path class="st57" d="M601,727.2c9.6-5.9-15.5-19.1-15.5-19.1s14,5.4,10.4-1.7c-3.4-6.7-28.5-10.3-31.7-10.7l-79.6-46.4
				l18.6-52.8c-1.2-29.1-30.5-13-30.5-13c-10.4,3.9-16.3,43.4-21.5,68.3c-1,4.6,0.5,9.3,3.8,12.6L556.8,708l-0.1,0.1
				C556.6,708.1,587.2,735.6,601,727.2z"/>
			<g>
				<path class="st49" d="M508,526.5c-11.4,13-41.9,50.7-55.6,94.4l38.2,21.2l25.4-51.3c0,0,17.6-42.7,1-63.3
					C514.5,524.6,510.6,523.6,508,526.5z"/>
				<path class="st58" d="M456.4,602l-7,16.6c-0.6,1.3-0.1,2.9,1.2,3.6l38.5,22.7c1.4,0.8,3.2,0.3,4-1.1l9.2-16.1
					c0.8-1.4,0.3-3.2-1.1-4l-40.7-23.1C459,599.8,457.1,600.4,456.4,602z"/>
			</g>
		</g>
	</g>
	<g>
		<g>
			
				<linearGradient id="SVGID_12_" gradientUnits="userSpaceOnUse" x1="1709.8999" y1="954.3398" x2="1847" y2="954.3398" gradientTransform="matrix(1 0 0 -1 0 1355.8898)">
				<stop  offset="5.618000e-03" style="stop-color:#89A1CF"/>
				<stop  offset="1" style="stop-color:#188DFE"/>
			</linearGradient>
			<path class="st59" d="M1847,348.3v106.5c0,8.4-6.8,15.3-15.3,15.3h-106.5c-8.4,0-15.3-6.8-15.3-15.3V348.3
				c0-8.4,6.8-15.3,15.3-15.3h106.5C1840.2,333,1847,339.8,1847,348.3z"/>
			<g>
				<path class="st19" d="M1825.1,343c0,1.1-0.9,2-2,2s-2-0.9-2-2s0.9-2,2-2S1825.1,341.9,1825.1,343z"/>
				<path class="st19" d="M1825.1,349.9c0,1.1-0.9,2-2,2s-2-0.9-2-2s0.9-2,2-2C1824.2,347.8,1825.1,348.7,1825.1,349.9z"/>
				<path class="st19" d="M1830.5,343c0,1.1-0.9,2-2,2s-2-0.9-2-2s0.9-2,2-2S1830.5,341.9,1830.5,343z"/>
				<path class="st19" d="M1830.5,349.9c0,1.1-0.9,2-2,2s-2-0.9-2-2s0.9-2,2-2C1829.6,347.8,1830.5,348.7,1830.5,349.9z"/>
				<path class="st19" d="M1836,343c0,1.1-0.9,2-2,2s-2-0.9-2-2s0.9-2,2-2S1836,341.9,1836,343z"/>
				<path class="st19" d="M1836,349.9c0,1.1-0.9,2-2,2s-2-0.9-2-2s0.9-2,2-2C1835.1,347.8,1836,348.7,1836,349.9z"/>
			</g>
			<g>
				<path class="st2" d="M1716.5,434c-2.2,0-4.4,0.2-6.5,0.7v14.6c2-0.8,4.2-1.3,6.5-1.3c9.7,0,17.5,7.8,17.5,17.5
					c0,1.5-0.2,3.1-0.6,4.5h14.3c0.2-1.5,0.3-3,0.3-4.5C1748,448.1,1733.9,434,1716.5,434z"/>
			</g>
		</g>
		<g>
			<path class="st19" d="M1805.4,438.4h-50c-1.9,0-3.4-1.5-3.4-3.4v-59.5c0-1.9,1.5-3.4,3.4-3.4h50c1.9,0,3.4,1.5,3.4,3.4V435
				C1808.9,436.8,1807.3,438.4,1805.4,438.4z"/>
			<g>
				<g>
					<path class="st60" d="M1761.8,386.8l-2.7-3c-0.4-0.4-0.4-1.1,0-1.5s1.1-0.4,1.5,0l2,2.2l3.1-3.1c0.4-0.4,1.1-0.5,1.5-0.1
						c0.5,0.4,0.5,1.1,0,1.5l-4,4C1762.9,387.2,1762.2,387.2,1761.8,386.8z"/>
				</g>
				<g>
					<path class="st60" d="M1762.9,400.3c-2.2,0-4-1.8-4-4s1.8-4,4-4s4,1.8,4,4C1766.9,398.6,1765.1,400.3,1762.9,400.3z
						 M1762.9,394.3c-1.2,0-2.1,1-2.1,2.1c0,1.2,1,2.1,2.1,2.1s2.1-1,2.1-2.1C1765,395.2,1764.1,394.3,1762.9,394.3z"/>
				</g>
				<path class="st60" d="M1794.6,386.6h-23.4c-0.7,0-1.2-0.5-1.2-1.2l0,0c0-0.7,0.5-1.2,1.2-1.2h23.4c0.7,0,1.2,0.5,1.2,1.2l0,0
					C1795.8,386.1,1795.2,386.6,1794.6,386.6z"/>
				<path class="st60" d="M1788,397.3h-17.4c-0.6,0-1.1-0.5-1.1-1.1v-0.3c0-0.6,0.5-1.1,1.1-1.1h17.4c0.6,0,1.1,0.5,1.1,1.1v0.3
					C1789.1,396.8,1788.6,397.3,1788,397.3z"/>
			</g>
		</g>
	</g>
	<g>
		<g>
			<polygon class="st12" points="1597,963.5 1692.2,544 1463.5,546.2 1356.8,965.9 			"/>
			<path class="st12" d="M1450.3,965l-184.3,1.8c-10.2,0.1-18.6-8.1-18.7-18.3l-0.1-6.2c-0.1-10.2,8.1-18.6,18.3-18.7l184.3-1.8
				L1450.3,965z"/>
			<path class="st15" d="M1692.2,544l-85.4,376.3l-9.8,43.3c0,0-6.4-18.1-10.8-43.1c-6.5-37.2-8.5-89.8,22.2-121.1
				c0,0-9.8-120.8,24.4-151.3C1632.8,648.1,1618.9,544.7,1692.2,544z"/>
			<polygon class="st15" points="1606.9,920.3 1597,963.5 1450.3,965 1449.9,921.8 			"/>
			
				<rect x="1421" y="965.1" transform="matrix(1 -9.674413e-03 9.674413e-03 1 -10.0839 13.9838)" class="st61" width="38.8" height="168.3"/>
			
				<rect x="1331.1" y="1116.2" transform="matrix(1 -9.679049e-03 9.679049e-03 1 -10.8196 13.9805)" class="st62" width="215.8" height="17.3"/>
			<path class="st63" d="M1365.8,1149.2c0.1,8.3-6.6,15.2-15,15.3c-8.3,0.1-15.2-6.6-15.3-15c-0.1-8.3,6.6-15.2,15-15.3
				C1358.9,1134.2,1365.7,1140.9,1365.8,1149.2z"/>
			<path class="st63" d="M1482.3,1148.1c0.1,8.3-6.6,15.2-15,15.3c-8.3,0.1-15.2-6.6-15.3-15c-0.1-8.3,6.6-15.2,15-15.3
				C1475.4,1133,1482.2,1139.7,1482.3,1148.1z"/>
			<path class="st63" d="M1542.7,1147.5c0.1,8.3-6.6,15.2-15,15.3c-8.3,0.1-15.2-6.6-15.3-15c-0.1-8.3,6.6-15.2,15-15.3
				C1535.8,1132.5,1542.6,1139.2,1542.7,1147.5z"/>
			<path class="st64" d="M1420.1,965.3l0.4,45.5c0,0,17.8,4,21.8,19.1c4.5,17.2,17.4,15.3,17.4,15.3l-0.8-80.2L1420.1,965.3z"/>
		</g>
		<g>
			<g>
				
					<linearGradient id="SVGID_13_" gradientUnits="userSpaceOnUse" x1="4159.478" y1="267.1013" x2="4144.6284" y2="211.0789" gradientTransform="matrix(-1 0 0 -1 5547.2891 1355.8898)">
					<stop  offset="0" style="stop-color:#F5E0CD"/>
					<stop  offset="1" style="stop-color:#E1B996"/>
				</linearGradient>
				<polygon class="st65" points="1407.4,1098.5 1417.8,1131.1 1385.2,1141.5 1373.6,1106 				"/>
				<path class="st34" d="M1434.4,1154.3l-93,42.7c0,0-1.1-0.6-1.9-2c-2.3-4-2.9-14.9,26.7-39c5.7-4.6,9.8-11,11.6-18.1l0.9-3.8
					l39.5-10l13.9,26.1L1434.4,1154.3z"/>
				<path class="st35" d="M1434.4,1154.3l-93,42.7c0,0-1.1-0.6-1.9-2l92.7-44.8L1434.4,1154.3z"/>
				<path class="st34" d="M1484.2,918.7l-116.8-1.9l49.8,197.2l-44.8,9.4L1276.6,877l-0.4-1c-8.4-21.7,6.9-45.2,30-46.4
					c0.3,0,0.6,0,0.8,0l184.3-5.5L1484.2,918.7z"/>
				
					<linearGradient id="SVGID_14_" gradientUnits="userSpaceOnUse" x1="4217.0327" y1="234.3889" x2="4239.9814" y2="170.267" gradientTransform="matrix(-1 0 0 -1 5547.2891 1355.8898)">
					<stop  offset="0" style="stop-color:#F5E0CD"/>
					<stop  offset="1" style="stop-color:#E1B996"/>
				</linearGradient>
				<polygon class="st66" points="1341.6,1132.4 1335.7,1166.2 1302,1160.3 1308.1,1123.5 				"/>
				<path class="st34" d="M1339.7,1194.5l-102.2-5.2c0,0-2.1-3.1,0.7-7.4c3.1-5.1,12.9-11.9,40.3-17.5c7.2-1.5,13.8-5.2,18.7-10.7
					l2.6-2.9l39.7,9.5l0.3,27.6L1339.7,1194.5z"/>
				<path class="st35" d="M1339.7,1194.5l-102.2-5.2c0,0-2.1-3.1,0.7-7.4l101.5,5.9V1194.5z"/>
				<path class="st48" d="M1532.2,918.3l-113.8,1.1l-75.7,222.4l-42-5.6l47.9-274.7l2.5-14.3c2-11.6,12-20.2,23.9-20.5l7.2-0.2
					l209-4.7C1591.1,821.8,1591.9,902.7,1532.2,918.3z"/>
				<polygon class="st67" points="1344,887.5 1314.7,974.9 1324.4,1000 				"/>
				<path class="st36" d="M1385.8,839.7c0,13.8-11.2,25-25,25c-4.4,0-8.6-1.2-12.3-3.2l2.5-14.3c2-11.6,12-20.2,23.9-20.5l7.2-0.2
					C1384.5,830.3,1385.8,834.8,1385.8,839.7z"/>
				<path class="st68" d="M1310.8,845.9c0,17.3-14,31.3-31.3,31.3c-1,0-1.9-0.1-2.9-0.1l-0.4-1c-8.4-21.7,6.9-45.2,30-46.4
					C1309.1,834.4,1310.8,840,1310.8,845.9z"/>
			</g>
			<g>
				<path class="st24" d="M1449.9,630.6c11,42.7,11,184.6,11,184.6h129.4c-11-82.6,46.8-187.3,41.3-201.1
					c-3.5-8.7-40-15.2-66.3-18.8c-15.4-2.1-27.3-3.2-27.3-3.2c-5.2-1.8-16.3,0.7-29,4.8c-18.8,6.1-41.2,15.9-53.2,21.5
					C1451.2,620.6,1448.7,625.7,1449.9,630.6z"/>
				<path class="st25" d="M1559.6,589.2c0,0,14.5,10.8,12,12.5s-23.2,34.9-23.2,34.9l-10.8-23.7L1559.6,589.2z"/>
				<path class="st25" d="M1532.4,612.8l-12,20.3l-14.1-31.5c0,0,10.8-12.5,13.3-12.5L1532.4,612.8z"/>
				<path class="st26" d="M1501.5,479c0,2.8,1.4,5.6,1.4,5.6c1.4-4.2,4.2-4.2,4.2-4.2s-1.4,4.2,1.4,5.6s26.1,3.1,26.1,3.1
					c18.9,3,25.5,12.1,27.4,18.9c1.5,2.2,2.5,4.5,3,6.5c0.1,0.5,0.2,0.9,0.3,1.4c1.4,9.7-9.7,36-9.7,36l-51.2-15.2l-1.4-27.2
					c0-0.4-0.2-1-0.6-1.8c-3.2-1.3-5.5-2.8-6.6-4.8C1488.9,490.2,1501.5,479,1501.5,479z"/>
				<path class="st69" d="M1538.4,635.4v123.8l-12.8,24.3l-12.8-21.1c0,0-7.8-75.7,12.8-127l-6-17.4l14.2-8.7l16.1,10.1
					L1538.4,635.4z"/>
				<g>
					<path class="st27" d="M1504.5,536.5l51.2,15.2c0,0,11.1-26.3,9.7-36c-0.1-0.4-0.2-0.9-0.3-1.4c-10.2-0.7-27.3-1.6-30.2,0.6
						C1532.4,516.9,1516.8,527.8,1504.5,536.5z"/>
					<g>
						
							<linearGradient id="SVGID_15_" gradientUnits="userSpaceOnUse" x1="4006.1379" y1="822.9442" x2="4008.709" y2="739.6437" gradientTransform="matrix(-1 0 0 -1 5547.2891 1355.8898)">
							<stop  offset="0" style="stop-color:#F5E0CD"/>
							<stop  offset="1" style="stop-color:#E1B996"/>
						</linearGradient>
						<path class="st70" d="M1555,547.4l3.4,48.7c0.3,3.8-1.9,7.4-5.3,9.1c-9.1,4.3-26.4,9.8-32.1-5.7c-0.9-2.5-1.2-5.3-0.8-7.9
							l6.1-42.7L1555,547.4z"/>
						
							<linearGradient id="SVGID_16_" gradientUnits="userSpaceOnUse" x1="4062.731" y1="814.6349" x2="3986.7581" y2="810.0071" gradientTransform="matrix(-1 0 0 -1 5547.2891 1355.8898)">
							<stop  offset="0" style="stop-color:#F5E0CD"/>
							<stop  offset="1" style="stop-color:#E1B996"/>
						</linearGradient>
						<path class="st71" d="M1504.5,513.4c0,0-15,62.4,20.4,61.9c35.4-0.4,30.2-28.5,30.2-28.5s10.1-2.2,7.2-11.8
							c-2.1-6.8-8.4-2.3-11.8,0.8c-0.8,0.8-2.2,0.1-2.2-1c0.1-6.8-0.8-21.9-11.2-22C1523.8,512.8,1517.6,511.6,1504.5,513.4z"/>
						<g>
							<path class="st52" d="M1513.7,552.2c-1.2-0.2-2.2-0.7-2.9-1.5c-2.1-2.7-0.2-7.7-0.1-7.9c0.1-0.3,0.5-0.5,0.8-0.3
								c0.3,0.1,0.5,0.5,0.3,0.8c0,0-1.8,4.6-0.1,6.7c0.8,1,2.2,1.3,4.3,1c0.3,0,0.6,0.2,0.7,0.5c0,0.3-0.2,0.6-0.5,0.7
								C1515.3,552.3,1514.4,552.3,1513.7,552.2z"/>
						</g>
						<g>
							<path class="st52" d="M1518,563.4C1517.9,563.4,1517.9,563.4,1518,563.4c-2.7-0.4-4.2-2.6-4.2-2.7c-0.2-0.3-0.1-0.7,0.2-0.8
								c0.3-0.2,0.7-0.1,0.8,0.2c0,0,1.2,1.8,3.4,2.1l0,0c1.7,0.2,3.5-0.5,5.4-2.1c0.3-0.2,0.6-0.2,0.8,0.1c0.2,0.3,0.2,0.6-0.1,0.8
								C1522.1,562.9,1520,563.7,1518,563.4z"/>
						</g>
						<path class="st52" d="M1508.3,538.3c-0.1,1-0.8,1.7-1.4,1.6c-0.7-0.1-1.1-1-0.9-2c0.1-1,0.8-1.7,1.4-1.6
							S1508.4,537.3,1508.3,538.3z"/>
						<path class="st52" d="M1526.3,540.2c-0.1,1-0.8,1.7-1.4,1.6c-0.7-0.1-1.1-1-0.9-2c0.1-1,0.8-1.7,1.4-1.6
							C1526,538.4,1526.4,539.3,1526.3,540.2z"/>
					</g>
				</g>
				<path class="st31" d="M1559.6,585.6c0,0,14.5,10.8,12,12.5s-23.2,34.9-23.2,34.9l-10.8-23.7L1559.6,585.6z"/>
				<path class="st31" d="M1533.5,609.3l-12,20.3l-14.1-31.5c0,0,10.8-12.5,13.3-12.5L1533.5,609.3z"/>
				<g>
					
						<linearGradient id="SVGID_17_" gradientUnits="userSpaceOnUse" x1="-3899.5115" y1="-1629.682" x2="-3888.0569" y2="-1575.2728" gradientTransform="matrix(0.7209 0.6931 0.6931 -0.7209 5273.355 2156.634)">
						<stop  offset="0" style="stop-color:#F5E0CD"/>
						<stop  offset="1" style="stop-color:#E1B996"/>
					</linearGradient>
					<path class="st72" d="M1360.1,641.9c0,0-20.9-16.2-19.4-43.6c1.5-27.1,20.4,14.3,20.4,14.3s-4.5-15.3,2.8-10.9
						c7.2,4.5,7.5,32.7,7.5,32.7L1360.1,641.9z"/>
					<path class="st24" d="M1453.1,621.2c-0.1-0.1-0.3-0.1-0.4,0.1l-50.1,91.8c-0.1,0.2-0.4,0.2-0.5,0l-28.5-79.5
						c-0.3-0.9-1.4-1.4-2.3-1l-14.5,6.9c-0.7,0.3-1.1,1.1-0.9,1.8c2.2,13.1,21.1,125.5,21.1,125.5c2.1,13.4,19.4,17.4,27.2,6.4
						l60.3-78.5C1464.4,694.7,1474.8,640.7,1453.1,621.2z"/>
				</g>
				<path class="st20" d="M1449.9,630.6c11,42.7,11,184.6,11,184.6h129.4c-11-82.6,46.8-187.3,41.3-201.1
					c-3.5-8.7-32.4-14.1-58.8-17.7c-4.7,20.1-10.5,92.6-49.6,120.6c-26.7-26-18.2-106.4-16.3-119.5c-18.8,6.1-39.1,15.3-51.1,20.8
					C1451.2,620.6,1448.7,625.7,1449.9,630.6z"/>
			</g>
			<g>
				<path class="st73" d="M1460.9,826c43.8,1.6,87.5,1.7,131.3,0v-12.6c-43.8,0-87.5,0-131.3,0V826z"/>
				<rect x="1505.5" y="813.3" class="st38" width="22.1" height="13.9"/>
				<rect x="1572.3" y="813.3" class="st39" width="4.3" height="13.2"/>
				<rect x="1550.5" y="813.3" class="st39" width="4.3" height="14"/>
				<rect x="1490.5" y="813.3" class="st39" width="4.3" height="14"/>
				<rect x="1470.4" y="813.3" class="st39" width="4.3" height="14"/>
			</g>
		</g>
		<g>
			<g>
				
					<rect x="937.7" y="783.9" transform="matrix(1 -2.062784e-03 2.062784e-03 1 -1.6428 2.6245)" class="st74" width="667.6" height="27.6"/>
				
					<rect x="1605.3" y="783" transform="matrix(1 -2.061386e-03 2.061386e-03 1 -1.6389 3.5339)" class="st75" width="216.4" height="27.6"/>
				<polygon class="st76" points="1637.4,810.4 1630.7,841.5 1559,1177.8 1557.8,1183.5 1551.7,1212.3 1534.5,1214.8 1540.1,1185.9 
					1541.2,1180.2 1606.1,841.8 1612.1,810.4 				"/>
				<polygon class="st76" points="1861.7,1201.7 1847.9,1201.7 1842.5,1178.7 1841.5,1174.1 1765.8,847.4 1757.3,810.6 
					1783.2,810.5 1790.6,847.3 1856.1,1174.1 1857.1,1178.7 				"/>
				<polygon class="st77" points="1612.1,810.4 1637.4,810.4 1630.7,841.5 1606.1,841.8 				"/>
				<polygon class="st77" points="1790.6,847.3 1765.8,847.4 1757.3,810.6 1783.2,810.5 				"/>
				<polygon class="st78" points="1542.4,1174.3 1560,1174.3 1558.7,1178.9 1541.3,1178.9 				"/>
				<polygon class="st78" points="1857.1,1178.7 1842.5,1178.7 1841.5,1174.1 1856.1,1174.1 				"/>
				<polygon class="st76" points="984.8,811.9 978.2,843 906.4,1179.3 905.2,1185 899.1,1213.8 881.9,1216.3 887.5,1187.4 
					888.6,1181.7 953.5,843.3 959.6,811.9 				"/>
				<polygon class="st76" points="1209.1,1203.2 1195.3,1203.2 1189.9,1180.2 1188.9,1175.6 1113.2,848.9 1104.7,812.1 1130.6,812 
					1138,848.8 1203.6,1175.6 1204.5,1180.2 				"/>
				<polygon class="st77" points="959.6,811.9 984.8,811.9 978.2,843 953.5,843.3 				"/>
				<polygon class="st77" points="1138,848.8 1113.2,848.9 1104.7,812.1 1130.6,812 				"/>
				<polygon class="st78" points="889.8,1176.6 907.4,1176.6 906.1,1181.2 888.7,1181.2 				"/>
				<polygon class="st78" points="1204.5,1181 1189.9,1181 1188.9,1176.4 1203.6,1176.4 				"/>
			</g>
			<g>
				<g>
					<path class="st79" d="M1128.9,667.8c0,0,9.6,27.1,13.9,43.6l3.8,0.2c0,0-9.9-41-16-45.4L1128.9,667.8z"/>
					<path class="st80" d="M1122.6,674.6c11.4,4.6,18.5,13.9,15.7,20.9s-14.3,8.9-25.7,4.4c-11.4-4.6-18.5-13.9-15.7-20.9
						S1111.2,670.1,1122.6,674.6z"/>
					<path class="st79" d="M1142.4,634.9c0,0,5,59.7-0.1,77.2l5-0.5c0,0,5.1-71.4-3-77.5L1142.4,634.9z"/>
					<polygon class="st79" points="1145.9,687.2 1155.2,673.7 1156.8,676.7 1146.3,690.3 					"/>
					<path class="st79" d="M1146.5,692.8c0,0,5.8-5,8.9-4.7l-0.2,3.8c0,0-7.9,2.1-8.4,3.4C1146.3,696.6,1146.5,692.8,1146.5,692.8z"
						/>
					<path class="st80" d="M1129.4,646c7.8,7.9,10.1,18.1,5.3,22.9c-4.8,4.7-15,2.2-22.8-5.7s-10.1-18.1-5.3-22.9
						C1111.4,635.5,1121.6,638.1,1129.4,646z"/>
					<path class="st80" d="M1142.1,613.7c6.8,10,7.4,21.5,1.3,25.7s-16.6-0.6-23.4-10.6s-7.4-21.5-1.3-25.7
						C1124.8,598.9,1135.3,603.6,1142.1,613.7z"/>
					<path class="st80" d="M1162.5,623.1c12.2-6.4,25.2-5.6,29.1,1.8c3.9,7.4-2.8,18.6-14.9,25s-25.2,5.6-29.1-1.8
						S1150.4,629.5,1162.5,623.1z"/>
					<path class="st80" d="M1164,656.4c9.5-5.3,19.8-4.9,23,0.8c3.2,5.8-1.8,14.8-11.3,20.1s-19.8,4.9-23-0.8
						C1149.5,670.7,1154.5,661.7,1164,656.4z"/>
					<path class="st80" d="M1169.2,682.1c9.8,0.6,17.4,5.8,17.1,11.8s-8.5,10.3-18.3,9.8c-9.8-0.6-17.4-5.8-17.1-11.8
						C1151.2,685.9,1159.4,681.5,1169.2,682.1z"/>
					<path class="st79" d="M1142.9,639.8c0,0-11.5-25.1-20.5-30.1c0,0,17.6,8.2,23.4,27.9L1142.9,639.8z"/>
					<path class="st79" d="M1147.3,649.4c0,0,22-16.7,32.3-16.8c0,0-19.6-1.3-34.1,13.2L1147.3,649.4z"/>
					<path class="st79" d="M1154.5,679.4c0,0,16-16.7,24.4-18.2c0,0-15.9,2.6-25.9,16.5L1154.5,679.4z"/>
					<path class="st79" d="M1150.3,692.7c0,0,22.7-4.6,30.5-1c0,0-14.5-7-30.7-1.2L1150.3,692.7z"/>
					<path class="st79" d="M1138.5,695.8c0,0-20.6-10.6-29.1-9.2c0,0,15.9-2.8,29.8,7.1L1138.5,695.8z"/>
					<path class="st79" d="M1130.3,671.9c0,0-8.6-21.4-15.9-25.8c0,0,14.7,8,19,24.5L1130.3,671.9z"/>
				</g>
				<g>
					<path class="st7" d="M1109.1,784.5h64.9c11.4-8.9,14.5-54.3,15.2-70.2c0.1-3-2.3-5.5-5.2-5.5h-79.7c-2.6,0-4.8,1.9-5.2,4.4
						C1095.1,742.6,1109.1,784.5,1109.1,784.5z"/>
					<path class="st12" d="M1109.1,784.5h15.8c-11.6-31.2-7.4-62.7-4.8-75.7h-15.8c-2.6,0-4.8,1.9-5.2,4.4
						C1095.1,742.6,1109.1,784.5,1109.1,784.5z"/>
				</g>
			</g>
			<g>
				<path class="st18" d="M1224.5,783.4h169.8v-13.1h-182.9l0,0C1211.4,777.6,1217.2,783.4,1224.5,783.4z"/>
				<path class="st18" d="M1394.3,783.4h112.6c4.1,0,7.4-3.3,7.4-7.4v-2.8c0-1.6-1.3-2.9-2.9-2.9h-117.1V783.4z"/>
				<path class="st18" d="M1341.2,624.8H1171c-4,0-6.8,3.9-5.6,7.7l45.9,137.8h182.9l-42.1-137.5
					C1350.7,628.1,1346.3,624.8,1341.2,624.8z"/>
				<path class="st81" d="M1252.7,697.2c0,9.4,7.9,17.5,18.1,18.1c11,0.6,20.5-7.5,20.5-18.1c0-10.7-9.5-18.8-20.5-18.1
					C1260.5,679.7,1252.7,687.8,1252.7,697.2z"/>
			</g>
		</g>
		<g>
			
				<linearGradient id="SVGID_18_" gradientUnits="userSpaceOnUse" x1="-6780.3477" y1="452.3594" x2="-6769.1997" y2="505.3114" gradientTransform="matrix(0.939 -0.3439 -0.3439 -0.939 8017.1313 -1109.6838)">
				<stop  offset="0" style="stop-color:#F5E0CD"/>
				<stop  offset="1" style="stop-color:#E1B996"/>
			</linearGradient>
			<path class="st82" d="M1518,779c0,0-23.1,11.4-46.4-1.6c-23.1-12.9,21.3-11.7,21.3-11.7s-15.3-2.6-8.3-7.1
				c7-4.4,31.8,7.4,31.8,7.4L1518,779z"/>
			<path class="st24" d="M1628.9,612.5c-4.1,6.1-18.1,51.5-24.8,85l8.3,57.1l-101.6,7.9l2.9,21.1l123.8-0.5c6.3,0,12.2-3.5,15.2-9.1
				c1.7-3.2,2.8-6.6,2.6-9.4c-1.8-32.3-8.9-144.2-24.2-152.6C1630.3,611.4,1629.3,611.8,1628.9,612.5z"/>
		</g>
		<g>
			
				<rect x="1529.6" y="732.7" transform="matrix(1 -9.688826e-03 9.688826e-03 1 -7.2728 15.0312)" class="st15" width="36.3" height="50.8"/>
			<g>
				<path class="st15" d="M1565.4,777.9c-10.7,0.1-19.5-8.5-19.7-19.3s8.5-19.5,19.3-19.7c10.7-0.1,19.5,8.5,19.7,19.3
					C1584.8,768.9,1576.2,777.8,1565.4,777.9z M1565.1,742.2c-8.9,0.1-16.1,7.4-16.1,16.4c0.1,8.9,7.4,16.1,16.4,16.1
					c8.9-0.1,16.1-7.4,16.1-16.4C1581.4,749.3,1574,742.1,1565.1,742.2z"/>
			</g>
		</g>
	</g>
	<g>
		<path class="st3" d="M1862.1,1142.4c0,0-43.6-13.6-76.8-0.2C1785.3,1142.2,1822.9,1154.4,1862.1,1142.4z"/>
		<path class="st6" d="M1792.5,997.9c0,0-16.8,43.9-63.7,28.6c0,0-9.8,1.5-9.9,6c0,4.5-12.8-19,16-34.8s59.9-16.5,62.9-8.9
			s10.3,127.2,8.7,158.3h-5.3C1801.3,1147.1,1800.1,996.4,1792.5,997.9z"/>
		<path class="st6" d="M1803.8,965.3c-8.1,4.8-30.7,13.1-56.2-22.7c-0.6-0.9-1.9-1.1-2.8-0.6c-1.5,1-3.9,2.5-6.2,4.2
			c-1.7,1.3-4-0.6-3.2-2.5c3.5-8,11.3-19.1,27-17.1c24.2,3.1,49.9,21.3,50.7,32.7c0.7,10.3-0.3,177.7-0.4,190.3c0,1.2-1,2.1-2.1,2.1
			h-1.9c-1.2,0-2.1-0.9-2.1-2.1l0.4-182.4C1807,965.5,1805.2,964.5,1803.8,965.3z"/>
		<path class="st6" d="M1909.3,922.5c-3.4,4.5-7,4.7-9.8,3.8c-3.2-1.1-6.7,0.1-8.7,2.8c-7.9,10.7-25.8,32-39.5,26.2
			c-6.5-2.7-11.4-5.1-15.1-6.7c-6.5-3-9.2-3.8-10.7-0.9c-2.3,4.5-2.7,199.9-2.7,199.9l-6.4-0.4l0.5-204.4c0,0,1.5-10.6,14.4-13.6
			s41-29.4,48.5-29.4c3.6,0,11.8,3.1,18.9,7.2C1906.6,911.6,1912.9,917.7,1909.3,922.5z"/>
		<path class="st5" d="M1909.3,922.5c-3.4,4.5-7,4.7-9.8,3.8c-3.2-1.1-6.7,0.1-8.7,2.8c-7.9,10.7-25.8,32-39.5,26.2
			c-6.5-2.7-11.4-5.1-15.1-6.7c9,0.8,23.1,1,27.2-4.6c5.3-7.3,16.6-35.2,35.2-37C1906.6,911.6,1912.9,917.7,1909.3,922.5z"/>
		<path class="st6" d="M1879.2,1022.5c-1.1,0.8-2.6,0.4-3.2-0.8c-0.5-1.1-0.8-2.7-0.5-5.1c0.3-2-0.3-4-1.5-5.6
			c-3.6-4.8-10.9-15.2-13.1-23.9c-0.1-0.2-0.1-0.4-0.1-0.6c-0.3-1.1-1.6-1.6-2.5-0.9c-2.1,1.6-5,4.4-5.5,6.8
			c-0.8,3.8-12.5,151.4-12.5,151.4l-6.4,0.4c0,0,14-152.2,14-156s-15.8-35.6,22-17.4c0,0,12.9-4.5,18.9,8.4c0.6,1.3,1.1,2.7,1.5,4.1
			C1893.5,996.1,1889.1,1015.4,1879.2,1022.5z"/>
		<path class="st5" d="M1898.4,906.9c-0.8-0.2-1.7-0.3-2.5-0.3h-1.3c-0.4,0-0.9,0-1.3,0.1c-0.4,0-0.9,0-1.3,0.1l-1.3,0.2l-1.3,0.2
			c-0.4,0.1-0.8,0.2-1.3,0.2c-0.8,0.2-1.7,0.3-2.5,0.5l-2.5,0.6l-1.2,0.3c-0.4,0.1-0.8,0.3-1.2,0.4l-2.5,0.8
			c-6.5,2.2-12.8,5-18.9,8.1c-1.5,0.8-3,1.6-4.5,2.4c-1.5,0.8-3.1,1.6-4.5,2.5l-4.4,2.6c-1.5,0.9-3,1.7-4.4,2.7l-4.4,2.8
			c-1.4,0.9-2.9,1.8-4.3,2.8l-8.6,5.7l8.4-6c1.4-1,2.8-1.9,4.3-2.9l4.3-2.8c0.7-0.5,1.4-1,2.2-1.4l2.2-1.3l4.4-2.7
			c1.5-0.9,3-1.7,4.5-2.5s3-1.7,4.6-2.5c3.1-1.5,6.2-3.1,9.4-4.3c1.6-0.7,3.2-1.4,4.8-1.9l2.4-0.9l1.2-0.4c0.4-0.1,0.8-0.2,1.2-0.4
			l2.5-0.7c0.4-0.1,0.8-0.2,1.2-0.4l1.3-0.3l2.5-0.6c0.8-0.2,1.7-0.3,2.6-0.4c0.4-0.1,0.9-0.1,1.3-0.2l1.3-0.1l1.3-0.1
			c0.4,0,0.9,0,1.3,0s0.9,0,1.3,0l1.3,0.1C1896.7,906.6,1897.5,906.7,1898.4,906.9z"/>
		<path class="st5" d="M1879.2,1022.5c-1.1,0.8-2.6,0.4-3.2-0.8c-0.5-1.1-0.8-2.7-0.5-5.1c0.3-2-0.3-4-1.5-5.6
			c-3.6-4.8-10.9-15.2-13.1-23.9c2.1,0.3,8.8,3.1,16.1-2.2c5.3-3.8,10.3-2.8,13.2-1.5C1893.5,996.1,1889.1,1015.4,1879.2,1022.5z"/>
		<path class="st6" d="M1823,926.8c0,0-40.9-7.7-46.1-55.4c0,0,2.3-3-5.3,0c-7.6,3-3.8-8.3,0-10.6s12.9-11.3,18.9-8.3
			c6.1,3,25.7,22.8,25.7,22.8s13.6,19,13.6,22.7c0,3.8-0.1,28.8-0.1,28.8s9.7,50.8,6.7,68.9c-3.1,18.2-7.2,150.7-4.1,159h-6.1
			c0,0,1.8-147.6,3.4-155.2C1831.2,992,1831.3,946.5,1823,926.8z"/>
		<path class="st5" d="M1718.8,1033.2c-0.2-1.9,0-3.8,0.4-5.7c0.4-1.9,1-3.7,1.8-5.4c1.6-3.5,3.9-6.6,6.6-9.3
			c5.4-5.5,12.2-9.3,19.1-12.4c7-3,14.4-5.1,21.8-6.7c7.5-1.6,15-2.6,22.6-3.3l-5.6,0.8c-1.9,0.2-3.8,0.6-5.6,0.9
			c-1.9,0.3-3.7,0.6-5.6,1l-2.8,0.5l-2.8,0.6c-7.4,1.7-14.7,3.8-21.7,6.8c-3.5,1.5-6.9,3.2-10.1,5.2s-6.2,4.3-8.9,6.9
			c-2.7,2.7-5,5.7-6.6,9.1C1719.6,1025.6,1718.6,1029.4,1718.8,1033.2z"/>
		<path class="st5" d="M1735.8,946c1.1-1.3,2.3-2.5,3.6-3.6c1.3-1.1,2.7-2.1,4.2-3c2.9-1.8,6.1-3.1,9.5-3.9
			c3.3-0.8,6.8-1.1,10.2-0.9c3.4,0.2,6.8,0.8,10.1,1.7c6.5,2,12.7,5.1,18.4,8.9c5.7,3.8,10.9,8.2,15.7,13l-3.8-3.3
			c-1.3-1.1-2.6-2.1-4-3.2c-2.7-2.1-5.4-4.1-8.3-5.9c-5.7-3.7-11.8-6.8-18.2-8.7c-3.2-0.9-6.6-1.6-9.9-1.7c-3.4-0.2-6.7,0.1-10,0.8
			s-6.5,1.9-9.4,3.6C1740.8,941.4,1738,943.4,1735.8,946z"/>
		<path class="st5" d="M1869.5,970.5c-1,0.3-2,0.7-2.9,1.1c-1,0.4-1.9,0.8-2.8,1.3c-1.8,1-3.5,2.1-5.1,3.4c-1.6,1.3-2.9,2.8-4.1,4.5
			l-0.8,1.3l-0.7,1.4c-0.1,0.2-0.2,0.5-0.3,0.7l-0.3,0.7c-0.2,0.5-0.4,1-0.5,1.5c0.4-2,1-4.1,2.2-5.8c1.1-1.8,2.4-3.4,4.1-4.8
			c1.6-1.3,3.4-2.5,5.3-3.4C1865.4,971.5,1867.4,970.8,1869.5,970.5z"/>
		<path class="st5" d="M1767.5,871c1-1.3,2.2-2.5,3.4-3.6c1.3-1.1,2.7-2,4.2-2.8c3-1.5,6.3-2.4,9.7-2.5c3.4-0.1,6.7,0.5,9.9,1.7
			c3.1,1.1,6.1,2.7,8.9,4.6c2.7,1.9,5.4,4,7.8,6.2c0.6,0.6,1.2,1.1,1.8,1.7l1.7,1.8c0.6,0.6,1.2,1.2,1.7,1.8l1.7,1.9
			c4.4,5,8.3,10.4,12,15.9c-2-2.7-3.9-5.4-6-7.9l-1.5-2l-1.6-1.9l-1.6-1.9c-0.5-0.6-1.1-1.2-1.7-1.8c-4.5-4.9-9.3-9.5-14.8-13.1
			c-2.7-1.8-5.7-3.4-8.7-4.5c-3.1-1.1-6.3-1.8-9.6-1.7C1778.1,862.7,1771.7,866,1767.5,871z"/>
		<path class="st12" d="M1789.7,1216l63.2,0.1c11.2-8.6,14.3-52.9,15-68.4c0.1-2.9-2.2-5.3-5.1-5.3l-77.7-0.2
			c-2.5,0-4.7,1.8-5.1,4.3C1776.2,1175.1,1789.7,1216,1789.7,1216z"/>
		<path class="st15" d="M1789.7,1216h15.4c-11.3-30.5-7.1-61.1-4.6-73.8h-15.4c-2.5,0-4.7,1.8-5.1,4.3
			C1776.2,1175.1,1789.7,1216,1789.7,1216z"/>
	</g>
	<g>
		
			<linearGradient id="SVGID_19_" gradientUnits="userSpaceOnUse" x1="628.9" y1="1136.8398" x2="757" y2="1136.8398" gradientTransform="matrix(1 0 0 -1 0 1355.8898)">
			<stop  offset="5.618000e-03" style="stop-color:#89A1CF"/>
			<stop  offset="1" style="stop-color:#188DFE"/>
		</linearGradient>
		<path class="st83" d="M757,169.3v99.5c0,7.9-6.4,14.3-14.3,14.3h-99.5c-7.9,0-14.3-6.4-14.3-14.3v-99.5c0-7.9,6.4-14.3,14.3-14.3
			h99.5C750.6,155,757,161.4,757,169.3z"/>
		<g>
			<path class="st19" d="M736.5,164.4c0,1.1-0.9,1.9-1.9,1.9c-1.1,0-1.9-0.9-1.9-1.9c0-1.1,0.9-1.9,1.9-1.9
				C735.7,162.5,736.5,163.3,736.5,164.4z"/>
			<circle class="st19" cx="734.6" cy="170.8" r="1.9"/>
			<path class="st19" d="M741.6,164.4c0,1.1-0.9,1.9-1.9,1.9c-1.1,0-1.9-0.9-1.9-1.9c0-1.1,0.9-1.9,1.9-1.9
				C740.8,162.5,741.6,163.3,741.6,164.4z"/>
			<circle class="st19" cx="739.7" cy="170.8" r="1.9"/>
			<path class="st19" d="M746.7,164.4c0,1.1-0.9,1.9-1.9,1.9c-1.1,0-1.9-0.9-1.9-1.9c0-1.1,0.9-1.9,1.9-1.9
				C745.9,162.5,746.7,163.3,746.7,164.4z"/>
			<path class="st19" d="M746.7,170.8c0,1.1-0.9,1.9-1.9,1.9c-1.1,0-1.9-0.9-1.9-1.9s0.9-1.9,1.9-1.9
				C745.9,168.8,746.7,169.7,746.7,170.8z"/>
		</g>
		<g>
			<path class="st2" d="M635.1,249.4c-2.1,0-4.1,0.2-6.1,0.6v13.6c1.9-0.8,3.9-1.2,6.1-1.2c9,0,16.4,7.3,16.4,16.4
				c0,1.4-0.2,2.9-0.6,4.2h13.3c0.2-1.4,0.3-2.8,0.3-4.2C664.5,262.6,651.3,249.4,635.1,249.4z"/>
		</g>
		<g>
			<path class="st19" d="M675.3,208.5l13.5-2.8c4.8-1,8.8-4.5,10.4-9.2c2.5-7.4,6.6-14.2,10.6-12.8c11.2,3.9-0.1,19.5-0.1,19.5
				s17.9-3.9,23.3,13.4c2.1,6.9-1.4,13.8-5,17.9c-5.4,6.3-12.4,8.1-20.7,7.1l-32.3-3.3L675.3,208.5z"/>
			<path class="st19" d="M662.2,208.7l10.9,0.4l-0.9,29.2l-9.3,0.2c-2.1-0.1-4.2-1-4.3-3.1l-0.5-22.7
				C658,210.4,659.9,208.6,662.2,208.7z"/>
		</g>
	</g>
	<g>
		<g>
			
				<linearGradient id="SVGID_20_" gradientUnits="userSpaceOnUse" x1="369.8" y1="1002.6398" x2="500.7" y2="1002.6398" gradientTransform="matrix(1 0 0 -1 0 1355.8898)">
				<stop  offset="5.618000e-03" style="stop-color:#89A1CF"/>
				<stop  offset="1" style="stop-color:#188DFE"/>
			</linearGradient>
			<path class="st84" d="M500.7,302.4v101.7c0,8.1-6.5,14.6-14.6,14.6H384.4c-8.1,0-14.6-6.5-14.6-14.6V302.4
				c0-8.1,6.5-14.6,14.6-14.6h101.7C494.2,287.8,500.7,294.3,500.7,302.4z"/>
			<g>
				<path class="st19" d="M479.8,297.4c0,1.1-0.9,2-2,2s-2-0.9-2-2s0.9-2,2-2S479.8,296.3,479.8,297.4z"/>
				<path class="st19" d="M479.8,303.9c0,1.1-0.9,2-2,2s-2-0.9-2-2s0.9-2,2-2C478.9,302,479.8,302.8,479.8,303.9z"/>
				<path class="st19" d="M485,297.4c0,1.1-0.9,2-2,2s-2-0.9-2-2s0.9-2,2-2S485,296.3,485,297.4z"/>
				<path class="st19" d="M485,303.9c0,1.1-0.9,2-2,2s-2-0.9-2-2s0.9-2,2-2C484.1,302,485,302.8,485,303.9z"/>
				<path class="st19" d="M490.2,297.4c0,1.1-0.9,2-2,2s-2-0.9-2-2s0.9-2,2-2C489.3,295.4,490.2,296.3,490.2,297.4z"/>
				<path class="st19" d="M490.2,303.9c0,1.1-0.9,2-2,2s-2-0.9-2-2s0.9-2,2-2C489.3,302,490.2,302.8,490.2,303.9z"/>
			</g>
			<g>
				<path class="st2" d="M376,384.3c-2.1,0-4.2,0.2-6.2,0.6v13.9c1.9-0.8,4-1.2,6.2-1.2c9.2,0,16.7,7.5,16.7,16.7
					c0,1.5-0.2,2.9-0.6,4.3h13.6c0.2-1.4,0.3-2.8,0.3-4.3C406.1,397.8,392.6,384.3,376,384.3z"/>
			</g>
		</g>
		<path class="st19" d="M451.1,333.8c5,0,9-4,9-9s-4-9-9-9s-9,4-9,9c0,1.2,0.2,2.2,0.6,3.3l-28.1,17.7c-1.6-1.7-4-2.8-6.5-2.8
			c-5,0-9,4-9,9s4,9,9,9c2.2,0,4.2-0.8,5.8-2.1l26.2,21.1c-0.7,1.3-1,2.7-1,4.2c0,5,4,9,9,9s9-4,9-9s-4-9-9-9
			c-2.2,0-4.2,0.8-5.8,2.1L416,356.1c0.7-1.3,1-2.7,1-4.2c0-1.2-0.2-2.3-0.6-3.3l28.1-17.7C446.2,332.7,448.5,333.8,451.1,333.8z"/>
	</g>
</g>
<g id="Layer_4" class="st85">
</g>
</svg>
